<svg width="24" height="16" viewBox="0 0 24 16" fill="none" xmlns="http://www.w3.org/2000/svg">
<path d="M12.4982 0.775391C14.7172 0.784498 17.0448 1.63149 19.1721 3.17065C20.8489 4.38195 22.2504 5.912 23.4601 7.66064C23.7103 8.02494 23.727 8.50763 23.4768 8.87193C21.7082 11.4311 19.5725 13.4985 16.8362 14.7462C15.0509 15.5568 13.1822 15.9029 11.2551 15.739C9.13617 15.5659 7.20073 14.8009 5.41546 13.5714C3.62184 12.3419 2.14524 10.7481 0.868849 8.90836C0.601892 8.52585 0.585207 8.04315 0.843821 7.66974C2.44556 5.33823 4.36431 3.41656 6.79195 2.14151C8.51883 1.23076 10.3208 0.775391 12.4982 0.775391ZM12.1394 3.07047C9.51992 3.07047 7.38426 5.40198 7.38426 8.25262C7.38426 11.1397 9.51992 13.4803 12.1561 13.4803C14.7756 13.4803 16.9196 11.1397 16.9196 8.27994C16.9196 5.40198 14.784 3.07047 12.1394 3.07047Z" fill="#C2C2C2"/>
<path d="M15.0675 8.26969C15.0675 10.0365 13.7577 11.4573 12.1309 11.4482C10.5209 11.4391 9.22778 10.0183 9.23612 8.26058C9.23612 6.49373 10.5375 5.07297 12.156 5.08207C13.7744 5.09118 15.0758 6.50284 15.0675 8.26969Z" fill="#C2C2C2"/>
</svg>
