<svg xmlns="http://www.w3.org/2000/svg" width="104" height="32" viewBox="0 0 104 32" fill="none">
  <path d="M15.3045 25.5764C15.7751 25.8174 16.1339 26.1583 16.3868 26.5992C16.6397 27.046 16.7691 27.5633 16.7691 28.157C16.7691 28.7507 16.6397 29.268 16.3868 29.703C16.1339 30.138 15.7692 30.4731 15.3045 30.7082C14.8398 30.9433 14.2928 31.055 13.6693 31.055H11.7576V25.2119H13.6693C14.2928 25.2119 14.8398 25.3295 15.3045 25.5705V25.5764ZM15.2398 29.7265C15.6045 29.3562 15.7868 28.833 15.7868 28.1629C15.7868 27.4927 15.6045 26.9578 15.2398 26.5757C14.8751 26.1936 14.3516 26.0055 13.6693 26.0055H12.7164V30.285H13.6693C14.3516 30.285 14.8751 30.1027 15.2398 29.7324V29.7265Z" fill="white"/>
  <path d="M35.7334 31.0599L34.3864 28.7203H33.657V31.0599H32.6982V25.2168H34.7158C35.1628 25.2168 35.5452 25.2932 35.8569 25.4519C36.1687 25.6106 36.3981 25.8164 36.5569 26.0809C36.7098 26.3454 36.7863 26.6394 36.7863 26.9627C36.7863 27.3448 36.6746 27.6916 36.451 28.0032C36.2275 28.3147 35.8863 28.5263 35.4275 28.638L36.8745 31.0599H35.7334ZM33.657 27.9561H34.7158C35.0746 27.9561 35.3452 27.8679 35.5275 27.6857C35.7099 27.5094 35.7981 27.2625 35.7981 26.9627C35.7981 26.6629 35.7099 26.4219 35.5275 26.2514C35.3452 26.0809 35.0746 25.9927 34.7099 25.9927H33.6511V27.9502L33.657 27.9561Z" fill="white"/>
  <path d="M53.939 25.2227V31.0658H52.9802V25.2227H53.939Z" fill="white"/>
  <path d="M75.2147 25.2227L73.0206 31.0658H71.9089L69.7031 25.2227H70.7325L72.4677 30.0841L74.2088 25.2227H75.2206H75.2147Z" fill="white"/>
  <path d="M91.9427 25.9927V27.7092H93.9602V28.4911H91.9427V30.284H94.2132V31.0658H90.9839V25.2168H94.2132V25.9986H91.9427V25.9927Z" fill="white"/>
  <path d="M21.339 9.95156C21.339 8.76412 21.1272 7.64723 20.7096 6.60675C20.692 6.55973 20.6743 6.51858 20.6567 6.47155C20.6449 6.44804 20.639 6.4304 20.6273 6.40689C20.1743 5.34878 19.5097 4.37884 18.6156 3.49121C17.7333 2.60945 16.7745 1.95107 15.7275 1.49843C15.6922 1.4808 15.6569 1.46904 15.6275 1.45141C15.5922 1.43965 15.5569 1.42201 15.5216 1.41026C14.4746 0.987013 13.3452 0.775391 12.1511 0.775391C12.1335 0.775391 12.1158 0.775391 12.0982 0.775391C12.0806 0.775391 12.0629 0.775391 12.0453 0.775391C9.90417 0.775391 8.0866 1.38674 6.51607 2.63884L6.49255 2.68587C6.18079 2.93276 5.87492 3.19729 5.58082 3.49709C3.77501 5.30175 2.86328 7.47676 2.86328 9.95744C2.86328 9.99271 2.86328 10.0221 2.86328 10.0574C2.86328 11.2507 3.07504 12.3676 3.49267 13.4081C3.51031 13.4551 3.52796 13.4962 3.54561 13.5433C3.55737 13.5668 3.56325 13.5844 3.57502 13.6079C4.02794 14.666 4.69262 15.6301 5.5867 16.5236C6.46902 17.4054 7.4278 18.0637 8.46894 18.5164C8.50423 18.534 8.53952 18.5458 8.57481 18.5634C8.61011 18.5752 8.6454 18.5869 8.67481 18.6045C9.72183 19.0278 10.8512 19.2453 12.0511 19.2453C12.0688 19.2453 12.0864 19.2453 12.1041 19.2453C12.1217 19.2453 12.1394 19.2453 12.157 19.2453C14.2981 19.2453 16.1157 18.6339 17.6862 17.3818L17.7097 17.3348C18.0215 17.0879 18.3274 16.8234 18.6215 16.5236C20.4273 14.7189 21.339 12.5439 21.339 10.0632C21.339 10.028 21.339 9.99859 21.339 9.96332V9.95156ZM17.6744 10.3748C17.5921 11.7151 17.098 12.8261 16.1039 13.9195C16.0922 13.9312 16.0863 13.943 16.0745 13.9547C14.851 15.0716 13.6217 15.5713 12.0923 15.5831C12.0629 15.5831 12.0335 15.5831 11.9982 15.5831C11.8453 15.5831 11.6923 15.5772 11.5453 15.5654C11.5218 15.5654 11.4982 15.5654 11.4747 15.5595C10.263 15.4361 9.18655 14.9247 8.1513 13.9783C7.13958 12.8731 6.63372 11.7621 6.5396 10.4336C6.53372 10.3337 6.52784 10.2278 6.52784 10.122C6.52784 10.0868 6.52784 10.0515 6.52784 10.0162C6.52784 9.96332 6.52784 9.91041 6.52784 9.8575C6.52784 9.78109 6.53372 9.70467 6.5396 9.63412C6.62195 8.29385 7.11605 7.18871 8.11013 6.08946C8.12189 6.0777 8.12777 6.06594 8.13954 6.05419C9.36302 4.93729 10.5924 4.43763 12.1217 4.42587C12.1511 4.42587 12.1805 4.42587 12.2158 4.42587C12.3688 4.42587 12.5217 4.43175 12.6688 4.44351C12.6923 4.44351 12.7158 4.44351 12.7394 4.44938C13.9511 4.57283 15.0275 5.08425 16.0627 6.03067C17.0686 7.13581 17.5803 8.24095 17.6744 9.57534C17.6803 9.68115 17.6862 9.78109 17.6862 9.8869C17.6862 9.92217 17.6862 9.95744 17.6862 9.98683C17.6862 10.0397 17.6862 10.0926 17.6862 10.1514C17.6862 10.2278 17.6803 10.3043 17.6744 10.3748Z" fill="white"/>
  <path d="M16.3403 15.7888C18.8696 16.1356 20.8813 12.8438 20.8813 12.8438C21.0813 15.5419 19.4579 16.9469 19.4579 16.9469C19.4049 16.9939 19.3579 17.035 19.3049 17.0703C18.6638 17.2996 18.0697 17.2761 16.3403 15.7888Z" fill="url(#paint0_linear_103_9563)"/>
  <path d="M19.4515 16.9473C19.4515 16.9473 15.7458 20.345 9.68718 15.6305C3.6286 10.9102 1.14635 11.98 0.928711 13.4085C0.928711 13.4085 1.20517 8.92915 5.59911 8.67638C7.66373 8.55882 10.0695 9.4347 12.1753 11.6332C17.6751 17.3823 18.3809 17.3705 19.4574 16.9473H19.4515Z" fill="url(#paint1_linear_103_9563)"/>
  <path opacity="0.2" d="M2.12231 10.8509C2.72817 9.86923 3.79284 8.93457 5.66335 8.82876C7.33387 8.7347 9.24555 9.34018 11.0043 10.8509H2.12231Z" fill="url(#paint2_linear_103_9563)"/>
  <g style="mix-blend-mode:multiply">
    <path d="M9.56323 15.5293C13.6042 18.1922 16.5453 17.3869 17.7864 16.7932C18.5687 17.234 18.9746 17.1282 19.4569 16.9401C19.4569 16.9401 15.7512 20.3378 9.69264 15.6234C9.65146 15.5881 9.61029 15.5587 9.56323 15.5293Z" fill="#F4F4F4"/>
  </g>
  <path d="M32.4512 4.43175C33.3277 4.43175 34.1806 4.62574 34.91 4.9902C35.7746 5.47222 36.457 6.05419 36.9334 6.71844L37.1275 6.98885L41.1568 6.83601L40.7333 5.98952C39.9627 4.45526 38.8569 3.19729 37.3275 2.13918C35.8805 1.24566 34.1923 0.775391 32.4512 0.775391C29.8572 0.775391 27.7044 1.66303 25.875 3.49709C24.0692 5.30175 23.1516 7.47676 23.1516 9.96919C23.1516 12.4616 24.0398 14.7131 25.875 16.5412C27.7103 18.3694 29.8572 19.2629 32.4512 19.2629C34.257 19.2629 35.9452 18.7515 37.3275 17.7933C38.798 16.8939 39.9392 15.636 40.7333 14.0547L40.898 13.7255L36.8922 13.2905L36.804 13.4139C36.5864 13.7314 36.2923 14.0312 35.9629 14.2722C35.3805 14.6954 34.8335 15.0951 34.1629 15.3185C33.5982 15.5066 33.0218 15.6066 32.4512 15.6066C30.8984 15.6066 29.6572 15.1069 28.4514 14.0018C27.3161 12.7614 26.8103 11.5211 26.8103 9.96332C26.8103 8.40554 27.3691 7.1123 28.4338 6.04831C29.5572 4.92553 30.7925 4.42587 32.4512 4.42587V4.43175Z" fill="white"/>
  <path d="M56.72 13.508C56.5083 13.7901 56.2436 14.0488 55.9436 14.2722C55.3671 14.6954 54.8201 15.0951 54.1495 15.3185C53.5848 15.5066 53.0084 15.6066 52.4378 15.6066C50.8791 15.6066 49.6438 15.1069 48.438 14.0018C47.7851 13.2905 47.3557 12.5968 47.0969 11.8444H61.4845L61.5728 11.3389C61.6198 11.0743 61.9845 8.68183 60.7316 6.00128L60.7198 5.98364C59.9493 4.44938 58.8435 3.19141 57.3141 2.1333C55.8612 1.24566 54.1731 0.775391 52.4319 0.775391C49.8379 0.775391 47.691 1.66303 45.8557 3.49709C44.0499 5.30175 43.1323 7.47676 43.1323 9.96919C43.1323 12.4616 44.0205 14.7131 45.8557 16.5412C47.691 18.3694 49.8379 19.2629 52.4319 19.2629C54.2378 19.2629 55.9259 18.7515 57.3082 17.7933C58.7787 16.8939 59.9199 15.636 60.714 14.0547L60.7316 14.0194M47.0733 8.19392C47.338 7.40034 47.7851 6.68317 48.4145 6.06006C49.5379 4.93729 50.7732 4.43763 52.4319 4.43763C53.3084 4.43763 54.1613 4.63161 54.8907 4.99608C55.7553 5.4781 56.4436 6.06594 56.9435 6.75959C56.9671 6.78311 57.4141 7.33567 57.6553 8.19392H47.0675H47.0733Z" fill="white"/>
  <path d="M72.9202 0.77541C70.3262 0.77541 68.1734 1.66305 66.344 3.4971C64.5382 5.30177 63.6206 7.47678 63.6206 9.96921C63.6206 12.4617 64.5088 14.7131 66.344 16.5413C68.1792 18.3694 70.3262 19.2629 72.9202 19.2629C75.0672 19.2629 76.8848 18.6516 78.4553 17.3995V19.2629H82.114V9.96333C82.114 7.47678 81.1964 5.30177 79.3906 3.49123C77.5847 1.68656 75.4084 0.769531 72.9202 0.769531V0.77541ZM76.8436 13.9724C75.6084 15.101 74.3672 15.6066 72.8144 15.6066C71.3556 15.6066 70.1086 15.0893 68.9086 13.9959C67.7793 12.7614 67.2793 11.5211 67.2793 9.96921C67.2793 8.41732 67.8381 7.11819 68.9027 6.0542C70.0262 4.93143 71.2321 4.43177 72.8144 4.43177C74.4966 4.43177 75.6966 4.9138 76.8377 6.0542C77.8965 7.11231 78.4612 8.47022 78.4612 9.96921C78.4612 11.4682 77.9612 12.7556 76.8495 13.9724H76.8436Z" fill="white"/>
  <path d="M100.348 3.49709C98.5662 1.71593 96.2898 0.775391 93.7723 0.775391C91.2547 0.775391 89.0254 1.66303 87.1961 3.49709C85.3903 5.30175 84.4727 7.47676 84.4727 9.96919V19.2629H88.1313V9.96332C88.1313 8.46433 88.6901 7.1123 89.7548 6.04831C90.843 4.95493 92.1606 4.42587 93.7723 4.42587C95.384 4.42587 96.6839 4.95493 97.7074 6.06594C98.8427 7.10642 99.4191 8.4173 99.4191 9.95744V19.2512H103.078V9.96332C103.078 7.47676 102.16 5.30175 100.354 3.49121L100.348 3.49709Z" fill="white"/>
  <defs>
    <linearGradient id="paint0_linear_103_9563" x1="17.4109" y1="16.8528" x2="21.1495" y2="13.1118" gradientUnits="userSpaceOnUse">
      <stop offset="0.29" stop-color="#0D007A"/>
      <stop offset="0.71" stop-color="#0052F5"/>
      <stop offset="1" stop-color="#2A77FF"/>
    </linearGradient>
    <linearGradient id="paint1_linear_103_9563" x1="0.928711" y1="13.3967" x2="19.4515" y2="13.3967" gradientUnits="userSpaceOnUse">
      <stop offset="0.18" stop-color="#09C9C9"/>
      <stop offset="0.71" stop-color="#0067F5"/>
      <stop offset="1" stop-color="#2A77FF"/>
    </linearGradient>
    <linearGradient id="paint2_linear_103_9563" x1="0.558613" y1="10.8509" x2="0.558613" y2="8.82288" gradientUnits="userSpaceOnUse">
      <stop offset="0.45" stop-color="white"/>
      <stop offset="1" stop-color="white"/>
    </linearGradient>
  </defs>
</svg>