<svg width="35" height="35" viewBox="0 0 35 35" fill="none" xmlns="http://www.w3.org/2000/svg">
<g clip-path="url(#clip0_284_2594)">
<path d="M34.249 12.6263L30.9946 11.9066L32.7783 9.10595C33.013 8.73044 32.966 8.22977 32.6531 7.91685L27.0831 2.34689C26.7702 2.03397 26.2696 1.97139 25.8941 2.22173L23.0934 4.00536L22.3737 0.751006C22.2798 0.312919 21.8887 0 21.435 0H17.4922H13.565C13.1113 0 12.7358 0.312919 12.6263 0.751006L11.9066 4.00536L9.10595 2.20608C8.73044 1.97139 8.22977 2.01833 7.91685 2.33125L2.34689 7.91685C2.03397 8.22977 1.97139 8.73044 2.22173 9.10595L4.00536 11.9066L0.751006 12.6263C0.312919 12.7202 0 13.1113 0 13.565V21.435C0 21.8887 0.312919 22.2642 0.751006 22.3737L4.00536 23.0934L2.22173 25.8941C1.98704 26.2696 2.03397 26.7702 2.34689 27.0831L7.91685 32.6531C8.1046 32.8409 8.33929 32.9347 8.58963 32.9347C8.76173 32.9347 8.94949 32.8878 9.10595 32.7783L11.9066 30.9946L12.6263 34.249C12.7202 34.6871 13.1113 35 13.565 35H17.5078H21.435C21.8887 35 22.2642 34.6871 22.3737 34.249L23.0934 30.9946L25.8941 32.7783C26.0505 32.8722 26.2226 32.9347 26.4104 32.9347C26.6607 32.9347 26.8954 32.8409 27.0831 32.6531L32.6531 27.0831C32.966 26.7702 33.0286 26.2696 32.7783 25.8941L30.9946 23.0934L34.249 22.3737C34.6871 22.2798 35 21.8887 35 21.435V13.565C35 13.1113 34.6871 12.7202 34.249 12.6263Z" fill="url(#paint0_linear_284_2594)"/>
<path d="M25.4558 13.6902C25.4558 11.4059 23.594 9.55969 21.3253 9.55969C20.0423 9.55969 18.8845 10.1542 18.1335 11.0774C17.9301 11.0617 17.7111 11.0461 17.5077 11.0461C17.4921 11.0461 17.4764 11.0461 17.4608 11.0461C13.9091 11.0773 11.0303 13.9562 11.0303 17.5078C11.0303 21.0595 13.9091 23.954 17.4608 23.9696C17.4764 23.9696 17.4921 23.9696 17.5077 23.9696C21.075 23.9696 23.9851 21.0595 23.9851 17.4922C23.9851 17.2888 23.9695 17.0854 23.9538 16.8664C24.8613 16.1153 25.4558 14.9732 25.4558 13.6902Z" fill="url(#paint1_linear_284_2594)"/>
<path d="M21.3254 17.8208C23.6066 17.8208 25.4559 15.9715 25.4559 13.6902C25.4559 11.409 23.6066 9.55969 21.3254 9.55969C19.0441 9.55969 17.1948 11.409 17.1948 13.6902C17.1948 15.9715 19.0441 17.8208 21.3254 17.8208Z" fill="url(#paint2_linear_284_2594)"/>
</g>
<defs>
<linearGradient id="paint0_linear_284_2594" x1="0" y1="17.501" x2="35.0019" y2="17.501" gradientUnits="userSpaceOnUse">
<stop stop-color="#0E5DF8"/>
<stop offset="0.3103" stop-color="#0F4EE0"/>
<stop offset="0.9631" stop-color="#1026A3"/>
<stop offset="1" stop-color="#10249F"/>
</linearGradient>
<linearGradient id="paint1_linear_284_2594" x1="12.9298" y1="22.0742" x2="24.2439" y2="10.7601" gradientUnits="userSpaceOnUse">
<stop stop-color="#27E6D6"/>
<stop offset="0.333" stop-color="#23CEE2"/>
<stop offset="0.3343" stop-color="#23CEE2"/>
<stop offset="1" stop-color="#1A95FF"/>
</linearGradient>
<linearGradient id="paint2_linear_284_2594" x1="25.2066" y1="15.0975" x2="17.4319" y2="12.2677" gradientUnits="userSpaceOnUse">
<stop stop-color="#27E6D6"/>
<stop offset="0.333" stop-color="#23CEE2"/>
<stop offset="0.3343" stop-color="#23CEE2"/>
<stop offset="1" stop-color="#1A95FF"/>
</linearGradient>
<clipPath id="clip0_284_2594">
<rect width="35" height="35" fill="white"/>
</clipPath>
</defs>
</svg>
