<svg width="125" height="142" viewBox="0 0 125 142" fill="none" xmlns="http://www.w3.org/2000/svg">
<g clip-path="url(#clip0_292_46795)">
<path d="M110.443 93.0208L103.615 100.586L107.322 103.956L114.083 96.5069L120.303 102.096L114.347 108.693C116.177 109.281 117.629 110.657 118.131 112.532C118.94 115.551 116.986 118.722 113.773 119.583C110.147 120.555 106.363 118.186 106.313 114.326L68.7675 80.5082C63.1463 82.1124 57.4833 77.5015 58.9809 71.7074L57.2391 70.164C51.4596 74.1149 43.9162 74.4203 37.8679 70.9422C21.9983 82.4013 1.83412 63.8795 11.5019 47.2676C0.0359377 31.4648 18.6936 11.3165 35.3508 20.9727C51.254 9.45556 71.3387 28.0477 61.6831 44.7054C65.7949 50.3202 66.2504 57.8952 62.8678 63.9983L65.1362 66.038C70.3964 64.9226 75.487 69.0495 74.4789 74.4674L97.349 95.0096L104.189 87.4897L110.443 93.0208ZM17.5438 40.9912C20.6585 39.029 24.3305 38.0451 28.0089 38.187C27.4783 34.5542 28.0982 30.8092 29.7282 27.5289C21.3696 24.4248 13.6394 33.2127 17.5438 40.9912ZM41.6232 26.9401C43.5859 30.0421 44.5664 33.7015 44.4177 37.3692C48.0623 36.8339 51.8174 37.4456 55.1047 39.0651C58.1775 30.8878 49.6489 22.9266 41.6232 26.9401ZM28.8132 54.5914C25.1686 55.1267 21.4135 54.515 18.1262 52.8955C15.0412 61.027 23.6157 68.976 31.5954 64.9748C29.6328 61.8728 28.6645 58.2592 28.8132 54.5914ZM55.6749 50.9237C52.5602 52.8859 48.9341 53.8575 45.2098 53.7278C45.7404 57.3606 45.1205 61.1057 43.4905 64.3859C51.9072 67.5235 59.5793 58.7022 55.6749 50.9237Z" fill="url(#paint0_linear_292_46795)"/>
<path d="M77.1509 48.454C74.3594 46.8487 71.1491 46.4343 68.0279 47.2706C64.9067 48.1069 62.3337 50.071 60.7188 52.857C57.3882 58.603 59.3492 65.9217 65.1067 69.2326C67.8982 70.8379 71.1085 71.2523 74.2297 70.416C77.3509 69.5797 79.9239 67.6156 81.5387 64.8296C83.1536 62.0437 83.5748 58.8422 82.7414 55.7317C81.9079 52.6213 79.9424 50.0593 77.1509 48.454Z" fill="url(#paint1_linear_292_46795)"/>
</g>
<defs>
<linearGradient id="paint0_linear_292_46795" x1="52.6998" y1="91.7904" x2="84.3203" y2="36.8037" gradientUnits="userSpaceOnUse">
<stop stop-color="#BDCCD4"/>
<stop offset="0.4924" stop-color="#D5DDE2"/>
<stop offset="1" stop-color="#F2F2F2"/>
</linearGradient>
<linearGradient id="paint1_linear_292_46795" x1="55.5811" y1="58.2281" x2="82.7706" y2="55.745" gradientUnits="userSpaceOnUse">
<stop stop-color="#09C9C9"/>
<stop offset="0.628472" stop-color="#0F4EE0"/>
<stop offset="0.9631" stop-color="#1026A3"/>
<stop offset="1" stop-color="#10249F"/>
</linearGradient>
<clipPath id="clip0_292_46795">
<rect width="96.2255" height="120.899" fill="white" transform="translate(0 24.905) rotate(-15)"/>
</clipPath>
</defs>
</svg>
