<svg width="88" height="94" viewBox="0 0 88 94" fill="none" xmlns="http://www.w3.org/2000/svg">
<path d="M70.3978 42.2583H26.2754C24.8003 42.2583 23.6289 41.0808 23.6289 39.5981V23.942C23.6289 10.7281 34.3016 0 47.4472 0H49.226C62.3716 0 73.0442 10.7281 73.0442 23.942V39.5981C73.0442 41.0808 71.8295 42.2583 70.3978 42.2583ZM28.9219 36.9379H67.7513V23.942C67.7513 13.6936 59.4214 5.32045 49.226 5.32045H47.4472C37.2084 5.32045 28.9219 13.6936 28.9219 23.942V36.9379Z" fill="url(#paint0_linear_292_46831)"/>
<path d="M77.7296 36.9379H18.8998C13.3899 36.9379 8.92128 41.4298 8.92128 47.0119V53.9459C6.8822 54.382 5.01665 55.3851 3.49818 56.9114C-0.796919 61.2288 -0.796919 68.2065 3.49818 72.5239C5.01665 74.0502 6.8822 75.0533 8.92128 75.4894V83.9061C8.92128 89.4446 13.3899 93.9801 18.8998 93.9801H77.7296C83.2395 93.9801 87.7082 89.4882 87.7082 83.9061V46.9683C87.7515 41.4734 83.2395 36.9379 77.7296 36.9379Z" fill="url(#paint1_linear_292_46831)"/>
<path d="M19.03 56.9549C16.9475 54.8616 14.2142 53.7278 11.2641 53.7278C8.3139 53.7278 5.58065 54.8616 3.49818 56.9549C-0.796919 61.2723 -0.796919 68.25 3.49818 72.5674C5.58065 74.6607 8.3139 75.7945 11.2641 75.7945C14.2142 75.7945 16.9475 74.6607 19.03 72.5674C21.1124 70.4741 22.2404 67.7266 22.2404 64.7611C22.2404 61.7956 21.1124 59.0046 19.03 56.9549Z" fill="url(#paint2_linear_292_46831)"/>
<path d="M48.3152 51.7217C43.5429 51.7217 39.6816 55.6031 39.6816 60.4002C39.6816 64.2379 42.198 67.465 45.6687 68.5989V78.4112C45.6687 79.8939 46.8401 81.0714 48.3152 81.0714C49.7903 81.0714 50.9617 79.8939 50.9617 78.4112V68.5989C54.4325 67.465 56.9488 64.2379 56.9488 60.4002C56.9488 55.6467 53.0876 51.7217 48.3152 51.7217Z" fill="url(#paint3_linear_292_46831)"/>
<defs>
<linearGradient id="paint0_linear_292_46831" x1="23.6241" y1="21.1385" x2="73.0351" y2="21.1385" gradientUnits="userSpaceOnUse">
<stop stop-color="#09C9C9"/>
<stop offset="0.711805" stop-color="#0F4EE0"/>
<stop offset="0.9631" stop-color="#1026A3"/>
<stop offset="1" stop-color="#10249F"/>
</linearGradient>
<linearGradient id="paint1_linear_292_46831" x1="17.3657" y1="96.6062" x2="79.6141" y2="34.6795" gradientUnits="userSpaceOnUse">
<stop stop-color="#BDCCD4"/>
<stop offset="0.4924" stop-color="#D5DDE2"/>
<stop offset="1" stop-color="#F2F2F2"/>
</linearGradient>
<linearGradient id="paint2_linear_292_46831" x1="0.287702" y1="64.7453" x2="22.2608" y2="64.7453" gradientUnits="userSpaceOnUse">
<stop stop-color="#0E5DF8"/>
<stop offset="0.3103" stop-color="#0F4EE0"/>
<stop offset="0.9631" stop-color="#1026A3"/>
<stop offset="1" stop-color="#10249F"/>
</linearGradient>
<linearGradient id="paint3_linear_292_46831" x1="39.7099" y1="66.4083" x2="56.9517" y2="66.4083" gradientUnits="userSpaceOnUse">
<stop stop-color="#0E5DF8"/>
<stop offset="0.3103" stop-color="#0F4EE0"/>
<stop offset="0.9631" stop-color="#1026A3"/>
<stop offset="1" stop-color="#10249F"/>
</linearGradient>
</defs>
</svg>
