<svg width="39" height="38" viewBox="0 0 39 38" fill="none" xmlns="http://www.w3.org/2000/svg">
<path d="M38.4949 19.2994C38.2469 30.2408 29.6958 38.2857 18.6843 37.9922C8.69001 37.6988 0.380505 28.9329 0.501301 18.8081C0.628454 8.5175 9.66273 -0.280257 19.8096 0.00683456C30.4333 0.319445 38.7365 8.88753 38.4949 19.2994ZM29.4987 19.108C29.5232 17.7835 29.2847 16.4673 28.7973 15.2362C28.3098 14.0051 27.5831 12.8836 26.6594 11.9371C25.7357 10.9907 24.6336 10.2381 23.4172 9.72328C22.2008 9.20848 20.8945 8.94173 19.5744 8.93857C16.8988 8.96719 14.343 10.0565 12.4648 11.9688C10.5865 13.8811 9.53807 16.4612 9.54829 19.1463C9.57967 21.7687 10.6322 24.2747 12.4808 26.1286C14.3295 27.9825 16.8275 29.0371 19.4409 29.0669C20.7619 29.1095 22.0777 28.8821 23.3084 28.3984C24.539 27.9147 25.6588 27.1849 26.5996 26.2534C27.5404 25.3219 28.2826 24.208 28.781 22.9797C29.2793 21.7513 29.5236 20.434 29.4987 19.108Z" fill="#E8742F"/>
<path d="M19.574 8.93854C16.8951 8.96213 14.3345 10.0492 12.4521 11.9621C10.5697 13.8749 9.51869 16.4579 9.52888 19.1462C9.56026 21.7687 10.6128 24.2747 12.4614 26.1286C14.3101 27.9825 16.8081 29.037 19.4214 29.0668C20.7424 29.1095 22.0583 28.882 23.289 28.3984C24.5196 27.9147 25.6394 27.1849 26.5802 26.2534C27.521 25.3218 28.2631 24.208 28.7615 22.9796C29.2599 21.7513 29.5041 20.434 29.4793 19.108C29.5038 17.785 29.2659 16.4705 28.7796 15.2406C28.2934 14.0107 27.5683 12.8901 26.6467 11.9439C25.725 10.9977 24.6252 10.2447 23.411 9.72878C22.1968 9.21285 20.8926 8.94423 19.574 8.93854Z" fill="#FDFDFD"/>
<path d="M22.9896 20.3333C22.0803 20.3454 21.203 19.9969 20.5482 19.3636C20.1765 19.0044 19.886 18.5693 19.6963 18.0876C19.6167 17.9009 19.5002 17.7322 19.3539 17.5918C19.2076 17.4513 19.0345 17.3421 18.8451 17.2705C18.6556 17.199 18.4536 17.1667 18.2514 17.1756C18.0491 17.1844 17.8508 17.2343 17.6682 17.3221C17.4964 17.4222 17.3471 17.5569 17.2295 17.7176C17.0696 17.932 16.8536 18.0978 16.6054 18.1964C16.3573 18.295 16.0868 18.3226 15.8239 18.2762C15.5611 18.2298 15.3162 18.1111 15.1165 17.9335C14.9168 17.7558 14.7702 17.526 14.6928 17.2697C14.6155 17.0134 14.6104 16.7405 14.6783 16.4815C14.7462 16.2225 14.8843 15.9875 15.0774 15.8025C15.2704 15.6176 15.5107 15.4899 15.7717 15.4338C16.0327 15.3777 16.304 15.3953 16.5556 15.4847C16.8359 15.5876 17.0809 15.7692 17.2613 16.0078C17.3803 16.1646 17.5317 16.2937 17.7051 16.3862C17.8785 16.4787 18.0698 16.5324 18.2658 16.5437C18.5697 16.5731 18.8749 16.5034 19.1361 16.3447C19.3973 16.1861 19.6004 15.9471 19.7154 15.6633C19.8845 15.2175 20.137 14.8083 20.4592 14.4575C21.0508 13.8351 21.8544 13.4592 22.7099 13.4049C23.5685 13.328 24.4233 13.5888 25.094 14.1322C25.4639 14.4145 25.7717 14.7705 25.9982 15.1778C26.2246 15.5851 26.3648 16.0349 26.41 16.4991C26.5067 17.4109 26.2412 18.3242 25.671 19.0408C25.1009 19.7574 24.2722 20.2196 23.3647 20.327C23.2399 20.3376 23.1146 20.3397 22.9896 20.3333ZM22.9896 14.5915C22.5467 14.5902 22.1134 14.7209 21.7445 14.9669C21.3757 15.2129 21.0879 15.5631 20.9175 15.9734C20.7471 16.3836 20.7019 16.8354 20.7876 17.2714C20.8732 17.7074 21.0858 18.1082 21.3985 18.4229C21.7113 18.7376 22.11 18.9521 22.5443 19.0393C22.9786 19.1264 23.4289 19.0823 23.8382 18.9126C24.2475 18.7428 24.5974 18.4549 24.8435 18.0855C25.0897 17.7161 25.2211 17.2816 25.2211 16.8372C25.2195 16.542 25.1597 16.2501 25.0452 15.9782C24.9307 15.7064 24.7638 15.4599 24.5541 15.2529C24.3443 15.046 24.0959 14.8828 23.823 14.7725C23.5502 14.6623 23.2583 14.6073 22.9642 14.6106L22.9896 14.5915Z" fill="#E8742F"/>
<path d="M16.0651 20.3336C15.1595 20.3457 14.2861 19.997 13.6364 19.3638C13.0475 18.8226 12.6728 18.0864 12.5811 17.2904C12.5257 16.8196 12.5666 16.3425 12.7014 15.8881C12.8362 15.4338 13.062 15.0118 13.3649 14.6481C13.6679 14.2844 14.0416 13.9865 14.4633 13.7728C14.8849 13.5591 15.3456 13.4339 15.8171 13.4051C16.6761 13.3442 17.5266 13.6082 18.2013 14.1451C18.5126 14.3934 18.7792 14.6934 18.9896 15.0319C19.0468 15.1276 19.0341 15.1723 18.9451 15.2233C18.6654 15.3828 18.3856 15.5423 18.1123 15.7082C18.0042 15.772 17.966 15.7082 17.9088 15.6508C17.6426 15.2494 17.2548 14.9446 16.8026 14.7815C16.3505 14.6184 15.858 14.6057 15.3981 14.7452C14.9382 14.8847 14.5352 15.1691 14.2488 15.5562C13.9624 15.9434 13.8078 16.4127 13.8078 16.8948C13.8078 17.377 13.9624 17.8463 14.2488 18.2335C14.5352 18.6206 14.9382 18.9049 15.3981 19.0445C15.858 19.184 16.3505 19.1713 16.8026 19.0082C17.2548 18.8451 17.6426 18.5403 17.9088 18.1389C17.9787 18.0241 18.036 17.9986 18.1568 18.0751C18.4174 18.2346 18.6845 18.3877 18.9515 18.5345C19.0468 18.5919 19.0659 18.6365 19.0023 18.7386C18.7081 19.2147 18.3023 19.6112 17.8202 19.8937C17.3381 20.1762 16.7945 20.3359 16.2367 20.3591L16.0651 20.3336Z" fill="#E8742F"/>
<path d="M24.401 16.8549C24.4002 17.0457 24.3618 17.2343 24.2881 17.4101C24.2144 17.5859 24.1069 17.7454 23.9716 17.8794C23.8363 18.0134 23.676 18.1192 23.4998 18.1908C23.3237 18.2624 23.1352 18.2984 22.9451 18.2968C22.66 18.2942 22.3819 18.207 22.1462 18.0461C21.9104 17.8851 21.7274 17.6577 21.6203 17.3925C21.5132 17.1273 21.4868 16.8362 21.5444 16.5559C21.6021 16.2757 21.7411 16.0188 21.9441 15.8178C22.1471 15.6168 22.4048 15.4807 22.6848 15.4265C22.9649 15.3724 23.2546 15.4027 23.5174 15.5137C23.7803 15.6246 24.0045 15.8112 24.1617 16.05C24.319 16.2887 24.4023 16.5688 24.401 16.8549Z" fill="#E8742F"/>
<path d="M25.1421 22.5172C25.1421 22.5172 25.1421 22.5172 25.1421 22.4789C25.1137 22.2213 24.9916 21.9833 24.7992 21.8104C24.6068 21.6375 24.3576 21.5419 24.0994 21.5419C23.8411 21.5419 23.592 21.6375 23.3996 21.8104C23.2072 21.9833 23.0851 22.2213 23.0567 22.4789C22.8826 23.3046 22.4311 24.0451 21.7777 24.5766C21.1243 25.108 20.3088 25.398 19.4678 25.398C18.6268 25.398 17.8113 25.108 17.1579 24.5766C16.5046 24.0451 16.053 23.3046 15.8789 22.4789C15.8584 22.2147 15.7393 21.968 15.5454 21.788C15.3515 21.6081 15.0971 21.5081 14.8331 21.5081C14.569 21.5081 14.3146 21.6081 14.1207 21.788C13.9269 21.968 13.8078 22.2147 13.7872 22.4789C13.7902 22.4915 13.7902 22.5046 13.7872 22.5172C13.7872 22.5172 13.7872 22.5555 13.7872 22.581C13.7827 22.7157 13.8043 22.8501 13.8508 22.9765C14.1253 24.2611 14.8304 25.4123 15.8486 26.2382C16.8668 27.0641 18.1364 27.5146 19.4456 27.5146C20.7548 27.5146 22.0244 27.0641 23.0425 26.2382C24.0607 25.4123 24.7659 24.2611 25.0403 22.9765C25.1011 22.8444 25.1336 22.701 25.1357 22.5555C25.1357 22.5555 25.1421 22.5363 25.1421 22.5172Z" fill="#E8742F"/>
</svg>
