<svg width="43" height="25" viewBox="0 0 43 25" fill="none" xmlns="http://www.w3.org/2000/svg">
<g clip-path="url(#clip0_284_2582)">
<path d="M36.4067 8.76051C36.4246 8.56739 36.4425 8.39183 36.4425 8.19871C36.4425 3.66922 32.68 -0.0175781 28.0575 -0.0175781C25.6567 -0.0175781 23.5067 0.983124 21.9658 2.56318C19.7979 1.86093 17.3433 2.05405 15.3008 3.12498C14.0646 2.45784 12.685 2.12428 11.2875 2.12428C6.665 2.12428 2.9025 5.81107 2.9025 10.3406C2.9025 10.4108 2.92042 10.481 2.92042 10.5512C1.09292 12.1137 0 14.396 0 16.7837C0 20.6636 2.81292 24.0519 6.70083 24.8244C7.25625 24.9298 7.81167 24.9824 8.385 24.9824H29.5267H30.9779H34.615C39.2375 24.9824 43 21.2956 43 16.7661C43 12.9038 40.1871 9.58565 36.4067 8.76051Z" fill="url(#paint0_linear_284_2582)"/>
<path d="M35.6361 4.72261C35.4569 4.37149 35.2778 4.02037 35.0449 3.70435C35.0269 3.6868 35.009 3.65169 34.9911 3.63413C34.7224 3.26545 34.4357 2.91433 34.1132 2.58076C34.0594 2.52809 34.0236 2.47542 33.9699 2.42275C33.9161 2.37008 33.8624 2.33497 33.8086 2.2823C33.4682 1.96629 33.1099 1.68539 32.7336 1.42205C32.7157 1.40449 32.6799 1.38694 32.6619 1.36938C32.3394 1.15871 31.9811 0.96559 31.6228 0.790028C30.5478 0.280899 29.3294 0 28.0574 0C27.7528 0 27.4482 0.0175562 27.1615 0.0526685C27.0361 0.0702247 26.9286 0.0877809 26.8032 0.105337C26.624 0.122893 26.4628 0.158006 26.3015 0.193118C26.1582 0.22823 26.0328 0.263343 25.8894 0.298455C25.7461 0.333567 25.6028 0.36868 25.4415 0.421348C25.2982 0.474017 25.1728 0.509129 25.0294 0.561798C24.8861 0.614466 24.7428 0.667135 24.6174 0.73736C24.5457 0.772472 24.474 0.790028 24.4024 0.82514C24.3665 0.842697 24.3307 0.860253 24.2949 0.895365C22.3061 1.87851 20.7653 3.61657 20.0665 5.72331C20.0665 5.74087 20.0486 5.74087 20.0486 5.75843C19.9769 6.00421 19.9053 6.25 19.8515 6.49579C19.8336 6.56601 19.8157 6.63624 19.8157 6.70646C19.7799 6.88202 19.744 7.07514 19.7261 7.2507C19.7261 7.32093 19.7082 7.39115 19.7082 7.47893C19.6903 7.72472 19.6724 7.97051 19.6724 8.23385C19.6724 8.5323 19.6903 8.83076 19.7261 9.11166C19.744 9.23455 19.7619 9.33989 19.7799 9.46278C19.7978 9.63834 19.8336 9.79635 19.8694 9.95436C19.9053 10.0948 19.9411 10.2177 19.9769 10.3581C20.0128 10.4986 20.0486 10.639 20.1024 10.7971C20.1561 10.9375 20.1919 11.0604 20.2457 11.2008C20.2994 11.3413 20.3532 11.4817 20.4249 11.6046C20.4607 11.6749 20.4786 11.7451 20.5144 11.8153C20.5324 11.8504 20.5503 11.8855 20.5861 11.9206C21.5894 13.8694 23.3632 15.3792 25.5132 16.0639C25.5311 16.0639 25.5311 16.0815 25.549 16.0815C25.7999 16.1517 26.0507 16.2219 26.3015 16.2746C26.3732 16.2921 26.4449 16.3097 26.5165 16.3097C26.6957 16.3448 26.8928 16.3799 27.0719 16.3975C27.1436 16.3975 27.2153 16.415 27.3049 16.415C27.5557 16.4326 27.8065 16.4501 28.0753 16.4501C29.3474 16.4501 30.5657 16.1692 31.6407 15.6601C31.999 15.4846 32.3574 15.309 32.6799 15.0808C32.6978 15.0632 32.7336 15.0456 32.7515 15.0281C33.1278 14.7647 33.4861 14.4838 33.8265 14.1678C33.8803 14.1152 33.934 14.0801 33.9878 14.0274C34.0415 13.9747 34.0774 13.9221 34.1311 13.8694C34.4536 13.5358 34.7403 13.1847 35.009 12.816C35.0269 12.7985 35.0449 12.7633 35.0628 12.7458C35.2778 12.4298 35.4749 12.0787 35.654 11.7275C36.1736 10.6742 36.4603 9.48034 36.4603 8.23385C36.4603 6.98736 36.1557 5.77598 35.6361 4.72261Z" fill="url(#paint1_linear_284_2582)"/>
</g>
<defs>
<linearGradient id="paint0_linear_284_2582" x1="0" y1="12.4967" x2="42.9968" y2="12.4967" gradientUnits="userSpaceOnUse">
<stop stop-color="#0E5DF8"/>
<stop offset="0.3103" stop-color="#0F4EE0"/>
<stop offset="0.9631" stop-color="#1026A3"/>
<stop offset="1" stop-color="#10249F"/>
</linearGradient>
<linearGradient id="paint1_linear_284_2582" x1="22.1405" y1="14.014" x2="33.7419" y2="2.17438" gradientUnits="userSpaceOnUse">
<stop stop-color="#27E6D6"/>
<stop offset="0.333" stop-color="#23CEE2"/>
<stop offset="0.3343" stop-color="#23CEE2"/>
<stop offset="1" stop-color="#1A95FF"/>
</linearGradient>
<clipPath id="clip0_284_2582">
<rect width="43" height="25" fill="white"/>
</clipPath>
</defs>
</svg>
