<svg width="35" height="39" viewBox="0 0 35 39" fill="none" xmlns="http://www.w3.org/2000/svg">
<g clip-path="url(#clip0_284_2590)">
<path d="M18.0965 14.417C13.3062 14.2542 8.77294 15.9726 5.34085 19.2648C1.8904 22.5389 0 26.9346 0 31.6558C0 33.7542 1.72522 35.4545 3.85422 35.4545H12.8474C13.0493 36.2505 13.4714 36.9921 14.0954 37.6071C15.0315 38.5297 16.2611 39 17.4908 39C18.7205 39 19.9502 38.5297 20.8862 37.6071C21.5102 36.9921 21.9324 36.2324 22.1342 35.4545H31.5679C33.4583 35.4545 34.9816 33.9351 34.9816 32.09C35 22.6475 27.4017 14.7245 18.0965 14.417Z" fill="url(#paint0_linear_284_2590)"/>
<path d="M20.9048 30.9142C19.0327 29.0691 15.986 29.0691 14.114 30.9142C12.2419 32.7593 12.2419 35.7621 14.114 37.6072C15.05 38.5297 16.2797 39 17.5094 39C18.7391 39 19.9687 38.5297 20.9048 37.6072C22.7768 35.7621 22.7768 32.7593 20.9048 30.9142Z" fill="url(#paint1_linear_284_2590)"/>
<path d="M17.4907 0C12.9023 0 9.1582 3.69017 9.1582 8.21243C9.1582 12.7347 12.9023 16.4249 17.4907 16.4249C22.079 16.4249 25.8231 12.7347 25.8231 8.21243C25.8231 3.69017 22.0974 0 17.4907 0Z" fill="url(#paint2_linear_284_2590)"/>
</g>
<defs>
<linearGradient id="paint0_linear_284_2590" x1="6.60091" y1="39.7308" x2="28.1051" y2="17.9123" gradientUnits="userSpaceOnUse">
<stop stop-color="#27E6D6"/>
<stop offset="0.333" stop-color="#23CEE2"/>
<stop offset="0.3343" stop-color="#23CEE2"/>
<stop offset="1" stop-color="#1A95FF"/>
</linearGradient>
<linearGradient id="paint1_linear_284_2590" x1="12.6935" y1="34.2586" x2="22.3003" y2="34.2586" gradientUnits="userSpaceOnUse">
<stop stop-color="#0E5DF8"/>
<stop offset="0.3103" stop-color="#0F4EE0"/>
<stop offset="0.9631" stop-color="#1026A3"/>
<stop offset="1" stop-color="#10249F"/>
</linearGradient>
<linearGradient id="paint2_linear_284_2590" x1="9.16299" y1="8.2133" x2="25.83" y2="8.2133" gradientUnits="userSpaceOnUse">
<stop stop-color="#0E5DF8"/>
<stop offset="0.3103" stop-color="#0F4EE0"/>
<stop offset="0.9631" stop-color="#1026A3"/>
<stop offset="1" stop-color="#10249F"/>
</linearGradient>
<clipPath id="clip0_284_2590">
<rect width="35" height="39" fill="white"/>
</clipPath>
</defs>
</svg>
