<svg width="123" height="72" viewBox="0 0 123 72" fill="none" xmlns="http://www.w3.org/2000/svg">
<path d="M121.88 38.5354C121.685 38.215 117.064 30.6841 107.315 23.0732C98.3481 16.0631 83.1168 7.73111 61.6205 7.73111C61.4248 7.73111 61.229 7.73111 61.0332 7.73111C39.3412 7.89134 23.9924 16.2233 14.9083 23.1533C5.11954 30.7642 0.460074 38.215 0.264298 38.5354C-0.0880993 39.1363 -0.0880993 39.8974 0.264298 40.4982C0.460074 40.8187 5.11954 48.2694 14.9475 55.8403C23.9924 62.8103 39.3412 71.1423 61.0724 71.2625C61.2681 71.2625 61.4639 71.2625 61.6597 71.2625C83.1559 71.2625 98.3873 62.9305 107.354 55.9204C117.103 48.3095 121.724 40.7786 121.92 40.4582C122.233 39.8573 122.233 39.1363 121.88 38.5354ZM61.229 64.2524C47.9945 64.2524 37.266 53.2366 37.266 39.7371C37.266 26.1977 48.0337 15.2219 61.229 15.2219C74.4634 15.2219 85.192 26.2377 85.192 39.7371C85.192 53.2366 74.4634 64.2524 61.229 64.2524Z" fill="url(#paint0_linear_292_46819)"/>
<path d="M61.0721 23.9545C59.4667 23.9545 57.8614 24.2349 56.2952 24.7557L61.2287 39.7372L46.7021 34.4496C46.154 36.092 45.8799 37.8144 45.8799 39.5369C45.8799 48.1092 52.6929 55.1193 61.1113 55.1193C69.5296 55.1193 76.3426 48.1493 76.3426 39.5369C76.3426 30.9245 69.4513 23.9545 61.0721 23.9545Z" fill="url(#paint1_linear_292_46819)"/>
<path d="M35.4251 8.29193C35.151 7.65101 34.7986 7.0902 34.4462 6.48933C34.4071 6.44928 34.4071 6.40922 34.3679 6.36916C33.9372 5.68818 33.4282 5.08732 32.88 4.52651C32.8017 4.4464 32.7234 4.32622 32.6451 4.24611C32.5668 4.16599 32.4493 4.08588 32.371 4.00576C31.8228 3.44496 31.1964 2.96426 30.5699 2.48357C30.5307 2.44351 30.4524 2.40346 30.4132 2.40346C29.8651 2.04294 29.2777 1.68242 28.6513 1.40202C26.8501 0.480691 24.8141 0 22.6605 0C22.1515 0 21.6425 0.0400576 21.1335 0.0801152C20.9377 0.120173 20.7419 0.16023 20.507 0.16023C20.2329 0.200288 19.9197 0.240346 19.6456 0.320461C19.4106 0.360519 19.1757 0.440634 18.9408 0.520749C18.7058 0.600864 18.4318 0.640922 18.1968 0.721037C17.9619 0.801152 17.727 0.881268 17.5312 0.961383C17.2963 1.0415 17.0613 1.16167 16.8264 1.24179C16.7089 1.28184 16.5915 1.3219 16.474 1.40202C16.3957 1.44207 16.3565 1.48213 16.3174 1.52219C12.95 3.24467 10.3658 6.28905 9.19112 10.0144C9.19112 10.0545 9.15197 10.0545 9.15197 10.0945C9.0345 10.5352 8.91704 10.9357 8.83872 11.3764C8.79957 11.4965 8.79957 11.6167 8.76041 11.7369C8.72126 12.0573 8.64295 12.3778 8.60379 12.6983C8.60379 12.8184 8.56464 12.9386 8.56464 13.0988C8.52548 13.5395 8.48633 13.9801 8.48633 14.4207C8.48633 14.9415 8.52548 15.4622 8.56464 15.983C8.60379 16.1833 8.64295 16.3836 8.64295 16.6239C8.6821 16.9043 8.72126 17.2248 8.79957 17.5052C8.83872 17.7455 8.91704 17.9859 8.99535 18.2262C9.07366 18.4666 9.11281 18.747 9.19112 18.9873C9.26943 19.2277 9.34774 19.468 9.42605 19.6683C9.50436 19.9086 9.62183 20.149 9.70014 20.3893C9.73929 20.5095 9.77845 20.6297 9.85676 20.7498C9.89592 20.83 9.93507 20.87 9.97423 20.9101C11.6579 24.355 14.6337 26.9988 18.2751 28.2006C18.3143 28.2006 18.3143 28.2406 18.3534 28.2406C18.7842 28.3608 19.1757 28.481 19.6064 28.5611C19.7239 28.6011 19.8413 28.6011 19.9588 28.6412C20.272 28.6813 20.5853 28.7614 20.8985 28.8014C21.016 28.8014 21.1335 28.8415 21.2901 28.8415C21.7208 28.8815 22.1515 28.9216 22.5822 28.9216C24.7357 28.9216 26.7718 28.4409 28.573 27.5596C29.1994 27.2792 29.7476 26.9187 30.3349 26.5582C30.3741 26.5181 30.4133 26.5181 30.4524 26.4781C31.118 26.0375 31.7054 25.5167 32.2535 24.9559C32.3319 24.8758 32.4493 24.7957 32.5276 24.7156C32.6059 24.6354 32.6843 24.5153 32.7626 24.4351C33.3107 23.8743 33.7806 23.2334 34.2505 22.5925C34.2896 22.5524 34.2896 22.5124 34.3288 22.4723C34.6812 21.9115 35.0336 21.3107 35.3077 20.6697C36.2865 18.7069 36.7956 16.6239 36.7956 14.4207C36.7956 12.2176 36.2865 10.1346 35.4251 8.29193Z" fill="url(#paint2_linear_292_46819)"/>
<defs>
<linearGradient id="paint0_linear_292_46819" x1="29.5494" y1="71.8206" x2="94.1641" y2="8.66155" gradientUnits="userSpaceOnUse">
<stop stop-color="#BDCCD4"/>
<stop offset="0.4924" stop-color="#D5DDE2"/>
<stop offset="1" stop-color="#F2F2F2"/>
</linearGradient>
<linearGradient id="paint1_linear_292_46819" x1="45.8596" y1="39.5044" x2="76.2846" y2="39.5044" gradientUnits="userSpaceOnUse">
<stop stop-color="#09C9C9"/>
<stop offset="0.713542" stop-color="#0F4EE0"/>
<stop offset="0.9631" stop-color="#1026A3"/>
<stop offset="1" stop-color="#10249F"/>
</linearGradient>
<linearGradient id="paint2_linear_292_46819" x1="8.5693" y1="14.4314" x2="36.7819" y2="14.4314" gradientUnits="userSpaceOnUse">
<stop stop-color="#0E5DF8"/>
<stop offset="0.3103" stop-color="#0F4EE0"/>
<stop offset="0.9631" stop-color="#1026A3"/>
<stop offset="1" stop-color="#10249F"/>
</linearGradient>
</defs>
</svg>
