<svg xmlns="http://www.w3.org/2000/svg" width="20" height="18" viewBox="0 0 20 18" fill="none">
  <path d="M19.2915 5.4908C19.2915 4.51548 18.4965 3.73296 17.5056 3.73296H2.67659C2.06591 3.73296 1.46676 3.14324 1.46676 2.56485C1.46676 1.97512 2.06591 1.39674 2.67659 1.39674H16.8258C17.1599 1.39674 17.4249 1.65758 17.4249 1.98646V2.57619H17.4364C17.8512 2.57619 18.2545 2.66692 18.6117 2.81435V1.98646C18.6117 0.999807 17.8051 0.217285 16.8258 0.217285H3.28726C0.291504 0.217285 0.291504 2.56485 0.291504 2.56485V14.5749C0.291504 15.9811 1.85851 17.2173 3.28726 17.2173H17.5056C18.4965 17.2173 19.2915 16.4348 19.2915 15.4594V12.5335H15.1205C14.1296 12.5335 13.3346 11.751 13.3346 10.7757C13.3346 9.80034 14.1296 9.01782 15.1205 9.01782H19.2915V5.4908Z" fill="white"/>
  <path d="M14.5212 10.7643C14.5212 11.4107 15.0513 11.9324 15.708 11.9324C16.3648 11.9324 16.8948 11.4107 16.8948 10.7643C16.8948 10.1179 16.3648 9.59619 15.708 9.59619C15.0628 9.59619 14.5212 10.1179 14.5212 10.7643Z" fill="white"/>
  <path d="M16.3648 1.9751H3.26416V3.14321H16.3648V1.9751Z" fill="white"/>
</svg>