<svg width="17" height="23" viewBox="0 0 17 23" fill="none" xmlns="http://www.w3.org/2000/svg">
<g clip-path="url(#clip0_16_150)">
<path d="M16.5244 0H0.475492C0.214007 0 0 0.207 0 0.459923V22.5378C0 22.685 0.0713357 22.823 0.194984 22.9104C0.318633 22.9978 0.475571 23.0208 0.622998 22.9794L2.48232 22.3999L4.3464 22.9794C4.44152 23.007 4.54139 23.007 4.6365 22.9794L6.50058 22.3999L8.3599 22.9794C8.45502 23.007 8.55489 23.007 8.65 22.9794L10.5093 22.3999L12.3687 22.9794C12.4638 23.007 12.5636 23.007 12.6587 22.9794L14.5181 22.3999L16.3822 22.9794C16.4297 22.9932 16.4773 22.9978 16.5248 22.9978C16.6247 22.9978 16.7246 22.9702 16.8054 22.9104C16.9291 22.823 17.0004 22.685 17.0004 22.5378V0.459923C17.0004 0.206923 16.7864 0 16.5249 0H16.5244ZM9.21348 7.05525H7.78692C6.83633 7.05525 6.06313 6.30737 6.06313 5.3879C6.06313 4.46844 6.83633 3.72056 7.78692 3.72056H8.02471V3.28938C8.02471 3.03539 8.23737 2.82946 8.5002 2.82946C8.76303 2.82946 8.97569 3.03539 8.97569 3.28938V3.72056H10.4617C10.7245 3.72056 10.9372 3.92648 10.9372 4.18048C10.9372 4.43448 10.7245 4.6404 10.4617 4.6404H7.78684C7.36057 4.6404 7.01412 4.97574 7.01412 5.38783C7.01412 5.79991 7.36057 6.13525 7.78684 6.13525H9.2134C10.164 6.13525 10.9372 6.88313 10.9372 7.8026C10.9372 8.72206 10.164 9.46994 9.2134 9.46994H8.97561V9.90112C8.97561 10.1551 8.76295 10.361 8.50012 10.361C8.23729 10.361 8.02463 10.1551 8.02463 9.90112V9.46994H6.53863C6.27579 9.46994 6.06313 9.26402 6.06313 9.01002C6.06313 8.75602 6.27579 8.5501 6.53863 8.5501H9.21348C9.63975 8.5501 9.9862 8.21476 9.9862 7.80267C9.9862 7.39059 9.63975 7.05525 9.21348 7.05525ZM13.8229 20.1712H3.17753C2.9147 20.1712 2.70204 19.9652 2.70204 19.7112C2.70204 19.4572 2.9147 19.2513 3.17753 19.2513H13.8229C14.0858 19.2513 14.2984 19.4572 14.2984 19.7112C14.2984 19.9652 14.0858 20.1712 13.8229 20.1712H13.8229ZM13.8229 16.9012H3.17753C2.9147 16.9012 2.70204 16.6952 2.70204 16.4412C2.70204 16.1872 2.9147 15.9813 3.17753 15.9813H13.8229C14.0858 15.9813 14.2984 16.1872 14.2984 16.4412C14.2984 16.6952 14.0858 16.9012 13.8229 16.9012H13.8229ZM13.8229 13.6312H3.17753C2.9147 13.6312 2.70204 13.4253 2.70204 13.1713C2.70204 12.9173 2.9147 12.7113 3.17753 12.7113H13.8229C14.0858 12.7113 14.2984 12.9173 14.2984 13.1713C14.2984 13.4253 14.0858 13.6312 13.8229 13.6312H13.8229Z" fill="#969BBF"/>
</g>
<defs>
<clipPath id="clip0_16_150">
<rect width="17" height="23" fill="white"/>
</clipPath>
</defs>
</svg>
