<svg width="18" height="18" viewBox="0 0 18 18" fill="none" xmlns="http://www.w3.org/2000/svg">
<path fill-rule="evenodd" clip-rule="evenodd" d="M9 0C4.02943 0 0 4.02943 0 9C0 13.9706 4.02943 18 9 18C13.9706 18 18 13.9706 18 9C18 4.02943 13.9706 0 9 0ZM5 12.0681V12.2397C5.03474 12.3048 5.08251 12.3591 5.13462 12.4134L5.59709 12.8759C5.76428 13.041 5.91192 13.041 6.07694 12.8759C7.01926 11.9313 7.96158 10.9889 8.90825 10.0465C8.9524 10.0023 8.97465 9.98009 8.997 9.98C9.0197 9.97991 9.0425 10.0027 9.08846 10.0487L11.8894 12.8499C11.8959 12.8564 11.9023 12.863 11.9087 12.8695C11.9277 12.8889 11.9464 12.908 11.9675 12.9259C12.0804 13.0214 12.2303 13.0279 12.3366 12.9259C12.5364 12.7348 12.734 12.5372 12.9251 12.3352C13.0293 12.2267 13.0206 12.079 12.9251 11.9661C12.9072 11.945 12.8881 11.9262 12.8687 11.9072C12.8622 11.9009 12.8556 11.8945 12.8491 11.8879L10.0416 9.0802C9.9993 9.03786 9.97813 9.01668 9.97813 8.99551C9.97813 8.97434 9.9993 8.95317 10.0416 8.91082L12.8491 6.10311C12.8547 6.09742 12.8604 6.09183 12.8661 6.08627C12.8885 6.06421 12.9103 6.0427 12.9294 6.01842C13.0206 5.90768 13.0271 5.76002 12.9272 5.65579C12.7744 5.49423 12.616 5.33824 12.4576 5.18225C12.418 5.14324 12.3783 5.10424 12.3388 5.06514C12.32 5.04632 12.2973 5.0333 12.2746 5.02027C12.2633 5.01375 12.252 5.00724 12.2411 5H12.0696C12.0023 5.0304 11.948 5.07817 11.8959 5.13029C10.9557 6.07054 10.0178 7.00861 9.07978 7.94886C9.03744 7.9912 9.01627 8.01238 8.9951 8.01238C8.97393 8.01238 8.95276 7.9912 8.91042 7.94886C8.44143 7.47874 7.9719 7.00916 7.50236 6.53957C7.03283 6.06999 6.5633 5.60041 6.09431 5.13029C6.0422 5.07817 5.98792 5.0304 5.92061 5H5.74908C5.68394 5.03474 5.62966 5.08034 5.57755 5.13246C5.42991 5.28229 5.28226 5.42995 5.13245 5.57761C5.08034 5.62973 5.03474 5.68401 5 5.74916V5.9207C5.0304 5.99019 5.07817 6.04231 5.13027 6.09442C6.07043 7.0325 7.0084 7.97058 7.94638 8.90865C7.98872 8.951 8.00989 8.97217 8.00989 8.99334C8.00989 9.01451 7.98872 9.03568 7.94638 9.07803C7.63377 9.39067 7.32116 9.70356 7.00846 10.0165C6.38294 10.6426 5.75709 11.269 5.13027 11.8944C5.08034 11.9465 5.0304 12.0008 5 12.0681Z" fill="#C70030"/>
</svg>
