<svg width="16" height="16" viewBox="0 0 16 16" fill="none" xmlns="http://www.w3.org/2000/svg">
    <path fill-rule="evenodd" clip-rule="evenodd" d="M0 8C0 3.58172 3.58172 0 8 0C12.4183 0 16 3.58172 16 8C16 12.4183 12.4183 16 8 16C3.58172 16 0 12.4183 0 8Z" fill="#0E42E5"/>
    <path d="M4.59353 7.63854C4.72165 7.64072 4.84336 7.68431 4.95226 7.76713C5.2512 7.99379 5.55228 8.22046 5.85122 8.4493C6.25906 8.76314 6.5943 8.76096 6.98933 8.44058C7.45482 8.06353 7.92032 7.68649 8.38581 7.31162C9.27623 6.59022 10.1645 5.871 11.0528 5.15396C11.2877 4.96435 11.5546 4.94909 11.7788 5.11255C12.0521 5.31306 12.0756 5.67485 11.83 5.92331C11.3304 6.4333 10.8286 6.94329 10.3268 7.45329C9.94884 7.83687 9.5709 8.22263 9.19295 8.60622C8.5545 9.2557 7.91604 9.90735 7.27332 10.5547C7.07687 10.7552 6.84199 10.8641 6.55586 10.8881C6.32098 10.9077 6.1224 10.8467 5.92809 10.7268C5.80638 10.6527 5.70815 10.5525 5.62274 10.4391C5.15511 9.82018 4.64905 9.22736 4.16006 8.6193C3.97216 8.38609 3.94013 8.1311 4.11522 7.87174C4.21772 7.717 4.39281 7.64072 4.59353 7.63854Z" fill="white"/>
    </svg>
    