<svg width="13" height="16" viewBox="0 0 13 16" fill="none" xmlns="http://www.w3.org/2000/svg">
<path d="M12.801 6.32091C12.6191 5.60907 12.32 4.94101 11.9119 4.33483C11.5175 3.74906 11.0301 3.23381 10.4633 2.80338C9.33101 1.94336 7.925 1.46978 6.50429 1.46978C6.28916 1.46978 6.07361 1.48072 5.85891 1.50198V0L3.12378 2.10164L5.85891 4.20328V2.67667C6.0734 2.65057 6.28916 2.63731 6.50429 2.63731C8.93994 2.63731 11.058 4.26958 11.6553 6.60653C11.7635 7.03023 11.8184 7.46445 11.8184 7.89719C11.8184 9.21543 11.3183 10.4787 10.4099 11.4545L11.2795 12.2451C12.389 11.0533 12.9999 9.50926 12.9999 7.8974C12.9999 7.36847 12.9328 6.83806 12.8008 6.32091H12.801Z" fill="white"/>
<path d="M7.14123 13.1093C6.92674 13.1354 6.71098 13.1487 6.49585 13.1487C4.0602 13.1487 1.94213 11.5164 1.34488 9.17944C1.23668 8.75554 1.18172 8.32132 1.18172 7.88878C1.18172 6.56907 1.68291 5.30472 2.59306 4.32852L1.72402 3.53733C0.612161 4.72969 0 6.27503 0 7.88878C0 8.41772 0.0670948 8.94792 0.199155 9.46527C0.381056 10.1771 0.680107 10.8452 1.08821 11.4514C1.48269 12.0371 1.97003 12.5524 2.53682 12.9828C3.66913 13.8428 5.07514 14.3164 6.49585 14.3164C6.71098 14.3164 6.92653 14.3055 7.14123 14.2842V15.7862L9.87636 13.6845L7.14123 11.5829V13.1095V13.1093Z" fill="white"/>
</svg>
