<svg width="14" height="15" viewBox="0 0 14 15" fill="none" xmlns="http://www.w3.org/2000/svg">
    <path d="M9.62374 9.95337C9.62374 10.9355 9.6255 11.9176 9.62374 12.8988C9.62197 14.0136 8.91664 14.7076 7.78617 14.7085C5.81248 14.7093 3.83879 14.6893 1.86599 14.7172C0.800039 14.732 -0.0113557 13.9411 0.000134611 12.8656C0.0213475 10.9311 0.0213475 8.99572 0.000134611 7.06208C-0.0122396 5.94031 0.830091 5.18606 1.87571 5.2009C3.85647 5.22971 5.83723 5.21487 7.81799 5.20614C8.56486 5.20264 9.09783 5.52826 9.45138 6.16204C9.58573 6.40298 9.62197 6.67011 9.62285 6.94248C9.62285 7.9464 9.62285 8.95032 9.62285 9.95337H9.62374Z" fill="#D9D9D9"/>
    <path d="M9.17949 0.00471105C10.1809 0.00471105 11.1823 0.0195516 12.1838 0.000346178C13.217 -0.0188593 14.0019 0.763326 14.0001 1.77947C13.9948 3.76461 14.0037 5.74976 13.9966 7.73577C13.9931 8.78421 13.2541 9.50005 12.1953 9.50442C11.7613 9.50616 11.3264 9.49569 10.8924 9.50878C10.6891 9.51489 10.6211 9.44331 10.6229 9.24602C10.629 8.35908 10.6282 7.47126 10.6246 6.58432C10.6202 5.57429 10.1491 4.85583 9.23075 4.41934C8.94703 4.28403 8.6474 4.22205 8.33362 4.22205C7.12625 4.22118 5.91888 4.22205 4.71063 4.2203C4.38536 4.2203 4.38448 4.21943 4.38448 3.89119C4.38448 3.18583 4.38183 2.48047 4.38448 1.7751C4.3889 0.716185 5.10395 0.00907592 6.1752 0.00558402C7.17663 0.00209213 8.17806 0.00558402 9.17949 0.00558402V0.00471105Z" fill="#D9D9D9"/>
    </svg>
    