<svg width="20" height="21" viewBox="0 0 20 21" fill="none" xmlns="http://www.w3.org/2000/svg">
    <path d="M13.7789 14.1501C13.7789 15.5462 13.7815 16.9424 13.7789 18.3373C13.7764 19.9221 12.7737 20.9088 11.1666 20.91C8.36079 20.9112 5.55496 20.8827 2.75038 20.9224C1.23501 20.9435 0.0815127 19.8191 0.0978476 18.2902C0.128004 15.54 0.128004 12.7886 0.0978476 10.0398C0.0802562 8.44502 1.27773 7.37276 2.7642 7.39386C5.58009 7.43481 8.39597 7.41372 11.2119 7.40131C12.2736 7.39634 13.0313 7.85925 13.5339 8.76024C13.7249 9.10277 13.7764 9.48253 13.7777 9.86973C13.7777 11.2969 13.7777 12.7241 13.7777 14.1501H13.7789Z" fill="#F1F3FF"/>
    <path d="M13.1472 0.00669732C14.5709 0.00669732 15.9945 0.0277949 17.4182 0.000492134C18.887 -0.0268107 20.0028 1.08516 20.0003 2.52973C19.9928 5.35184 20.0053 8.17396 19.9953 10.9973C19.9903 12.4878 18.9398 13.5055 17.4345 13.5117C16.8175 13.5141 16.1993 13.4993 15.5824 13.5179C15.2934 13.5266 15.1966 13.4248 15.1991 13.1443C15.2079 11.8834 15.2067 10.6213 15.2016 9.36039C15.1954 7.92451 14.5256 6.90314 13.2201 6.28262C12.8167 6.09026 12.3908 6.00215 11.9447 6.00215C10.2283 6.00091 8.51187 6.00215 6.79419 5.99967C6.33179 5.99967 6.33053 5.99842 6.33053 5.53179C6.33053 4.52904 6.32676 3.52628 6.33053 2.52352C6.33682 1.01814 7.35335 0.0129025 8.87626 0.00793836C10.2999 0.00297421 11.7236 0.00793836 13.1472 0.00793836V0.00669732Z" fill="#F1F3FF"/>
    </svg>
    