<svg xmlns="http://www.w3.org/2000/svg" width="15" height="16" viewBox="0 0 15 16" fill="none">
  <path d="M9.98018 10.2629C9.98018 11.245 9.98195 12.2271 9.98018 13.2084C9.97841 14.3231 9.27308 15.0172 8.14261 15.018C6.16892 15.0189 4.19524 14.9988 2.22243 15.0268C1.15648 15.0416 0.34509 14.2507 0.35658 13.1752C0.377793 11.2407 0.377793 9.30529 0.35658 7.37165C0.344206 6.24988 1.18654 5.49563 2.23216 5.51047C4.21291 5.53928 6.19367 5.52444 8.17443 5.51571C8.9213 5.51222 9.45428 5.83783 9.80783 6.47161C9.94218 6.71255 9.97841 6.97969 9.9793 7.25205C9.9793 8.25597 9.9793 9.25989 9.9793 10.2629H9.98018Z" fill="#F1F3FF"/>
  <path d="M9.53569 0.314281C10.5371 0.314281 11.5385 0.329122 12.54 0.309916C13.5732 0.290711 14.3581 1.0729 14.3563 2.08904C14.351 4.07418 14.3599 6.05933 14.3528 8.04534C14.3493 9.09378 13.6103 9.80962 12.5515 9.81399C12.1175 9.81573 11.6826 9.80526 11.2486 9.81835C11.0453 9.82446 10.9773 9.75288 10.9791 9.55559C10.9852 8.66865 10.9844 7.78083 10.9808 6.89389C10.9764 5.88386 10.5053 5.1654 9.58695 4.72891C9.30323 4.5936 9.0036 4.53162 8.68982 4.53162C7.48245 4.53075 6.27508 4.53162 5.06683 4.52987C4.74156 4.52987 4.74068 4.529 4.74068 4.20076C4.74068 3.4954 4.73803 2.79004 4.74068 2.08467C4.7451 1.02576 5.46015 0.318646 6.53141 0.315154C7.53283 0.311662 8.53426 0.315154 9.53569 0.315154V0.314281Z" fill="#F1F3FF"/>
</svg>