<svg width="135" height="142" viewBox="0 0 135 142" fill="none" xmlns="http://www.w3.org/2000/svg">
<path d="M88.8258 112.374V27.0249H3.31445V112.374C3.31445 118.695 7.48798 125.018 15.8382 129.838C32.5355 139.485 59.6079 139.485 76.3052 129.838C84.6523 125.015 88.829 118.695 88.829 112.374H88.8258Z" fill="#D1D3D4"/>
<path d="M26.6254 27.0249H3.31445V112.374C3.31445 118.695 7.48798 125.018 15.8382 129.841C19.0927 131.722 22.7402 133.231 26.6285 134.379V27.0249H26.6254Z" fill="#E6E7E8"/>
<path d="M122.113 139.374L124.417 138.144L124.243 137.814C128.999 133.742 131.734 126.984 132.029 118.346C132.368 108.391 129.421 97.0164 123.726 86.3199C118.031 75.6235 110.245 66.8266 101.8 61.5561C94.4765 56.9832 87.3431 55.4832 81.3126 57.1608L81.1351 56.8278L78.7838 58.0836C78.4605 58.2327 78.1405 58.3881 77.8236 58.5561C71.1561 62.111 67.2899 69.7758 66.935 80.1424C66.5959 90.0968 69.5431 101.472 75.2377 112.168C75.2377 112.168 75.2377 112.168 75.2377 112.171C80.9292 122.865 88.7185 131.662 97.1638 136.932C105.958 142.421 114.476 143.49 121.143 139.935C121.476 139.758 121.796 139.567 122.116 139.371L122.113 139.374Z" fill="#9EA4AD"/>
<path d="M134.875 116.833C135.214 106.879 132.267 95.5036 126.572 84.8072C120.877 74.1108 113.091 65.3139 104.646 60.0434C95.852 54.554 87.337 53.4853 80.6663 57.0402C73.9988 60.5951 70.1327 68.2599 69.7778 78.6265C69.4387 88.5809 72.3858 99.9528 78.0805 110.652C78.0805 110.652 78.0805 110.652 78.0805 110.656C83.7719 121.349 91.5612 130.146 100.007 135.416C108.8 140.906 117.315 141.974 123.983 138.419C130.65 134.864 134.517 127.2 134.871 116.833H134.875Z" fill="#EDEDED"/>
<path d="M133.16 115.831C133.48 106.4 130.688 95.6242 125.294 85.4891C119.901 75.354 112.523 67.0233 104.522 62.0286C96.1904 56.8279 88.1222 55.8163 81.8065 59.1841C75.4907 62.5519 71.8243 69.8139 71.4915 79.6351C71.1683 89.0662 73.9633 99.8419 79.3569 109.977C84.7505 120.109 92.1278 128.44 100.129 133.434C108.461 138.635 116.529 139.647 122.845 136.279C129.16 132.911 132.824 125.649 133.16 115.828V115.831Z" fill="#DADCE0"/>
<g style="mix-blend-mode:multiply" opacity="0.5">
<path d="M91.0285 87.2078C90.7749 86.7322 90.8256 86.1328 91.2028 85.7015C91.6876 85.1466 92.5305 85.0895 93.0851 85.5747L112.707 102.737C113.262 103.222 113.319 104.066 112.834 104.621C112.349 105.176 111.506 105.233 110.952 104.748L91.3295 87.582C91.2028 87.471 91.1045 87.3442 91.0285 87.2047V87.2078Z" fill="#B9A3D3"/>
</g>
<path d="M88.034 84.7628C87.79 84.303 87.828 83.7227 88.1766 83.2914C88.6425 82.7206 89.4822 82.635 90.0527 83.1011L94.5019 86.7321C101.074 86.1804 106.671 88.1053 109.909 92.0566C112.299 94.9709 113.139 98.6653 112.27 102.306L116.33 106.305C116.856 106.822 116.862 107.665 116.346 108.192C115.829 108.718 114.986 108.724 114.46 108.207L109.843 103.66C109.488 103.311 109.358 102.791 109.504 102.315C110.439 99.2932 109.836 96.1696 107.85 93.75C105.096 90.3949 100.13 88.822 94.2198 89.4403C93.8681 89.4784 93.5132 89.3706 93.2375 89.1486L88.3668 85.1719C88.2242 85.0546 88.1132 84.9182 88.034 84.766V84.7628Z" fill="#8997AD"/>
<path d="M26.626 35.6854V134.379C32.3776 136.066 38.5413 136.999 45.1676 137.068V35.6854H26.626Z" fill="#DEDFE0"/>
<path d="M76.3054 9.55478C59.6081 -0.0919893 32.5357 -0.0919893 15.8384 9.55478C-0.858889 19.2015 -0.858889 34.8419 15.8384 44.4886C32.5357 54.1354 59.6081 54.1354 76.3054 44.4886C93.0027 34.8419 93.0027 19.2015 76.3054 9.55478Z" fill="#939598"/>
<path d="M17.2138 46.0045C33.1505 55.6513 58.987 55.6513 74.9238 46.0045C78.8121 43.6515 81.7497 40.9401 83.7398 38.0448C81.7497 35.1495 78.8121 32.4413 74.9238 30.0851C58.987 20.4383 33.1473 20.4383 17.2106 30.0851C13.3223 32.4381 10.3846 35.1495 8.39453 38.0448C10.3846 40.9369 13.3223 43.6515 17.2106 46.0045H17.2138Z" fill="#7F8287"/>
<path d="M46.0736 54.979H46.0704C33.9586 54.979 22.5408 52.2359 13.9213 47.2539C4.94358 42.069 0 35.0512 0 27.4911C0 19.9309 4.94358 12.9099 13.9213 7.72502C22.5408 2.74308 33.9618 0 46.0736 0C58.1854 0 69.6031 2.74308 78.2227 7.72185C87.2004 12.9068 92.144 19.9278 92.144 27.4879C92.144 35.048 87.2004 42.0659 78.2227 47.2539C69.6031 52.2359 58.1854 54.979 46.0767 54.979H46.0736ZM46.0736 4.12572C34.6748 4.12572 23.9891 6.67219 15.9843 11.2958C8.33755 15.7133 4.12599 21.4658 4.12599 27.4911C4.12599 33.5163 8.33755 39.2657 15.9843 43.6832C23.9859 48.3068 34.6716 50.8532 46.0736 50.8532H46.0767C57.4755 50.8532 68.1581 48.3068 76.1629 43.6832C83.8096 39.2657 88.0243 33.5132 88.0243 27.4879C88.0243 21.4626 83.8128 15.7133 76.1661 11.2958C68.1613 6.67219 57.4787 4.12572 46.0767 4.12572H46.0736Z" fill="#EDEDED"/>
</svg>
