<svg width="138" height="148" viewBox="0 0 138 148" fill="none" xmlns="http://www.w3.org/2000/svg">
<path d="M8.9308 0.919617H88.7445C91.0962 0.919617 93.2325 1.88872 94.7764 3.43212C96.3202 4.97551 97.2896 7.11113 97.2896 9.46212V35.8793H88.4932V9.71337H20.4559L57.0237 31.9131C58.4957 32.8104 59.7344 34.3718 60.5243 36.1843C61.2065 37.7457 61.6194 39.5762 61.6194 41.2991V107.844H88.5112V81.6606H97.3076V108.078C97.3076 110.429 96.3561 112.564 94.7943 114.108C93.2504 115.651 91.1142 116.62 88.7625 116.62H61.6194V139.915C61.6194 141.638 61.1885 143.181 60.4704 144.347C59.9678 145.155 59.3395 145.819 58.6035 146.304C57.6879 146.896 56.6647 147.219 55.5696 147.219C54.4745 147.219 53.4872 146.932 52.4639 146.304L4.9814 117.482C3.50936 116.584 2.27068 115.023 1.4808 113.21C0.798634 111.649 0.385742 109.819 0.385742 108.096V9.46212C0.385742 7.73926 0.816586 6.19587 1.53466 5.02935C1.91165 4.41917 2.34249 3.89872 2.86309 3.46801L2.899 3.43212C4.44285 1.88872 6.57912 0.919617 8.9308 0.919617V0.919617ZM69.0694 72.472H107.019V86.1651L137.556 58.7789L107.019 31.3926V45.0858H69.0694V72.472Z" fill="#424242"/>
</svg>
