 <svg xmlns="http://www.w3.org/2000/svg" width="80" height="80" viewBox="0 0 80 80" fill="none">
  <path d="M54.6963 60.2489C54.6531 60.2489 54.6121 60.236 54.5754 60.2101C40.7069 50.3074 22.7166 33.2809 14.4771 22.252C14.4167 22.1722 14.4231 22.06 14.4901 21.9867C29.0041 6.15104 52.1506 1.36152 66.0882 11.3116C66.1054 11.3246 66.1205 11.3397 66.1335 11.3569C74.4204 22.4462 69.3615 44.3486 54.8517 60.182C54.8107 60.2273 54.7546 60.2489 54.6984 60.2489H54.6963ZM14.9133 22.142C23.1506 33.104 40.9056 49.9083 54.6661 59.7635C68.9405 44.094 73.939 22.5454 65.8161 11.6331C52.0793 1.85126 29.287 6.56527 14.9133 22.142Z" fill="#27E6D6"/>
  <path d="M39.9773 48.4697C39.9277 48.4697 39.8758 48.4524 39.8369 48.4158C39.7527 48.3381 39.7463 48.2065 39.824 48.1202C47.1825 40.0902 58.9263 37.6674 66.002 42.718C66.0948 42.7848 66.1164 42.9164 66.0495 43.0092C65.9826 43.102 65.853 43.1236 65.758 43.0567C58.8486 38.1226 47.3509 40.5195 40.1306 48.4006C40.0896 48.446 40.0335 48.4675 39.9773 48.4675V48.4697Z" fill="#27E6D6"/>
  <path d="M25.6081 34.8688C25.5585 34.8688 25.5067 34.8515 25.4678 34.8149C25.3836 34.7372 25.3771 34.6056 25.4549 34.5193C37.9954 20.8346 58.0003 16.6988 70.0442 25.2962C70.1371 25.3631 70.1586 25.4947 70.0917 25.5875C70.0248 25.6802 69.8952 25.7018 69.8002 25.6349C57.9204 17.1519 38.1638 21.264 25.7614 34.7998C25.7204 34.8451 25.6643 34.8666 25.6081 34.8666V34.8688Z" fill="#27E6D6"/>
  <path d="M54.6965 60.2493C54.6771 60.2493 54.6577 60.2472 54.6382 60.2407C54.5281 60.2083 54.4655 60.0918 54.4979 59.9818C59.9606 41.4343 57.7367 17.4219 49.5404 6.45566C49.4713 6.36289 49.4907 6.23344 49.5836 6.1644C49.6764 6.09537 49.806 6.11479 49.8751 6.20756C58.1404 17.2666 60.3946 41.4429 54.8973 60.1026C54.8714 60.1932 54.7872 60.2515 54.6965 60.2515V60.2493Z" fill="#27E6D6"/>
  <path d="M54.6965 60.2487C54.6058 60.2487 54.5216 60.1883 54.4957 60.0976C49.8276 43.6213 39.3447 21.2702 31.1268 10.2737C31.0578 10.1809 31.0772 10.0515 31.17 9.98242C31.2607 9.91338 31.3924 9.93065 31.4615 10.0256C39.7053 21.0566 50.2183 43.4681 54.8973 59.9855C54.9297 60.0955 54.8649 60.212 54.7526 60.2422C54.7332 60.2465 54.7138 60.2508 54.6965 60.2508V60.2487Z" fill="#27E6D6"/>
  <path d="M26.8407 75.1522C26.4823 75.1522 26.1282 75.1435 25.7762 75.1263C20.6071 74.8674 16.3384 72.6819 13.4278 68.805C7.6477 64.6692 4.18866 58.6175 3.41999 51.3016C2.3879 41.4745 6.42343 30.7908 14.4901 21.9863C14.5333 21.941 14.583 21.9108 14.6542 21.9194C14.7169 21.9216 14.773 21.9518 14.8097 22.0036C23.0297 33.0022 40.9769 49.9899 54.8173 59.871C54.8648 59.9055 54.8971 59.9595 54.9036 60.0199C54.9101 60.0781 54.8907 60.1385 54.8496 60.1817C46.1978 69.6227 35.8121 75.1522 26.8385 75.1522H26.8407ZM14.6283 22.4545C6.75376 31.1339 2.82188 41.619 3.83454 51.2585C4.59025 58.4622 8.00181 64.4189 13.6956 68.4835C13.7129 68.4965 13.728 68.5116 13.7409 68.5288C16.5738 72.3195 20.7431 74.4575 25.7956 74.7099C34.834 75.1673 45.5004 69.6939 54.3833 60.0738C40.6249 50.2121 22.898 33.4359 14.6262 22.4545H14.6283Z" fill="#27E6D6"/>
  <path d="M39.4371 71.9512C39.3961 71.9512 39.3529 71.9383 39.3162 71.9124C36.3668 69.8067 34.6006 66.7237 34.2098 62.9957C33.6851 58.0077 35.732 52.586 39.8236 48.1201C39.9014 48.036 40.0352 48.0295 40.1194 48.1072C40.2036 48.1848 40.2101 48.3164 40.1324 48.4027C36.1228 52.7802 34.1147 58.0832 34.6265 62.9525C35.0043 66.5576 36.7122 69.5392 39.5602 71.5737C39.653 71.6405 39.6747 71.7721 39.6077 71.8649C39.5667 71.921 39.5019 71.9512 39.4371 71.9512Z" fill="#27E6D6"/>
  <path d="M24.6856 75.0406C24.6446 75.0406 24.6014 75.0277 24.5647 75.0018C19.5532 71.4247 16.5541 66.1843 15.8891 59.8522C14.9974 51.3605 18.4845 42.1267 25.4543 34.5195C25.5321 34.4354 25.6637 34.4289 25.7501 34.5066C25.8343 34.5842 25.8408 34.7158 25.7631 34.8021C18.8731 42.3208 15.4249 51.436 16.3037 59.8112C16.9557 66.0225 19.8966 71.1594 24.8066 74.6652C24.8994 74.7321 24.921 74.8637 24.8541 74.9565C24.813 75.0125 24.7483 75.0428 24.6835 75.0428L24.6856 75.0406Z" fill="#27E6D6"/>
  <path d="M54.696 60.2487H54.6895C35.3799 59.6619 12.9482 50.1864 4.68495 39.1295C4.61586 39.0367 4.63528 38.9073 4.72812 38.8382C4.82097 38.7692 4.95049 38.7886 5.01958 38.8814C13.218 49.8498 35.5052 59.2498 54.7046 59.8323C54.8191 59.8366 54.9098 59.9315 54.9076 60.048C54.9033 60.1602 54.8104 60.2509 54.6982 60.2509L54.696 60.2487Z" fill="#27E6D6"/>
  <path d="M29.8266 65.6222C18.7543 65.6222 9.10918 62.2565 4.30067 55.8209C4.23158 55.7281 4.251 55.5987 4.34385 55.5296C4.43453 55.4606 4.56621 55.48 4.6353 55.5728C12.8121 66.5132 35.231 68.4311 54.6119 59.851C54.7155 59.8057 54.8386 59.851 54.8861 59.9567C54.9336 60.0624 54.8861 60.1854 54.7803 60.2307C46.5775 63.8617 37.8285 65.6222 29.8266 65.6222Z" fill="#27E6D6"/>
  <path d="M48.1713 74.5486C44.9022 74.5486 41.8189 73.6964 39.3164 71.9122C39.2236 71.8453 39.202 71.7137 39.2689 71.6209C39.3359 71.5282 39.4654 71.5066 39.5604 71.5735C46.4698 76.5075 57.9675 74.1085 65.1878 66.2295C65.2655 66.1453 65.3972 66.1389 65.4836 66.2165C65.5678 66.2942 65.5743 66.4258 65.4966 66.5121C60.7399 71.7029 54.15 74.5507 48.1734 74.5507L48.1713 74.5486Z" fill="#27E6D6"/>
  <path d="M67.6622 67.1223C64.7408 67.1223 58.4425 62.9714 54.5754 60.212C54.5279 60.1775 54.4955 60.1236 54.489 60.0632C54.4825 60.0049 54.502 59.9445 54.543 59.9014C68.9232 44.2081 73.9713 22.5453 65.7988 11.607C65.7384 11.525 65.7448 11.4107 65.8161 11.3374C65.8895 11.264 66.004 11.2554 66.086 11.3136C71.8813 15.4516 75.3511 21.5097 76.1197 28.8364C77.1453 38.6161 73.1552 49.2436 65.1662 58.0222C68.6597 62.7212 69.8991 65.6466 68.8476 66.7189C68.5755 66.9972 68.1696 67.1223 67.6622 67.1223ZM55.0094 60.0092C65.8485 67.7199 68.1135 66.8742 68.5496 66.4276C68.9555 66.0134 69.3939 64.3759 64.7279 58.1323C64.6674 58.0525 64.6739 57.9403 64.7408 57.8669C72.7277 49.153 76.7222 38.5858 75.7052 28.8795C74.9948 22.1181 71.9482 16.4548 66.8655 12.4225C74.0685 23.7599 68.9469 44.6849 55.0094 60.0092Z" fill="#27E6D6"/>
  <path d="M65.3411 66.5764C65.2914 66.5764 65.2396 66.5591 65.2007 66.5225C65.1165 66.4448 65.1101 66.3132 65.1878 66.2269C69.1996 61.8495 71.2054 56.5465 70.6937 51.6771C70.3159 48.072 68.6079 45.0905 65.76 43.056C65.6671 42.9891 65.6455 42.8575 65.7125 42.7647C65.7794 42.6698 65.909 42.6504 66.004 42.7173C68.9534 44.8229 70.7196 47.9059 71.1104 51.634C71.6351 56.622 69.5882 62.0458 65.4965 66.5095C65.4555 66.5548 65.3994 66.5764 65.3432 66.5764H65.3411Z" fill="#27E6D6"/>
  <path d="M68.9988 65.847C68.9491 65.847 68.8973 65.8298 68.8584 65.7931C68.7742 65.7154 68.7677 65.5838 68.8455 65.4975C75.7354 57.9788 79.1837 48.8636 78.3049 40.4885C77.6528 34.2772 74.712 29.1403 69.802 25.6345C69.7091 25.5676 69.6876 25.436 69.7545 25.3432C69.8214 25.2504 69.951 25.2289 70.046 25.2958C75.0575 28.8728 78.0566 34.1132 78.7216 40.4453C79.6133 48.937 76.1262 58.1709 69.1564 65.778C69.1154 65.8233 69.0592 65.8449 69.0031 65.8449L68.9988 65.847Z" fill="#27E6D6"/>
  <path d="M56.5146 60.2775C55.9165 60.2775 55.3076 60.2689 54.6922 60.2495C54.5778 60.2451 54.4871 60.1502 54.4893 60.0337C54.4936 59.9194 54.5649 59.8244 54.7052 59.8309C65.879 60.1675 74.0947 57.4038 76.6857 52.4309C78.3483 49.24 77.5991 45.3739 74.5201 41.2532C74.451 41.1604 74.4704 41.031 74.5632 40.9619C74.6539 40.8929 74.7857 40.9101 74.8548 41.0051C78.0374 45.2617 78.7974 49.2789 77.055 52.6229C74.533 57.4642 66.9197 60.2753 56.5146 60.2753V60.2775Z" fill="#27E6D6"/>
  <path d="M54.6962 60.249C54.6163 60.249 54.5408 60.2037 54.5062 60.1239C54.4587 60.0181 54.5062 59.8952 54.612 59.8499C66.5912 54.5469 75.0854 46.2666 77.3288 37.7037C78.5855 32.912 77.7455 28.3685 74.9019 24.5627C74.8328 24.47 74.8522 24.3405 74.9451 24.2715C75.0358 24.2024 75.1675 24.2197 75.2366 24.3146C78.158 28.2239 79.0216 32.8905 77.7326 37.8094C75.4568 46.4953 66.8762 54.877 54.7804 60.2317C54.7523 60.2447 54.7243 60.249 54.6962 60.249Z" fill="#27E6D6"/>
  <path d="M39.8605 79.5063C39.664 79.5063 39.4675 79.5063 39.271 79.5019C38.2476 79.4825 36.857 79.4049 35.812 79.3099C35.1513 79.2495 34.3265 79.1265 33.5988 79.0165L33.0288 78.9324C31.852 78.7598 30.2931 78.4103 29.1487 78.0586C27.4581 77.5408 25.2126 76.7253 23.5565 76.0306C22.3689 75.5301 20.7322 74.6736 19.4864 73.8991C17.9447 72.9412 16.0295 71.5884 14.7189 70.5378C13.1967 69.3145 11.3613 67.3944 10.1479 66.1236C9.57138 65.5196 8.91069 64.6566 8.37953 63.964L8.13772 63.6512C7.6735 63.0471 6.21172 61.004 5.04575 58.8185C4.18208 57.2005 3.17588 54.933 2.54324 53.1768C2.1222 52.0075 1.57594 50.2815 1.31467 48.9482C1.26717 48.7045 1.21103 48.4412 1.1549 48.1651C1.00807 47.4618 0.843952 46.6635 0.755425 46.0228C0.599964 44.916 0.414305 43.2936 0.356007 42.0638C0.222138 39.2721 0.384066 37.2312 0.56112 35.6045C0.651805 34.7739 0.818046 33.6649 0.975667 32.8451C1.19159 31.7254 1.55219 30.2734 1.69685 29.6996C1.79618 29.3047 2.35539 27.1948 3.56669 24.3793C4.05179 23.2517 4.87087 21.6703 6.02387 19.6351C6.03251 19.62 7.13802 17.715 9.00356 15.3935C10.7568 13.2081 12.4345 11.6461 12.4518 11.631C13.7754 10.4185 15.0125 9.28799 16.1936 8.45953C16.3771 8.33009 16.5779 8.18554 16.7852 8.03452C17.2581 7.69148 17.7461 7.33766 18.1779 7.0723C19.9204 6.00652 21.3174 5.21042 22.3301 4.70774C23.7098 4.01951 25.4479 3.29893 26.9788 2.77899C29.7382 1.84266 31.8024 1.45648 32.0291 1.41549C33.5816 1.13502 35.3413 0.815715 37.5977 0.705686C38.2152 0.675482 39.3833 0.628018 40.275 0.645278C41.2682 0.666852 42.6739 0.718634 43.7362 0.837293C45.3124 1.01636 47.5558 1.4047 49.3199 1.80598C50.4405 2.06056 52.0016 2.53735 53.2086 2.99042C54.9964 3.66354 56.3869 4.25899 57.3434 4.76383C59.4313 5.86197 61.9619 7.49947 62.6874 7.97627C62.6896 7.97627 62.6917 7.97842 62.6939 7.98058C62.9962 8.19632 63.2941 8.42501 63.5813 8.66665C64.8314 9.64181 66.2047 10.755 67.2044 11.7345C68.5906 13.0916 70.2791 15.0074 71.4062 16.5046C71.933 17.2036 73.2911 19.0763 74.496 21.3351C75.3791 22.9899 76.3853 25.2574 76.9985 26.9769C77.2058 27.5594 77.9075 29.583 78.2271 31.2054C78.2746 31.4471 78.3307 31.7124 78.3868 31.9864C78.5337 32.6898 78.6978 33.488 78.7863 34.1309C78.9439 35.2657 79.1425 36.8752 79.1857 38.0942C79.257 40.0984 79.285 41.7338 78.9806 44.5514C78.8899 45.3842 78.7237 46.4931 78.5661 47.3107C78.3782 48.2859 78.0651 49.5718 77.8449 50.4563C77.8211 50.5512 77.2598 52.7928 75.975 55.7787C74.8717 58.3417 73.5675 60.4431 73.5135 60.5294C72.6628 61.8605 71.6092 63.5131 70.5339 64.7709C70.3828 64.9478 70.2165 65.1485 70.0459 65.3534C69.6465 65.8367 69.2319 66.3351 68.854 66.7234C67.5499 68.061 66.2068 69.3533 65.259 70.1796C65.192 70.2379 63.6158 71.6122 61.3811 73.0728C59.1204 74.5506 57.1729 75.4697 57.1534 75.4783C55.4693 76.2722 53.3187 77.0985 52.699 77.3316C52.17 77.5322 51.4899 77.7285 50.8896 77.9033C50.6499 77.9723 50.4189 78.0392 50.2094 78.1039C49.9741 78.173 47.8603 78.7792 44.9907 79.1632C43.747 79.3293 41.8901 79.5192 39.8562 79.5192L39.8605 79.5063ZM39.8345 1.05088C39.0378 1.05088 38.131 1.08971 37.6128 1.11345C35.3845 1.22347 33.6377 1.54062 32.0982 1.81893C31.8758 1.85992 29.8397 2.23963 27.1083 3.16733C25.5947 3.6808 23.876 4.39491 22.5114 5.07451C21.5095 5.57287 20.1234 6.36466 18.3917 7.42396C17.975 7.67854 17.4935 8.02805 17.0271 8.36676C16.8176 8.51994 16.6147 8.66665 16.429 8.79609C15.2717 9.60729 14.0431 10.7313 12.7432 11.9222C12.7152 11.9481 11.0742 13.4734 9.32528 15.6503C7.47054 17.9609 6.39524 19.8185 6.38444 19.8379C5.23863 21.8616 4.42605 23.43 3.94671 24.5433C2.74836 27.3307 2.19776 29.4126 2.09843 29.8031C1.95377 30.3727 1.59538 31.8182 1.38378 32.9249C1.22832 33.734 1.06419 34.8299 0.975667 35.6498C0.800772 37.2614 0.638846 39.2808 0.772716 42.0444C0.831014 43.2612 1.01672 44.8685 1.17002 45.9667C1.25855 46.5966 1.42045 47.3863 1.56512 48.0831C1.62342 48.3593 1.6774 48.6268 1.7249 48.8706C1.98184 50.1802 2.5195 51.8824 2.93839 53.0388C3.56455 54.7776 4.55993 57.0214 5.41713 58.6244C6.56366 60.7732 8.04268 62.8422 8.47019 63.3988L8.71205 63.7138C9.23673 64.3998 9.89098 65.252 10.4524 65.8389C11.6594 67.101 13.4817 69.0103 14.9823 70.2163C16.28 71.2583 18.1801 72.5981 19.7088 73.5496C20.9395 74.3154 22.5503 75.159 23.7206 75.6509C25.3637 76.3413 27.5941 77.1525 29.2718 77.666C30.3968 78.0111 31.9319 78.3563 33.0914 78.5268L33.6636 78.6109C34.3848 78.7188 35.2031 78.8418 35.853 78.9022C36.8894 78.9971 38.267 79.0726 39.2818 79.092C41.5252 79.1352 43.5959 78.9259 44.9432 78.7468C47.7825 78.3671 49.8661 77.7673 50.095 77.7005C50.3066 77.6357 50.5398 77.5689 50.7817 77.4977C51.3754 77.3251 52.0469 77.1309 52.5608 76.9367C53.8283 76.4578 55.6571 75.7221 56.985 75.0964C57.0044 75.0878 58.9261 74.1817 61.163 72.7189C63.374 71.2735 64.9286 69.9164 64.9934 69.8603C65.9326 69.0383 67.267 67.7547 68.5647 66.4257C68.9318 66.0503 69.3398 65.5562 69.735 65.0794C69.9077 64.8723 70.074 64.6717 70.2273 64.4926C71.2831 63.2586 72.3282 61.6189 73.1702 60.3029C73.2242 60.2166 74.5133 58.1433 75.6037 55.6083C76.8754 52.6526 77.4281 50.4434 77.4519 50.3506C77.67 49.4725 77.9809 48.1931 78.1666 47.2266C78.3221 46.4197 78.4862 45.3237 78.5747 44.5018C78.877 41.7122 78.8489 40.0919 78.7777 38.1049C78.7345 36.9054 78.538 35.3111 78.3825 34.1849C78.294 33.5549 78.1321 32.7653 77.9874 32.0663C77.9313 31.7901 77.8751 31.5247 77.8276 31.281C77.616 30.2044 77.1626 28.6467 76.6141 27.1128C76.0074 25.4106 75.0099 23.1647 74.1354 21.5272C72.9435 19.2942 71.6005 17.4431 71.0802 16.7506C69.9639 15.2684 68.2927 13.372 66.9194 12.0279C66.6409 11.7539 66.33 11.4713 66.0018 11.1822C66.0212 11.206 66.0385 11.2297 66.0579 11.2556C66.0622 11.2599 66.0643 11.2642 66.0687 11.2685C66.073 11.2728 66.0773 11.2793 66.0816 11.2858C66.1011 11.3117 66.1227 11.3397 66.1421 11.3678C74.429 22.457 69.3701 44.3594 54.8603 60.1928C54.7826 60.2791 54.6509 60.2834 54.5645 60.2058C54.4803 60.1281 54.4739 59.9965 54.5516 59.9102C68.9318 44.217 73.9799 22.5541 65.8074 11.6159C65.0711 10.6321 64.2398 9.75184 63.3265 8.99026C63.0264 8.75726 62.7349 8.53289 62.4585 8.3193C61.7417 7.84898 59.2284 6.22226 57.1577 5.13275C56.2163 4.6387 54.8409 4.04756 53.0682 3.38091C51.8785 2.93216 50.3368 2.464 49.2335 2.21374C47.4824 1.81677 45.2584 1.43059 43.6952 1.25368C42.648 1.13502 41.2553 1.0854 40.2707 1.06382C40.1347 1.06166 39.99 1.05951 39.8432 1.05951L39.8345 1.05088Z" fill="#27E6D6"/>
  <path d="M39.6272 79.4888C34.0651 79.4888 28.8183 78.0412 24.5625 75.0035C24.4697 74.9366 24.4481 74.805 24.515 74.7123C24.582 74.6195 24.7115 74.5979 24.8065 74.6648C36.6864 83.1479 56.4429 79.0358 68.8453 65.5C68.923 65.4158 69.0547 65.4094 69.1411 65.487C69.2253 65.5647 69.2318 65.6963 69.154 65.7826C61.0441 74.6324 49.8099 79.491 39.6272 79.491V79.4888Z" fill="#27E6D6"/>
  <path d="M38.7913 79.4913C35.531 79.4913 32.4023 77.5949 29.6644 73.9316C29.5953 73.8388 29.6148 73.7094 29.7076 73.6403C29.7983 73.5713 29.93 73.5885 29.9991 73.6835C33.0609 77.7783 36.6062 79.597 40.2423 78.9455C45.9728 77.9185 51.3017 70.8292 54.4972 59.9837C54.5296 59.8737 54.6462 59.8111 54.7563 59.8435C54.8665 59.8758 54.9291 59.9924 54.8967 60.1024C51.6557 71.101 46.2059 78.3004 40.3157 79.3554C39.8061 79.446 39.2966 79.4913 38.7913 79.4913Z" fill="#27E6D6"/>
  <path d="M55.1104 76.2509C53.5062 76.2509 51.1009 74.156 48.078 70.1108C48.0089 70.018 48.0283 69.8886 48.1212 69.8195C48.214 69.7505 48.3436 69.7699 48.4126 69.8627C52.8865 75.8496 54.8492 76.0998 55.6244 75.7223C57.4359 74.8291 57.0149 68.9868 54.4973 60.1002C54.4649 59.9902 54.5296 59.8737 54.6419 59.8435C54.752 59.8133 54.8686 59.8759 54.8989 59.9881C57.5525 69.3578 57.8764 75.0772 55.8079 76.0977C55.5963 76.2012 55.3631 76.2552 55.1104 76.2552V76.2509Z" fill="#27E6D6"/>
  <path d="M54.6962 60.249C54.6163 60.249 54.5408 60.2037 54.5062 60.1239C54.4587 60.0181 54.5062 59.8952 54.612 59.8499C66.5912 54.5469 75.0854 46.2666 77.3288 37.7037C78.5855 32.912 77.7455 28.3685 74.9019 24.5627C74.8328 24.47 74.8522 24.3405 74.9451 24.2715C75.0358 24.2024 75.1675 24.2197 75.2366 24.3146C78.158 28.2239 79.0216 32.8905 77.7326 37.8094C75.4568 46.4953 66.8762 54.877 54.7804 60.2317C54.7523 60.2447 54.7243 60.249 54.6962 60.249Z" fill="#27E6D6"/>
  <path d="M14.643 22.3384C14.643 22.3384 14.6365 22.3384 14.6322 22.3384C14.5696 22.3363 14.5134 22.306 14.4767 22.2543C10.9054 17.4755 9.6315 14.5026 10.6917 13.4217C11.9785 12.1121 16.1846 14.2049 20.1554 16.6924C27.5441 10.7788 36.2521 7.21474 44.6319 6.33666C47.7692 5.32698 50.8482 4.86528 53.7674 5.01199C58.9473 5.27088 63.2225 7.465 66.1331 11.357C66.1936 11.439 66.1871 11.5534 66.1158 11.6267C66.0446 11.7001 65.9301 11.7109 65.8459 11.6504C60.0032 7.48011 52.5129 5.93322 44.7399 6.73579C38.0464 8.89323 31.096 13.5835 25.0006 20.2371C24.9293 20.3147 24.8106 20.3255 24.7242 20.2651C23.012 19.0418 21.5092 18.03 20.1921 17.1951C18.2942 18.7312 16.4869 20.4248 14.7984 22.2672C14.7596 22.3104 14.7034 22.3341 14.6451 22.3341L14.643 22.3384ZM11.8879 13.4411C11.3632 13.4411 11.1084 13.5921 10.9897 13.713C10.588 14.1229 10.154 15.728 14.6603 21.8034C16.2818 20.0515 18.0091 18.4378 19.8185 16.9621C15.2173 14.084 12.9739 13.439 11.8879 13.439V13.4411ZM20.5268 16.9275C22.0706 17.907 23.5626 18.9318 24.8128 19.8228C30.377 13.7863 36.6494 9.36571 42.7966 6.98821C35.125 8.15323 27.2785 11.5555 20.5246 16.9275H20.5268ZM48.6567 6.12523C54.5879 6.12523 60.2083 7.54915 64.9067 10.5243C62.1213 7.41323 58.291 5.65922 53.7437 5.43053C51.4852 5.31619 49.1209 5.57509 46.7112 6.17485C47.3633 6.14034 48.0132 6.12523 48.6567 6.12523Z" fill="#27E6D6"/>
  <path d="M10.5408 14.7071C10.4911 14.7071 10.4393 14.6898 10.4004 14.6531C10.3162 14.5755 10.3097 14.4439 10.3875 14.3576C22.9302 0.672919 42.9329 -3.4629 54.9768 5.13667C55.0697 5.20355 55.0913 5.33516 55.0243 5.42793C54.9574 5.52069 54.8278 5.54227 54.7328 5.47539C42.853 -3.00767 23.0964 1.10441 10.6941 14.6402C10.653 14.6855 10.5969 14.7071 10.5408 14.7071Z" fill="#27E6D6"/>
  <path d="M14.2009 13.9775C14.1513 13.9775 14.0995 13.9602 14.0606 13.9235C13.9764 13.8459 13.9699 13.7143 14.0476 13.628C21.4061 5.59798 33.1478 3.17302 40.2256 8.22575C40.3184 8.29263 40.34 8.42423 40.2731 8.517C40.2062 8.61192 40.0766 8.63134 39.9816 8.56446C33.0722 3.63039 21.5745 6.02947 14.3542 13.9084C14.3132 13.9538 14.2571 13.9753 14.2009 13.9753V13.9775Z" fill="#27E6D6"/>
  <path d="M24.8434 20.3067C24.824 20.3067 24.8045 20.3045 24.7851 20.298C24.675 20.2657 24.6124 20.1492 24.6448 20.0391C27.8835 9.03834 33.3355 1.84112 39.2258 0.783971C43.0324 0.100061 46.7138 1.97703 49.8748 6.20562C49.9439 6.29839 49.9245 6.42783 49.8317 6.49687C49.7388 6.56591 49.6093 6.5465 49.5402 6.45373C46.4806 2.3589 42.9374 0.538021 39.2991 1.19388C33.5665 2.22083 28.2398 9.31018 25.0442 20.1556C25.0183 20.2463 24.9341 20.3045 24.8434 20.3045V20.3067Z" fill="#27E6D6"/>
  <path d="M24.8434 20.3059C24.7527 20.3059 24.6685 20.2455 24.6426 20.1549C21.9889 10.7851 21.6651 5.0636 23.7314 4.04528C25.286 3.27723 27.9613 5.34406 31.4591 10.0279C31.5282 10.1206 31.5088 10.2501 31.4159 10.3191C31.3231 10.3882 31.1936 10.3687 31.1245 10.276C26.6506 4.28907 24.6857 4.03665 23.9149 4.41852C22.1033 5.3117 22.5244 11.1541 25.042 20.0427C25.0744 20.1527 25.0096 20.2692 24.8973 20.2994C24.8779 20.3038 24.8585 20.3081 24.8412 20.3081L24.8434 20.3059Z" fill="#27E6D6"/>
  <path d="M9.61679 54.8816C9.57577 54.8816 9.53257 54.8687 9.49586 54.8428C4.48439 51.2658 1.4853 46.0275 0.820268 39.6932C-0.0714757 31.1994 3.41562 21.9655 10.3855 14.3584C10.4632 14.2742 10.5949 14.2678 10.6813 14.3454C10.7655 14.4231 10.772 14.5547 10.6942 14.641C3.80426 22.1597 0.356026 31.2749 1.23482 39.6501C1.88689 45.8614 4.82773 50.9982 9.73772 54.5041C9.83056 54.5709 9.85215 54.7025 9.78522 54.7953C9.74419 54.8514 9.67941 54.8816 9.61463 54.8816H9.61679Z" fill="#27E6D6"/>
  <path d="M13.6608 37.46C13.6198 37.46 13.5766 37.4471 13.5399 37.4212C10.5904 35.3155 8.82421 32.2325 8.4334 28.5045C7.90871 23.5165 9.95562 18.0926 14.0473 13.6289C14.125 13.5448 14.2589 13.5383 14.3431 13.6159C14.4273 13.6936 14.4338 13.8252 14.356 13.9115C10.3443 18.289 8.33838 23.592 8.8501 28.4613C9.22796 32.0664 10.9359 35.048 13.7839 37.0825C13.8767 37.1493 13.8983 37.2809 13.8314 37.3737C13.7903 37.4298 13.7256 37.46 13.6608 37.46Z" fill="#27E6D6"/>
  <path d="M4.85156 39.2138C4.78895 39.2138 4.72422 39.1858 4.68535 39.1297C1.50487 34.8731 0.744797 30.8559 2.4851 27.514C5.1517 22.3944 13.5099 19.5423 24.85 19.8875C24.9644 19.8918 25.0551 19.9867 25.0529 20.1032C25.0486 20.2154 24.9558 20.306 24.8435 20.306H24.837C13.6675 19.9651 5.44534 22.7331 2.85431 27.706C1.19174 30.8969 1.94098 34.7609 5.01782 38.8816C5.08692 38.9744 5.0675 39.1038 4.97465 39.1729C4.93794 39.2009 4.89258 39.2138 4.8494 39.2138H4.85156Z" fill="#27E6D6"/>
  <path d="M4.46938 55.9062C4.40676 55.9062 4.34198 55.8782 4.30312 55.8221C1.38174 51.9128 0.520209 47.2484 1.80708 42.3316C4.08287 33.6457 12.6635 25.2641 24.7614 19.9071C24.865 19.8618 24.9881 19.9071 25.0356 20.0129C25.0831 20.1186 25.0356 20.2415 24.9298 20.2869C12.9485 25.592 4.45638 33.8701 2.21082 42.4352C0.954178 47.2268 1.7941 51.7683 4.63559 55.5718C4.70468 55.6646 4.68526 55.794 4.59241 55.8631C4.55571 55.8911 4.5104 55.9041 4.46722 55.9041L4.46938 55.9062Z" fill="#27E6D6"/>
  <path d="M30.8804 74.0135C24.4461 74.0135 18.3766 72.3371 13.4537 68.8227C13.4364 68.8097 13.4213 68.7946 13.4083 68.7774C5.12136 57.6903 10.1825 35.7879 24.6922 19.9544C24.7635 19.8768 24.8822 19.8638 24.9686 19.9264C38.8371 29.8291 56.8252 46.8556 65.0669 57.8823C65.1273 57.9621 65.1208 58.0743 65.0539 58.1477C55.6679 68.3912 42.6674 74.0135 30.8848 74.0135H30.8804ZM13.7236 68.5034C27.4603 78.2852 50.2527 73.5712 64.6264 57.9945C56.3912 47.0325 38.6362 30.2303 24.8757 20.3752C10.6013 36.0447 5.60285 57.591 13.7236 68.5034Z" fill="#27E6D6"/>
  <path d="M24.5603 59.3279C18.9982 59.3279 13.7514 57.8803 9.49562 54.8404C9.40278 54.7735 9.38119 54.6419 9.44813 54.5492C9.51506 54.4542 9.64463 54.4348 9.73964 54.5017C21.6195 62.9848 41.376 58.8727 53.7784 45.3369C53.8561 45.2528 53.9879 45.2463 54.0742 45.324C54.1584 45.4016 54.1649 45.5332 54.0872 45.6195C45.9772 54.4694 34.743 59.3279 24.5603 59.3279Z" fill="#27E6D6"/>
  <path d="M22.3924 40.0595C19.1234 40.0595 16.0401 39.2073 13.5377 37.421C13.4448 37.3541 13.4232 37.2225 13.4901 37.1297C13.557 37.0348 13.6866 37.0154 13.7816 37.0823C20.691 42.0163 32.1887 39.6194 39.409 31.7383C39.4867 31.6541 39.6185 31.6477 39.7048 31.7253C39.789 31.803 39.7955 31.9346 39.7178 32.0209C34.9611 37.2117 28.3691 40.0617 22.3946 40.0617L22.3924 40.0595Z" fill="#27E6D6"/>
  <path d="M29.8333 74.0135C29.7707 74.0135 29.7059 73.9854 29.667 73.9294C21.4017 62.8725 19.1496 38.6962 24.6469 20.0365C24.6793 19.9264 24.7937 19.8639 24.906 19.8962C25.0161 19.9286 25.0787 20.0451 25.0463 20.1551C19.5836 38.7026 21.8054 62.715 30.0017 73.6791C30.0708 73.7719 30.0513 73.9013 29.9585 73.9703C29.9218 73.9984 29.8765 74.0113 29.8333 74.0113V74.0135Z" fill="#27E6D6"/>
  <path d="M48.2445 70.1949C48.1819 70.1949 48.1193 70.1668 48.0782 70.1107C39.8345 59.0819 29.3235 36.6725 24.6446 20.153C24.6122 20.043 24.6769 19.9264 24.7892 19.8962C24.9015 19.866 25.0159 19.9286 25.0462 20.0408C29.7122 36.5172 40.195 58.8661 48.4129 69.8626C48.482 69.9554 48.4625 70.0848 48.3697 70.1539C48.333 70.1819 48.2877 70.1949 48.2445 70.1949Z" fill="#27E6D6"/>
  <path d="M64.8969 58.2163C64.8969 58.2163 64.8905 58.2163 64.8861 58.2163C64.8235 58.2142 64.7674 58.184 64.7307 58.1322C56.5128 47.1357 38.5657 30.148 24.7253 20.2669C24.6778 20.2324 24.6454 20.1785 24.6389 20.1181C24.6324 20.0598 24.6519 19.9994 24.6929 19.9563C33.6902 10.1377 44.5509 4.55212 53.7706 5.01165C58.9397 5.27054 63.2063 7.45604 66.1169 11.3308C71.897 15.4688 75.356 21.5204 76.1247 28.8341C77.1568 38.6613 73.1213 49.3449 65.0546 58.1473C65.0157 58.1904 64.9596 58.2142 64.9013 58.2142L64.8969 58.2163ZM25.1593 20.0663C38.9176 29.9279 56.6445 46.7021 64.9142 57.6834C72.7866 49.0041 76.7207 38.521 75.708 28.8816C74.9523 21.6779 71.5407 15.7212 65.847 11.6544C65.8297 11.6415 65.8146 11.6264 65.8016 11.6091C62.9688 7.81849 58.8016 5.68262 53.7491 5.4302C44.7237 4.97498 34.0443 10.4462 25.1593 20.0663Z" fill="#27E6D6"/>
  <path d="M53.9324 45.6888C53.8827 45.6888 53.8309 45.6716 53.792 45.6349C53.7078 45.5572 53.7013 45.4256 53.7791 45.3393C60.669 37.8206 64.1173 28.7054 63.2385 20.3303C62.5864 14.119 59.6456 8.98211 54.7356 5.47627C54.6427 5.40939 54.6211 5.27778 54.6881 5.18501C54.755 5.09224 54.8846 5.07067 54.9796 5.13755C59.9911 8.71459 62.9902 13.9529 63.6552 20.2871C64.5469 28.781 61.0598 38.0148 54.09 45.6219C54.049 45.6672 53.9928 45.6888 53.9367 45.6888H53.9324Z" fill="#27E6D6"/>
  <path d="M39.5632 32.0872C39.5136 32.0872 39.4618 32.0699 39.4229 32.0332C39.3387 31.9556 39.3322 31.8239 39.4099 31.7376C43.4195 27.3602 45.4276 22.0572 44.9159 17.1879C44.538 13.5828 42.8301 10.6012 39.9821 8.56672C39.8893 8.49984 39.8677 8.36824 39.9347 8.27547C40.0016 8.18054 40.1311 8.16112 40.2261 8.228C43.1756 10.3337 44.9418 13.4167 45.3326 17.1447C45.8573 22.1327 43.8104 27.5544 39.7187 32.0203C39.6777 32.0656 39.6215 32.0872 39.5654 32.0872H39.5632Z" fill="#27E6D6"/>
  <path d="M74.6864 41.3391C74.6238 41.3391 74.5612 41.3111 74.5202 41.255C66.3239 30.2866 44.0368 20.8887 24.8373 20.3062C24.7228 20.3019 24.6322 20.207 24.6343 20.0905C24.6386 19.9783 24.7315 19.8877 24.8437 19.8877H24.8502C44.1577 20.4745 66.5895 29.9478 74.8527 41.0047C74.9218 41.0975 74.9023 41.227 74.8095 41.296C74.7728 41.324 74.7275 41.337 74.6843 41.337L74.6864 41.3391Z" fill="#27E6D6"/>
  <path d="M75.071 24.6483C75.0084 24.6483 74.9436 24.6202 74.9047 24.5641C66.73 13.6259 44.3112 11.7079 24.9303 20.2881C24.8267 20.3355 24.7015 20.2881 24.6561 20.1824C24.6086 20.0767 24.6561 19.9537 24.7619 19.9084C44.3112 11.2527 66.9545 13.2311 75.2393 24.316C75.3084 24.4088 75.289 24.5382 75.1962 24.6073C75.1595 24.6353 75.1142 24.6483 75.071 24.6483Z" fill="#27E6D6"/>
</svg>