<svg width="22" height="22" viewBox="0 0 22 22" fill="none" xmlns="http://www.w3.org/2000/svg">
<g clip-path="url(#clip0_16_152)">
<path d="M9.16667 0H0.916667C0.410406 0 0 0.410406 0 0.916667V9.16667C0 9.67293 0.410406 10.0833 0.916667 10.0833H9.16667C9.67293 10.0833 10.0833 9.67293 10.0833 9.16667V0.916667C10.0833 0.410406 9.67293 0 9.16667 0Z" fill="white"/>
<path d="M21.0834 0H12.8334C12.3271 0 11.9167 0.410406 11.9167 0.916667V9.16667C11.9167 9.67293 12.3271 10.0833 12.8334 10.0833H21.0834C21.5896 10.0833 22 9.67293 22 9.16667V0.916667C22 0.410406 21.5896 0 21.0834 0Z" fill="white"/>
<path d="M9.16667 11.9167H0.916667C0.410406 11.9167 0 12.3271 0 12.8333V21.0833C0 21.5896 0.410406 22 0.916667 22H9.16667C9.67293 22 10.0833 21.5896 10.0833 21.0833V12.8333C10.0833 12.3271 9.67293 11.9167 9.16667 11.9167Z" fill="white"/>
<path d="M21.0834 11.9167H12.8334C12.3271 11.9167 11.9167 12.3271 11.9167 12.8333V21.0833C11.9167 21.5896 12.3271 22 12.8334 22H21.0834C21.5896 22 22 21.5896 22 21.0833V12.8333C22 12.3271 21.5896 11.9167 21.0834 11.9167Z" fill="white"/>
</g>
<defs>
<clipPath id="clip0_16_152">
<rect width="22" height="22" fill="white"/>
</clipPath>
</defs>
</svg>
