<svg xmlns="http://www.w3.org/2000/svg" width="21" height="22" viewBox="0 0 21 22" fill="none">
  <path fill-rule="evenodd" clip-rule="evenodd" d="M1.29886 21.2093H4.496C4.77485 21.2093 5.00336 20.9797 5.00336 20.6951V18.5225C5.00336 18.2399 4.77679 18.0083 4.496 18.0083H1.29886C1.01807 18.0083 0.791504 18.2379 0.791504 18.5225V20.6971C0.791504 20.9797 1.01807 21.2093 1.29886 21.2093Z" fill="white"/>
  <path fill-rule="evenodd" clip-rule="evenodd" d="M16.5815 7.85405V20.6974C16.5815 20.98 16.8081 21.2116 17.0889 21.2116H20.286C20.5649 21.2116 20.7934 20.982 20.7934 20.6974V7.85405C20.7934 7.57143 20.5668 7.33984 20.286 7.33984H17.087C16.8081 7.33984 16.5815 7.56947 16.5815 7.85405Z" fill="white"/>
  <path fill-rule="evenodd" clip-rule="evenodd" d="M6.56034 21.2093H9.75747C10.0363 21.2093 10.2648 20.9797 10.2648 20.6951V11.0547C10.2648 10.7721 10.0383 10.5405 9.75747 10.5405H6.56034C6.28148 10.5405 6.05298 10.7702 6.05298 11.0547V20.6971C6.05491 20.9797 6.28148 21.2093 6.56034 21.2093Z" fill="white"/>
  <path fill-rule="evenodd" clip-rule="evenodd" d="M11.8238 21.2097H15.0209C15.2998 21.2097 15.5283 20.98 15.5283 20.6955V15.3218C15.5283 15.0392 15.3017 14.8076 15.0209 14.8076H11.8238C11.5449 14.8076 11.3164 15.0372 11.3164 15.3218V20.6955C11.3183 20.98 11.5449 21.2097 11.8238 21.2097Z" fill="white"/>
  <path d="M18.6865 0.209473C17.7086 0.209473 16.9146 1.01611 16.9146 2.00527C16.9146 2.42527 17.056 2.82368 17.3174 3.14555L14.0447 7.79302C13.4909 7.58106 12.8461 7.6733 12.3697 8.0305L9.78061 5.9305C9.87937 5.70284 9.93165 5.45555 9.93165 5.2063C9.93165 4.21517 9.13576 3.4105 8.15977 3.4105C7.18185 3.4105 6.38789 4.21714 6.38789 5.2063C6.38789 5.62826 6.53119 6.02863 6.79455 6.3505L3.52189 10.9941C3.32244 10.9175 3.1133 10.8783 2.89835 10.8783C1.92042 10.8783 1.12646 11.6849 1.12646 12.6741C1.12646 13.6652 1.92236 14.4698 2.89835 14.4698C3.87627 14.4698 4.67023 13.6632 4.67023 12.6741C4.67023 12.2521 4.52693 11.8517 4.2655 11.5298L7.5401 6.8863C8.09393 7.09826 8.73684 7.00601 9.21128 6.65078L11.8004 8.75274C11.7035 8.97845 11.6513 9.22573 11.6513 9.47302C11.6513 10.4641 12.4471 11.2688 13.4231 11.2688C14.3991 11.2688 15.195 10.4622 15.195 9.47302C15.195 9.05106 15.0517 8.65069 14.7884 8.32882L18.0571 3.6833C18.2585 3.76181 18.4677 3.80106 18.6846 3.80106C19.6625 3.80106 20.4564 2.99443 20.4564 2.00527C20.4584 1.01611 19.6644 0.209473 18.6865 0.209473ZM14.2694 9.32975C14.2771 9.38274 14.2829 9.42985 14.2829 9.47499C14.2829 9.95583 13.8976 10.3464 13.4231 10.3464C12.9487 10.3464 12.5633 9.95583 12.5633 9.47499C12.5633 9.44359 12.5653 9.41218 12.5691 9.37489C12.5788 9.28658 12.6021 9.20218 12.6369 9.12172C12.6505 9.08835 12.6679 9.05891 12.6911 9.01966C12.7473 8.92742 12.819 8.84695 12.9061 8.78022C13.0571 8.66443 13.2353 8.60359 13.4231 8.60359C13.4735 8.60359 13.5238 8.60947 13.5839 8.61929C13.7775 8.65658 13.9537 8.76059 14.0815 8.91564C14.1086 8.94901 14.1358 8.9863 14.1687 9.04125C14.19 9.0805 14.2093 9.11975 14.2248 9.16293L14.4049 9.09228L14.2306 9.18256C14.2481 9.22573 14.2597 9.26891 14.2694 9.32975ZM17.8403 2.14854C17.8325 2.09555 17.8267 2.05041 17.8267 2.00527C17.8267 1.52443 18.2121 1.13387 18.6865 1.13387C19.1609 1.13387 19.5463 1.52443 19.5463 2.00527C19.5463 2.48611 19.1609 2.87667 18.6865 2.87667C18.642 2.87667 18.5955 2.87274 18.5374 2.86293L18.5238 2.86097C18.3302 2.82368 18.152 2.7177 18.0242 2.56265C17.9971 2.52929 17.9719 2.49396 17.939 2.43508C17.9177 2.39779 17.9003 2.35658 17.8848 2.31732L17.877 2.29573C17.8635 2.25452 17.8519 2.21134 17.8403 2.14854ZM3.75621 12.6741C3.75621 13.1549 3.37085 13.5455 2.89641 13.5455C2.42197 13.5455 2.03661 13.1549 2.03661 12.6741C2.03661 12.1932 2.42197 11.8027 2.89641 11.8027C2.94676 11.8027 2.99904 11.8085 3.05714 11.8184C3.10555 11.8282 3.1559 11.8419 3.20431 11.8615C3.38247 11.9302 3.53545 12.0617 3.64002 12.2403C3.66132 12.2796 3.68069 12.3188 3.69618 12.362L3.70199 12.3797C3.71748 12.4209 3.7291 12.466 3.74072 12.5269C3.75234 12.5838 3.75621 12.6309 3.75621 12.6741ZM8.34374 6.2563L8.28758 6.06592C8.04746 6.10321 7.78409 6.03059 7.59432 5.86181C7.57495 5.84611 7.55753 5.82844 7.53816 5.80686L7.52848 5.79704C7.50911 5.77545 7.48975 5.7519 7.47232 5.72835L7.46651 5.7205C7.42004 5.65573 7.38324 5.58508 7.35032 5.50069C7.33483 5.45555 7.32127 5.40844 7.31159 5.35153C7.30191 5.29854 7.29804 5.25144 7.29804 5.2063C7.29804 4.72545 7.6834 4.33489 8.15784 4.33489C8.63227 4.33489 9.01763 4.72545 9.01763 5.2063C9.01763 5.2377 9.0157 5.2691 9.01183 5.29854L9.20354 5.32013L9.00795 5.31424C9.00408 5.33975 9.00021 5.36723 8.9944 5.39667C8.98084 5.45359 8.96341 5.5105 8.94018 5.56349C8.88014 5.69695 8.78719 5.81471 8.671 5.90302C8.59935 5.95798 8.52189 5.99919 8.42894 6.03256C8.39021 6.0463 8.34955 6.05611 8.30695 6.06396L8.34374 6.2563Z" fill="white"/>
</svg> 