<svg width="12" height="11" viewBox="0 0 12 11" fill="none" xmlns="http://www.w3.org/2000/svg">
    <path d="M6.70533 1.34542L6.35827 1.70266L5.99964 2.07181L5.64102 1.70266L5.29391 1.34537L5.29386 1.34532C4.19922 0.218255 2.42223 0.218183 1.32717 1.34537C0.224317 2.48058 0.224233 4.33503 1.32717 5.4707C1.32719 5.47071 1.32721 5.47073 1.32722 5.47075L1.6725 5.82615L2.01101 6.17459L2.00922 6.17643L5.99822 10.2824L10.6728 5.4707C11.7757 4.33548 11.7758 2.48103 10.6728 1.34537L6.70533 1.34542ZM6.70533 1.34542C7.80074 0.218183 9.57777 0.218239 10.6728 1.34532L6.70533 1.34542Z" stroke="#7D8890"/>
    </svg>
    