<svg width="30" height="29" viewBox="0 0 30 29" fill="none" xmlns="http://www.w3.org/2000/svg">
<path d="M29.5778 11.9882L15.3889 0.136932C15.1667 -0.0456439 14.8389 -0.0456439 14.6111 0.136932L0.422222 11.9882C0.155556 12.2084 0 12.536 0 12.8796V28.4147C0 28.7369 0.266667 29 0.6 29H10.65C10.9833 29 11.25 28.71 11.25 28.3556V17.487C11.25 17.1272 11.5167 16.8426 11.85 16.8426H18.15C18.4833 16.8426 18.75 17.1326 18.75 17.487V28.3449C18.75 28.7047 19.0167 28.9893 19.35 28.9893H29.4C29.7333 28.9893 30 28.7261 30 28.4039V12.8796C30 12.536 29.8444 12.2084 29.5778 11.9882Z" fill="#D9D9D9"/>
</svg>
