<svg width="92" height="71" viewBox="0 0 92 71" fill="none" xmlns="http://www.w3.org/2000/svg">
<path d="M43.1347 25.7462C43.1068 25.7462 43.0789 25.7344 43.0585 25.7117C43.0199 25.6697 43.0231 25.605 43.0639 25.5662C43.0714 25.5587 43.3332 25.2774 43.4309 24.1975C43.5672 22.6972 43.5564 19.0231 43.2731 14.9007C43.0017 10.9518 42.5445 6.66549 42.081 3.71673C41.7118 1.37367 41.2987 -0.959688 40.6581 -1.5018C40.6141 -1.53845 40.6087 -1.60419 40.6452 -1.64838C40.6817 -1.69257 40.7482 -1.69796 40.7912 -1.66131C41.421 -1.12782 41.8159 0.702223 42.2849 3.68332C42.7495 6.63855 43.2077 10.9302 43.4792 14.8856C43.7635 19.0188 43.7732 22.708 43.6358 24.2158C43.5296 25.3884 43.2367 25.688 43.2034 25.7182C43.1841 25.7365 43.1583 25.7451 43.1337 25.7451L43.1347 25.7462Z" fill="#27E6D6"/>
<path d="M39.5732 26.2672C39.5356 26.2672 39.5002 26.2467 39.4809 26.2111C39.4541 26.1605 39.4745 26.098 39.5249 26.071C39.5324 26.0667 39.8672 25.8781 40.0711 25.3069C40.319 24.6171 40.5647 23.5307 40.5089 20.7081C40.4402 17.2194 39.4337 12.0493 38.8167 9.61035C38.1117 6.82757 36.2456 0.270452 34.1499 -0.517393C34.0963 -0.537871 34.0695 -0.598226 34.0888 -0.651036C34.1092 -0.704924 34.1682 -0.731868 34.2218 -0.712469C36.4098 0.109865 38.3038 6.74458 39.0173 9.5597C39.6376 12.0073 40.6473 17.1978 40.716 20.7048C40.7729 23.5609 40.5207 24.6699 40.2664 25.3791C40.0303 26.0355 39.6376 26.2478 39.6215 26.2564C39.6065 26.264 39.5893 26.2683 39.5732 26.2683V26.2672Z" fill="#27E6D6"/>
<path d="M36.4291 27.0839C36.3883 27.0839 36.3486 27.0591 36.3325 27.0181C36.3111 26.9653 36.3368 26.905 36.3905 26.8834C36.399 26.8802 37.2071 26.5224 37.5419 24.6611C37.764 23.427 37.9711 20.6863 36.8658 16.206C35.8089 11.9219 34.8388 9.46029 32.712 5.67195C30.3169 1.40401 28.2781 1.06451 27.865 1.2057C27.8103 1.2251 27.7512 1.19492 27.733 1.14103C27.7148 1.08607 27.7437 1.02787 27.7974 1.00847C28.35 0.818783 30.4672 1.25097 32.8912 5.56957C35.0277 9.37623 36.0031 11.8497 37.0654 16.1554C38.1803 20.6744 37.9689 23.4475 37.7436 24.6977C37.3852 26.6894 36.5031 27.0623 36.4656 27.0774C36.4527 27.0828 36.4398 27.085 36.4269 27.085L36.4291 27.0839Z" fill="#27E6D6"/>
<path d="M33.7897 28.0864C33.7596 28.0864 33.7307 28.0735 33.7103 28.0498C33.6738 28.0056 33.6792 27.9399 33.7232 27.9032C33.735 27.8935 34.8724 26.9074 35.0731 24.8823C35.2544 23.0544 35.1181 21.4614 34.6052 19.3835C34.309 18.184 33.4366 15.066 31.7391 12.0127C30.1509 9.1566 28.5982 7.09376 26.8491 5.52239C24.9369 3.80335 23.0494 3.07909 21.9238 3.63091C21.8723 3.6557 21.81 3.63522 21.7853 3.58349C21.7607 3.53176 21.7811 3.46925 21.8326 3.44446C23.0548 2.84522 24.9809 3.56409 26.9875 5.36719C28.7538 6.95473 30.3205 9.03374 31.9204 11.9114C33.6298 14.9873 34.5086 18.1268 34.8069 19.3339C35.3263 21.4366 35.4637 23.0501 35.2791 24.9038C35.0698 27.0173 33.9056 28.0218 33.8562 28.0638C33.8369 28.08 33.8133 28.0886 33.7897 28.0886V28.0864Z" fill="#27E6D6"/>
<path d="M31.4998 29.2754C31.473 29.2754 31.4451 29.2647 31.4247 29.2431C31.385 29.2011 31.3872 29.1353 31.429 29.0965C31.4397 29.0858 32.5096 28.0479 32.7671 26.3881C33.1201 24.114 32.7027 21.5436 31.5266 18.7478C30.0598 15.2581 27.4844 11.6055 24.967 9.44136C22.2736 7.1274 18.6038 5.38789 16.478 6.71893C16.4297 6.74911 16.3654 6.73402 16.3353 6.68552C16.3053 6.63702 16.3203 6.57235 16.3686 6.54218C18.7368 5.06241 22.5526 7.09399 25.1022 9.28401C27.6432 11.4665 30.24 15.1503 31.7187 18.667C32.9088 21.4983 33.3315 24.1065 32.9721 26.4204C32.7027 28.1535 31.6168 29.2043 31.5706 29.2485C31.5503 29.2679 31.5256 29.2765 31.4998 29.2765V29.2754Z" fill="#27E6D6"/>
<path d="M29.8074 30.4608C29.7837 30.4608 29.7612 30.4533 29.7419 30.4371C29.6979 30.4005 29.6915 30.3347 29.7279 30.2905C30.6508 29.1621 30.9974 27.6985 30.8858 25.3964C30.7699 22.9962 28.7482 18.3543 26.218 15.7343C22.8829 12.2822 19.9191 10.3627 16.8909 9.69125C13.3155 8.89909 11.6662 10.3972 11.6501 10.4134C11.6082 10.4522 11.5428 10.45 11.5041 10.408C11.4655 10.3659 11.4666 10.3002 11.5084 10.2614C11.5782 10.1956 13.2446 8.67061 16.936 9.48863C20.006 10.1687 23.002 12.1076 26.3671 15.5899C28.9296 18.2422 30.9759 22.9499 31.094 25.3867C31.2077 27.7459 30.8482 29.2516 29.89 30.4242C29.8696 30.449 29.8395 30.4619 29.8095 30.4619L29.8074 30.4608Z" fill="#27E6D6"/>
<path d="M28.6572 31.535C28.6369 31.535 28.6175 31.5296 28.5993 31.5177C28.5521 31.4854 28.5392 31.4207 28.5714 31.3733C28.5832 31.3561 29.7271 29.608 29.388 27.0526C29.1487 25.2462 28.1604 21.6508 24.233 17.8733C20.8475 14.6163 16.1271 12.9414 14.0024 12.8347C11.529 12.7108 8.77449 12.8918 7.10802 15.1778C7.07476 15.2241 7.0093 15.2349 6.96316 15.2004C6.91702 15.1659 6.90736 15.1012 6.94063 15.0549C8.66504 12.6892 11.4829 12.4984 14.0132 12.6267C16.1679 12.7345 20.9527 14.4298 24.3757 17.7234C28.3482 21.5452 29.3494 25.1924 29.593 27.0256C29.9428 29.6629 28.7914 31.4164 28.742 31.4897C28.7216 31.5199 28.6894 31.5361 28.6562 31.5361L28.6572 31.535Z" fill="#27E6D6"/>
<path d="M27.9307 32.2937C27.9178 32.2937 27.906 32.2916 27.8931 32.2873C27.8395 32.2668 27.8126 32.2064 27.8341 32.1525C28.4726 30.482 28.362 28.4106 27.5293 26.4706C26.5239 24.1264 24.6975 21.8556 22.6437 20.3963C20.8012 19.0868 17.3696 16.6489 11.6673 16.5293C6.33208 16.4183 4.04109 19.7292 4.01856 19.7626C3.98637 19.81 3.92198 19.8229 3.87477 19.7906C3.82756 19.7583 3.81468 19.6936 3.84687 19.6462C3.8694 19.6117 6.21726 16.2049 11.6727 16.3213C17.4383 16.442 20.9032 18.9036 22.7639 20.226C24.8467 21.7058 26.6988 24.009 27.7193 26.3876C28.5734 28.3771 28.6861 30.5057 28.0272 32.2269C28.0111 32.2679 27.9725 32.2937 27.9307 32.2937Z" fill="#27E6D6"/>
<path d="M27.4262 33.9765C27.4187 33.9765 27.4111 33.9765 27.4036 33.9743C27.3478 33.9614 27.3124 33.9054 27.3253 33.8504C27.3307 33.8288 27.8028 31.6776 27.1021 29.5609C26.4443 27.5735 24.0686 22.7462 16.2502 20.8547C8.74953 19.0408 2.96573 22.2343 1.33253 26.1595C1.30999 26.2123 1.24883 26.2371 1.19732 26.2155C1.14474 26.1929 1.12006 26.1325 1.14152 26.0797C2.80799 22.0737 8.68515 18.8113 16.2985 20.6521C24.2177 22.5673 26.6289 27.4743 27.2985 29.4952C28.0185 31.669 27.5324 33.8741 27.527 33.8957C27.5163 33.9442 27.4734 33.9765 27.4262 33.9765Z" fill="#27E6D6"/>
<path d="M27.2857 33.5485C27.231 33.5485 27.1859 33.5065 27.1827 33.4504C27.0379 31.0621 25.5087 28.6846 22.9849 26.9256C19.021 24.1633 13.5012 23.3863 8.58012 24.8994C0.736041 27.3115 0.225264 33.1486 0.220972 33.2079C0.21668 33.265 0.168392 33.3038 0.110447 33.3038C0.0535745 33.2995 0.010652 33.25 0.0149443 33.1928C0.0192365 33.1325 0.534306 27.1552 8.52003 24.7011C13.5001 23.1707 19.0886 23.9575 23.104 26.7554C25.6794 28.5509 27.2417 30.9867 27.3909 33.4386C27.3941 33.4957 27.3512 33.5453 27.2932 33.5485C27.2911 33.5485 27.2889 33.5485 27.2868 33.5485H27.2857Z" fill="#27E6D6"/>
<path d="M0.714416 40.0561C0.661836 40.0561 0.616768 40.0151 0.611402 39.9612C0.603891 39.8847 0.0179988 32.2294 10.2035 28.6038C14.9733 26.9063 19.8128 27.2059 23.4837 29.425C25.8026 30.8272 27.3585 32.834 27.645 34.7912C27.6536 34.8483 27.6139 34.9011 27.5571 34.9098C27.498 34.9173 27.4476 34.8785 27.439 34.8214C27.1611 32.9245 25.6416 30.9738 23.3753 29.6029C19.758 27.415 14.9829 27.1229 10.2711 28.7988C0.236903 32.3716 0.810992 39.8664 0.81743 39.9418C0.822795 39.999 0.780946 40.0496 0.724074 40.055C0.720855 40.055 0.717635 40.055 0.714416 40.055V40.0561Z" fill="#27E6D6"/>
<path d="M2.83275 46.4083C2.78983 46.4083 2.74906 46.3813 2.73511 46.3382C2.72116 46.2984 1.41524 42.3128 4.99175 37.7463C9.17669 32.4038 15.0914 31.1428 17.4403 30.8486C21.0941 30.3895 25.7469 31.3174 27.8426 35.2901C27.8694 35.3407 27.8501 35.4043 27.7997 35.4313C27.7492 35.4582 27.6859 35.4388 27.6591 35.3882C25.6138 31.5082 21.0533 30.6061 17.465 31.0555C15.1418 31.3465 9.29044 32.5946 5.15379 37.8756C1.65024 42.3483 2.91753 46.2315 2.9304 46.2703C2.94864 46.3242 2.92074 46.3835 2.86602 46.4029C2.85529 46.4072 2.84348 46.4083 2.83275 46.4083Z" fill="#27E6D6"/>
<path d="M6.33209 52.2504C6.29668 52.2504 6.26234 52.2321 6.24303 52.1997C6.22371 52.1685 4.35659 48.9772 6.37931 44.6123C8.29043 40.4877 12.7029 35.5062 19.3548 33.8971C25.3822 32.44 28.0466 35.78 28.0723 35.8145C28.1077 35.8597 28.0991 35.9255 28.0541 35.96C28.009 35.9945 27.9436 35.9869 27.9092 35.9417C27.8835 35.9093 25.292 32.6739 19.4041 34.0998C12.8241 35.6916 8.45783 40.6192 6.56709 44.7006C4.59051 48.9664 6.40184 52.0618 6.42116 52.093C6.4512 52.1426 6.43511 52.2062 6.38575 52.2364C6.36858 52.2461 6.35033 52.2515 6.33209 52.2515V52.2504Z" fill="#27E6D6"/>
<path d="M10.5902 57.0232C10.5655 57.0232 10.5408 57.0146 10.5204 56.9962C10.4604 56.9413 9.06108 55.6221 9.383 52.1366C9.68667 48.857 11.8725 43.8335 17.0994 39.5699C21.6749 35.8376 26.4919 34.901 29.3688 37.1837C29.4138 37.2193 29.4213 37.285 29.3859 37.3303C29.3505 37.3756 29.2851 37.3831 29.24 37.3475C26.4415 35.1263 21.7264 36.0628 17.2292 39.7315C12.0528 43.9542 9.88841 48.9184 9.58903 52.156C9.27676 55.5283 10.6449 56.8292 10.6589 56.8421C10.7007 56.8809 10.7039 56.9467 10.6653 56.9887C10.6449 57.0113 10.617 57.0232 10.588 57.0232H10.5902Z" fill="#27E6D6"/>
<path d="M16.1862 61.4765C16.1701 61.4765 16.1529 61.4722 16.1379 61.4647C15.1442 60.9398 13.0399 59.0009 14.9715 52.3436C16.4383 47.2867 20.9967 41.3709 25.1323 39.155C29.079 37.0404 31.0094 38.4922 31.0899 38.5547C31.135 38.5902 31.1425 38.6549 31.1082 38.7002C31.0727 38.7454 31.0084 38.7541 30.9633 38.7185C30.9451 38.7034 29.0479 37.2926 25.231 39.3382C21.1383 41.5304 16.6261 47.3913 15.1721 52.4007C13.8426 56.9844 14.23 60.2209 16.2355 61.2793C16.286 61.3063 16.3053 61.3688 16.2795 61.4194C16.2613 61.455 16.2248 61.4755 16.1883 61.4755L16.1862 61.4765Z" fill="#27E6D6"/>
<path d="M21.8774 64.7278C21.8678 64.7278 21.8581 64.7267 21.8474 64.7234C21.7079 64.6814 18.4501 63.6101 20.4857 55.4051C22.0963 48.9159 26.5334 42.0936 30.3761 40.1957C31.5275 39.6277 32.5576 39.5361 33.4397 39.9241C33.4922 39.9467 33.5159 40.0082 33.4933 40.061C33.4708 40.1138 33.4085 40.1375 33.357 40.1149C32.5329 39.7527 31.5607 39.8422 30.4673 40.3822C26.7363 42.2241 22.2562 49.1271 20.6863 55.4547C18.7033 63.4441 21.8731 64.5133 21.9053 64.523C21.9601 64.5391 21.9912 64.5973 21.9751 64.6523C21.9622 64.6976 21.9204 64.7267 21.8764 64.7267L21.8774 64.7278Z" fill="#27E6D6"/>
<path d="M27.4915 67.0415C27.4797 67.0415 27.4669 67.0394 27.4551 67.0351C27.3596 66.9984 25.1394 66.0457 26.5709 57.8353C27.7491 51.0745 31.4522 43.4234 34.4954 41.4608C35.1242 41.0556 35.6983 40.9166 36.2048 41.0502C36.2606 41.0642 36.2928 41.1213 36.2788 41.1774C36.2638 41.2334 36.2091 41.2668 36.1522 41.2517C35.7058 41.1353 35.1865 41.2636 34.6081 41.6365C31.6593 43.5388 27.9251 51.276 26.7758 57.8709C25.3819 65.8646 27.5098 66.8325 27.5312 66.8411C27.5838 66.8626 27.6096 66.923 27.5892 66.9758C27.5731 67.0168 27.5345 67.0415 27.4926 67.0415H27.4915Z" fill="#27E6D6"/>
<path d="M34.1619 68.8743C34.1447 68.8743 34.1276 68.87 34.1115 68.8613C33.3121 68.4141 32.9858 67.2188 32.9858 64.7378C32.9858 61.9561 33.5546 54.97 35.7093 48.4356C37.8543 41.928 39.2568 41.8795 39.407 41.8925C39.4639 41.8978 39.5058 41.9496 39.4993 42.0067C39.494 42.0627 39.4457 42.108 39.3888 42.1005C39.3598 42.1005 37.9927 42.1716 35.9056 48.5024C33.7595 55.011 33.1929 61.9701 33.1929 64.74C33.1929 67.7114 33.708 68.4001 34.2123 68.6824C34.2628 68.7105 34.28 68.774 34.2521 68.8236C34.2327 68.8581 34.1973 68.8775 34.1619 68.8775V68.8743Z" fill="#27E6D6"/>
<path d="M40.9793 69.8682C40.9567 69.8682 40.9342 69.8606 40.9149 69.8455C40.5297 69.5416 40.3462 69.0372 40.3269 65.7371C40.3086 62.4758 40.6616 57.9718 40.8956 54.9907L40.9052 54.8624C41.1381 51.8943 41.7937 47.0066 42.2551 44.8058C42.7026 42.674 43.0739 42.4294 43.1769 42.4057C43.2316 42.3938 43.2885 42.4283 43.3014 42.4833C43.3132 42.535 43.2842 42.5867 43.2359 42.604C43.207 42.6212 42.8743 42.8605 42.458 44.8479C41.9976 47.0422 41.343 51.9169 41.1113 54.8775L41.1016 55.0069C40.8677 57.9837 40.5146 62.4833 40.534 65.7349C40.5522 69.048 40.7475 69.4478 41.0426 69.6806C41.0877 69.7162 41.0952 69.7819 41.0598 69.8272C41.0394 69.8531 41.0082 69.8671 40.9782 69.8671L40.9793 69.8682Z" fill="#27E6D6"/>
<path d="M47.7427 70.0559C47.7427 70.0559 47.733 70.0559 47.7277 70.0559C47.6708 70.0527 47.6268 70.0031 47.63 69.946C47.6332 69.8889 47.6837 69.8404 47.7395 69.8479C47.7438 69.8479 47.7588 69.8479 47.7813 69.8275C48.2288 69.3953 48.1408 65.511 48.0474 61.3983L48.0356 60.8982C47.9466 56.9525 47.8843 55.6139 47.733 52.3785C47.6944 51.5497 47.6504 50.5969 47.5978 49.4448C47.3489 43.9342 46.9894 42.6376 46.9862 42.6258C46.9701 42.5708 47.0012 42.5126 47.057 42.4964C47.1117 42.4803 47.1697 42.5115 47.1858 42.5665C47.2008 42.6172 47.5549 43.8803 47.806 49.4351C47.8586 50.5872 47.9026 51.5389 47.9412 52.3688C48.0925 55.6053 48.1547 56.9449 48.2438 60.8928L48.2556 61.3929C48.3726 66.5586 48.4155 69.5041 47.9262 69.9762C47.8596 70.0398 47.792 70.0549 47.7427 70.0549V70.0559Z" fill="#27E6D6"/>
<path d="M54.9837 69.3931C54.9451 69.3931 54.9086 69.3716 54.8903 69.3349C54.8656 69.2843 54.885 69.2228 54.9354 69.197C54.9526 69.1862 55.7134 68.6926 55.6608 65.2524C55.605 61.6074 55.3271 59.0811 54.6821 54.4445C53.9922 49.4804 52.7227 45.7642 52.3064 44.5431C51.6508 42.6247 51.0627 42.4059 50.8975 42.3844C50.8406 42.3768 50.8009 42.3251 50.8073 42.268C50.8148 42.2109 50.8663 42.171 50.9232 42.1774C51.2333 42.2173 51.8514 42.5698 52.5017 44.4752C52.9202 45.7007 54.1939 49.4319 54.8871 54.4155C55.5331 59.0617 55.8121 61.5934 55.8668 65.2491C55.9215 68.837 55.1189 69.3382 55.0277 69.3834C55.0127 69.391 54.9976 69.3942 54.9815 69.3942L54.9837 69.3931Z" fill="#27E6D6"/>
<path d="M61.7321 67.9164C61.6989 67.9164 61.6667 67.9002 61.6463 67.8711C61.6141 67.8237 61.627 67.759 61.6742 67.7267C63.4855 66.4948 62.8503 58.7209 61.1183 53.1068C59.4444 47.6835 58.4164 45.6476 56.9935 43.5934C55.5771 41.5489 54.6027 41.6297 54.5931 41.6319C54.5373 41.6373 54.4847 41.5974 54.4782 41.5413C54.4718 41.4842 54.5104 41.4336 54.5673 41.426C54.6113 41.4217 55.6629 41.3085 57.1641 43.4759C58.5988 45.5474 59.6354 47.5962 61.3169 53.0454C62.8953 58.1594 63.8643 66.4883 61.7912 67.8991C61.7729 67.911 61.7536 67.9175 61.7332 67.9175L61.7321 67.9164Z" fill="#27E6D6"/>
<path d="M68.093 65.6548C68.0587 65.6548 68.0265 65.6387 68.0061 65.6074C67.975 65.5589 67.9879 65.4953 68.0361 65.463C68.0501 65.4544 69.4268 64.5124 69.3753 61.5712C69.3217 58.4942 68.9289 55.9151 67.0103 51.1072C65.1378 46.4146 62.8779 43.7417 61.3402 42.1402C60.0118 40.7553 58.4698 40.3058 57.6328 40.5763C57.5792 40.5947 57.5201 40.5645 57.5019 40.5095C57.4847 40.4546 57.5148 40.3964 57.5684 40.378C58.4655 40.086 60.1009 40.5494 61.4894 41.9947C63.0389 43.6092 65.317 46.3025 67.2024 51.0285C69.1328 55.8655 69.5277 58.464 69.5824 61.5658C69.6361 64.632 68.2089 65.5966 68.1488 65.6354C68.1317 65.6462 68.1123 65.6516 68.093 65.6516V65.6548Z" fill="#27E6D6"/>
<path d="M73.9212 62.6766C73.8901 62.6766 73.8589 62.6626 73.8385 62.6357C73.8042 62.5904 73.8117 62.5247 73.8579 62.4902C75.975 60.8595 75.2432 56.1023 74.5607 53.8142C73.4018 49.9321 71.5701 46.5522 69.1149 43.7683C66.1436 40.3993 64.3377 39.6297 62.7431 39.1307C61.2773 38.6716 60.1237 39.3096 60.113 39.3172C60.0637 39.3452 60.0003 39.3269 59.9714 39.2773C59.9435 39.2277 59.9606 39.1641 60.01 39.135C60.0594 39.1059 61.2505 38.4442 62.8043 38.9313C64.4278 39.439 66.2638 40.2203 69.2705 43.6293C71.7461 46.4358 73.5928 49.8426 74.7603 53.7538C74.8429 54.0297 76.7444 60.5297 73.9856 62.6551C73.9662 62.6702 73.9448 62.6766 73.9222 62.6766H73.9212Z" fill="#27E6D6"/>
<path d="M79.5684 58.6637C79.5405 58.6637 79.5137 58.6529 79.4933 58.6313C79.4536 58.5893 79.4557 58.5236 79.4976 58.4848C79.519 58.4643 81.6512 56.3389 79.6618 50.4522C77.5886 44.3208 72.6396 39.778 68.6543 37.9965C64.7183 36.2365 62.6849 37.5557 62.0163 37.9889C61.968 38.0202 61.9037 38.0062 61.8725 37.9577C61.8414 37.9092 61.8554 37.8445 61.9037 37.8133C63.7858 36.5932 66.021 36.5911 68.738 37.8057C72.7652 39.6067 77.7646 44.1947 79.8581 50.3854C81.8959 56.4144 79.7326 58.5484 79.6403 58.6367C79.6199 58.6561 79.5952 58.6648 79.5695 58.6648L79.5684 58.6637Z" fill="#27E6D6"/>
<path d="M83.7579 54.5978C83.7311 54.5978 83.7043 54.587 83.6839 54.5665C83.6431 54.5255 83.6442 54.4598 83.6839 54.4188C83.6946 54.4081 84.7527 53.3325 84.8278 51.2826C84.8922 49.5161 84.4715 45.9282 80.9326 41.7422C78.3347 38.6695 75.1692 36.5226 71.5229 35.3608C69.0892 34.5848 65.7187 34.4888 63.5618 36.5474C63.52 36.5873 63.4545 36.5851 63.4148 36.5441C63.3751 36.5021 63.3773 36.4364 63.4181 36.3965C65.6404 34.2765 69.0935 34.3692 71.5851 35.1624C75.2689 36.3372 78.4667 38.5057 81.0903 41.6075C84.6754 45.8474 85.1003 49.4935 85.0349 51.2901C84.9565 53.4273 83.876 54.5212 83.8298 54.5665C83.8094 54.5859 83.7837 54.5967 83.7569 54.5967L83.7579 54.5978Z" fill="#27E6D6"/>
<path d="M87.4778 49.5708C87.4585 49.5708 87.4381 49.5654 87.4209 49.5536C87.3727 49.5223 87.3598 49.4577 87.3909 49.4092C88.5434 47.6373 88.4725 44.8373 87.2095 42.2765C85.4905 38.79 82.9935 36.2701 79.3515 34.3474C75.7568 32.4495 72.1856 31.8405 68.7368 32.5368C66.1175 33.066 64.8298 34.9456 64.8169 34.965C64.7847 35.0135 64.7203 35.0253 64.6731 34.993C64.6259 34.9607 64.613 34.896 64.6452 34.8486C64.6581 34.8292 65.9898 32.8795 68.696 32.332C72.1931 31.6261 75.8104 32.2415 79.4481 34.162C83.0804 36.0794 85.6804 38.7027 87.3963 42.1828C88.6914 44.8093 88.7569 47.6891 87.5647 49.5223C87.5443 49.5525 87.5121 49.5698 87.4778 49.5698V49.5708Z" fill="#27E6D6"/>
<path d="M90.5793 42.7578C90.5707 42.7578 90.561 42.7568 90.5524 42.7546C90.4977 42.7395 90.4644 42.6824 90.4795 42.6263C90.4913 42.5832 91.5804 38.228 86.0799 33.3662C82.3982 30.1124 75.9899 28.4904 71.1751 29.5919C68.0482 30.3075 65.8076 32.0772 64.6959 34.7102C64.6734 34.763 64.6122 34.7878 64.5597 34.7651C64.5071 34.7425 64.4824 34.6811 64.5049 34.6283C65.6435 31.9317 67.9344 30.12 71.1289 29.3882C76.0039 28.2727 82.4894 29.9152 86.2162 33.2088C91.8208 38.1612 90.6908 42.635 90.679 42.6792C90.6662 42.7255 90.6243 42.7557 90.5793 42.7557V42.7578Z" fill="#27E6D6"/>
<path d="M91.7533 37.0423C91.7533 37.0423 91.7479 37.0423 91.7447 37.0423C91.6878 37.038 91.6449 36.9874 91.6492 36.9302C92.1009 30.9562 85.6658 26.6592 79.1834 25.9554C73.2784 25.3163 68.5494 27.6227 66.6597 30.039C64.9503 32.2237 64.8709 33.6905 64.8699 33.7045C64.8677 33.7616 64.8141 33.8004 64.7615 33.8047C64.7046 33.8026 64.6595 33.7541 64.6617 33.6959C64.6638 33.6334 64.7454 32.1471 66.4956 29.9108C68.4196 27.4513 73.2194 25.0975 79.2049 25.7485C85.7849 26.4619 92.3166 30.8463 91.8552 36.9464C91.8509 37.0014 91.8059 37.0423 91.7522 37.0423H91.7533Z" fill="#27E6D6"/>
<path d="M64.6358 33.872C64.58 33.872 64.5349 33.8278 64.5317 33.7728C64.4341 31.5052 65.0307 29.6978 66.5265 27.7298C68.3797 25.2919 74.0358 21.0498 82.1804 22.4466C90.4354 23.8628 91.6598 29.6913 91.6716 29.7506C91.6823 29.8067 91.6458 29.8616 91.59 29.8724C91.5353 29.8832 91.4795 29.8465 91.4688 29.7905C91.457 29.7334 90.2541 24.0428 82.1471 22.6525C74.0991 21.2729 68.5203 25.4536 66.6929 27.857C65.2292 29.784 64.6455 31.5505 64.741 33.7653C64.7431 33.8224 64.6991 33.8709 64.6422 33.8741H64.6379L64.6358 33.872Z" fill="#27E6D6"/>
<path d="M64.3688 32.9032C64.3259 32.9032 64.2862 32.8773 64.2712 32.8342C64.2594 32.8008 63.0897 29.4177 65.9967 25.3707C68.6922 21.619 73.3589 19.0367 78.4796 18.4633C83.4425 17.9093 88.0856 19.7674 89.7735 22.9824C89.8004 23.033 89.7811 23.0966 89.7306 23.1235C89.6802 23.1505 89.618 23.1311 89.5901 23.0804C87.9408 19.9388 83.3824 18.126 78.5021 18.6702C73.4383 19.2361 68.8263 21.7871 66.164 25.4925C63.3247 29.4446 64.4547 32.7297 64.4654 32.7631C64.4847 32.8169 64.4568 32.8762 64.4032 32.8967C64.3913 32.901 64.3795 32.9032 64.3677 32.9032H64.3688Z" fill="#27E6D6"/>
<path d="M63.8676 32.1406C63.829 32.1406 63.7915 32.1191 63.7743 32.0814C62.5467 29.4764 62.9373 26.4942 64.9343 23.2157C66.8701 20.0384 71.2589 15.9332 77.2584 14.8188C83.422 13.6732 86.2142 16.5961 86.241 16.6252C86.2796 16.6672 86.2775 16.7329 86.2356 16.7717C86.1938 16.8105 86.1283 16.8084 86.0897 16.7663C86.0629 16.7383 83.3405 13.9006 77.2959 15.0225C71.3641 16.1251 67.0246 20.1829 65.1113 23.3235C63.153 26.5384 62.7656 29.4549 63.9621 31.9919C63.9868 32.0436 63.9642 32.1062 63.9127 32.1309C63.8988 32.1374 63.8837 32.1406 63.8687 32.1406H63.8676Z" fill="#27E6D6"/>
<path d="M62.8546 31.0964C62.8246 31.0964 62.7945 31.0835 62.7741 31.0576C62.7462 31.0232 60.0582 27.584 63.3568 21.2015C65.6521 16.76 70.7051 12.5966 75.3729 11.3012C78.0223 10.5661 80.411 10.7892 82.2813 11.9478C82.3296 11.978 82.3446 12.0427 82.3156 12.0912C82.2856 12.1397 82.2212 12.1547 82.1729 12.1256C80.3541 10.9983 78.0223 10.7838 75.4287 11.5027C70.8113 12.7842 65.813 16.9034 63.5414 21.2985C60.305 27.5603 62.9093 30.8938 62.9351 30.9272C62.9716 30.9714 62.9641 31.0372 62.9201 31.0738C62.9007 31.09 62.8782 31.0975 62.8546 31.0975V31.0964Z" fill="#27E6D6"/>
<path d="M61.6182 30.1131C61.5936 30.1131 61.5689 30.1045 61.5485 30.0861C61.5281 30.0678 59.5 28.1774 59.9432 24.5152C60.351 21.1396 61.8361 17.7781 64.3567 14.5265C66.3461 11.9603 72.6064 5.77071 77.609 7.92947C77.6616 7.9521 77.6863 8.01353 77.6637 8.06634C77.6412 8.11915 77.58 8.14394 77.5274 8.12131C72.6429 6.01536 66.4824 12.123 64.5198 14.6558C62.0228 17.8772 60.5516 21.2043 60.1481 24.5421C59.7179 28.0987 61.6676 29.9158 61.6869 29.9331C61.7288 29.9719 61.732 30.0376 61.6944 30.0807C61.674 30.1034 61.6461 30.1152 61.6172 30.1152L61.6182 30.1131Z" fill="#27E6D6"/>
<path d="M60.2042 29.209C60.1859 29.209 60.1677 29.2047 60.1516 29.195C55.9184 26.7 58.4851 19.3679 59.0421 17.9226C59.0925 17.7912 59.1462 17.6478 59.2041 17.4948C59.9027 15.6367 61.2032 12.1792 65.019 8.14518C69.1288 3.80179 72.1989 4.52497 72.3266 4.5573C72.3824 4.57131 72.4156 4.62736 72.4017 4.6834C72.3877 4.73944 72.3287 4.77393 72.2761 4.75884C72.2461 4.75238 69.1868 4.04213 65.1692 8.28852C61.3824 12.2913 60.0915 15.724 59.3983 17.5681C59.3404 17.7222 59.2867 17.8655 59.2352 17.997C58.689 19.4143 56.1684 26.604 60.2568 29.0139C60.3061 29.043 60.3233 29.1066 60.2943 29.1562C60.275 29.1896 60.2407 29.2079 60.2053 29.2079L60.2042 29.209Z" fill="#27E6D6"/>
<path d="M57.5276 27.8952C57.5201 27.8952 57.5115 27.8952 57.504 27.8931C57.3784 27.864 54.4458 27.0901 55.6465 19.6622C56.1466 16.5636 57.0233 13.0059 60.0182 7.99107C62.9337 3.10773 65.7741 1.52234 67.1776 2.11403C67.2302 2.13666 67.2549 2.19702 67.2334 2.24983C67.2109 2.30264 67.1497 2.32742 67.0982 2.30587C66.1475 1.90494 63.4809 2.59902 60.1963 8.09777C57.2196 13.0824 56.3494 16.6175 55.8515 19.6956C54.6861 26.908 57.5222 27.6829 57.5512 27.6904C57.607 27.7034 57.6413 27.7594 57.6285 27.8155C57.6167 27.8629 57.5748 27.8952 57.5276 27.8952Z" fill="#27E6D6"/>
<path d="M54.6294 26.8725C54.6294 26.8725 54.6209 26.8725 54.6166 26.8725C54.5447 26.8639 52.8589 26.6138 52.6797 23.3514C52.4844 19.8088 53.2409 14.9319 54.7539 9.97208C56.0105 5.85071 58.1641 1.24327 60.1417 0.239873C60.5474 0.0340199 60.9305 -0.00693525 61.2792 0.11593C61.3329 0.13533 61.3618 0.194607 61.3425 0.248495C61.3232 0.302383 61.2642 0.33256 61.2105 0.312083C60.9154 0.208617 60.5871 0.246339 60.234 0.426326C58.5955 1.25836 56.4225 5.20944 54.9514 10.0346C53.4448 14.9718 52.6926 19.8228 52.8857 23.3417C53.0553 26.4177 54.6262 26.6656 54.6423 26.6677C54.6992 26.6753 54.7389 26.727 54.7314 26.7841C54.7249 26.8369 54.6799 26.8746 54.6294 26.8746V26.8725Z" fill="#27E6D6"/>
<path d="M50.6826 25.9882C50.6676 25.9882 50.6526 25.985 50.6376 25.9774C50.5946 25.9559 49.5849 25.3998 49.7577 20.4377C49.9551 14.7687 50.806 10.0934 50.9745 9.21391L51.0518 8.80436C51.8662 4.46852 53.1239 -1.28027 54.6465 -1.28027C54.6551 -1.28027 54.6648 -1.28027 54.6734 -1.28027C54.7302 -1.27812 54.7753 -1.22962 54.7721 -1.17142C54.7699 -1.1143 54.7292 -1.06472 54.6637 -1.07227C54.6573 -1.07227 54.6497 -1.07227 54.6433 -1.07227C53.6314 -1.07227 52.4907 2.26234 51.2546 8.84316L51.1773 9.25379C51.0088 10.1311 50.1601 14.7924 49.9637 20.4453C49.7984 25.1982 50.7213 25.7867 50.7309 25.7921C50.7792 25.8201 50.7985 25.8826 50.7717 25.9322C50.7524 25.9678 50.717 25.9882 50.6805 25.9882H50.6826Z" fill="#27E6D6"/>
<path d="M46.9763 25.6335C46.9291 25.6335 46.8862 25.6 46.8755 25.5526C46.5589 24.1364 46.6512 19.9105 46.7177 16.8249C46.7349 16.0608 46.7499 15.3634 46.7574 14.7933C46.795 11.8661 46.9474 7.45266 47.1459 3.549C47.3444 -0.370828 47.5826 -1.79455 47.5848 -1.80856C47.5944 -1.86569 47.6481 -1.90449 47.7049 -1.89371C47.7618 -1.88401 47.7994 -1.83012 47.7897 -1.773C47.7876 -1.75899 47.5515 -0.343884 47.353 3.55978C47.1545 7.46128 47.0032 11.8715 46.9656 14.7965C46.9581 15.3678 46.9431 16.0651 46.9259 16.8303C46.8583 19.9051 46.7671 24.116 47.0783 25.5074C47.0912 25.5634 47.0557 25.6194 46.9999 25.6313C46.9924 25.6335 46.9849 25.6335 46.9774 25.6335H46.9763Z" fill="#27E6D6"/>
</svg>
