<svg xmlns="http://www.w3.org/2000/svg" width="12" height="12" viewBox="0 0 12 12" fill="none">
  <path d="M10.4861 6.24096V9.18271C10.4861 9.74137 10.0317 10.1958 9.47299 10.1958H6.92054L6.91654 10.338L6.82192 10.1958H2.55937C2.00071 10.1958 1.54631 9.74137 1.54631 9.18271V2.26909C1.54631 1.71043 2.00071 1.25603 2.55937 1.25603H6.10813L5.47176 0.342773H2.55937C1.49722 0.342773 0.633057 1.20694 0.633057 2.26909V9.18256C0.633057 10.2447 1.49722 11.1089 2.55937 11.1089H9.47285C10.535 11.1089 11.3992 10.2447 11.3992 9.18256V7.01525L10.4859 6.24081L10.4861 6.24096Z" fill="#78A9FF"/>
  <path fill-rule="evenodd" clip-rule="evenodd" d="M11.293 0.863977L10.9332 5.90156L9.27566 4.49593C7.44841 5.31309 6.46827 6.74392 6.41681 8.59742C4.73475 6.06929 5.71771 3.87469 7.5844 2.41568L6.45804 0.799316L11.2932 0.863977H11.293Z" fill="#78A9FF"/>
</svg>