<svg xmlns="http://www.w3.org/2000/svg" width="24" height="24" viewBox="0 0 24 24" fill="none">
  <path d="M6.88107 11.5064H11.5082V7.62567C10.0762 7.59945 8.70864 7.45493 7.48269 7.20801C7.12448 8.52603 6.91761 9.98506 6.88086 11.5064H6.88107Z" fill="white"/>
  <path d="M18.1045 11.5064H22.3152C22.2153 9.38177 21.4737 7.42518 20.2794 5.82617C19.5462 6.29276 18.588 6.68132 17.4746 6.97696C17.8512 8.37261 18.068 9.90948 18.1047 11.5064H18.1045Z" fill="white"/>
  <path d="M7.45626 16.6885C8.69377 16.4341 10.0744 16.2826 11.508 16.2537V12.4912H6.88086C6.91658 13.974 7.11457 15.3971 7.45647 16.6885H7.45626Z" fill="white"/>
  <path d="M8.46239 4.6523C8.20246 5.14801 7.97246 5.68603 7.77344 6.25813C8.91474 6.48131 10.1871 6.61447 11.5066 6.64049V1.82715C10.3779 2.0495 9.31176 3.03306 8.46239 4.6523Z" fill="white"/>
  <path d="M18.1049 12.4912C18.069 14.0456 17.8623 15.5431 17.5039 16.9088C18.6436 17.2108 19.6209 17.607 20.3491 18.0781C21.5028 16.4965 22.218 14.5748 22.3156 12.4912H18.1049Z" fill="white"/>
  <path d="M15.5364 4.65231C14.6871 3.03306 13.6209 2.0495 12.4922 1.82715V6.63966C13.8135 6.61179 15.0849 6.47677 16.2233 6.25173C16.0249 5.68211 15.7955 5.14615 15.5364 4.65231Z" fill="white"/>
  <path d="M8.46275 19.3433C9.31212 20.9626 10.3783 21.9461 11.507 22.1685V17.2383C10.1677 17.2657 8.88433 17.4024 7.73828 17.6305C7.94536 18.2423 8.18671 18.8171 8.46275 19.3433Z" fill="white"/>
  <path d="M17.1872 6.0311C18.1644 5.77509 19.0065 5.44641 19.6474 5.05931C18.3804 3.66407 16.7365 2.61754 14.877 2.0791C15.4402 2.62332 15.9567 3.3325 16.4091 4.19467C16.7058 4.76015 16.9649 5.37663 17.1872 6.0311Z" fill="white"/>
  <path d="M16.2621 17.6275C15.1146 17.4001 13.8307 17.2647 12.4922 17.2383V22.1689C13.6209 21.9465 14.6873 20.963 15.5364 19.3437C15.8129 18.8166 16.0546 18.2406 16.2621 17.6275Z" fill="white"/>
  <path d="M6.77476 17.853C5.77695 18.1167 4.92221 18.4567 4.2793 18.8585C5.55707 20.2958 7.23 21.3737 9.12777 21.9221C8.56249 21.3772 8.04387 20.6662 7.59007 19.8012C7.27666 19.2037 7.00496 18.5494 6.77476 17.853Z" fill="white"/>
  <path d="M5.89627 12.4912H1.68555C1.78341 14.5787 2.50106 16.5039 3.65867 18.0874C4.38479 17.6146 5.3601 17.217 6.49851 16.9137C6.13927 15.5468 5.9324 14.0475 5.89627 12.4912Z" fill="white"/>
  <path d="M16.4086 19.8008C15.9548 20.6659 15.4364 21.3769 14.8711 21.9217C16.7728 21.3724 18.4484 20.2912 19.7272 18.8497C19.0816 18.4493 18.2248 18.1106 17.2258 17.8481C16.9951 18.5462 16.7228 19.2021 16.4088 19.8008H16.4086Z" fill="white"/>
  <path d="M6.52216 6.986C5.40666 6.69263 4.44457 6.30676 3.7073 5.84326C2.52037 7.43917 1.78331 9.38957 1.68359 11.5066H5.89432C5.93107 9.91294 6.14682 8.37917 6.52216 6.986Z" fill="white"/>
  <path d="M17.1193 12.4912H12.4922V16.2533C13.9246 16.2809 15.306 16.4314 16.545 16.6848C16.886 15.3944 17.0838 13.9727 17.1195 12.4914L17.1193 12.4912Z" fill="white"/>
  <path d="M7.59178 4.19467C8.04413 3.3323 8.56069 2.62312 9.12391 2.0791C7.25752 2.6194 5.60874 3.67171 4.33984 5.07438C4.98503 5.45921 5.83109 5.78562 6.81074 6.03957C7.03372 5.38179 7.29386 4.76242 7.59178 4.19467Z" fill="white"/>
  <path d="M16.5159 7.20117C15.2924 7.45016 13.926 7.59674 12.4922 7.62503V11.5064H17.1195C17.0828 9.98235 16.8755 8.52084 16.5161 7.20117H16.5159Z" fill="white"/>
  <path d="M12 0C5.3832 0 0 5.38316 0 11.9999C0 18.6166 5.3832 23.9998 12 23.9998C18.6168 23.9998 24 18.6166 24 11.9999C24 5.38316 18.6168 0 12 0ZM12 23.3631C5.73418 23.3631 0.636512 18.2655 0.636512 11.9997C0.636512 5.73393 5.73418 0.636507 12 0.636507C18.2658 0.636507 23.3635 5.73414 23.3635 11.9999C23.3635 18.2657 18.2658 23.3633 12 23.3633V23.3631Z" fill="white"/>
</svg>