<svg width="21" height="19" viewBox="0 0 21 19" fill="none" xmlns="http://www.w3.org/2000/svg">
    <path d="M2.75254 16.6585C2.56461 16.6585 2.4122 16.5106 2.4122 16.3281V2.67186C2.4122 2.48943 2.56461 2.34149 2.75254 2.34149H16.9996C16.8315 1.02336 15.6707 0 14.2685 0H2.75254C1.23494 0 0 1.19837 0 2.67186V16.3281C0 17.8013 1.23494 19 2.75254 19H14.2685C15.6711 19 16.8315 17.9766 17 16.6585H2.75254Z" fill="#F1F3FF"/>
    <g clip-path="url(#clip0_381_19)">
    <path d="M10 11.2615H14.9456V13.6873C14.9456 13.9277 15.1821 14.0779 15.3715 13.9577L20.8581 9.77037C21.0473 9.65027 21.0473 9.3497 20.8581 9.22959L15.3715 5.04227C15.1822 4.92216 14.9456 5.0723 14.9456 5.31266V7.73848H10" fill="#F1F3FF"/>
    </g>
    <defs>
    <clipPath id="clip0_381_19">
    <rect width="11" height="9" fill="white" transform="translate(10 5)"/>
    </clipPath>
    </defs>
    </svg>
    