<svg width="26" height="10" viewBox="0 0 26 10" fill="none" xmlns="http://www.w3.org/2000/svg">
    <path d="M25.74 4.72527L21.5176 0H4.4824L0.26 4.72527C0.0936 4.91299 0 5.15435 0 5.40644V5.88915C0 7.51967 1.2168 8.91955 2.7976 9C3.9364 9.059 4.94 8.44219 5.4756 7.5143C5.9904 8.40465 6.9316 9.00536 8.008 9.00536C9.0844 9.00536 10.0256 8.40465 10.5404 7.5143C11.0552 8.40465 11.9964 9.00536 13.0728 9.00536C14.1648 9.00536 15.1164 8.38856 15.626 7.48212C16.1304 8.32419 17.03 8.882 18.0544 8.882C19.0892 8.882 19.994 8.3081 20.4984 7.46067C21.0236 8.41537 22.0324 9.04827 23.1764 9.00536C24.7676 8.941 26 7.53576 26 5.89452V5.41716C26 5.15435 25.9064 4.91299 25.74 4.72527ZM10.1296 5.0149V5.96424C10.1296 5.99106 10.1296 6.02324 10.1296 6.05006C10.088 7.21931 9.152 8.15793 8.008 8.15793C6.864 8.15793 5.928 7.21931 5.8864 6.05006C5.8864 6.02324 5.8864 5.99106 5.8864 5.96424V5.0149L7.6388 1.66269H10.9928L10.1296 5.0149ZM20.098 5.9267C20.098 7.09058 19.1828 8.03456 18.0544 8.03456C16.9572 8.03456 16.0628 7.13886 16.016 6.02324C16.016 6.00179 16.016 5.98033 16.016 5.96424V5.0149L15.236 1.66269H18.3612L20.098 5.0149V5.9267Z" fill="#969BBF"/>
    </svg>
    