<svg width="23" height="23" viewBox="0 0 23 23" fill="none" xmlns="http://www.w3.org/2000/svg">
    <path d="M22.4393 11.398C22.2929 17.8598 17.2427 22.6111 10.7394 22.4377C4.83692 22.2644 -0.0705726 17.0874 0.000768142 11.1079C0.0758636 5.03033 5.4114 -0.165516 11.404 0.00403641C17.6782 0.18866 22.582 5.24887 22.4393 11.398ZM17.1263 11.2849C17.1407 10.5027 16.9999 9.7254 16.712 8.99831C16.4241 8.27123 15.9949 7.6089 15.4494 7.04992C14.9039 6.49094 14.253 6.04649 13.5346 5.74245C12.8162 5.43841 12.0448 5.28087 11.2651 5.27901C9.68492 5.29591 8.17553 5.93923 7.06624 7.06862C5.95694 8.19801 5.33777 9.7218 5.34381 11.3075C5.36234 12.8563 5.98395 14.3364 7.07573 15.4312C8.16751 16.5261 9.64282 17.1489 11.1862 17.1665C11.9664 17.1917 12.7435 17.0574 13.4703 16.7717C14.1972 16.4861 14.8585 16.0551 15.4141 15.5049C15.9697 14.9548 16.408 14.297 16.7024 13.5715C16.9967 12.846 17.141 12.0681 17.1263 11.2849Z" fill="#E8742F"/>
    <path d="M11.2651 5.2793C9.68297 5.29323 8.17071 5.93525 7.05899 7.06496C5.94726 8.19467 5.32655 9.72015 5.33256 11.3078C5.3511 12.8566 5.9727 14.3367 7.06448 15.4315C8.15626 16.5264 9.63158 17.1492 11.175 17.1668C11.9552 17.192 12.7323 17.0577 13.4591 16.772C14.1859 16.4864 14.8472 16.0554 15.4029 15.5052C15.9585 14.9551 16.3968 14.2973 16.6911 13.5718C16.9855 12.8463 17.1297 12.0684 17.115 11.2852C17.1295 10.5039 16.989 9.72756 16.7018 9.00121C16.4146 8.27487 15.9864 7.61305 15.4421 7.05423C14.8978 6.4954 14.2482 6.05071 13.5312 5.74601C12.8141 5.4413 12.0438 5.28266 11.2651 5.2793Z" fill="#FDFDFD"/>
    <path d="M13.2813 12.0093C12.7443 12.0164 12.2261 11.8106 11.8395 11.4366C11.6199 11.2245 11.4483 10.9675 11.3363 10.6831C11.2893 10.5727 11.2205 10.4731 11.1341 10.3902C11.0477 10.3073 10.9455 10.2427 10.8336 10.2005C10.7217 10.1582 10.6024 10.1392 10.483 10.1444C10.3635 10.1496 10.2464 10.1791 10.1385 10.2309C10.0371 10.2901 9.94888 10.3696 9.87946 10.4645C9.78502 10.5912 9.65744 10.689 9.51089 10.7473C9.36435 10.8055 9.20458 10.8218 9.04934 10.7944C8.89411 10.767 8.74949 10.6969 8.63156 10.592C8.51363 10.4871 8.427 10.3514 8.38132 10.2C8.33563 10.0486 8.33267 9.88747 8.37276 9.7345C8.41285 9.58154 8.49443 9.44272 8.60843 9.33349C8.72242 9.22426 8.86437 9.14888 9.01849 9.11575C9.17261 9.08261 9.33287 9.093 9.48146 9.14578C9.64702 9.20657 9.79168 9.31381 9.89824 9.45474C9.9685 9.54734 10.0579 9.62357 10.1603 9.6782C10.2627 9.73284 10.3757 9.76458 10.4915 9.77124C10.671 9.78861 10.8512 9.74739 11.0055 9.65371C11.1597 9.56003 11.2797 9.41889 11.3476 9.25128C11.4475 8.988 11.5966 8.74629 11.7869 8.53916C12.1363 8.17155 12.6109 7.94957 13.1161 7.91747C13.6232 7.87208 14.128 8.02608 14.5241 8.347C14.7426 8.51376 14.9244 8.724 15.0581 8.96453C15.1919 9.20507 15.2747 9.47073 15.3014 9.74487C15.3584 10.2834 15.2016 10.8228 14.8649 11.246C14.5282 11.6692 14.0388 11.9422 13.5028 12.0056C13.4291 12.0118 13.3551 12.0131 13.2813 12.0093ZM13.2813 8.61828C13.0197 8.61754 12.7638 8.69469 12.546 8.83997C12.3281 8.98525 12.1582 9.19212 12.0575 9.4344C11.9569 9.67668 11.9302 9.94347 11.9808 10.201C12.0314 10.4585 12.1569 10.6952 12.3416 10.881C12.5263 11.0669 12.7618 11.1936 13.0183 11.2451C13.2748 11.2966 13.5407 11.2705 13.7824 11.1702C14.0242 11.07 14.2308 10.9 14.3762 10.6818C14.5216 10.4636 14.5992 10.207 14.5992 9.94456C14.5982 9.77025 14.5629 9.59785 14.4953 9.43727C14.4277 9.2767 14.3291 9.13113 14.2052 9.00892C14.0814 8.88671 13.9346 8.79029 13.7735 8.72519C13.6124 8.66009 13.44 8.6276 13.2663 8.62959L13.2813 8.61828Z" fill="#E8742F"/>
    <path d="M9.19285 12.0086C8.65804 12.0157 8.14222 11.8098 7.75852 11.4359C7.41071 11.1162 7.18941 10.6815 7.13523 10.2113C7.10252 9.93328 7.12671 9.65148 7.20631 9.38315C7.28591 9.11483 7.41926 8.86563 7.59817 8.65082C7.77709 8.43601 7.99782 8.2601 8.24684 8.13387C8.49586 8.00764 8.76794 7.93374 9.04641 7.9167C9.55369 7.88074 10.056 8.03666 10.4545 8.35377C10.6383 8.50041 10.7958 8.67754 10.92 8.8775C10.9538 8.93402 10.9463 8.96039 10.8938 8.99054C10.7286 9.08473 10.5633 9.17893 10.4019 9.27689C10.3381 9.31457 10.3155 9.27689 10.2817 9.24298C10.1245 9.00592 9.89548 8.82592 9.62844 8.7296C9.3614 8.63329 9.07056 8.62577 8.79894 8.70817C8.52732 8.79057 8.28933 8.9585 8.12018 9.18714C7.95104 9.41577 7.85971 9.69296 7.85971 9.97771C7.85971 10.2625 7.95104 10.5396 8.12018 10.7683C8.28933 10.9969 8.52732 11.1648 8.79894 11.2472C9.07056 11.3296 9.3614 11.3221 9.62844 11.2258C9.89548 11.1295 10.1245 10.9495 10.2817 10.7124C10.323 10.6446 10.3568 10.6295 10.4282 10.6748C10.5821 10.769 10.7398 10.8594 10.8975 10.946C10.9538 10.98 10.9651 11.0063 10.9276 11.0666C10.7538 11.3478 10.5141 11.582 10.2294 11.7488C9.9447 11.9156 9.62363 12.01 9.29423 12.0236L9.19285 12.0086Z" fill="#E8742F"/>
    <path d="M14.1148 9.95425C14.1143 10.0669 14.0917 10.1783 14.0481 10.2821C14.0046 10.386 13.9411 10.4802 13.8612 10.5593C13.7813 10.6384 13.6866 10.7009 13.5826 10.7432C13.4786 10.7855 13.3672 10.8068 13.255 10.8058C13.0866 10.8043 12.9224 10.7528 12.7831 10.6577C12.6439 10.5627 12.5358 10.4284 12.4725 10.2717C12.4093 10.1151 12.3937 9.94317 12.4277 9.77766C12.4618 9.61215 12.5439 9.46046 12.6638 9.34175C12.7837 9.22304 12.9359 9.14263 13.1013 9.11066C13.2666 9.07869 13.4377 9.0966 13.593 9.16213C13.7482 9.22765 13.8806 9.33786 13.9735 9.47884C14.0664 9.61982 14.1156 9.78525 14.1148 9.95425Z" fill="#E8742F"/>
    <path d="M14.554 13.2961C14.554 13.2961 14.554 13.2961 14.554 13.2735C14.5373 13.1214 14.4652 12.9808 14.3516 12.8787C14.2379 12.7766 14.0908 12.7202 13.9383 12.7202C13.7857 12.7202 13.6386 12.7766 13.525 12.8787C13.4113 12.9808 13.3392 13.1214 13.3225 13.2735C13.2196 13.7612 12.953 14.1985 12.5671 14.5124C12.1812 14.8262 11.6996 14.9975 11.2029 14.9975C10.7062 14.9975 10.2246 14.8262 9.83871 14.5124C9.45284 14.1985 9.18616 13.7612 9.08333 13.2735C9.0712 13.1175 9.00086 12.9718 8.88636 12.8655C8.77187 12.7592 8.62164 12.7002 8.46567 12.7002C8.3097 12.7002 8.15947 12.7592 8.04497 12.8655C7.93048 12.9718 7.86014 13.1175 7.84801 13.2735C7.84977 13.281 7.84977 13.2887 7.84801 13.2961C7.84801 13.2961 7.84801 13.3187 7.84801 13.3338C7.84532 13.4134 7.85807 13.4927 7.88556 13.5674C8.04765 14.3261 8.46411 15.006 9.06542 15.4937C9.66674 15.9815 10.4166 16.2476 11.1898 16.2476C11.963 16.2476 12.7128 15.9815 13.3141 15.4937C13.9154 15.006 14.3319 14.3261 14.494 13.5674C14.5299 13.4894 14.5491 13.4047 14.5503 13.3187C14.5503 13.3187 14.554 13.3074 14.554 13.2961Z" fill="#E8742F"/>
    </svg>
    