<svg width="15" height="15" viewBox="0 0 15 15" fill="none" xmlns="http://www.w3.org/2000/svg">
    <path d="M7.53499 0.000246497C11.6839 0.0335639 15.0331 3.41195 14.9998 7.53332C14.9664 11.6813 11.5873 15.0297 7.46501 14.9964C3.31607 14.9631 -0.0330783 11.5847 0.000246552 7.46335C0.0335714 3.31533 3.41271 -0.0330709 7.53499 0.000246497ZM5.82543 7.5C5.82543 8.24298 5.82543 8.98929 5.82543 9.73227C5.82543 10.1421 6.05204 10.2687 6.40861 10.0621C7.25506 9.57234 8.10151 9.08591 8.94796 8.59947C9.40118 8.3396 9.8544 8.07972 10.3043 7.81652C10.6075 7.63993 10.6075 7.37006 10.3043 7.18682C10.281 7.17349 10.2576 7.16016 10.231 7.1435C8.95796 6.40719 7.68162 5.6742 6.40861 4.93789C6.0487 4.73132 5.82543 4.85793 5.82543 5.26773C5.82209 6.01071 5.82543 6.75369 5.82543 7.5Z" fill="#969BBF"/>
    </svg>
    