<svg xmlns="http://www.w3.org/2000/svg" width="24" height="24" viewBox="0 0 24 24" fill="none">
  <path d="M11.8374 0.0961914C5.48614 0.0961914 0.337402 5.24493 0.337402 11.5962C0.337402 17.9475 5.48614 23.0962 11.8374 23.0962C18.1887 23.0962 23.3374 17.9475 23.3374 11.5962C23.3374 5.24493 18.1887 0.0961914 11.8374 0.0961914Z" fill="white"/>
  <path d="M15.8611 16.3501C15.1671 16.9456 14.1259 17.3138 12.738 17.4541V18.5581H10.876V17.4178C9.79516 17.3404 8.85073 17.0389 8.04309 16.5134C7.23545 15.988 6.83198 15.0719 6.83198 13.7644V13.1907H10.876V13.9099C10.876 14.6992 10.9178 15.1894 11.0014 15.3804C11.0847 15.5718 11.2868 15.6675 11.607 15.6675C11.8806 15.6675 12.084 15.6008 12.2177 15.4678C12.3511 15.3345 12.4181 15.1372 12.4181 14.8757C12.4181 14.2173 12.3545 13.7461 12.2277 13.4629C12.101 13.1796 11.6674 12.8708 10.9265 12.5368C9.69152 11.9751 8.85245 11.5623 8.40891 11.2984C7.96502 11.0344 7.58124 10.6627 7.25756 10.1833C6.93388 9.7038 6.77222 9.16181 6.77222 8.55625C6.77222 7.67987 7.1142 6.99245 7.79817 6.49329C8.48214 5.99482 9.50844 5.68703 10.8764 5.57097V4.63379H12.7383V5.57097C13.986 5.68703 14.9208 5.99102 15.5412 6.48258C16.162 6.9738 16.4722 7.65327 16.4722 8.51998C16.4722 8.64123 16.4587 8.82501 16.4321 9.07199H12.388V8.58527C12.388 8.06711 12.341 7.72824 12.2478 7.5683C12.1542 7.40836 11.9542 7.32856 11.6471 7.32856C11.4001 7.32856 11.2149 7.39765 11.0916 7.53548C10.9679 7.67331 10.9064 7.88057 10.9064 8.15623C10.9064 8.61636 11.0332 8.93831 11.2868 9.12243C11.5334 9.30655 12.2609 9.66477 13.4689 10.1974C14.4966 10.6475 15.1971 10.993 15.5712 11.2324C15.945 11.4721 16.2601 11.811 16.5171 12.2493C16.7741 12.6877 16.9026 13.2335 16.9026 13.8871C16.9026 14.9331 16.5554 15.7538 15.8614 16.3494L15.8611 16.3501Z" fill="#1D1D41"/>
</svg>