<svg width="18" height="21" viewBox="0 0 18 21" fill="none" xmlns="http://www.w3.org/2000/svg">
    <g clip-path="url(#clip0_374_1945)">
    <path fill-rule="evenodd" clip-rule="evenodd" d="M17.8744 19.4855C11.944 21.4913 6.0554 21.4913 0.125007 19.4855L-0.000282974 17.3159C-0.376153 10.6434 18.3756 10.6434 17.9997 17.3159L17.8744 19.4855Z" fill="#969BBF"/>
    <path fill-rule="evenodd" clip-rule="evenodd" d="M4.17594 3.5614C4.05065 4.78947 4.34299 7.73684 4.96944 8.8421C5.51237 9.82456 6.80703 10.7661 8.22698 11.0526C8.8952 11.1345 9.10401 11.1345 9.77223 11.0526C11.1922 10.7251 12.4868 9.78363 13.0298 8.8421C13.6562 7.73684 13.9486 4.78947 13.8233 3.5614C13.5727 1.18713 11.4428 0 9.02049 0C6.59821 0 4.42652 1.18713 4.17594 3.5614Z" fill="#969BBF"/>
    </g>
    <defs>
    <clipPath id="clip0_374_1945">
    <rect width="18" height="21" fill="white"/>
    </clipPath>
    </defs>
    </svg>
    