<svg xmlns="http://www.w3.org/2000/svg" width="23" height="24" viewBox="0 0 23 24" fill="none">
  <path d="M11.3097 13.6095C13.4573 13.6095 15.1983 11.7837 15.1983 9.53133C15.1983 7.279 13.4573 5.45312 11.3097 5.45312C9.16212 5.45312 7.42114 7.279 7.42114 9.53133C7.42114 11.7837 9.16212 13.6095 11.3097 13.6095Z" fill="white"/>
  <path d="M21.5114 7.66814C20.954 6.28515 20.1556 5.04359 19.1389 3.97737C18.1223 2.91157 16.9384 2.07424 15.6198 1.48924C14.254 0.883318 12.804 0.576172 11.3098 0.576172C9.81512 0.576172 8.36516 0.883318 6.99978 1.48924C5.68109 2.07424 4.49766 2.91157 3.48061 3.97737C2.46396 5.04359 1.66557 6.28557 1.10816 7.66814C0.530414 9.1001 0.237549 10.6208 0.237549 12.1883C0.237549 13.7558 0.530414 15.2765 1.10816 16.7084C1.59494 17.9153 2.26446 19.015 3.10316 19.9833C3.22525 20.1247 3.35134 20.2632 3.48061 20.3988C4.03083 20.9758 4.62973 21.4855 5.27252 21.9245C5.81795 22.2973 6.3945 22.6187 6.99938 22.8873C8.36516 23.4933 9.81512 23.8004 11.3098 23.8004C12.8044 23.8004 14.2544 23.4933 15.6198 22.8873C16.225 22.6187 16.8016 22.2973 17.3466 21.9245C17.9894 21.4855 18.5883 20.9758 19.1385 20.3988C19.2682 20.2628 19.3939 20.1243 19.516 19.9833C20.3543 19.0145 21.0242 17.9153 21.511 16.7084C22.0887 15.2765 22.3816 13.7554 22.3816 12.1883C22.3816 10.6212 22.0887 9.1001 21.5114 7.66814ZM19.1936 18.2044C19.1756 18.15 19.1577 18.0956 19.1381 18.0421C18.3681 15.8887 16.5833 14.2446 14.4028 13.7575C14.1028 13.9726 13.7828 14.1563 13.4448 14.3061C12.7681 14.6065 12.0499 14.7589 11.3098 14.7589C10.5696 14.7589 9.85143 14.6065 9.17473 14.3061C8.83677 14.1563 8.51678 13.9726 8.21673 13.7575C6.0358 14.2442 4.25108 15.8887 3.48101 18.0421C3.46186 18.0956 3.44351 18.15 3.42555 18.2044C2.2501 16.5147 1.55544 14.435 1.55544 12.1879C1.55544 6.54752 5.93126 1.95791 11.3098 1.95791C16.6883 1.95791 21.0637 6.54752 21.0637 12.1883C21.0637 14.435 20.369 16.5147 19.1936 18.2044Z" fill="white"/>
</svg>