<svg xmlns="http://www.w3.org/2000/svg" width="23" height="24" viewBox="0 0 23 24" fill="none">
  <path d="M21.9931 7.09148C21.4357 5.70849 20.6373 4.46693 19.6206 3.40071C18.604 2.33491 17.4201 1.49758 16.1014 0.91258C14.7357 0.306658 13.2857 -0.000488281 11.7915 -0.000488281C10.2968 -0.000488281 8.84685 0.306658 7.48147 0.91258C6.16278 1.49758 4.97935 2.33491 3.9623 3.40071C2.94565 4.46693 2.14726 5.70891 1.58985 7.09148C1.0121 8.52344 0.719238 10.0441 0.719238 11.6116C0.719238 13.1792 1.0121 14.6998 1.58985 16.1318C2.07663 17.3386 2.74615 18.4383 3.58485 19.4066C3.70694 19.548 3.83303 19.6866 3.9623 19.8221C4.51252 20.3992 5.11142 20.9089 5.75421 21.3478C6.29964 21.7207 6.87619 22.042 7.48107 22.3107C8.84685 22.9166 10.2968 23.2238 11.7915 23.2238C13.2861 23.2238 14.7361 22.9166 16.1014 22.3107C16.7067 22.042 17.2833 21.7207 17.8283 21.3478C18.4711 20.9089 19.07 20.3992 19.6202 19.8221C19.7499 19.6861 19.8756 19.5476 19.9977 19.4066C20.836 18.4379 21.5059 17.3386 21.9927 16.1318C22.5704 14.6998 22.8633 13.1787 22.8633 11.6116C22.8633 10.0445 22.5704 8.52344 21.9931 7.09148ZM19.6753 17.6278C19.6573 17.5734 19.6394 17.519 19.6198 17.4654C18.8498 15.312 17.065 13.6679 14.8845 13.1808C14.5845 13.3959 14.2645 13.5796 13.9265 13.7294C13.2498 14.0299 12.5316 14.1822 11.7915 14.1822C11.0513 14.1822 10.3331 14.0299 9.65642 13.7294C9.31846 13.5796 8.99847 13.3959 8.69842 13.1808C6.51749 13.6675 4.73277 15.312 3.9627 17.4654C3.94355 17.519 3.92519 17.5734 3.90724 17.6278C2.73179 15.938 2.03713 13.8583 2.03713 11.6112C2.03713 5.97086 6.41295 1.38125 11.7915 1.38125C17.17 1.38125 21.5454 5.97086 21.5454 11.6116C21.5454 13.8583 20.8507 15.938 19.6753 17.6278Z" fill="white"/>
</svg>