<svg width="20" height="23" viewBox="0 0 20 23" fill="none" xmlns="http://www.w3.org/2000/svg">
<g clip-path="url(#clip0_16_124)">
<path fill-rule="evenodd" clip-rule="evenodd" d="M19.8608 21.3411C13.2714 23.538 6.72851 23.538 0.139182 21.3411L-2.95849e-05 18.9649C-0.417663 11.6569 20.4176 11.6569 20 18.9649L19.8608 21.3411Z" fill="#969BBF"/>
<path fill-rule="evenodd" clip-rule="evenodd" d="M4.64035 3.90058C4.50114 5.24561 4.82596 8.47368 5.52202 9.68421C6.12527 10.7602 7.56378 11.7914 9.14151 12.1053C9.88397 12.1949 10.116 12.1949 10.8584 12.1053C12.4362 11.7466 13.8747 10.7154 14.4779 9.68421C15.174 8.47368 15.4988 5.24561 15.3596 3.90058C15.0812 1.30019 12.7146 0 10.0232 0C7.33176 0 4.91877 1.30019 4.64035 3.90058Z" fill="#969BBF"/>
</g>
<defs>
<clipPath id="clip0_16_124">
<rect width="20" height="23" fill="white"/>
</clipPath>
</defs>
</svg>
