<svg width="19" height="14" viewBox="0 0 19 14" fill="none" xmlns="http://www.w3.org/2000/svg">
<path d="M13.0325 13.1549C13.0322 12.5589 13.0325 11.9628 13.0303 11.3668C13.0302 11.3149 13.0492 11.3077 13.0943 11.3078C13.624 11.3092 14.1535 11.3103 14.6832 11.3078C14.8984 11.3069 15.1114 11.2855 15.3216 11.2327C15.7513 11.1246 16.1232 10.9144 16.4359 10.6036C16.7877 10.2542 17.0217 9.83484 17.104 9.34547C17.2188 8.66279 17.1221 8.01006 16.7516 7.41488C16.4981 7.0076 16.1365 6.7247 15.6871 6.55608C15.4518 6.46774 15.2082 6.41768 14.9563 6.41408C14.8982 6.41325 14.8735 6.39841 14.8714 6.33295C14.8581 5.91153 14.8037 5.49537 14.6831 5.09045C14.3494 3.96998 13.6694 3.15583 12.5649 2.72553C11.969 2.4934 11.3502 2.43848 10.7175 2.51517C10.1846 2.57979 9.68545 2.74273 9.23252 3.03297C8.54348 3.4745 8.05529 4.08314 7.74561 4.83765C7.737 4.85873 7.72854 4.87981 7.72146 4.89756C7.70508 4.90588 7.70036 4.89506 7.69564 4.88882C7.36528 4.44951 6.91512 4.26216 6.37752 4.29475C5.72873 4.33413 5.20557 4.61272 4.85952 5.1756C4.64742 5.52075 4.61202 5.89919 4.69725 6.29135C4.69822 6.29579 4.70031 6.30009 4.70142 6.30453C4.71863 6.3746 4.69198 6.40405 4.62146 6.39286C3.59345 6.22923 2.57474 6.76381 2.12223 7.70165C1.90305 8.15594 1.8113 8.63533 1.86419 9.13469C1.9372 9.82292 2.25479 10.382 2.80544 10.8051C3.17384 11.0882 3.59443 11.2424 4.0536 11.2941C4.15896 11.306 4.26598 11.3081 4.3723 11.3082C5.10549 11.3093 5.83867 11.3098 6.57185 11.3073C6.63765 11.307 6.64986 11.327 6.64958 11.3878C6.64736 11.9769 6.64819 12.5661 6.64819 13.1552H3.88634C3.88898 13.1519 3.89175 13.1486 3.89383 13.145C3.89411 13.1445 3.89092 13.1408 3.88898 13.1405C3.8161 13.13 3.74323 13.1205 3.67049 13.1095C3.04086 13.0132 2.45551 12.7983 1.92429 12.4458C1.13114 11.9194 0.568695 11.2094 0.244996 10.3131C0.133255 10.0037 0.0614918 9.68508 0.025263 9.35809C0.0237361 9.34395 0.0402542 9.31011 0 9.31496C0 9.03762 0 8.76041 0 8.48307C0.00166569 8.48459 0.00333139 8.48626 0.00513589 8.48764C0.00666277 8.48889 0.00846727 8.48972 0.010133 8.49083C0.0398378 8.43592 0.0310929 8.37393 0.0394214 8.31555C0.160184 7.46189 0.509285 6.71167 1.07951 6.06851C1.6024 5.47859 2.24494 5.0648 2.9995 4.82933C3.04461 4.81519 3.0671 4.793 3.0807 4.74876C3.2034 4.34897 3.39163 3.98066 3.66633 3.66629C4.564 2.63914 5.68362 2.25862 7.02311 2.54415C7.06462 2.55303 7.09169 2.54748 7.11931 2.51461C7.22355 2.39078 7.33516 2.27374 7.45175 2.16141C7.97575 1.6572 8.57526 1.27045 9.25389 1.00711C9.7325 0.821424 10.2271 0.704108 10.739 0.659732C10.7537 0.658484 10.7862 0.674709 10.7838 0.635742C11.0938 0.635742 11.4037 0.635742 11.7137 0.635742C11.7111 0.63907 11.7083 0.642398 11.7061 0.646004C11.7058 0.64642 11.709 0.650025 11.7109 0.650441C11.7309 0.65474 11.7509 0.660565 11.7712 0.662506C12.1776 0.701196 12.575 0.783983 12.9613 0.915444C14.1269 1.31246 15.0594 2.0183 15.754 3.03422C16.1562 3.62247 16.4275 4.26757 16.5706 4.96565C16.5842 5.03179 16.6107 5.07326 16.6739 5.10418C16.9405 5.23439 17.1876 5.39636 17.4183 5.58288C17.9603 6.02122 18.3709 6.55996 18.6483 7.19896C18.8222 7.59959 18.9327 8.01741 18.975 8.4527C18.9764 8.46754 18.961 8.50012 19 8.49693V9.31496C18.9967 9.31233 18.9935 9.30942 18.9899 9.3072C18.9895 9.30692 18.9856 9.30997 18.9853 9.31191C18.9743 9.38458 18.9639 9.45724 18.9527 9.52977C18.868 10.0785 18.6881 10.5939 18.4003 11.0692C17.8732 11.9399 17.1305 12.553 16.174 12.9045C15.8588 13.0204 15.5327 13.0941 15.1983 13.1301C15.1839 13.1316 15.1504 13.1156 15.1554 13.1554H13.032L13.0325 13.1549Z" fill="white"/>
<path d="M7.99466 13.1548C8.00659 13.1283 8.00118 13.1001 8.00118 13.0727C8.00146 11.9546 8.00076 10.8366 8.00299 9.71849C8.00299 9.65054 7.98897 9.63029 7.91692 9.63085C7.45442 9.63473 6.99191 9.63279 6.5294 9.63279C6.50456 9.63279 6.47971 9.63279 6.45361 9.63279C6.45361 9.60311 6.47513 9.59382 6.48859 9.58037C7.58962 8.47834 8.69119 7.37687 9.79194 6.2747C9.82442 6.24211 9.84246 6.22866 9.88327 6.26957C10.9882 7.37742 12.0948 8.48375 13.2011 9.59035C13.2106 9.59992 13.2195 9.61018 13.2405 9.63279C13.2037 9.63279 13.18 9.63279 13.1562 9.63279C12.6891 9.63279 12.2219 9.63403 11.7548 9.63126C11.6914 9.63085 11.6749 9.64735 11.675 9.71086C11.6769 10.8312 11.6765 11.9517 11.6763 13.072C11.6763 13.0996 11.6736 13.1272 11.6722 13.1548H7.99438H7.99466Z" fill="white"/>
</svg>
