<svg width="19" height="19" viewBox="0 0 19 19" fill="none" xmlns="http://www.w3.org/2000/svg">
<path d="M3.22842 6.31349C1.58179 6.30887 0 7.58031 0 9.50135C0 11.4201 1.58179 12.6915 3.22842 12.6869C4.87274 12.6915 6.45453 11.4201 6.45453 9.50135C6.45453 7.58031 4.87274 6.30887 3.22842 6.31349Z" fill="#969BBF"/>
<path d="M7.89055 10.1392L13.6573 13.4611C15.6907 11.6071 19.0001 13.0404 19.0001 15.8144C19.0001 17.5736 17.5712 19 15.8088 19C13.7939 19 12.2746 17.1529 12.6822 15.1695L6.9248 11.8521C6.9248 11.8521 7.6798 11.2627 7.89055 10.1392Z" fill="#969BBF"/>
<path d="M6.9248 7.16401L12.6544 3.86288C12.2214 1.86787 13.7453 0 15.7717 0C17.5341 0 18.9631 1.42633 18.9631 3.18554C18.9631 5.95267 15.6768 7.37437 13.6457 5.55968L7.89055 8.87699C7.63812 7.77661 6.9248 7.16401 6.9248 7.16401Z" fill="#969BBF"/>
</svg>
