<svg xmlns="http://www.w3.org/2000/svg" width="21" height="21" viewBox="0 0 21 21" fill="none">
  <path d="M13.9708 2.39401C10.7788 -0.798005 5.58519 -0.798005 2.39401 2.39401C-0.798005 5.58603 -0.798005 10.7797 2.39401 13.9708C5.24208 16.8189 9.68322 17.1251 12.8744 14.892L18.5647 20.5822C19.1217 21.1393 20.0252 21.1393 20.5822 20.5822C21.1393 20.0252 21.1393 19.1217 20.5822 18.5647L14.892 12.8744C17.126 9.68322 16.8189 5.24208 13.9708 2.39401ZM12.6253 12.6261C10.1748 15.0765 6.18836 15.0765 3.73877 12.6261C1.28834 10.1757 1.28834 6.1892 3.73877 3.73961C6.1892 1.28918 10.1757 1.28918 12.6253 3.73961C15.0757 6.19004 15.0757 10.1765 12.6253 12.6269V12.6261Z" fill="white"/>
</svg>