<svg xmlns="http://www.w3.org/2000/svg" width="16" height="16" viewBox="0 0 16 16" fill="none">
  <path d="M15.9137 7.74318C15.8159 12.0621 12.4404 15.2378 8.09378 15.1219C4.14867 15.0061 0.868602 11.5459 0.916285 7.54926C0.966477 3.48717 4.53264 0.0143723 8.53799 0.127698C12.7316 0.251097 16.0091 3.63324 15.9137 7.74318ZM12.3626 7.66763C12.3723 7.14479 12.2782 6.62526 12.0858 6.13929C11.8933 5.65332 11.6065 5.21064 11.2419 4.83703C10.8772 4.46342 10.4422 4.16635 9.96204 3.96314C9.48189 3.75993 8.96624 3.65463 8.44513 3.65338C7.38898 3.66468 6.38013 4.09466 5.6387 4.84952C4.89727 5.60438 4.48343 6.62285 4.48747 7.68274C4.49985 8.71791 4.91532 9.70714 5.64505 10.4389C6.37477 11.1707 7.36084 11.587 8.39243 11.5988C8.91388 11.6156 9.43329 11.5258 9.91908 11.3349C10.4049 11.144 10.8469 10.8559 11.2182 10.4882C11.5896 10.1205 11.8826 9.68081 12.0793 9.19592C12.276 8.71104 12.3724 8.19107 12.3626 7.66763Z" fill="#E8742F"/>
  <path d="M8.4452 3.65332C7.38773 3.66263 6.37697 4.09174 5.63391 4.84682C4.89086 5.60189 4.47599 6.6215 4.48001 7.68267C4.4924 8.71784 4.90787 9.70707 5.63759 10.4389C6.36731 11.1707 7.35338 11.5869 8.38497 11.5987C8.90642 11.6155 9.42583 11.5258 9.91162 11.3348C10.3974 11.1439 10.8394 10.8558 11.2108 10.4881C11.5822 10.1204 11.8751 9.68075 12.0718 9.19586C12.2686 8.71098 12.365 8.19101 12.3552 7.66756C12.3648 7.14536 12.2709 6.62645 12.079 6.14097C11.887 5.6555 11.6008 5.21316 11.237 4.83965C10.8732 4.46614 10.4391 4.16892 9.95979 3.96526C9.48051 3.7616 8.96567 3.65557 8.4452 3.65332Z" fill="#FDFDFD"/>
  <path d="M9.79291 8.15127C9.43397 8.15602 9.08767 8.01846 8.82922 7.76848C8.68248 7.62668 8.5678 7.45492 8.49293 7.26481C8.4615 7.19108 8.41553 7.1245 8.35778 7.06906C8.30003 7.01363 8.23171 6.9705 8.15691 6.94227C8.08212 6.91403 8.0024 6.90128 7.92256 6.90478C7.84273 6.90827 7.76442 6.92794 7.69236 6.96261C7.62454 7.00214 7.56559 7.05529 7.5192 7.11875C7.45607 7.20339 7.3708 7.2688 7.27285 7.30773C7.1749 7.34665 7.06812 7.35756 6.96436 7.33924C6.8606 7.32092 6.76394 7.27409 6.68512 7.20395C6.6063 7.13381 6.5484 7.04311 6.51786 6.94193C6.48733 6.84075 6.48535 6.73306 6.51215 6.63082C6.53894 6.52858 6.59347 6.4358 6.66966 6.36279C6.74585 6.28978 6.84073 6.2394 6.94374 6.21725C7.04675 6.1951 7.15386 6.20205 7.25318 6.23732C7.36383 6.27795 7.46052 6.34963 7.53174 6.44383C7.57871 6.50572 7.63847 6.55667 7.70691 6.59319C7.77536 6.6297 7.85087 6.65092 7.92826 6.65537C8.04821 6.66698 8.16869 6.63943 8.27179 6.57682C8.37488 6.5142 8.45508 6.41986 8.50046 6.30784C8.56723 6.13187 8.66689 5.97031 8.79408 5.83187C9.0276 5.58617 9.34481 5.4378 9.68248 5.41634C10.0214 5.38601 10.3588 5.48894 10.6236 5.70344C10.7696 5.8149 10.8911 5.95541 10.9805 6.11618C11.0699 6.27695 11.1252 6.45451 11.1431 6.63774C11.1812 6.99768 11.0764 7.35819 10.8514 7.64107C10.6263 7.92394 10.2992 8.10636 9.94097 8.14875C9.89173 8.15294 9.84226 8.15378 9.79291 8.15127ZM9.79291 5.88476C9.61808 5.88426 9.44704 5.93582 9.30144 6.03293C9.15584 6.13003 9.04223 6.2683 8.97498 6.43023C8.90773 6.59217 8.88988 6.77048 8.92368 6.9426C8.95748 7.11473 9.04142 7.27291 9.16486 7.39714C9.28831 7.52136 9.44571 7.60604 9.61713 7.64045C9.78856 7.67486 9.96631 7.65745 10.1279 7.59043C10.2894 7.52341 10.4276 7.4098 10.5247 7.26396C10.6219 7.11813 10.6738 6.94665 10.6738 6.77121C10.6731 6.65471 10.6495 6.53948 10.6043 6.43215C10.5591 6.32483 10.4933 6.22753 10.4105 6.14585C10.3277 6.06417 10.2296 5.99972 10.1219 5.95621C10.0142 5.9127 9.89897 5.89098 9.78287 5.89231L9.79291 5.88476Z" fill="#E8742F"/>
  <path d="M7.06001 8.15141C6.70255 8.1562 6.35779 8.01854 6.10134 7.76862C5.86886 7.55498 5.72095 7.26439 5.68474 6.95016C5.66288 6.76432 5.67905 6.57597 5.73225 6.39663C5.78546 6.21729 5.87458 6.05073 5.99416 5.90715C6.11375 5.76358 6.26128 5.646 6.42772 5.56163C6.59416 5.47726 6.77601 5.42787 6.96214 5.41648C7.30119 5.39244 7.63693 5.49666 7.90324 5.70861C8.02612 5.80662 8.13137 5.92501 8.21443 6.05866C8.23702 6.09644 8.232 6.11406 8.19687 6.13421C8.08644 6.19717 7.97602 6.26013 7.86811 6.32561C7.82544 6.35079 7.81039 6.32561 7.7878 6.30294C7.68273 6.14449 7.52963 6.02418 7.35115 5.95981C7.17267 5.89543 6.97828 5.89041 6.79673 5.94548C6.61518 6.00056 6.45612 6.1128 6.34307 6.26561C6.23001 6.41843 6.16897 6.6037 6.16897 6.79402C6.16897 6.98434 6.23001 7.16961 6.34307 7.32242C6.45612 7.47523 6.61518 7.58748 6.79673 7.64255C6.97828 7.69762 7.17267 7.6926 7.35115 7.62823C7.52963 7.56385 7.68273 7.44354 7.7878 7.2851C7.81541 7.23977 7.83799 7.22969 7.88567 7.25991C7.98857 7.32287 8.09397 7.38331 8.19938 7.44123C8.23702 7.4639 8.24455 7.48153 8.21945 7.52182C8.10332 7.70974 7.94312 7.86628 7.75282 7.97778C7.56253 8.08928 7.34794 8.15235 7.12777 8.16148L7.06001 8.15141Z" fill="#E8742F"/>
  <path d="M10.3501 6.77826C10.3497 6.85355 10.3346 6.92803 10.3055 6.99742C10.2764 7.06682 10.2339 7.12977 10.1805 7.18265C10.1271 7.23553 10.0639 7.27731 9.99432 7.30559C9.92479 7.33386 9.85037 7.34807 9.77535 7.34741C9.66279 7.34641 9.55305 7.31198 9.45997 7.24845C9.3669 7.18492 9.29467 7.09514 9.25239 6.99046C9.21012 6.88577 9.1997 6.77086 9.22245 6.66023C9.2452 6.54961 9.3001 6.44823 9.38021 6.36888C9.46033 6.28954 9.56208 6.23579 9.67261 6.21442C9.78314 6.19306 9.89751 6.20503 10.0013 6.24882C10.105 6.29262 10.1935 6.36628 10.2556 6.46051C10.3177 6.55474 10.3505 6.66531 10.3501 6.77826Z" fill="#E8742F"/>
  <path d="M10.6431 9.01355C10.6431 9.01355 10.6431 9.01355 10.6431 8.99844C10.6318 8.89676 10.5837 8.80281 10.5077 8.73456C10.4318 8.66632 10.3334 8.62859 10.2315 8.62859C10.1295 8.62859 10.0312 8.66632 9.95523 8.73456C9.87929 8.80281 9.8311 8.89676 9.8199 8.99844C9.75117 9.32436 9.57292 9.61669 9.31502 9.82646C9.05711 10.0362 8.73521 10.1507 8.40322 10.1507C8.07123 10.1507 7.74933 10.0362 7.49142 9.82646C7.23352 9.61669 7.05527 9.32436 6.98654 8.99844C6.97843 8.89415 6.93142 8.79676 6.8549 8.72572C6.77837 8.65469 6.67796 8.61523 6.57371 8.61523C6.46947 8.61523 6.36905 8.65469 6.29253 8.72572C6.216 8.79676 6.16899 8.89415 6.16088 8.99844C6.16205 9.0034 6.16205 9.00858 6.16088 9.01355C6.16088 9.01355 6.16088 9.02866 6.16088 9.03873C6.15908 9.09192 6.1676 9.14495 6.18598 9.19487C6.29432 9.70193 6.57267 10.1564 6.97458 10.4824C7.37649 10.8084 7.87765 10.9862 8.39444 10.9862C8.91123 10.9862 9.41239 10.8084 9.8143 10.4824C10.2162 10.1564 10.4946 9.70193 10.6029 9.19487C10.6269 9.14272 10.6397 9.08609 10.6405 9.02866C10.6405 9.02866 10.6431 9.0211 10.6431 9.01355Z" fill="#E8742F"/>
</svg>