<svg width="21" height="19" viewBox="0 0 21 19" fill="none" xmlns="http://www.w3.org/2000/svg">
    <path d="M19.5831 10.4611C19.5622 10.0362 19.2073 9.7124 18.7897 9.7124H1.23233C0.814789 9.7124 0.459883 10.0362 0.439006 10.4408L0.292868 12.788C0.271991 13.2332 0.626897 13.6176 1.08619 13.6176H18.915C19.3743 13.6176 19.7501 13.2332 19.7083 12.788L19.5831 10.4611ZM2.4223 12.3429C2.08828 12.3429 1.81688 12.0798 1.81688 11.7561C1.81688 11.4323 2.08828 11.1693 2.4223 11.1693C2.75633 11.1693 3.02773 11.4323 3.02773 11.7561C3.02773 12.0798 2.75633 12.3429 2.4223 12.3429ZM18.0799 12.3429H12.7146V11.1693H18.0799V12.3429Z" fill="#969BBF"/>
    <path d="M19.8756 15.8232C19.8547 15.4185 19.4998 15.0947 19.0823 15.0947H0.940333C0.522796 15.0947 0.16789 15.4185 0.147014 15.8232L0.000875774 18.1703C-0.0200011 18.6155 0.334905 18.9999 0.794195 18.9999H19.2076C19.6668 18.9999 20.0426 18.6155 20.0009 18.1703L19.8756 15.8232ZM1.83804 17.8264C1.50401 17.8264 1.23261 17.5633 1.23261 17.2396C1.23261 16.9158 1.50401 16.6528 1.83804 16.6528C2.17207 16.6528 2.44346 16.9158 2.44346 17.2396C2.42259 17.5633 2.17207 17.8264 1.83804 17.8264ZM18.3099 17.624H12.9445V16.4504H18.3099V17.624Z" fill="#969BBF"/>
    <path d="M15.7629 0H4.44769L1.27441 3.50053H18.9362L15.7629 0Z" fill="#969BBF"/>
    <path d="M19.3954 5.07853C19.3745 4.67385 19.0196 4.3501 18.602 4.3501H1.6083C1.19077 4.3501 0.835859 4.67385 0.814982 5.07853L0.668845 7.40548C0.647968 7.85063 1.00287 8.23508 1.46216 8.23508H18.7273C19.1866 8.23508 19.5624 7.85063 19.5206 7.40548L19.3954 5.07853ZM2.73565 6.87938C2.40162 6.87938 2.13022 6.61634 2.13022 6.29259C2.13022 5.96884 2.40162 5.7058 2.73565 5.7058C3.06968 5.7058 3.34108 5.96884 3.34108 6.29259C3.34108 6.61634 3.06968 6.87938 2.73565 6.87938ZM18.0175 6.87938H12.6521V5.7058H18.0175V6.87938Z" fill="#969BBF"/>
    </svg>
    