<svg width="27" height="27" viewBox="0 0 27 27" fill="none" xmlns="http://www.w3.org/2000/svg">
    <rect width="27" height="27" rx="13.5" fill="#F3F3F3"/>
    <path d="M16.325 20.111C16.2387 20.111 16.103 20.1048 15.918 20.0925C15.733 20.0802 15.5357 20.0678 15.326 20.0555C15.1163 20.0432 14.919 20.0308 14.734 20.0185C14.549 20.0062 14.4133 20 14.327 20H12.5325C12.4462 20 12.3105 20.0062 12.1255 20.0185C11.9405 20.0308 11.7432 20.0432 11.5335 20.0555C11.3362 20.0678 11.145 20.0802 10.96 20.0925C10.775 20.1048 10.6393 20.111 10.553 20.111L10.516 20.037L10.5715 19.334L10.664 19.26C10.849 19.26 11.0648 19.2538 11.3115 19.2415C11.5705 19.2292 11.7555 19.1737 11.8665 19.075C11.9652 18.9887 12.0638 18.8777 12.1625 18.742C12.2612 18.6063 12.329 18.3658 12.366 18.0205C12.3783 17.9342 12.3845 17.8355 12.3845 17.7245C12.3968 17.6012 12.403 17.4532 12.403 17.2805C12.4153 17.1078 12.4215 16.8982 12.4215 16.6515C12.4215 16.4048 12.4215 16.0965 12.4215 15.7265V12.341C12.4215 11.6627 12.4153 11.0583 12.403 10.528C12.3907 9.99767 12.3783 9.603 12.366 9.344H12.1625C11.6938 9.344 11.3053 9.35017 10.997 9.3625C10.6887 9.3625 10.442 9.37483 10.257 9.3995C10.072 9.41183 9.93017 9.43033 9.8315 9.455C9.74517 9.47967 9.6835 9.5105 9.6465 9.5475C9.51083 9.60917 9.39983 9.70783 9.3135 9.8435C9.22717 9.97917 9.17167 10.1395 9.147 10.3245L9.073 10.3985H8.2775L8.407 7.9195L8.481 7.753L8.592 7.6975C8.69067 7.7345 8.9065 7.7715 9.2395 7.8085C9.5725 7.83317 9.93633 7.85167 10.331 7.864C10.7257 7.87633 11.1018 7.88867 11.4595 7.901C11.8295 7.901 12.0947 7.901 12.255 7.901H14.586C14.7463 7.901 15.0053 7.901 15.363 7.901C15.733 7.88867 16.1153 7.87633 16.51 7.864C16.9047 7.85167 17.2685 7.83317 17.6015 7.8085C17.9345 7.7715 18.1503 7.7345 18.249 7.6975L18.36 7.753L18.434 7.9195L18.582 10.3985H17.768L17.694 10.3245C17.6693 10.1395 17.6138 9.97917 17.5275 9.8435C17.4412 9.70783 17.3302 9.60917 17.1945 9.5475C17.1575 9.49817 17.0897 9.46117 16.991 9.4365C16.9047 9.3995 16.769 9.37483 16.584 9.3625C16.399 9.35017 16.1523 9.344 15.844 9.344C15.548 9.344 15.1657 9.344 14.697 9.344H14.4935C14.4812 9.64 14.4688 10.0347 14.4565 10.528C14.4565 11.0213 14.4565 11.6195 14.4565 12.3225V15.3565C14.4565 15.8005 14.4565 16.1643 14.4565 16.448C14.4565 16.7193 14.4565 16.9475 14.4565 17.1325C14.4688 17.3175 14.475 17.4778 14.475 17.6135C14.4873 17.7368 14.4997 17.8725 14.512 18.0205C14.5367 18.3782 14.6045 18.6248 14.7155 18.7605C14.8265 18.8962 14.9313 19.001 15.03 19.075C15.0793 19.1243 15.1472 19.1613 15.2335 19.186C15.3322 19.2107 15.437 19.2292 15.548 19.2415C15.659 19.2538 15.77 19.26 15.881 19.26C16.0043 19.26 16.1153 19.26 16.214 19.26L16.3065 19.334L16.362 20.037L16.325 20.111Z" fill="#969BBF"/>
    </svg>
    