<svg width="12" height="17" viewBox="0 0 12 17" fill="none" xmlns="http://www.w3.org/2000/svg">
<path fill-rule="evenodd" clip-rule="evenodd" d="M11.3694 4.5124L10.4011 16.5291C10.3795 16.796 10.1572 17.0004 9.88844 17.0004H2.01877C1.74998 17.0004 1.52766 16.7961 1.50613 16.5291L0.537805 4.5124C0.517657 4.26244 0.713226 4.05133 0.96504 4.05133H10.9423C11.1941 4.05133 11.3896 4.26244 11.3695 4.5124H11.3694ZM5.95356 5.41686C6.21 5.41686 6.41989 5.62583 6.41989 5.88134V15.1704C6.41989 15.4259 6.21009 15.6349 5.95356 15.6349C5.69703 15.6349 5.48723 15.4259 5.48723 15.1704V5.88134C5.48723 5.62591 5.69703 5.41686 5.95356 5.41686ZM2.94303 5.42386C3.19913 5.41045 3.41965 5.60824 3.43311 5.86341L3.92122 15.1398C3.93468 15.3949 3.73611 15.6145 3.47992 15.6279C3.22382 15.6413 3.0033 15.4435 2.98984 15.1884L2.50173 5.912C2.48827 5.65691 2.68684 5.43727 2.94303 5.42386ZM8.96409 5.42386C8.70799 5.41045 8.48747 5.60824 8.47401 5.86341L7.9859 15.1398C7.97244 15.3949 8.17101 15.6145 8.4272 15.6279C8.6833 15.6413 8.90382 15.4435 8.91728 15.1884L9.40539 5.912C9.41885 5.65691 9.22028 5.43727 8.96409 5.42386Z" fill="white"/>
<path fill-rule="evenodd" clip-rule="evenodd" d="M0.524926 2.39859L3.73755 1.86331L3.68662 1.55997C3.59016 0.985753 3.98293 0.437322 4.55943 0.341333L6.52122 0.0145123C7.09772 -0.0815613 7.64833 0.309651 7.7447 0.883872L7.79563 1.18721L11.0083 0.651929C11.3492 0.595139 11.6749 0.826484 11.732 1.16612L11.8357 1.78363L0.112353 3.73696L0.00860952 3.11944C-0.0484065 2.77981 0.183859 2.45547 0.524841 2.39859H0.524926ZM4.30119 1.76937L7.23199 1.28106L7.18106 0.977725C7.13647 0.712306 6.88192 0.531431 6.61544 0.575839L4.65375 0.90266C4.38727 0.947067 4.20568 1.20062 4.25026 1.46604L4.30119 1.76937Z" fill="white"/>
</svg>
