<svg width="30" height="33" viewBox="0 0 30 33" fill="none" xmlns="http://www.w3.org/2000/svg">
    <g clip-path="url(#clip0_227_4982)">
    <path d="M25.467 0H4.54768C2.03912 0 0 2.05051 0 4.57309V25.6093C0 28.1171 2.03912 30.1676 4.54768 30.1676H11.4132C11.5746 30.802 11.8973 31.4068 12.3814 31.9084C13.1002 32.6312 14.0538 33 15.0073 33C15.9609 33 16.9144 32.6312 17.6333 31.9084C18.132 31.4068 18.4548 30.802 18.6015 30.1676H25.467C27.9756 30.1676 30.0147 28.1171 30.0147 25.6093V4.57309C30 2.05051 27.9609 0 25.467 0Z" fill="url(#paint0_linear_227_4982)"/>
    <path d="M17.6331 26.6272C16.1807 25.1668 13.8336 25.1668 12.3812 26.6272C10.9289 28.0876 10.9289 30.4479 12.3812 31.9084C13.1001 32.6312 14.0536 33 15.0072 33C15.9607 33 16.9142 32.6312 17.6331 31.9084C19.0707 30.4479 19.0707 28.0876 17.6331 26.6272Z" fill="url(#paint1_linear_227_4982)"/>
    <path d="M20.5675 7.62674L15.6384 2.65535C15.301 2.31606 14.7142 2.31606 14.3768 2.65535L9.433 7.62674C9.08093 7.98079 9.08093 8.54136 9.433 8.8954C9.78508 9.24945 10.3425 9.24945 10.6946 8.8954L14.098 5.47296V23.1605C14.098 23.6621 14.4941 24.0604 14.9929 24.0604C15.4917 24.0604 15.8878 23.6621 15.8878 23.1605V5.47296L19.2912 8.8954C19.4672 9.07243 19.702 9.16094 19.922 9.16094C20.1567 9.16094 20.3768 9.07243 20.5528 8.8954C20.9196 8.55611 20.9196 7.98079 20.5675 7.62674Z" fill="url(#paint2_linear_227_4982)"/>
    </g>
    <defs>
    <linearGradient id="paint0_linear_227_4982" x1="0" y1="16.4999" x2="30.002" y2="16.4999" gradientUnits="userSpaceOnUse">
    <stop stop-color="#0E5DF8"/>
    <stop offset="0.3103" stop-color="#0F4EE0"/>
    <stop offset="0.9631" stop-color="#1026A3"/>
    <stop offset="1" stop-color="#10249F"/>
    </linearGradient>
    <linearGradient id="paint1_linear_227_4982" x1="12.3734" y1="31.9075" x2="17.6577" y2="26.6525" gradientUnits="userSpaceOnUse">
    <stop stop-color="#27E6D6"/>
    <stop offset="0.333" stop-color="#23CEE2"/>
    <stop offset="0.3343" stop-color="#23CEE2"/>
    <stop offset="1" stop-color="#1A95FF"/>
    </linearGradient>
    <linearGradient id="paint2_linear_227_4982" x1="9.17003" y1="13.2332" x2="20.8325" y2="13.2332" gradientUnits="userSpaceOnUse">
    <stop stop-color="#FDFBF7"/>
    <stop offset="0.349" stop-color="#F5F0DF"/>
    <stop offset="1" stop-color="#E3D7A9"/>
    </linearGradient>
    <clipPath id="clip0_227_4982">
    <rect width="30" height="33" fill="white"/>
    </clipPath>
    </defs>
    </svg>
    