<svg width="19" height="17" viewBox="0 0 19 17" fill="none" xmlns="http://www.w3.org/2000/svg">
    <path d="M19 5.27352C19 4.2982 18.205 3.51568 17.2141 3.51568H2.38508C1.77441 3.51568 1.17526 2.92595 1.17526 2.34757C1.17526 1.75784 1.77441 1.17945 2.38508 1.17945H16.5343C16.8684 1.17945 17.1334 1.44029 17.1334 1.76918V2.35891H17.1449C17.5597 2.35891 17.963 2.44963 18.3202 2.59706V1.76918C18.3202 0.782522 17.5136 0 16.5343 0H2.99576C0 0 0 2.34757 0 2.34757V14.3576C0 15.7638 1.56701 17 2.99576 17H17.2141C18.205 17 19 16.2175 19 15.2422V12.3162H14.829C13.8381 12.3162 13.0431 11.5337 13.0431 10.5584C13.0431 9.58306 13.8381 8.80053 14.829 8.80053H19V5.27352Z" fill="#969BBF"/>
    <path d="M14.2295 10.547C14.2295 11.1934 14.7595 11.7151 15.4163 11.7151C16.073 11.7151 16.6031 11.1934 16.6031 10.547C16.6031 9.90059 16.073 9.37891 15.4163 9.37891C14.771 9.37891 14.2295 9.90059 14.2295 10.547Z" fill="#969BBF"/>
    <path d="M16.0733 1.75781H2.97266V2.92592H16.0733V1.75781Z" fill="#969BBF"/>
    </svg>
    