<svg width="13" height="13" viewBox="0 0 13 13" fill="none" xmlns="http://www.w3.org/2000/svg">
<path d="M0.437988 10.8859C0.437988 10.8012 0.437988 10.7133 0.437988 10.6286C0.483584 10.5276 0.558493 10.4462 0.633401 10.368C2.04363 8.96089 3.4506 7.55052 4.85756 6.14341C4.98458 6.01638 4.98458 6.01638 4.85756 5.88935C3.4506 4.48223 2.04363 3.07512 0.633401 1.668C0.555236 1.58983 0.483584 1.51166 0.437988 1.40742C0.437988 1.32274 0.437988 1.23479 0.437988 1.1501C0.490098 1.05239 0.558493 0.970958 0.636658 0.892785C0.861382 0.671295 1.08285 0.449805 1.30432 0.225057C1.38248 0.146884 1.4639 0.0784825 1.56161 0.0263672C1.64629 0.0263672 1.73422 0.0263672 1.8189 0.0263672C1.91987 0.0719681 2.00129 0.143627 2.07945 0.2218C3.48642 1.63217 4.89665 3.03929 6.30362 4.44966C6.43063 4.57669 6.43063 4.57669 6.55765 4.44966C7.96462 3.03929 9.37159 1.63217 10.7818 0.2218C10.86 0.143627 10.9414 0.0719681 11.0424 0.0263672C11.127 0.0263672 11.215 0.0263672 11.2997 0.0263672C11.3485 0.0589393 11.4039 0.0817398 11.4462 0.124083C11.7426 0.417232 12.0422 0.707124 12.3288 1.01004C12.4786 1.16639 12.4689 1.38788 12.3321 1.554C12.2963 1.5996 12.2539 1.63869 12.2116 1.68103C10.8079 3.08489 9.40416 4.48875 8.00045 5.8926C7.87343 6.01963 7.87343 6.01963 8.00045 6.14667C9.40416 7.55052 10.8079 8.95438 12.2116 10.3582C12.2507 10.3973 12.2897 10.4332 12.3256 10.4755C12.4689 10.6449 12.4819 10.8664 12.3256 11.0292C12.039 11.3321 11.7426 11.6285 11.443 11.9152C11.2834 12.0683 11.0587 12.0585 10.8893 11.9152C10.847 11.8794 10.8111 11.8403 10.772 11.8012C9.37159 10.4006 7.97113 8.99998 6.57068 7.59938C6.43389 7.46258 6.43389 7.46258 6.30036 7.59612C4.88036 9.00975 3.46688 10.4234 2.0534 11.8403C1.80587 12.0878 1.58441 12.0878 1.33363 11.8403C1.10239 11.609 0.871152 11.3777 0.639914 11.1465C0.561749 11.0651 0.490098 10.9836 0.437988 10.8859Z" fill="#D9D9D9"/>
</svg>
