<svg width="13" height="13" viewBox="0 0 13 13" fill="none" xmlns="http://www.w3.org/2000/svg">
    <path fill-rule="evenodd" clip-rule="evenodd" d="M0.682809 1.82204V0.574847C0.682809 0.25797 0.940779 0 1.25766 0H4.16033C4.43658 0 4.67221 0.0914068 4.87737 0.274221L5.37299 0.717036C5.57815 0.899849 5.81581 0.991256 6.09003 0.991256H11.7979C12.1148 0.991256 12.3727 1.24923 12.3727 1.5661V2.6183C12.3727 2.69752 12.3077 2.76252 12.2285 2.76252H7.05488C6.98175 2.76252 6.91879 2.75439 6.85988 2.73611C6.803 2.71783 6.7441 2.68939 6.68519 2.64674L6.10019 2.23845C5.97019 2.14908 5.83612 2.08204 5.68987 2.03533C5.54971 1.99064 5.3994 1.97033 5.23893 1.96829L0.827028 1.96423C0.747809 1.96423 0.682809 1.90126 0.682809 1.82204ZM7.57488 4.6719H8.08473C8.14567 4.6719 8.19442 4.71862 8.19442 4.77753V5.18785C8.19442 5.24472 8.14567 5.29347 8.08473 5.29347H7.57488C7.46316 5.29347 7.37176 5.38488 7.37176 5.4966V6.32332C7.37176 6.43504 7.46316 6.52645 7.57488 6.52645H8.08473C8.14567 6.52645 8.19442 6.57317 8.19442 6.63207V7.04239C8.19442 7.09926 8.14567 7.14801 8.08473 7.14801H7.57488C7.46316 7.14801 7.37176 7.23942 7.37176 7.35114V8.17786C7.37176 8.28958 7.46316 8.38099 7.57488 8.38099H8.08473C8.14567 8.38099 8.19442 8.42771 8.19442 8.48662V8.89693C8.19442 8.95381 8.14567 9.00256 8.08473 9.00256H7.57488C7.46316 9.00256 7.37176 9.09396 7.37176 9.20568V10.0385C7.37176 10.2619 7.18894 10.4448 6.9655 10.4448H1.12562C0.827028 10.4448 0.579214 10.2152 0.554839 9.91663L0.00233544 3.16471C-0.0118834 2.99814 0.0388982 2.84986 0.152649 2.72799C0.2664 2.60611 0.408588 2.54314 0.575152 2.54314H1.15609L5.23893 2.5472C5.30799 2.5472 5.37096 2.55736 5.43393 2.57564C5.49081 2.59392 5.54971 2.62236 5.60862 2.66502L6.19363 3.0733C6.32363 3.16268 6.45769 3.23174 6.60394 3.27643C6.74816 3.32112 6.89847 3.34346 7.05488 3.34346H12.4255C12.5921 3.34346 12.7363 3.40643 12.848 3.5283C12.9618 3.65018 13.0126 3.79846 12.9984 3.96503L12.5109 9.92069C12.4865 10.2193 12.2387 10.4468 11.9401 10.4488H9.13692C8.93583 10.4488 8.76724 10.3046 8.73474 10.1055C8.72052 10.008 8.6352 9.93491 8.53364 9.93491H7.98926C7.92832 9.93491 7.87957 9.88819 7.87957 9.82928V9.41897C7.87957 9.36209 7.92832 9.31334 7.98926 9.31334H8.53364C8.64536 9.31334 8.73677 9.22193 8.73677 9.11021V8.28349C8.73677 8.17177 8.64536 8.08036 8.53364 8.08036H7.98926C7.92832 8.08036 7.87957 8.03365 7.87957 7.97474V7.56442C7.87957 7.50755 7.92832 7.4588 7.98926 7.4588H8.53364C8.64536 7.4588 8.73677 7.36739 8.73677 7.25567V6.42895C8.73677 6.31723 8.64536 6.22582 8.53364 6.22582H7.98926C7.92832 6.22582 7.87957 6.1791 7.87957 6.1202V5.70988C7.87957 5.653 7.92832 5.60425 7.98926 5.60425H8.53364C8.64536 5.60425 8.73677 5.51285 8.73677 5.40113V4.32456C8.73677 4.21284 8.64536 4.12143 8.53364 4.12143H7.57488C7.46316 4.12143 7.37176 4.21284 7.37176 4.32456V4.47487C7.37176 4.5805 7.46316 4.6719 7.57488 4.6719Z" fill="#969BBF"/>
    <path fill-rule="evenodd" clip-rule="evenodd" d="M8.03815 13.0001C7.45518 13.0001 7.0083 12.7258 7.19315 11.9763L7.48362 10.7941C7.55674 10.4976 7.71924 10.2375 8.04018 10.2375C8.37331 10.2375 8.52362 10.4976 8.59675 10.7941L8.88722 11.9763C9.068 12.7258 8.62113 13.0001 8.03815 13.0001ZM8.03815 10.5605C8.20675 10.5605 8.34284 10.6966 8.34284 10.8652C8.34284 11.0338 8.20675 11.1699 8.03815 11.1699C7.86956 11.1699 7.73346 11.0338 7.73346 10.8652C7.73346 10.6986 7.86956 10.5605 8.03815 10.5605Z" fill="#969BBF"/>
    </svg>
    