<svg width="114" height="35" viewBox="0 0 114 35" fill="none" xmlns="http://www.w3.org/2000/svg">
<path d="M15.9039 28.0241C16.4245 28.2867 16.8214 28.6582 17.1013 29.1386C17.3811 29.6254 17.5242 30.1891 17.5242 30.836C17.5242 31.4829 17.3811 32.0466 17.1013 32.5206C16.8214 32.9946 16.418 33.3597 15.9039 33.6159C15.3898 33.8721 14.7846 33.9938 14.0949 33.9938H11.98V27.627H14.0949C14.7846 27.627 15.3898 27.7551 15.9039 28.0177V28.0241ZM15.8323 32.5462C16.2358 32.1427 16.4375 31.5726 16.4375 30.8424C16.4375 30.1122 16.2358 29.5293 15.8323 29.113C15.4289 28.6966 14.8497 28.4917 14.0949 28.4917H13.0407V33.1547H14.0949C14.8497 33.1547 15.4289 32.9561 15.8323 32.5526V32.5462Z" fill="#1E1E1E"/>
<path d="M38.5038 33.9997L37.0136 31.4504H36.2067V33.9997H35.146V27.6328H37.378C37.8726 27.6328 38.2956 27.7161 38.6404 27.889C38.9853 28.062 39.2391 28.2861 39.4148 28.5744C39.584 28.8626 39.6686 29.1829 39.6686 29.5352C39.6686 29.9515 39.545 30.3294 39.2977 30.6689C39.0504 31.0084 38.673 31.239 38.1654 31.3607L39.7662 33.9997H38.5038ZM36.2067 30.6177H37.378C37.775 30.6177 38.0743 30.5216 38.276 30.323C38.4778 30.1309 38.5754 29.8618 38.5754 29.5352C38.5754 29.2085 38.4778 28.9459 38.276 28.7601C38.0743 28.5744 37.775 28.4783 37.3715 28.4783H36.2002V30.6113L36.2067 30.6177Z" fill="#1E1E1E"/>
<path d="M58.6442 27.6396V34.0065H57.5835V27.6396H58.6442Z" fill="#1E1E1E"/>
<path d="M82.1814 27.6396L79.7541 34.0065H78.5242L76.084 27.6396H77.2228L79.1424 32.9368L81.0686 27.6396H82.1879H82.1814Z" fill="#1E1E1E"/>
<path d="M100.688 28.4783V30.3486H102.92V31.2006H100.688V33.1542H103.2V34.0061H99.6274V27.6328H103.2V28.4847H100.688V28.4783Z" fill="#1E1E1E"/>
<path d="M22.5807 10.9986C22.5807 9.70477 22.3464 8.48777 21.8844 7.35404C21.8649 7.30279 21.8453 7.25796 21.8258 7.20672C21.8128 7.18109 21.8063 7.16188 21.7933 7.13626C21.2922 5.98331 20.5569 4.92644 19.5678 3.95924C18.5917 2.99845 17.531 2.28106 16.3727 1.78785C16.3336 1.76863 16.2946 1.75582 16.262 1.73661C16.223 1.7238 16.184 1.70458 16.1449 1.69177C14.9866 1.23059 13.7372 1 12.4162 1C12.3967 1 12.3772 1 12.3576 1C12.3381 1 12.3186 1 12.2991 1C9.9304 1 7.91963 1.66615 6.18217 3.03047L6.15614 3.08172C5.81125 3.35074 5.47287 3.63898 5.14751 3.96564C3.14975 5.93207 2.14111 8.30202 2.14111 11.005C2.14111 11.0435 2.14111 11.0755 2.14111 11.1139C2.14111 12.4142 2.37538 13.6312 2.8374 14.7649C2.85692 14.8162 2.87644 14.861 2.89596 14.9123C2.90898 14.9379 2.91549 14.9571 2.9285 14.9827C3.42957 16.1357 4.1649 17.1861 5.15401 18.1597C6.13011 19.1205 7.19081 19.8379 8.34261 20.3311C8.38166 20.3503 8.4207 20.3632 8.45974 20.3824C8.49879 20.3952 8.53783 20.408 8.57037 20.4272C9.72868 20.8884 10.9781 21.1254 12.3056 21.1254C12.3251 21.1254 12.3446 21.1254 12.3641 21.1254C12.3837 21.1254 12.4032 21.1254 12.4227 21.1254C14.7914 21.1254 16.8022 20.4592 18.5396 19.0949L18.5656 19.0437C18.9105 18.7746 19.2489 18.4864 19.5743 18.1597C21.572 16.1933 22.5807 13.8234 22.5807 11.1203C22.5807 11.0819 22.5807 11.0499 22.5807 11.0115V10.9986ZM18.5266 11.4598C18.4355 12.9202 17.8889 14.1308 16.7891 15.3222C16.7761 15.335 16.7696 15.3478 16.7566 15.3606C15.4031 16.5776 14.043 17.1221 12.3511 17.1349C12.3186 17.1349 12.2861 17.1349 12.247 17.1349C12.0778 17.1349 11.9086 17.1285 11.746 17.1157C11.7199 17.1157 11.6939 17.1157 11.6679 17.1093C10.3274 16.9748 9.13651 16.4175 7.99121 15.3863C6.87195 14.1821 6.31232 12.9715 6.2082 11.5239C6.2017 11.415 6.19519 11.2997 6.19519 11.1844C6.19519 11.146 6.19519 11.1075 6.19519 11.0691C6.19519 11.0115 6.19519 10.9538 6.19519 10.8962C6.19519 10.8129 6.2017 10.7296 6.2082 10.6528C6.29931 9.19235 6.84592 7.98816 7.94566 6.79037C7.95868 6.77756 7.96519 6.76475 7.9782 6.75194C9.33173 5.53494 10.6918 4.99049 12.3837 4.97768C12.4162 4.97768 12.4487 4.97768 12.4878 4.97768C12.657 4.97768 12.8262 4.98408 12.9889 4.99689C13.0149 4.99689 13.0409 4.99689 13.0669 5.0033C14.4075 5.13781 15.5983 5.69507 16.7436 6.72632C17.8563 7.93051 18.4225 9.1347 18.5266 10.5887C18.5331 10.704 18.5396 10.8129 18.5396 10.9282C18.5396 10.9666 18.5396 11.005 18.5396 11.0371C18.5396 11.0947 18.5396 11.1524 18.5396 11.2164C18.5396 11.2997 18.5331 11.383 18.5266 11.4598Z" fill="#0E42E5"/>
<path d="M17.0493 17.3585C19.8475 17.7364 22.073 14.1494 22.073 14.1494C22.2942 17.0894 20.4982 18.6203 20.4982 18.6203C20.4396 18.6715 20.3876 18.7164 20.329 18.7548C19.6197 19.0046 18.9625 18.979 17.0493 17.3585Z" fill="url(#paint0_linear_62_1134)"/>
<path d="M20.4916 18.6202C20.4916 18.6202 16.392 22.3225 9.68943 17.1854C2.98687 12.042 0.240772 13.2077 0 14.7642C0 14.7642 0.305845 9.8834 5.16683 9.60798C7.45091 9.47987 10.1124 10.4343 12.442 12.8298C18.5264 19.0942 19.3073 19.0814 20.4981 18.6202H20.4916Z" fill="url(#paint1_linear_62_1134)"/>
<path opacity="0.2" d="M1.3208 11.9783C1.99106 10.9087 3.16889 9.89021 5.23822 9.77492C7.08631 9.67243 9.20119 10.3322 11.1469 11.9783H1.3208Z" fill="url(#paint2_linear_62_1134)"/>
<g style="mix-blend-mode:multiply">
<path d="M9.55273 17.0771C14.0233 19.9787 17.2769 19.1012 18.65 18.4543C19.5155 18.9347 19.9645 18.8194 20.4981 18.6144C20.4981 18.6144 16.3985 22.3167 9.6959 17.1796C9.65034 17.1412 9.60479 17.1092 9.55273 17.0771Z" fill="#F4F4F4"/>
</g>
<path d="M34.8731 4.98408C35.8427 4.98408 36.7862 5.19546 37.5931 5.59259C38.5497 6.11782 39.3046 6.75194 39.8317 7.47574L40.0464 7.77038L44.5039 7.60384L44.0354 6.68148C43.1829 5.0097 41.9596 3.63897 40.2677 2.48602C38.6669 1.51242 36.7992 1 34.8731 1C32.0033 1 29.6216 1.9672 27.5979 3.96564C25.6001 5.93207 24.585 8.30202 24.585 11.0179C24.585 13.7337 25.5676 16.1869 27.5979 18.179C29.6282 20.171 32.0033 21.1446 34.8731 21.1446C36.8708 21.1446 38.7384 20.5873 40.2677 19.5433C41.8945 18.5633 43.1569 17.1925 44.0354 15.4695L44.2176 15.1108L39.7861 14.6368L39.6885 14.7713C39.4477 15.1172 39.1224 15.4439 38.758 15.7065C38.1137 16.1677 37.5085 16.6033 36.7667 16.8467C36.142 17.0516 35.5043 17.1605 34.8731 17.1605C33.1551 17.1605 31.7821 16.6161 30.4481 15.4119C29.1922 14.0604 28.6325 12.7088 28.6325 11.0115C28.6325 9.31405 29.2507 7.90489 30.4286 6.74554C31.6715 5.52213 33.038 4.97768 34.8731 4.97768V4.98408Z" fill="#0E42E5"/>
<path d="M61.7219 14.8738C61.4876 15.1813 61.1948 15.4631 60.8629 15.7065C60.2252 16.1677 59.62 16.6033 58.8782 16.8467C58.2535 17.0516 57.6158 17.1605 56.9846 17.1605C55.2601 17.1605 53.8936 16.6161 52.5596 15.4119C51.8372 14.6368 51.3622 13.881 51.0759 13.0611H66.9928L67.0905 12.5103C67.1425 12.222 67.546 9.6151 66.1599 6.69429L66.1469 6.67508C65.2944 5.0033 64.0711 3.63257 62.3791 2.47962C60.7718 1.51242 58.9042 1 56.978 1C54.1083 1 51.7331 1.9672 49.7028 3.96564C47.7051 5.93207 46.6899 8.30202 46.6899 11.0179C46.6899 13.7337 47.6725 16.1869 49.7028 18.179C51.7331 20.171 54.1083 21.1446 56.978 21.1446C58.9758 21.1446 60.8434 20.5873 62.3726 19.5433C63.9995 18.5633 65.2619 17.1925 66.1404 15.4695L66.1599 15.4311M51.0499 9.08346C51.3427 8.21875 51.8373 7.43731 52.5335 6.75835C53.7764 5.53494 55.143 4.99049 56.978 4.99049C57.9476 4.99049 58.8912 5.20186 59.6981 5.59899C60.6547 6.12422 61.4161 6.76475 61.9692 7.52057C61.9952 7.5462 62.4898 8.14829 62.7566 9.08346H51.0434H51.0499Z" fill="#0E42E5"/>
<path d="M79.6436 0.999569C76.7738 0.999569 74.3922 1.96677 72.3684 3.96521C70.3706 5.93163 69.3555 8.30159 69.3555 11.0174C69.3555 13.7333 70.3381 16.1865 72.3684 18.1785C74.3987 20.1706 76.7738 21.1442 79.6436 21.1442C82.0188 21.1442 84.0295 20.478 85.767 19.1137V21.1442H89.8146V11.011C89.8146 8.30159 88.7994 5.93163 86.8017 3.95881C84.8039 1.99239 82.3962 0.993164 79.6436 0.993164V0.999569ZM83.984 15.3794C82.6174 16.6092 81.2444 17.1601 79.5264 17.1601C77.9126 17.1601 76.5331 16.5964 75.2056 15.405C73.9562 14.0599 73.403 12.7084 73.403 11.0174C73.403 9.32643 74.0212 7.91087 75.1991 6.75151C76.442 5.5281 77.776 4.98365 79.5264 4.98365C81.3875 4.98365 82.715 5.50889 83.9775 6.75151C85.1488 7.90446 85.7735 9.38408 85.7735 11.0174C85.7735 12.6508 85.2204 14.0535 83.9905 15.3794H83.984Z" fill="#0E42E5"/>
<path d="M109.987 3.96564C108.015 2.02484 105.497 1 102.712 1C99.9268 1 97.4605 1.9672 95.4367 3.96564C93.439 5.93207 92.4238 8.30202 92.4238 11.0179V21.1446H96.4714V11.0115C96.4714 9.37811 97.0896 7.90489 98.2674 6.74554C99.4713 5.55415 100.929 4.97768 102.712 4.97768C104.495 4.97768 105.933 5.55415 107.065 6.76475C108.321 7.89849 108.959 9.32686 108.959 11.005V21.1318H113.007V11.0115C113.007 8.30202 111.991 5.93206 109.994 3.95924L109.987 3.96564Z" fill="#0E42E5"/>
<defs>
<linearGradient id="paint0_linear_62_1134" x1="18.2337" y1="18.5178" x2="22.3069" y2="14.3797" gradientUnits="userSpaceOnUse">
<stop offset="0.29" stop-color="#0D007A"/>
<stop offset="0.71" stop-color="#0052F5"/>
<stop offset="1" stop-color="#2A77FF"/>
</linearGradient>
<linearGradient id="paint1_linear_62_1134" x1="0" y1="14.7514" x2="20.4916" y2="14.7514" gradientUnits="userSpaceOnUse">
<stop offset="0.18" stop-color="#09C9C9"/>
<stop offset="0.71" stop-color="#0067F5"/>
<stop offset="1" stop-color="#2A77FF"/>
</linearGradient>
<linearGradient id="paint2_linear_62_1134" x1="0.99628" y1="11.9783" x2="0.99628" y2="9.76851" gradientUnits="userSpaceOnUse">
<stop offset="0.45" stop-color="white"/>
<stop offset="1" stop-color="white"/>
</linearGradient>
</defs>
</svg>
