<svg width="60" height="18" viewBox="0 0 60 18" fill="none" xmlns="http://www.w3.org/2000/svg">
<path d="M8.44373 14.571C8.72014 14.7126 8.93089 14.9128 9.07946 15.1718C9.22802 15.4342 9.30403 15.7381 9.30403 16.0868C9.30403 16.4355 9.22802 16.7394 9.07946 16.9949C8.93089 17.2504 8.71668 17.4472 8.44373 17.5853C8.17079 17.7235 7.84947 17.7891 7.48324 17.7891H6.36035V14.3569H7.48324C7.84947 14.3569 8.17079 14.426 8.44373 14.5676V14.571ZM8.40573 17.0087C8.61994 16.7912 8.72705 16.4839 8.72705 16.0903C8.72705 15.6966 8.61994 15.3824 8.40573 15.158C8.19152 14.9336 7.88402 14.8231 7.48324 14.8231H6.92352V17.3367H7.48324C7.88402 17.3367 8.19152 17.2297 8.40573 17.0122V17.0087Z" fill="white"/>
<path d="M20.4429 17.7925L19.6517 16.4182H19.2233V17.7925H18.6602V14.3604H19.8452C20.1078 14.3604 20.3324 14.4052 20.5155 14.4985C20.6986 14.5917 20.8334 14.7125 20.9267 14.8679C21.0165 15.0233 21.0614 15.1959 21.0614 15.3858C21.0614 15.6103 20.9958 15.814 20.8645 15.997C20.7332 16.18 20.5328 16.3043 20.2633 16.3699L21.1132 17.7925H20.4429V17.7925ZM19.2233 15.9694H19.8452C20.056 15.9694 20.2149 15.9176 20.322 15.8105C20.4291 15.707 20.481 15.5619 20.481 15.3858C20.481 15.2097 20.4291 15.0682 20.322 14.9681C20.2149 14.8679 20.056 14.8161 19.8418 14.8161H19.2199V15.9659L19.2233 15.9694Z" fill="white"/>
<path d="M31.1364 14.3638V17.7959H30.5732V14.3638H31.1364Z" fill="white"/>
<path d="M43.6338 14.3638L42.3451 17.7959H41.6921L40.3965 14.3638H41.0011L42.0203 17.2193L43.043 14.3638H43.6373H43.6338Z" fill="white"/>
<path d="M53.4597 14.8161V15.8244H54.6447V16.2836H53.4597V17.3367H54.7933V17.7959H52.8965V14.3604H54.7933V14.8196H53.4597V14.8161Z" fill="white"/>
<path d="M11.989 5.3933C11.989 4.69583 11.8646 4.03979 11.6193 3.42864C11.6089 3.40101 11.5985 3.37684 11.5882 3.34922C11.5813 3.33541 11.5778 3.32505 11.5709 3.31124C11.3049 2.68973 10.9144 2.12001 10.3893 1.59863C9.87103 1.0807 9.30786 0.693986 8.69286 0.428117C8.67213 0.417759 8.6514 0.410853 8.63413 0.400495C8.6134 0.393589 8.59267 0.38323 8.57194 0.376325C7.95694 0.12772 7.29358 0.00341797 6.59221 0.00341797C6.58184 0.00341797 6.57148 0.00341797 6.56111 0.00341797C6.55075 0.00341797 6.54038 0.00341797 6.53002 0.00341797C5.27239 0.00341797 4.20478 0.362513 3.28229 1.09797L3.26847 1.12559C3.08535 1.27061 2.90569 1.42599 2.73294 1.60208C1.67225 2.6621 1.13672 3.93966 1.13672 5.39675C1.13672 5.41747 1.13672 5.43474 1.13672 5.45545C1.13672 6.15638 1.2611 6.81242 1.50641 7.42357C1.51677 7.45119 1.52714 7.47536 1.5375 7.50299C1.54441 7.5168 1.54787 7.52716 1.55478 7.54097C1.82081 8.16248 2.21123 8.72874 2.7364 9.25358C3.25465 9.7715 3.81782 10.1582 4.42936 10.4241C4.45009 10.4344 4.47082 10.4414 4.49155 10.4517C4.51228 10.4586 4.53301 10.4655 4.55029 10.4759C5.16528 10.7245 5.82865 10.8522 6.53347 10.8522C6.54384 10.8522 6.5542 10.8522 6.56457 10.8522C6.57493 10.8522 6.5853 10.8522 6.59566 10.8522C7.85329 10.8522 8.92089 10.4931 9.84339 9.75769L9.85721 9.73007C10.0403 9.58505 10.22 9.42967 10.3927 9.25358C11.4534 8.19355 11.989 6.916 11.989 5.4589C11.989 5.43819 11.989 5.42092 11.989 5.40021V5.3933ZM9.83648 5.64191C9.78811 6.42915 9.49788 7.08174 8.91398 7.72397C8.90707 7.73087 8.90362 7.73778 8.89671 7.74468C8.17806 8.40072 7.45596 8.69422 6.55766 8.70112C6.54038 8.70112 6.52311 8.70112 6.50238 8.70112C6.41254 8.70112 6.32271 8.69767 6.23634 8.69076C6.22252 8.69076 6.2087 8.69076 6.19488 8.68731C5.48314 8.6148 4.85087 8.3144 4.24279 7.7585C3.64852 7.10936 3.35139 6.45678 3.29611 5.67643C3.29266 5.61774 3.2892 5.55558 3.2892 5.49343C3.2892 5.47272 3.2892 5.452 3.2892 5.43128C3.2892 5.40021 3.2892 5.36913 3.2892 5.33806C3.2892 5.29317 3.29266 5.24828 3.29611 5.20685C3.34448 4.4196 3.6347 3.77047 4.2186 3.12479C4.22551 3.11788 4.22897 3.11097 4.23588 3.10407C4.95452 2.44803 5.67662 2.15454 6.57493 2.14763C6.59221 2.14763 6.60948 2.14763 6.63021 2.14763C6.72004 2.14763 6.80987 2.15108 6.89625 2.15799C6.91007 2.15799 6.92389 2.15799 6.93771 2.16144C7.64944 2.23395 8.28171 2.53435 8.8898 3.09026C9.48061 3.73939 9.7812 4.38852 9.83648 5.17232C9.83993 5.23447 9.84339 5.29317 9.84339 5.35532C9.84339 5.37604 9.84339 5.39675 9.84339 5.41402C9.84339 5.44509 9.84339 5.47617 9.84339 5.5107C9.84339 5.55558 9.83993 5.60047 9.83648 5.64191V5.64191Z" fill="white"/>
<path d="M9.05273 8.82216C10.5384 9.02588 11.72 7.09229 11.72 7.09229C11.8375 8.67714 10.8839 9.50237 10.8839 9.50237C10.8528 9.52999 10.8252 9.55416 10.7941 9.57488C10.4175 9.70954 10.0685 9.69573 9.05273 8.82216V8.82216Z" fill="url(#paint0_linear_374_52)"/>
<path d="M10.8799 9.50193C10.8799 9.50193 8.70321 11.4977 5.14454 8.72849C1.58586 5.95586 0.127836 6.58428 0 7.42332C0 7.42332 0.162386 4.79226 2.74329 4.64379C3.95601 4.57473 5.36911 5.0892 6.60601 6.38056C9.83646 9.75744 10.2511 9.75054 10.8833 9.50193H10.8799Z" fill="url(#paint1_linear_374_52)"/>
<path opacity="0.2" d="M0.701172 5.92134C1.05704 5.34471 1.6824 4.79571 2.7811 4.73356C3.76233 4.67832 4.88521 5.03396 5.91826 5.92134H0.701172Z" fill="url(#paint2_linear_374_52)"/>
<g style="mix-blend-mode:multiply">
<path d="M5.07227 8.66992C7.44587 10.2341 9.17338 9.76102 9.90239 9.41228C10.3619 9.67125 10.6003 9.60909 10.8836 9.4986C10.8836 9.4986 8.70695 11.4943 5.14828 8.72517C5.12409 8.70445 5.09991 8.68719 5.07227 8.66992V8.66992Z" fill="#F4F4F4"/>
</g>
<path d="M18.5161 2.15108C19.0309 2.15108 19.5319 2.26503 19.9603 2.4791C20.4682 2.76224 20.869 3.10407 21.1488 3.49424L21.2629 3.65307L23.6295 3.5633L23.3808 3.06609C22.9282 2.1649 22.2786 1.42599 21.3803 0.804477C20.5304 0.279645 19.5388 0.00341797 18.5161 0.00341797C16.9924 0.00341797 15.7279 0.524797 14.6534 1.60208C13.5927 2.6621 13.0537 3.93966 13.0537 5.40366C13.0537 6.86766 13.5754 8.1901 14.6534 9.26393C15.7314 10.3378 16.9924 10.8626 18.5161 10.8626C19.5768 10.8626 20.5684 10.5622 21.3803 9.99939C22.2441 9.4711 22.9144 8.7322 23.3808 7.80338L23.4775 7.61002L21.1247 7.35451L21.0728 7.42702C20.945 7.61348 20.7722 7.78957 20.5788 7.93114C20.2367 8.17974 19.9154 8.41454 19.5215 8.54574C19.1898 8.65623 18.8512 8.71493 18.5161 8.71493C17.604 8.71493 16.875 8.42144 16.1667 7.77231C15.4999 7.04376 15.2027 6.31521 15.2027 5.40021C15.2027 4.4852 15.531 3.72558 16.1563 3.10062C16.8162 2.44112 17.5418 2.14763 18.5161 2.14763V2.15108Z" fill="white"/>
<path d="M32.7712 7.48227C32.6468 7.648 32.4913 7.79993 32.3151 7.93114C31.9765 8.17974 31.6552 8.41454 31.2613 8.54574C30.9296 8.65623 30.591 8.71493 30.2559 8.71493C29.3403 8.71493 28.6148 8.42144 27.9065 7.77231C27.523 7.35451 27.2707 6.94708 27.1187 6.50511H35.5697L35.6215 6.20817C35.6492 6.05279 35.8634 4.64749 35.1275 3.07299L35.1206 3.06263C34.668 2.16144 34.0184 1.42253 33.1201 0.801024C32.2667 0.279645 31.2751 0.00341797 30.2524 0.00341797C28.7288 0.00341797 27.4677 0.524797 26.3897 1.60208C25.329 2.6621 24.79 3.93966 24.79 5.40366C24.79 6.86766 25.3117 8.1901 26.3897 9.26393C27.4677 10.3378 28.7288 10.8626 30.2524 10.8626C31.3131 10.8626 32.3047 10.5622 33.1167 9.99939C33.9804 9.4711 34.6507 8.7322 35.1171 7.80338L35.1275 7.78267M27.1049 4.3609C27.2604 3.89477 27.523 3.47352 27.8927 3.10752C28.5526 2.44803 29.2781 2.15454 30.2524 2.15454C30.7672 2.15454 31.2682 2.26848 31.6966 2.48256C32.2045 2.76569 32.6088 3.11097 32.9024 3.51841C32.9163 3.53222 33.1788 3.85679 33.3205 4.3609H27.1015H27.1049Z" fill="white"/>
<path d="M42.2856 0.00345284C40.762 0.00345284 39.4974 0.524832 38.4229 1.60212C37.3622 2.66214 36.8232 3.93969 36.8232 5.40369C36.8232 6.8677 37.345 8.19013 38.4229 9.26397C39.5009 10.3378 40.762 10.8626 42.2856 10.8626C43.5467 10.8626 44.6143 10.5035 45.5368 9.76808V10.8626H47.6858V5.40024C47.6858 3.93969 47.1469 2.66214 46.0862 1.59866C45.0255 0.538643 43.7471 0 42.2856 0V0.00345284ZM44.5901 7.75508C43.8646 8.41802 43.1356 8.71497 42.2234 8.71497C41.3666 8.71497 40.6341 8.41112 39.9293 7.76889C39.2659 7.04379 38.9723 6.31524 38.9723 5.40369C38.9723 4.49214 39.3005 3.72907 39.9259 3.1041C40.5858 2.44461 41.294 2.15112 42.2234 2.15112C43.2116 2.15112 43.9164 2.43425 44.5867 3.1041C45.2086 3.72561 45.5403 4.52322 45.5403 5.40369C45.5403 6.28417 45.2466 7.04034 44.5936 7.75508H44.5901Z" fill="white"/>
<path d="M58.3974 1.60208C57.3505 0.555872 56.0134 0.00341797 54.5347 0.00341797C53.0559 0.00341797 51.7465 0.524797 50.6719 1.60208C49.6113 2.6621 49.0723 3.93966 49.0723 5.40366V10.8626H51.2213V5.40021C51.2213 4.51973 51.5495 3.72558 52.1749 3.10062C52.8141 2.45839 53.588 2.14763 54.5347 2.14763C55.4813 2.14763 56.2449 2.45839 56.8461 3.11097C57.5129 3.72213 57.8515 4.49211 57.8515 5.39675V10.8557H60.0005V5.40021C60.0005 3.93966 59.4615 2.6621 58.4008 1.59863L58.3974 1.60208Z" fill="white"/>
<defs>
<linearGradient id="paint0_linear_374_52" x1="9.68155" y1="9.44712" x2="11.8776" y2="7.24973" gradientUnits="userSpaceOnUse">
<stop offset="0.29" stop-color="#0D007A"/>
<stop offset="0.71" stop-color="#0052F5"/>
<stop offset="1" stop-color="#2A77FF"/>
</linearGradient>
<linearGradient id="paint1_linear_374_52" x1="0" y1="7.41642" x2="10.8799" y2="7.41642" gradientUnits="userSpaceOnUse">
<stop offset="0.18" stop-color="#09C9C9"/>
<stop offset="0.71" stop-color="#0067F5"/>
<stop offset="1" stop-color="#2A77FF"/>
</linearGradient>
<linearGradient id="paint2_linear_374_52" x1="-0.217312" y1="5.92134" x2="-0.217312" y2="4.73011" gradientUnits="userSpaceOnUse">
<stop offset="0.45" stop-color="white"/>
<stop offset="1" stop-color="white"/>
</linearGradient>
</defs>
</svg>
