<svg xmlns="http://www.w3.org/2000/svg" width="102" height="44" viewBox="0 0 102 44" fill="none">
  <path d="M14.355 38.1343C14.8249 38.373 15.1831 38.7106 15.4357 39.1472C15.6883 39.5896 15.8175 40.1018 15.8175 40.6897C15.8175 41.2776 15.6883 41.7899 15.4357 42.2206C15.1831 42.6514 14.819 42.9832 14.355 43.216C13.891 43.4488 13.3447 43.5594 12.7221 43.5594H10.8132V37.7734H12.7221C13.3447 37.7734 13.891 37.8899 14.355 38.1285V38.1343ZM14.2904 42.2439C14.6545 41.8772 14.8366 41.3591 14.8366 40.6955C14.8366 40.032 14.6545 39.5022 14.2904 39.1239C13.9262 38.7455 13.4035 38.5593 12.7221 38.5593H11.7706V42.7969H12.7221C13.4035 42.7969 13.9262 42.6164 14.2904 42.2497V42.2439Z" fill="white"/>
  <path d="M34.7544 43.5643L33.4093 41.2476H32.681V43.5643H31.7236V37.7783H33.7383C34.1846 37.7783 34.5664 37.854 34.8777 38.0112C35.189 38.1683 35.4181 38.3721 35.5767 38.634C35.7294 38.8959 35.8057 39.187 35.8057 39.5071C35.8057 39.8855 35.6941 40.2289 35.471 40.5374C35.2478 40.8459 34.9071 41.0555 34.449 41.1661L35.8938 43.5643H34.7544ZM32.681 40.4909H33.7383C34.0965 40.4909 34.3667 40.4036 34.5488 40.2231C34.7309 40.0485 34.819 39.804 34.819 39.5071C34.819 39.2103 34.7309 38.9716 34.5488 38.8028C34.3667 38.634 34.0965 38.5467 33.7324 38.5467H32.6751V40.485L32.681 40.4909Z" fill="white"/>
  <path d="M52.933 37.7837V43.5697H51.9756V37.7837H52.933Z" fill="white"/>
  <path d="M74.1776 37.7837L71.9868 43.5697H70.8767L68.6741 37.7837H69.7019L71.4346 42.5976L73.1732 37.7837H74.1835H74.1776Z" fill="white"/>
  <path d="M90.8815 38.5467V40.2464H92.8961V41.0206H90.8815V42.7959H93.1486V43.5701H89.9241V37.7783H93.1486V38.5525H90.8815V38.5467Z" fill="white"/>
  <path d="M20.3802 22.6616C20.3802 21.4858 20.1687 20.3798 19.7517 19.3495C19.7341 19.303 19.7165 19.2622 19.6989 19.2157C19.6871 19.1924 19.6812 19.1749 19.6695 19.1516C19.2172 18.1039 18.5535 17.1434 17.6607 16.2645C16.7797 15.3913 15.8223 14.7394 14.7768 14.2912C14.7416 14.2737 14.7064 14.2621 14.677 14.2446C14.6417 14.233 14.6065 14.2155 14.5713 14.2039C13.5258 13.7847 12.398 13.5752 11.2057 13.5752C11.1881 13.5752 11.1705 13.5752 11.1529 13.5752C11.1352 13.5752 11.1176 13.5752 11.1 13.5752C8.96203 13.5752 7.1471 14.1806 5.57887 15.4204L5.55537 15.467C5.24407 15.7115 4.93865 15.9734 4.64497 16.2703C2.8418 18.0573 1.9314 20.211 1.9314 22.6675C1.9314 22.7024 1.9314 22.7315 1.9314 22.7664C1.9314 23.9481 2.14284 25.054 2.55987 26.0843C2.57749 26.1309 2.59511 26.1717 2.61273 26.2182C2.62447 26.2415 2.63035 26.259 2.6421 26.2823C3.09436 27.33 3.75807 28.2846 4.65085 29.1694C5.53188 30.0426 6.48926 30.6945 7.52888 31.1427C7.56412 31.1602 7.59936 31.1718 7.63461 31.1893C7.66985 31.2009 7.70509 31.2126 7.73446 31.23C8.77995 31.6491 9.90767 31.8645 11.1059 31.8645C11.1235 31.8645 11.1411 31.8645 11.1587 31.8645C11.1764 31.8645 11.194 31.8645 11.2116 31.8645C13.3496 31.8645 15.1645 31.2591 16.7327 30.0193L16.7562 29.9727C17.0675 29.7282 17.3729 29.4663 17.6666 29.1694C19.4698 27.3824 20.3802 25.2287 20.3802 22.7722C20.3802 22.7373 20.3802 22.7082 20.3802 22.6733V22.6616ZM16.721 23.0807C16.6387 24.4079 16.1454 25.5081 15.1527 26.5908C15.141 26.6024 15.1351 26.614 15.1234 26.6257C13.9017 27.7317 12.6741 28.2264 11.147 28.2381C11.1176 28.2381 11.0882 28.2381 11.053 28.2381C10.9003 28.2381 10.7476 28.2323 10.6007 28.2206C10.5772 28.2206 10.5538 28.2206 10.5303 28.2148C9.32031 28.0926 8.24545 27.5861 7.21171 26.649C6.20146 25.5546 5.69634 24.4545 5.60236 23.139C5.59649 23.04 5.59061 22.9352 5.59061 22.8304C5.59061 22.7955 5.59061 22.7606 5.59061 22.7257C5.59061 22.6733 5.59061 22.6209 5.59061 22.5685C5.59061 22.4928 5.59649 22.4172 5.60236 22.3473C5.68459 21.0201 6.17797 19.9258 7.1706 18.8373C7.18234 18.8257 7.18822 18.814 7.19996 18.8024C8.42166 17.6964 9.64923 17.2016 11.1764 17.19C11.2057 17.19 11.2351 17.19 11.2703 17.19C11.423 17.19 11.5758 17.1958 11.7226 17.2074C11.7461 17.2074 11.7696 17.2074 11.7931 17.2133C13.003 17.3355 14.0779 17.8419 15.1116 18.7791C16.116 19.8734 16.627 20.9678 16.721 22.2891C16.7268 22.3939 16.7327 22.4928 16.7327 22.5976C16.7327 22.6325 16.7327 22.6675 16.7327 22.6966C16.7327 22.749 16.7327 22.8013 16.7327 22.8596C16.7327 22.9352 16.7268 23.0109 16.721 23.0807Z" fill="white"/>
  <path d="M15.3887 28.4422C17.9143 28.7856 19.923 25.5259 19.923 25.5259C20.1227 28.1977 18.5016 29.5889 18.5016 29.5889C18.4488 29.6354 18.4018 29.6762 18.3489 29.7111C17.7087 29.9381 17.1155 29.9148 15.3887 28.4422Z" fill="url(#paint0_linear_983_3934)"/>
  <path d="M18.4958 29.5895C18.4958 29.5895 14.7955 32.9539 8.7457 28.2856C2.69596 23.6114 0.217321 24.6708 0 26.0853C0 26.0853 0.276057 21.6497 4.66359 21.3994C6.72521 21.283 9.12749 22.1503 11.2302 24.3273C16.722 30.0202 17.4268 30.0086 18.5017 29.5895H18.4958Z" fill="url(#paint1_linear_983_3934)"/>
  <path opacity="0.2" d="M1.19141 23.5537C1.79638 22.5816 2.85949 21.6561 4.72728 21.5513C6.39537 21.4582 8.30427 22.0577 10.0605 23.5537H1.19141Z" fill="url(#paint2_linear_983_3934)"/>
  <g style="mix-blend-mode:multiply">
    <path d="M8.62231 28.1846C12.6574 30.8214 15.5942 30.024 16.8335 29.4361C17.6147 29.8726 18.02 29.7679 18.5016 29.5816C18.5016 29.5816 14.8013 32.9461 8.75153 28.2777C8.71042 28.2428 8.6693 28.2137 8.62231 28.1846Z" fill="#F4F4F4"/>
  </g>
  <path d="M31.4765 17.1958C32.3517 17.1958 33.2033 17.3879 33.9316 17.7488C34.7951 18.2261 35.4764 18.8024 35.9521 19.4601L36.146 19.7279L40.1693 19.5766L39.7464 18.7383C38.977 17.2191 37.8728 15.9734 36.3457 14.9256C34.9008 14.0409 33.2151 13.5752 31.4765 13.5752C28.8863 13.5752 26.7366 14.4542 24.9099 16.2703C23.1067 18.0573 22.1904 20.211 22.1904 22.6791C22.1904 25.1472 23.0773 27.3766 24.9099 29.1869C26.7424 30.9972 28.8863 31.882 31.4765 31.882C33.2797 31.882 34.9654 31.3756 36.3457 30.4267C37.8141 29.5361 38.9535 28.2905 39.7464 26.7246L39.9109 26.3987L35.911 25.9679L35.8229 26.0902C35.6056 26.4045 35.3119 26.7014 34.983 26.94C34.4015 27.3591 33.8553 27.7549 33.1857 27.9761C32.6218 28.1624 32.0462 28.2614 31.4765 28.2614C29.9259 28.2614 28.6866 27.7666 27.4825 26.6723C26.3489 25.444 25.8438 24.2158 25.8438 22.6733C25.8438 21.1307 26.4018 19.8501 27.4649 18.7966C28.5867 17.6848 29.8202 17.19 31.4765 17.19V17.1958Z" fill="white"/>
  <path d="M55.7107 26.1833C55.4993 26.4627 55.2349 26.7188 54.9354 26.94C54.3598 27.3591 53.8136 27.7549 53.144 27.9761C52.5801 28.1624 52.0045 28.2614 51.4348 28.2614C49.8783 28.2614 48.6448 27.7666 47.4408 26.6723C46.7888 25.9679 46.36 25.2811 46.1016 24.536H60.4683L60.5564 24.0354C60.6034 23.7734 60.9675 21.4043 59.7165 18.75L59.7047 18.7325C58.9353 17.2133 57.8311 15.9676 56.3039 14.9198C54.8532 14.0409 53.1675 13.5752 51.4289 13.5752C48.8387 13.5752 46.6948 14.4542 44.8623 16.2703C43.0591 18.0573 42.1428 20.211 42.1428 22.6791C42.1428 25.1472 43.0297 27.3766 44.8623 29.1869C46.6948 30.9972 48.8387 31.882 51.4289 31.882C53.2321 31.882 54.9178 31.3756 56.2981 30.4267C57.7664 29.5361 58.9059 28.2905 59.6988 26.7246L59.7165 26.6897M46.0781 20.9212C46.3424 20.1354 46.7888 19.4252 47.4173 18.8082C48.5391 17.6964 49.7726 17.2016 51.4289 17.2016C52.3041 17.2016 53.1557 17.3937 53.884 17.7546C54.7474 18.2319 55.4347 18.814 55.9339 19.5009C55.9574 19.5242 56.4038 20.0713 56.6446 20.9212H46.0722H46.0781Z" fill="white"/>
  <path d="M71.8867 13.5756C69.2964 13.5756 67.1467 14.4546 65.32 16.2707C63.5169 18.0577 62.6006 20.2115 62.6006 22.6796C62.6006 25.1476 63.4875 27.377 65.32 29.1873C67.1526 30.9976 69.2964 31.8824 71.8867 31.8824C74.0305 31.8824 75.8454 31.277 77.4137 30.0372V31.8824H81.067V22.6737C81.067 20.2115 80.1507 18.0577 78.3476 16.2649C76.5444 14.4779 74.3712 13.5698 71.8867 13.5698V13.5756ZM75.8043 26.6436C74.5709 27.7612 73.3315 28.2618 71.7809 28.2618C70.3243 28.2618 69.0791 27.7496 67.8809 26.6669C66.7532 25.4445 66.2539 24.2163 66.2539 22.6796C66.2539 21.1428 66.8119 19.8564 67.875 18.8028C68.9969 17.691 70.2009 17.1963 71.7809 17.1963C73.4608 17.1963 74.659 17.6736 75.7984 18.8028C76.8557 19.8506 77.4195 21.1952 77.4195 22.6796C77.4195 24.1639 76.9203 25.4387 75.8102 26.6436H75.8043Z" fill="white"/>
  <path d="M99.2751 16.2703C97.4954 14.5065 95.2223 13.5752 92.7084 13.5752C90.1946 13.5752 87.9685 14.4542 86.1418 16.2703C84.3386 18.0573 83.4224 20.211 83.4224 22.6791V31.882H87.0757V22.6733C87.0757 21.189 87.6337 19.8501 88.6968 18.7966C89.7834 17.7139 91.0991 17.19 92.7084 17.19C94.3178 17.19 95.6158 17.7139 96.6378 18.814C97.7714 19.8443 98.347 21.1424 98.347 22.6675V31.8703H102V22.6733C102 20.211 101.084 18.0573 99.2809 16.2645L99.2751 16.2703Z" fill="white"/>
  <rect x="73.8562" width="27.8572" height="10" rx="5.00001" fill="#F9D100"/>
  <path d="M97.6533 7.1419H95.8983L95.7933 5.9494H94.4058L93.8733 7.1419H93.1458L95.3583 2.37939H97.1358L97.6533 7.1419ZM94.6533 5.4019H95.7408L95.5683 3.3619L94.6533 5.4019Z" fill="black"/>
  <path d="M92.9827 2.9494H91.7752L90.8826 7.1419H89.2626L90.1551 2.9494H88.9626L89.0976 2.37939H93.1102L92.9827 2.9494Z" fill="black"/>
  <path d="M84.3799 2.37939H87.5374L87.4174 2.9494H85.8874L85.5724 4.3969H86.8549L86.7349 4.9594H85.4524L85.1074 6.5644H86.6374L86.5249 7.1419H83.3674L84.3799 2.37939Z" fill="black"/>
  <path d="M82.0248 3.4669C82.0248 3.6119 82.0023 3.7419 81.9573 3.8569C81.9173 3.9719 81.8598 4.0744 81.7848 4.1644C81.7098 4.2544 81.6223 4.3344 81.5223 4.4044C81.4223 4.4744 81.3123 4.5394 81.1923 4.5994C81.2473 4.6194 81.3123 4.6519 81.3873 4.6969C81.4623 4.7369 81.5348 4.7944 81.6048 4.8694C81.6748 4.9444 81.7323 5.0419 81.7773 5.1619C81.8273 5.2769 81.8523 5.4194 81.8523 5.5894C81.8523 5.8144 81.8048 6.0219 81.7098 6.2119C81.6148 6.4019 81.4723 6.5669 81.2823 6.7069C81.0973 6.8419 80.8673 6.9494 80.5923 7.0294C80.3222 7.1044 80.0097 7.1419 79.6547 7.1419H77.4272L78.4397 2.37939H80.4122C80.6072 2.37939 80.7998 2.39439 80.9898 2.42439C81.1848 2.44939 81.3573 2.50189 81.5073 2.58189C81.6623 2.6619 81.7873 2.7744 81.8823 2.9194C81.9773 3.0594 82.0248 3.2419 82.0248 3.4669ZM79.9847 4.3744C80.0947 4.3744 80.1872 4.3419 80.2622 4.2769C80.3422 4.2119 80.4072 4.1319 80.4572 4.0369C80.5072 3.9369 80.5448 3.8319 80.5698 3.7219C80.5948 3.6069 80.6072 3.5044 80.6072 3.4144C80.6072 3.2694 80.5723 3.1469 80.5022 3.0469C80.4372 2.9419 80.3322 2.8894 80.1872 2.8894H79.9622L79.6397 4.3744H79.9847ZM79.4447 6.6694C79.5947 6.6694 79.7197 6.6269 79.8197 6.5419C79.9197 6.4569 80.0022 6.3519 80.0672 6.2269C80.1322 6.1019 80.1772 5.9719 80.2022 5.8369C80.2322 5.6969 80.2472 5.5744 80.2472 5.4694C80.2472 5.2944 80.2097 5.1569 80.1347 5.0569C80.0647 4.9519 79.9497 4.8994 79.7897 4.8994H79.5122L79.1447 6.6694H79.4447Z" fill="black"/>
  <defs>
    <linearGradient id="paint0_linear_983_3934" x1="16.4577" y1="29.4957" x2="20.1596" y2="25.7603" gradientUnits="userSpaceOnUse">
      <stop offset="0.29" stop-color="#0D007A"/>
      <stop offset="0.71" stop-color="#0052F5"/>
      <stop offset="1" stop-color="#2A77FF"/>
    </linearGradient>
    <linearGradient id="paint1_linear_983_3934" x1="0" y1="26.0736" x2="18.4958" y2="26.0736" gradientUnits="userSpaceOnUse">
      <stop offset="0.18" stop-color="#09C9C9"/>
      <stop offset="0.71" stop-color="#0067F5"/>
      <stop offset="1" stop-color="#2A77FF"/>
    </linearGradient>
    <linearGradient id="paint2_linear_983_3934" x1="-0.370016" y1="23.5537" x2="-0.370016" y2="21.5455" gradientUnits="userSpaceOnUse">
      <stop offset="0.45" stop-color="white"/>
      <stop offset="1" stop-color="white"/>
    </linearGradient>
  </defs>
</svg>