<svg width="252" height="75" viewBox="0 0 252 75" fill="none" xmlns="http://www.w3.org/2000/svg">
<path d="M35.465 61.4101C36.6259 62.0067 37.5111 62.8507 38.1351 63.9421C38.759 65.0481 39.0783 66.3287 39.0783 67.7984C39.0783 69.2681 38.759 70.5487 38.1351 71.6255C37.5111 72.7024 36.6114 73.5318 35.465 74.1139C34.3187 74.696 32.9691 74.9725 31.4309 74.9725H26.7148V60.5079H31.4309C32.9691 60.5079 34.3187 60.7989 35.465 61.3956V61.4101ZM35.3054 71.6838C36.2051 70.767 36.6549 69.4719 36.6549 67.8129C36.6549 66.154 36.2051 64.8298 35.3054 63.8839C34.4057 62.9381 33.1142 62.4724 31.4309 62.4724H29.0802V73.0662H31.4309C33.1142 73.0662 34.4057 72.6151 35.3054 71.6983V71.6838Z" fill="white"/>
<path d="M85.8617 74.9858L82.5387 69.1941H80.7393V74.9858H78.374V60.5212H83.3513C84.4542 60.5212 85.3974 60.7104 86.1665 61.1033C86.9356 61.4962 87.5015 62.0055 87.8933 62.6603C88.2706 63.3152 88.4592 64.0428 88.4592 64.8431C88.4592 65.789 88.1835 66.6475 87.6321 67.4188C87.0807 68.19 86.239 68.7139 85.1072 68.9904L88.6769 74.9858H85.8617ZM80.7393 67.3024H83.3513C84.2365 67.3024 84.904 67.0841 85.3539 66.633C85.8037 66.1964 86.0214 65.5853 86.0214 64.8431C86.0214 64.101 85.8037 63.5043 85.3539 63.0823C84.904 62.6603 84.2365 62.442 83.3368 62.442H80.7248V67.2878L80.7393 67.3024Z" fill="white"/>
<path d="M130.774 60.5358V75.0004H128.409V60.5358H130.774Z" fill="white"/>
<path d="M183.261 60.5358L177.848 75.0004H175.106L169.664 60.5358H172.204L176.484 72.5702L180.78 60.5358H183.275H183.261Z" fill="white"/>
<path d="M224.531 62.442V66.6912H229.508V68.6266H224.531V73.0649H230.132V75.0003H222.166V60.5212H230.132V62.4566H224.531V62.442Z" fill="white"/>
<path d="M50.3528 22.7303C50.3528 19.7908 49.8304 17.026 48.8001 14.4503C48.7565 14.3339 48.713 14.232 48.6695 14.1156C48.6404 14.0574 48.6259 14.0137 48.5969 13.9555C47.4796 11.3362 45.8398 8.93509 43.6341 6.73775C41.4575 4.55497 39.0922 2.92515 36.5092 1.80466C36.4221 1.761 36.335 1.7319 36.2625 1.68824C36.1754 1.65914 36.0884 1.61548 36.0013 1.58638C33.4183 0.538639 30.6322 0.0147705 27.6864 0.0147705C27.6429 0.0147705 27.5994 0.0147705 27.5558 0.0147705C27.5123 0.0147705 27.4688 0.0147705 27.4252 0.0147705C22.1432 0.0147705 17.6593 1.52817 13.7848 4.62773L13.7268 4.74414C12.9577 5.35532 12.2031 6.01016 11.4776 6.75231C7.02266 11.2197 4.77344 16.604 4.77344 22.7449C4.77344 22.8322 4.77344 22.9049 4.77344 22.9922C4.77344 25.9463 5.29584 28.7111 6.32612 31.2868C6.36966 31.4032 6.41319 31.5051 6.45672 31.6215C6.48575 31.6797 6.50026 31.7234 6.52928 31.7816C7.64663 34.4009 9.28639 36.7875 11.4921 38.9993C13.6687 41.1821 16.034 42.8119 18.6025 43.9324C18.6896 43.9761 18.7766 44.0052 18.8637 44.0489C18.9508 44.078 19.0378 44.1071 19.1104 44.1507C21.6934 45.1985 24.4795 45.7369 27.4398 45.7369C27.4833 45.7369 27.5268 45.7369 27.5704 45.7369C27.6139 45.7369 27.6574 45.7369 27.701 45.7369C32.983 45.7369 37.4669 44.2235 41.3414 41.1239L41.3994 41.0075C42.1685 40.3963 42.9231 39.7415 43.6486 38.9993C48.1035 34.5319 50.3528 29.1477 50.3528 23.0068C50.3528 22.9195 50.3528 22.8467 50.3528 22.7594V22.7303ZM41.3123 23.778C41.1092 27.0959 39.8903 29.8462 37.4379 32.5528C37.4089 32.582 37.3944 32.6111 37.3653 32.6402C34.347 35.405 31.3142 36.6419 27.5413 36.671C27.4688 36.671 27.3962 36.671 27.3092 36.671C26.9319 36.671 26.5546 36.6565 26.1918 36.6274C26.1338 36.6274 26.0757 36.6274 26.0177 36.6128C23.0284 36.3072 20.3729 35.0412 17.8189 32.6984C15.323 29.9626 14.075 27.2123 13.8429 23.9236C13.8284 23.6762 13.8138 23.4142 13.8138 23.1523C13.8138 23.065 13.8138 22.9777 13.8138 22.8904C13.8138 22.7594 13.8138 22.6284 13.8138 22.4975C13.8138 22.3083 13.8284 22.1191 13.8429 21.9445C14.046 18.6267 15.265 15.8909 17.7173 13.1697C17.7463 13.1406 17.7609 13.1115 17.7899 13.0824C20.8082 10.3175 23.841 9.08061 27.6139 9.05151C27.6864 9.05151 27.759 9.05151 27.8461 9.05151C28.2234 9.05151 28.6006 9.06606 28.9634 9.09516C29.0215 9.09516 29.0795 9.09516 29.1376 9.10972C32.1268 9.41531 34.7824 10.6813 37.3363 13.0242C39.8177 15.7599 41.0802 18.4957 41.3123 21.799C41.3269 22.0609 41.3414 22.3083 41.3414 22.5702C41.3414 22.6575 41.3414 22.7449 41.3414 22.8176C41.3414 22.9486 41.3414 23.0796 41.3414 23.2251C41.3414 23.4142 41.3269 23.6034 41.3123 23.778Z" fill="white"/>
<path d="M38.0195 37.1808C44.2593 38.0394 49.2221 29.8903 49.2221 29.8903C49.7155 36.5696 45.7104 40.0475 45.7104 40.0475C45.5798 40.164 45.4637 40.2658 45.3331 40.3531C43.7514 40.9207 42.2858 40.8624 38.0195 37.1808Z" fill="url(#paint0_linear_73_239)"/>
<path d="M45.6954 40.0468C45.6954 40.0468 36.5534 48.4578 21.607 36.7871C6.66059 25.1019 0.53691 27.7504 0 31.2865C0 31.2865 0.682021 20.1979 11.5218 19.5722C16.6152 19.2812 22.5502 21.4494 27.7452 26.8918C41.3131 41.1236 43.0544 41.0945 45.7099 40.0468H45.6954Z" fill="url(#paint1_linear_73_239)"/>
<path opacity="0.2" d="M2.9458 24.9561C4.44044 22.5259 7.06695 20.2121 11.6815 19.9502C15.8026 19.7174 20.5187 21.2162 24.8575 24.9561H2.9458Z" fill="url(#paint2_linear_73_239)"/>
<g style="mix-blend-mode:multiply">
<path d="M21.3027 36.5398C31.2718 43.1318 38.5274 41.1382 41.5892 39.6685C43.5192 40.7599 44.5205 40.4979 45.7104 40.0323C45.7104 40.0323 36.5684 48.4433 21.622 36.7726C21.5204 36.6853 21.4188 36.6126 21.3027 36.5398Z" fill="#F4F4F4"/>
</g>
<path d="M77.7658 9.06606C79.9279 9.06606 82.032 9.54628 83.8314 10.4485C85.9645 11.6418 87.6478 13.0824 88.8232 14.7268L89.3021 15.3961L99.2422 15.0178L98.1974 12.9223C96.2964 9.12427 93.5683 6.01016 89.7954 3.39081C86.2257 1.17892 82.061 0.0147705 77.7658 0.0147705C71.3664 0.0147705 66.0553 2.21211 61.5424 6.75231C57.0875 11.2197 54.8237 16.604 54.8237 22.774C54.8237 28.944 57.0149 34.5174 61.5424 39.043C66.0698 43.5687 71.3664 45.7805 77.7658 45.7805C82.2207 45.7805 86.3853 44.5145 89.7954 42.1426C93.4232 39.9161 96.2384 36.802 98.1974 32.8875L98.6037 32.0726L88.7216 30.9958L88.504 31.3014C87.9671 32.0872 87.2415 32.8293 86.4289 33.426C84.9923 34.4737 83.6427 35.4632 81.9885 36.0162C80.5954 36.4819 79.1733 36.7293 77.7658 36.7293C73.9348 36.7293 70.873 35.4923 67.8982 32.7566C65.0976 29.6861 63.8496 26.6157 63.8496 22.7594C63.8496 18.9032 65.2282 15.7017 67.8547 13.0678C70.6263 10.2884 73.6736 9.05151 77.7658 9.05151V9.06606Z" fill="white"/>
<path d="M137.637 31.5342C137.114 32.2327 136.461 32.873 135.721 33.426C134.299 34.4737 132.95 35.4632 131.295 36.0162C129.902 36.4819 128.48 36.7293 127.073 36.7293C123.227 36.7293 120.18 35.4923 117.205 32.7566C115.594 30.9958 114.535 29.2787 113.897 27.416H149.391L149.608 26.1646C149.725 25.5097 150.624 19.5871 147.533 12.9514L147.504 12.9078C145.603 9.10972 142.875 5.99561 139.102 3.37626C135.518 1.17892 131.354 0.0147705 127.058 0.0147705C120.659 0.0147705 115.362 2.21211 110.835 6.75231C106.38 11.2197 104.116 16.604 104.116 22.774C104.116 28.944 106.307 34.5174 110.835 39.043C115.362 43.5687 120.659 45.7805 127.058 45.7805C131.513 45.7805 135.678 44.5145 139.088 42.1426C142.716 39.9161 145.531 36.802 147.49 32.8875L147.533 32.8002M113.839 18.3793C114.492 16.4148 115.594 14.6394 117.147 13.0969C119.919 10.3175 122.966 9.08061 127.058 9.08061C129.22 9.08061 131.324 9.56083 133.124 10.463C135.257 11.6563 136.955 13.1115 138.188 14.8286C138.246 14.8868 139.349 16.2547 139.944 18.3793H113.824H113.839Z" fill="white"/>
<path d="M177.601 0.0149181C171.201 0.0149181 165.89 2.21226 161.377 6.75246C156.922 11.2199 154.659 16.6041 154.659 22.7741C154.659 28.9441 156.85 34.5175 161.377 39.0432C165.905 43.5688 171.201 45.7807 177.601 45.7807C182.897 45.7807 187.381 44.2673 191.256 41.1677V45.7807H200.282V22.7596C200.282 16.6041 198.018 11.2199 193.563 6.7379C189.108 2.27047 183.739 0.000366211 177.601 0.000366211V0.0149181ZM187.28 32.684C184.232 35.4779 181.17 36.7294 177.34 36.7294C173.741 36.7294 170.664 35.4488 167.704 32.7422C164.918 29.6863 163.685 26.6158 163.685 22.7741C163.685 18.9324 165.063 15.7164 167.69 13.0825C170.461 10.3031 173.436 9.06621 177.34 9.06621C181.49 9.06621 184.45 10.2595 187.265 13.0825C189.877 15.7019 191.27 19.0634 191.27 22.7741C191.27 26.4849 190.037 29.6717 187.294 32.684H187.28Z" fill="white"/>
<path d="M245.267 6.75231C240.87 2.34308 235.254 0.0147705 229.044 0.0147705C222.833 0.0147705 217.333 2.21211 212.82 6.75231C208.365 11.2197 206.102 16.604 206.102 22.774V45.7805H215.127V22.7594C215.127 19.0487 216.506 15.7017 219.133 13.0678C221.817 10.3612 225.068 9.05151 229.044 9.05151C233.02 9.05151 236.227 10.3612 238.751 13.1115C241.552 15.6872 242.974 18.9323 242.974 22.7449V45.7514H252V22.7594C252 16.604 249.736 11.2197 245.281 6.73775L245.267 6.75231Z" fill="white"/>
<defs>
<linearGradient id="paint0_linear_73_239" x1="40.6605" y1="39.8147" x2="49.9155" y2="30.5857" gradientUnits="userSpaceOnUse">
<stop offset="0.29" stop-color="#0D007A"/>
<stop offset="0.71" stop-color="#0052F5"/>
<stop offset="1" stop-color="#2A77FF"/>
</linearGradient>
<linearGradient id="paint1_linear_73_239" x1="0" y1="31.2574" x2="45.6954" y2="31.2574" gradientUnits="userSpaceOnUse">
<stop offset="0.18" stop-color="#09C9C9"/>
<stop offset="0.71" stop-color="#0067F5"/>
<stop offset="1" stop-color="#2A77FF"/>
</linearGradient>
<linearGradient id="paint2_linear_73_239" x1="-0.911825" y1="24.9561" x2="-0.911825" y2="19.9357" gradientUnits="userSpaceOnUse">
<stop offset="0.45" stop-color="white"/>
<stop offset="1" stop-color="white"/>
</linearGradient>
</defs>
</svg>
