<svg xmlns="http://www.w3.org/2000/svg" width="23" height="23" viewBox="0 0 23 23" fill="none">
  <path d="M11.5004 23C14.14 23 16.5698 22.1083 18.5105 20.6133H4.49023C6.43094 22.1083 8.86076 23 11.5004 23Z" fill="white"/>
  <path d="M2.23729 18.3136H20.7632C21.2759 17.6172 21.7126 16.8605 22.06 16.0566H0.94043C1.28792 16.8605 1.72458 17.6172 2.23729 18.3136Z" fill="white"/>
  <path d="M12.8926 0.0865522C12.4363 0.0314735 11.9721 0 11.5 0V0.0865522H12.8926Z" fill="white"/>
  <path d="M0.222919 13.7569H22.7771C22.9226 13.0265 23 12.2724 23 11.5H0C0 12.2724 0.077366 13.0265 0.222919 13.7569Z" fill="white"/>
  <path d="M11.5 9.20027H22.7692C22.6105 8.41606 22.3706 7.66069 22.0598 6.94336H11.5V9.20027Z" fill="white"/>
  <path d="M11.5 4.64461H20.7315C20.0981 3.79351 19.3494 3.03553 18.5101 2.3877H11.5V4.64461Z" fill="white"/>
  <path d="M11.5 0.0859375V2.38613H18.5101C16.9156 1.15735 14.992 0.339037 12.8926 0.0859375H11.5Z" fill="#E60012"/>
  <path d="M11.5 6.94472H22.0598C21.7058 6.1251 21.2586 5.35269 20.7328 4.64453H11.5013V6.94472H11.5Z" fill="#E60012"/>
  <path d="M11.5 11.4007H0.00262258C0.00262258 11.4335 0 11.4663 0 11.5004H22.9987C22.9987 10.7122 22.9187 9.94376 22.7679 9.2002H11.4987V11.4007H11.5Z" fill="#E60012"/>
  <path d="M0.939931 16.057H22.0595C22.3756 15.3266 22.6168 14.5568 22.7768 13.7568H0.222656C0.381322 14.5568 0.623911 15.3253 0.939931 16.057Z" fill="#E60012"/>
  <path d="M4.4901 20.6137H18.5104C19.364 19.9553 20.1233 19.1816 20.7632 18.3135H2.2373C2.87721 19.1816 3.63645 19.9553 4.4901 20.6137Z" fill="#E60012"/>
  <path d="M9.90864 0.111328C9.88766 0.113723 9.86668 0.116117 9.8457 0.118512H9.90602L9.90864 0.111328Z" fill="#1D2088"/>
  <path d="M11.4993 9.20076V0C11.0876 0 10.6811 0.0222938 10.2811 0.0642585L10.2995 0.119337H10.9329L10.4215 0.493085L10.6155 1.09633L10.1028 0.725203L9.5901 1.09633L9.78548 0.493085L9.38029 0.198021C8.51615 0.359323 7.68479 0.616357 6.90064 0.959943L6.94391 1.09633L6.81147 0.999285C6.24238 1.2537 5.69688 1.55269 5.18023 1.89366H5.42544L4.91404 2.26741L5.10942 2.87065L4.59671 2.49952L4.08399 2.87065L4.15349 2.65689C3.91615 2.85491 3.68799 3.06211 3.46638 3.27849H3.59095L3.15429 3.59716C3.132 3.62077 3.1084 3.64568 3.08479 3.66929L3.27362 4.25417L2.84089 3.94075C1.81678 5.11314 1.02607 6.49535 0.543515 8.01526H0.727096L0.923789 7.41202L1.12048 8.01526H1.75383L1.24243 8.38901L1.43781 8.99094L0.9251 8.61981L0.412386 8.99094L0.607768 8.38901L0.464838 8.2841C0.169798 9.27551 0.0111321 10.3207 0.00195312 11.4013H11.4993V9.20076ZM10.6155 7.41333L10.1028 7.0422L9.5901 7.41333L9.78548 6.81009L9.27408 6.43765H9.90743L10.1041 5.83441L10.3008 6.43634H10.9342L10.4228 6.81009L10.6168 7.41333H10.6155ZM4.39608 8.01657L4.59277 7.41333L4.78947 8.01657H5.42282L4.91142 8.39032L5.1068 8.99225L4.59409 8.62113L4.08137 8.99225L4.27675 8.39032L3.76535 8.01657H4.3987H4.39608ZM6.11125 6.8114L5.59984 6.43896H6.2332L6.42989 5.83572L6.62658 6.43765H7.25994L6.74853 6.8114L6.9426 7.41464L6.42989 7.04351L5.91718 7.41464L6.11256 6.8114H6.11125ZM6.9426 4.25548L6.42989 3.88436L5.91718 4.25548L6.11256 3.65355L5.60116 3.2798H6.23451L6.4312 2.67656L6.62789 3.27849H7.26125L6.74984 3.65224L6.94391 4.25417L6.9426 4.25548ZM8.77972 8.99225L8.267 8.62113L7.75429 8.99225L7.94967 8.39032L7.43827 8.01657H8.07162L8.26832 7.41333L8.46501 8.01657H9.09836L8.58696 8.39032L8.78234 8.99225H8.77972ZM8.4637 4.85742H9.09705L8.58565 5.23116L8.78103 5.8331L8.26832 5.46197L7.7556 5.8331L7.95098 5.23116L7.43958 4.85742H8.07293L8.26963 4.25417L8.46632 4.8561L8.4637 4.85742ZM10.6168 4.25548L10.1041 3.88436L9.59141 4.25548L9.78679 3.65355L9.27539 3.2798H9.90874L10.1054 2.67656L10.3021 3.27849H10.9355L10.4241 3.65224L10.6181 4.25417L10.6168 4.25548ZM7.43696 1.89497H8.07031L8.267 1.29173L8.4637 1.89366H9.09705L8.58565 2.26741L8.78103 2.87065L8.26832 2.49952L7.7556 2.87065L7.95098 2.26741L7.43958 1.89366L7.43696 1.89497ZM4.59409 4.25548L4.79078 4.85742H5.42413L4.91273 5.23116L5.10811 5.8331L4.5954 5.46197L4.08268 5.8331L4.27807 5.23116L3.76666 4.85742H4.40002L4.59671 4.25417L4.59409 4.25548ZM1.92692 6.43765H2.56028L2.75697 5.83441L2.95366 6.43634H3.58702L3.07561 6.81009L3.26968 7.41333L2.75697 7.0422L2.24426 7.41333L2.43964 6.81009L1.92824 6.43765H1.92692ZM3.26968 10.5712L2.75697 10.2L2.24426 10.5712L2.43964 9.96924L1.92824 9.59549H2.56159L2.75828 8.99225L2.95498 9.59418H3.58833L3.07692 9.96793L3.271 10.5699L3.26968 10.5712ZM6.9426 10.5712L6.42989 10.2L5.91718 10.5712L6.11256 9.96924L5.60116 9.59549H6.23451L6.4312 8.99225L6.62789 9.59418H7.26125L6.74984 9.96793L6.94391 10.5699L6.9426 10.5712ZM10.6155 10.5712L10.1028 10.2L9.5901 10.5712L9.78548 9.96924L9.27408 9.59549H9.90743L10.1041 8.99225L10.3008 9.59418H10.9342L10.4228 9.96793L10.6168 10.5699L10.6155 10.5712Z" fill="#0B318F"/>
  <path d="M9.59002 1.09848L10.1027 0.72735L10.6155 1.09848L10.4214 0.495233L10.9328 0.122796H10.2994L10.2811 0.0664062C10.1565 0.0795202 10.0319 0.0965684 9.90867 0.113617L9.90604 0.121485H9.84573C9.68837 0.143779 9.53364 0.171318 9.37891 0.200169L9.78409 0.495233L9.58871 1.09848H9.59002Z" fill="white"/>
  <path d="M6.89874 0.960938C6.86858 0.974051 6.83973 0.988477 6.80957 1.00159L6.94201 1.09863L6.89874 0.962249V0.960938Z" fill="white"/>
  <path d="M10.2992 3.27771L10.1025 2.67578L9.90581 3.27771H9.27246L9.78518 3.65146L9.58979 4.2547L10.1025 3.88227L10.6165 4.2547L10.4211 3.65146L10.9326 3.27771H10.2992Z" fill="white"/>
  <path d="M3.4615 3.2793C3.35529 3.3829 3.25169 3.48912 3.14941 3.59797L3.58607 3.2793H3.4615Z" fill="white"/>
  <path d="M3.07984 3.6709C2.99723 3.76007 2.91593 3.85056 2.83594 3.94236L3.26866 4.25578L3.07984 3.6709Z" fill="white"/>
  <path d="M6.62635 3.27771L6.42965 2.67578L6.23296 3.27771H5.59961L6.11232 3.65146L5.91694 4.2547L6.42965 3.88227L6.94237 4.2547L6.7483 3.65146L7.2597 3.27771H6.62635Z" fill="white"/>
  <path d="M10.9326 6.43723L10.2992 6.43592L10.1025 5.83398L9.90581 6.43592L9.27246 6.43723L9.78518 6.80966L9.58979 7.41291L10.1025 7.04178L10.6165 7.41291L10.4211 6.80966L10.9326 6.43723Z" fill="white"/>
  <path d="M2.24311 7.41291L2.75583 7.04178L3.26854 7.41291L3.07447 6.80966L3.58587 6.43723L2.95252 6.43592L2.75583 5.83398L2.55913 6.43592L1.92578 6.43723L2.43718 6.80966L2.24311 7.41291Z" fill="white"/>
  <path d="M6.94237 7.41291L6.7483 6.80966L7.2597 6.43723L6.62635 6.43592L6.42965 5.83398L6.23296 6.43592L5.59961 6.43723L6.11232 6.80966L5.91694 7.41291L6.42965 7.04178L6.94237 7.41291Z" fill="white"/>
  <path d="M10.2992 9.5951L10.1025 8.99316L9.90581 9.5951L9.27246 9.59641L9.78518 9.97015L9.58979 10.5721L10.1025 10.201L10.6165 10.5721L10.4211 9.97015L10.9326 9.59641L10.2992 9.5951Z" fill="white"/>
  <path d="M2.95252 9.5951L2.75583 8.99316L2.55913 9.5951L1.92578 9.59641L2.43718 9.97015L2.24311 10.5721L2.75583 10.201L3.26854 10.5721L3.07447 9.97015L3.58587 9.59641L2.95252 9.5951Z" fill="white"/>
  <path d="M6.62635 9.5951L6.42965 8.99316L6.23296 9.5951L5.59961 9.59641L6.11232 9.97015L5.91694 10.5721L6.42965 10.201L6.94237 10.5721L6.7483 9.97015L7.2597 9.59641L6.62635 9.5951Z" fill="white"/>
  <path d="M3.76367 4.85813L4.27507 5.23056L4.07969 5.83381L4.59372 5.46137L5.10643 5.83381L4.91105 5.23056L5.42376 4.85813L4.79041 4.85681L4.59372 4.25488L4.39702 4.85681L3.76367 4.85813Z" fill="white"/>
  <path d="M8.06988 4.85681L7.43652 4.85813L7.94793 5.23056L7.75254 5.83381L8.26657 5.46137L8.77928 5.83381L8.5839 5.23056L9.09662 4.85813L8.46326 4.85681L8.26657 4.25488L8.06988 4.85681Z" fill="white"/>
  <path d="M4.07969 8.99103L4.59372 8.61991L5.10643 8.99103L4.91105 8.3891L5.42376 8.01535L4.79041 8.01404L4.59372 7.41211L4.39702 8.01404L3.76367 8.01535L4.27507 8.3891L4.07969 8.99103Z" fill="white"/>
  <path d="M0.406585 8.99103L0.919299 8.61991L1.43201 8.99103L1.23663 8.3891L1.74803 8.01535H1.11468L0.917987 7.41211L0.721294 8.01535H0.537714C0.508865 8.10453 0.483951 8.19501 0.457725 8.2855L0.600655 8.39041L0.405273 8.99234L0.406585 8.99103Z" fill="white"/>
  <path d="M8.46326 8.01404L8.26657 7.41211L8.06988 8.01404L7.43652 8.01535L7.94793 8.3891L7.75254 8.99103L8.26657 8.61991L8.77928 8.99103L8.5839 8.3891L9.09662 8.01535L8.46326 8.01404Z" fill="white"/>
  <path d="M4.59346 2.49942L5.10618 2.87055L4.91079 2.2673L5.4222 1.89355H5.17698C4.82031 2.12829 4.47545 2.38271 4.14762 2.65548L4.07812 2.86923L4.59084 2.49811L4.59346 2.49942Z" fill="white"/>
  <path d="M7.75254 2.87091L8.26657 2.49979L8.77928 2.87091L8.5839 2.26898L9.09662 1.89523L8.46326 1.89392L8.26657 1.29199L8.06988 1.89392L7.43652 1.89523L7.94793 2.26898L7.75254 2.87091Z" fill="white"/>
</svg>