<svg xmlns="http://www.w3.org/2000/svg" width="28" height="27" viewBox="0 0 28 27" fill="none">
  <path d="M0.655273 13.1998C0.755167 12.4625 0.839809 11.7229 1.03121 11.0015C1.79604 8.11678 3.33333 5.72692 5.67206 3.86383C7.58986 2.33519 9.76692 1.35842 12.2086 1.08249C17.2292 0.514669 21.3851 2.17709 24.5672 6.0971C26.2143 8.12591 27.1263 10.4846 27.3436 13.1002C27.551 15.592 27.1705 17.9811 26.0251 20.2128C24.3605 23.4563 21.825 25.7367 18.3478 26.9347C17.7233 27.1498 17.3047 26.8458 17.3001 26.1692C17.2917 24.912 17.3032 23.6547 17.2902 22.3982C17.2818 21.6244 17.0919 20.9061 16.536 20.3238C16.3469 20.1254 16.5726 20.1345 16.6611 20.1239C17.1102 20.0692 17.5563 19.9992 17.9948 19.8905C19.1996 19.5918 20.287 19.0757 21.1311 18.1377C21.7274 17.4748 22.0538 16.6736 22.2544 15.8208C22.5304 14.6456 22.6288 13.4605 22.3466 12.2694C22.172 11.5306 21.835 10.87 21.3385 10.2961C21.1929 10.1281 21.1525 9.98444 21.2249 9.76172C21.565 8.71881 21.4369 7.69339 21.0587 6.68393C21.0076 6.54786 20.9146 6.50454 20.7796 6.4977C20.4891 6.48401 20.2069 6.5281 19.9332 6.61856C19.1119 6.89069 18.3379 7.26239 17.6196 7.74356C17.4381 7.86518 17.2704 7.8857 17.0591 7.83249C15.0582 7.3308 13.0527 7.32396 11.0503 7.81501C10.7704 7.88342 10.5584 7.84466 10.3243 7.68959C9.52138 7.15901 8.65056 6.77362 7.71491 6.53646C7.68975 6.53038 7.66459 6.52126 7.63942 6.5167C7.0942 6.42016 7.01337 6.46501 6.85324 6.98342C6.55966 7.93359 6.49942 8.88832 6.8296 9.84305C6.87764 9.9814 6.8662 10.0886 6.76783 10.1996C5.67739 11.4393 5.40898 12.9026 5.56149 14.4958C5.65909 15.5182 5.89243 16.4935 6.38427 17.4003C6.82426 18.2121 7.48691 18.7921 8.2914 19.2315C9.20645 19.7317 10.1939 19.9787 11.2203 20.1018C11.2546 20.1056 11.2897 20.1056 11.324 20.1125C11.4003 20.1269 11.5009 20.1231 11.533 20.1946C11.5688 20.2752 11.4811 20.3329 11.43 20.3892C11.08 20.7746 10.8894 21.2352 10.8063 21.7392C10.775 21.9292 10.6866 22.0318 10.5104 22.0873C9.52748 22.3959 8.55676 22.548 7.6562 21.8578C7.34279 21.6176 7.08963 21.3211 6.89213 20.979C6.50704 20.3139 5.95801 19.8449 5.22292 19.6047C4.96365 19.5196 4.69752 19.493 4.42758 19.5621C4.25601 19.6062 4.18738 19.6876 4.29871 19.8594C4.40013 20.0152 4.51985 20.1558 4.67999 20.2455C5.38534 20.6408 5.77729 21.2877 6.10366 21.9877C6.19898 22.1922 6.27218 22.4081 6.38427 22.6027C6.83265 23.3818 7.54944 23.7345 8.41264 23.8478C9.10656 23.939 9.79971 23.9466 10.4898 23.8311C10.6675 23.8014 10.7323 23.8546 10.7331 24.0241C10.7338 24.7873 10.7506 25.5505 10.7354 26.3129C10.7247 26.8427 10.2717 27.1232 9.72956 26.9469C9.05928 26.7287 8.40731 26.4604 7.78583 26.1274C4.60602 24.424 2.45945 21.841 1.27599 18.4569C0.961054 17.5554 0.786431 16.6166 0.695688 15.6642C0.6873 15.5889 0.668237 15.5129 0.655273 15.4369C0.655273 14.6912 0.655273 13.9455 0.655273 13.1998Z" fill=""/>
</svg>