<svg xmlns="http://www.w3.org/2000/svg" width="27" height="24" viewBox="0 0 27 24" fill="none">
  <path d="M13.1233 0.487793C16.4607 0.544801 19.6112 1.38761 22.3185 3.47357C24.1295 4.86896 25.4145 6.61676 25.8604 8.84525C26.3883 11.489 25.6358 13.8256 23.8565 15.8572C21.9494 18.0345 19.4532 19.2699 16.6107 19.9015C14.7056 20.3245 12.7783 20.3984 10.841 20.1334C10.6453 20.1069 10.5222 20.1865 10.3851 20.2766C8.86665 21.2697 7.34823 22.2628 5.82982 23.2559C5.774 23.2922 5.71886 23.3284 5.6617 23.3634C5.50636 23.4586 5.33421 23.548 5.16408 23.4321C4.99328 23.3155 5.02085 23.1276 5.06725 22.9566C5.41491 21.6752 5.75585 20.3919 6.12368 19.1157C6.19765 18.8598 6.13646 18.7685 5.90513 18.6512C3.67593 17.5234 1.84011 15.9829 0.818644 13.7246C-0.654044 10.4693 -0.0306734 7.47577 2.32092 4.81455C4.20381 2.68388 6.68586 1.49838 9.4806 0.873242C10.652 0.610878 11.8423 0.507227 13.1233 0.487793ZM19.392 9.72951L19.316 9.69518C19.316 9.18924 19.3173 8.68329 19.316 8.17735C19.314 7.69602 19.0544 7.39479 18.6335 7.38183C18.1997 7.36823 17.9052 7.67724 17.9038 8.16958C17.8998 9.75543 17.8998 11.3406 17.9038 12.9265C17.9052 13.4279 18.1829 13.722 18.6288 13.7149C19.0564 13.7077 19.314 13.4156 19.316 12.9297C19.318 12.5196 19.3268 12.1096 19.3133 11.7002C19.3046 11.4359 19.4956 11.2914 19.6764 11.2001C19.8082 11.1333 19.8795 11.3549 19.9609 11.4559C20.4962 12.1199 21.022 12.7911 21.5526 13.459C21.7564 13.7149 22.0301 13.7816 22.3293 13.6643C22.5895 13.562 22.7193 13.3514 22.7099 13.0722C22.7039 12.8876 22.5956 12.7496 22.4873 12.6116C21.9251 11.8997 21.369 11.1826 20.7947 10.4797C20.6549 10.3087 20.6502 10.2154 20.8176 10.0605C21.3515 9.56821 21.8687 9.05967 22.3878 8.55308C22.601 8.34578 22.6427 8.09896 22.5008 7.84113C22.3649 7.59496 22.137 7.50621 21.8525 7.53407C21.6454 7.5548 21.5129 7.68566 21.3778 7.81587C20.7161 8.45397 20.055 9.09206 19.3933 9.73081L19.392 9.72951ZM10.457 7.38054C10.0428 7.38119 9.69108 7.58784 9.55457 7.93831C8.91641 9.57987 8.28228 11.2234 7.65353 12.8682C7.52173 13.2135 7.67706 13.5516 7.99648 13.6741C8.33608 13.8036 8.69786 13.6507 8.84378 13.3029C8.9312 13.0936 9.00585 12.8779 9.07175 12.6615C9.12285 12.4924 9.21431 12.4225 9.40663 12.4277C9.88744 12.4406 10.3689 12.4322 10.8497 12.4322C11.4294 12.4322 11.8192 12.6915 12.0191 13.2102C12.1873 13.6462 12.5127 13.8185 12.8974 13.6741C13.2356 13.5471 13.3701 13.2011 13.2208 12.8073C12.6176 11.2104 12.0124 9.6142 11.4045 8.01863C11.2458 7.60209 10.9069 7.37989 10.457 7.38119V7.38054ZM6.65358 11.0705C6.65358 10.3806 6.66299 9.69 6.6482 9.00007C6.64349 8.76945 6.72015 8.69949 6.95215 8.71309C7.25341 8.73058 7.55669 8.72475 7.85863 8.71504C8.21167 8.70337 8.46183 8.44619 8.46586 8.10998C8.4699 7.77441 8.22445 7.48548 7.87948 7.48224C6.56952 7.47123 5.25957 7.47058 3.95029 7.48224C3.60868 7.48548 3.35315 7.78931 3.36054 8.11451C3.36861 8.44101 3.63222 8.70273 3.98055 8.71504C4.23743 8.7241 4.49566 8.71504 4.75321 8.71763C5.3127 8.72475 5.23872 8.64183 5.24074 9.1711C5.24478 10.4434 5.24007 11.7164 5.24276 12.9887C5.2441 13.4881 5.47341 13.7077 5.97372 13.7039C6.44108 13.7006 6.65156 13.4784 6.65291 12.9796C6.65493 12.3434 6.65291 11.7073 6.65291 11.0705H6.65358ZM13.7689 10.5794C13.7689 11.3886 13.7675 12.1983 13.7689 13.0075C13.7696 13.4719 13.9787 13.6779 14.4649 13.6805C15.2604 13.6851 16.0552 13.6851 16.8508 13.6805C17.2623 13.6779 17.5226 13.4557 17.532 13.1156C17.5414 12.7665 17.2711 12.532 16.842 12.5281C16.3827 12.5235 15.9228 12.5125 15.4642 12.5326C15.218 12.5436 15.173 12.4588 15.175 12.2411C15.1851 10.8813 15.1817 9.52156 15.179 8.1618C15.1784 7.68307 14.9053 7.38507 14.4763 7.38248C14.048 7.37924 13.7696 7.67983 13.7689 8.15144C13.7675 8.96056 13.7689 9.77032 13.7689 10.5794Z" fill=""/>
  <path d="M10.4473 8.90201C10.7358 9.69235 10.9974 10.4095 11.2603 11.1266C11.3141 11.2737 11.226 11.2873 11.109 11.2866C10.6625 11.2847 10.2153 11.284 9.76877 11.2866C9.63764 11.2873 9.58451 11.2588 9.63629 11.1188C9.90124 10.4056 10.1595 9.69041 10.4473 8.90137V8.90201Z" fill=""/>
</svg>