<svg xmlns="http://www.w3.org/2000/svg" width="21" height="21" viewBox="0 0 21 21" fill="none">
  <path d="M12.8519 19.1823C13.4963 18.0039 13.9553 16.3478 14.2233 14.5017H18.5541C17.4193 16.776 15.3498 18.5045 12.8519 19.1823ZM2.44593 14.5017H6.77684C7.04487 16.3478 7.50388 18.0039 8.1483 19.1823C5.65039 18.5045 3.58085 16.776 2.44593 14.5017ZM8.1483 1.81772C7.50388 2.99613 7.04487 4.65216 6.77684 6.49833H2.44593C3.58068 4.22397 5.65039 2.49497 8.1483 1.81772ZM18.5542 6.49833H14.2235C13.9555 4.65216 13.4965 2.99613 12.852 1.81772C15.3499 2.49497 17.4195 4.22397 18.5542 6.49833ZM14.3959 8.00351H19.1421C19.3715 8.79622 19.495 9.63414 19.495 10.4998C19.495 11.3655 19.3715 12.2039 19.1421 12.9967H14.3959C14.4663 12.1775 14.5017 11.3383 14.5017 10.4998C14.5017 9.6614 14.4665 8.8228 14.3959 8.00351ZM10.5001 1.50518C10.8998 1.50518 11.5448 2.22881 12.0837 3.84573C12.3439 4.62575 12.552 5.52276 12.7034 6.49833H8.29678C8.44815 5.52225 8.65641 4.62575 8.91648 3.84573C9.45541 2.22898 10.1002 1.50518 10.5001 1.50518ZM1.50521 10.4998C1.50521 9.63414 1.62814 8.79622 1.8579 8.00351H6.60431C6.53387 8.82263 6.49798 9.66191 6.49798 10.4998C6.49798 11.3378 6.53371 12.1774 6.60431 12.9967H1.8579C1.62814 12.2034 1.50521 11.366 1.50521 10.4998ZM8.11392 12.9967C8.04129 12.1941 8.00319 11.3569 8.00319 10.4998C8.00319 9.64278 8.04129 8.80604 8.11392 8.00351H12.8861C12.9582 8.80604 12.9963 9.64278 12.9963 10.4998C12.9963 11.3569 12.9582 12.1941 12.8861 12.9967H8.11392ZM10.4999 19.495C10.1002 19.495 9.45541 18.7714 8.91631 17.1544C8.65624 16.3744 8.44832 15.4774 8.29662 14.5018H12.7032C12.5518 15.4774 12.3436 16.3739 12.0835 17.1544C11.5446 18.7712 10.8997 19.495 10.4999 19.495ZM20.4155 13.9546C20.7936 12.8722 21 11.7096 21 10.5C21 9.29044 20.7936 8.12812 20.4155 7.04588C20.4065 7.01355 20.3954 6.98171 20.3822 6.95124C18.924 2.9025 15.0448 0 10.5001 0C5.95532 0 2.07597 2.9025 0.617831 6.95107C0.604455 6.98138 0.593281 7.01338 0.584476 7.04571C0.206395 8.12795 0 9.28993 0 10.4998C0 11.7097 0.206395 12.8722 0.584476 13.9545C0.593789 13.9868 0.604455 14.0186 0.617831 14.0489C2.07648 18.0973 5.95516 21 10.4999 21C15.0447 21 18.924 18.0975 20.3822 14.0489C20.3955 14.0186 20.4065 13.9866 20.4155 13.9545V13.9546Z" fill=""/>
</svg>