<svg xmlns="http://www.w3.org/2000/svg" width="29" height="16" viewBox="0 0 29 16" fill="none">
  <path d="M28.5532 9.78586C28.5029 10.2915 28.4629 10.7992 28.3993 11.3034C28.2838 12.2178 28.1499 13.1293 27.788 13.9907C27.7295 14.1305 27.6562 14.2682 27.5682 14.3923C27.2973 14.7738 26.9887 14.7681 26.7156 14.3815C26.5846 14.1958 26.4943 13.99 26.4181 13.7784C26.068 12.8088 25.9378 11.7975 25.8312 10.7842C25.6987 9.51979 25.675 8.24967 25.7246 6.98026C25.7794 5.57818 25.8956 4.17969 26.2693 2.8149C26.3663 2.45989 26.4839 2.11063 26.6867 1.7965C26.9754 1.3497 27.3114 1.34253 27.6 1.78718C27.9249 2.28849 28.0544 2.86008 28.1743 3.42952C28.363 4.32312 28.4718 5.2282 28.5177 6.13973C28.5214 6.21001 28.5414 6.27958 28.5539 6.34986V9.78586H28.5532Z" fill=""/>
  <path d="M16.2155 8.07434C16.2273 12.2196 12.823 15.9016 8.18933 15.9009C3.495 15.8995 0.148354 12.1314 0.158715 8.0478C0.169077 3.98714 3.51054 0.228417 8.20265 0.234872C12.8393 0.241326 16.2355 3.93407 16.2155 8.07434Z" fill=""/>
  <path d="M25.0118 8.07351C24.9711 9.73235 24.7276 11.3517 24.0172 12.8793C23.7115 13.537 23.3259 14.1459 22.7857 14.6493C21.6482 15.7086 20.276 15.71 19.1408 14.6479C18.4066 13.9608 17.9537 13.1024 17.6192 12.1822C17.1929 11.0096 16.9916 9.79832 16.9472 8.55546C16.8865 6.86435 17.107 5.21986 17.7413 3.63777C18.0543 2.85605 18.4725 2.13026 19.0912 1.53285C20.2561 0.40832 21.6733 0.40832 22.8345 1.53285C23.5346 2.2113 23.9764 3.04538 24.3021 3.93898C24.7173 5.07643 24.9363 6.25117 24.9711 7.45818C24.977 7.66329 24.9978 7.8684 25.0111 8.07351H25.0118Z" fill=""/>
</svg>