<svg xmlns="http://www.w3.org/2000/svg" width="112" height="101" viewBox="0 0 112 101" fill="none">
  <path d="M111.172 50.2802C111.172 43.8382 110.023 37.7789 107.757 32.1341C107.661 31.879 107.566 31.6557 107.47 31.4006C107.406 31.2731 107.374 31.1774 107.31 31.0498C104.853 25.3094 101.247 20.0474 96.3967 15.2318C91.61 10.4481 86.4084 6.87629 80.7282 4.42066C80.5367 4.32499 80.3453 4.26121 80.1857 4.16553C79.9943 4.10175 79.8028 4.00608 79.6113 3.9423C73.9311 1.64613 67.8041 0.498047 61.3261 0.498047C61.2304 0.498047 61.1346 0.498047 61.0389 0.498047C60.9431 0.498047 60.8474 0.498047 60.7517 0.498047C49.1359 0.498047 39.2753 3.81473 30.755 10.6076L30.6273 10.8627C28.936 12.2021 27.2766 13.6372 25.6811 15.2637C15.8843 25.0543 10.938 36.854 10.938 50.3121C10.938 50.5034 10.938 50.6629 10.938 50.8542C10.938 57.3282 12.0868 63.3875 14.3525 69.0322C14.4482 69.2874 14.544 69.5106 14.6397 69.7657C14.7035 69.8933 14.7354 69.989 14.7993 70.1165C17.2564 75.8569 20.8624 81.0871 25.713 85.9346C30.4997 90.7182 35.7012 94.2901 41.3495 96.7457C41.541 96.8414 41.7325 96.9051 41.924 97.0008C42.1154 97.0646 42.3069 97.1284 42.4664 97.2241C48.1467 99.5202 54.2737 100.7 60.7836 100.7C60.8793 100.7 60.9751 100.7 61.0708 100.7C61.1665 100.7 61.2623 100.7 61.358 100.7C72.9737 100.7 82.8344 97.3835 91.3547 90.5907L91.4824 90.3356C93.1737 88.9961 94.8331 87.561 96.4286 85.9346C106.225 76.144 111.172 64.3442 111.172 50.8861C111.172 50.6948 111.172 50.5353 111.172 50.344V50.2802ZM91.2909 52.5764C90.8441 59.8476 88.1636 65.875 82.7705 71.8068C82.7067 71.8706 82.6748 71.9343 82.611 71.9981C75.9734 78.0574 69.3039 80.7682 61.007 80.832C60.8474 80.832 60.6879 80.832 60.4964 80.832C59.6667 80.832 58.837 80.8001 58.0392 80.7363C57.9116 80.7363 57.7839 80.7363 57.6563 80.7044C51.0825 80.0347 45.2427 77.2602 39.6263 72.1257C34.1376 66.1301 31.3932 60.1027 30.8826 52.8953C30.8507 52.3531 30.8188 51.7791 30.8188 51.2051C30.8188 51.0137 30.8188 50.8224 30.8188 50.631C30.8188 50.344 30.8188 50.057 30.8188 49.7699C30.8188 49.3554 30.8507 48.9408 30.8826 48.5581C31.3294 41.2869 34.0099 35.2913 39.403 29.3277C39.4668 29.2639 39.4987 29.2001 39.5625 29.1363C46.2001 23.077 52.8696 20.3663 61.1665 20.3025C61.3261 20.3025 61.4856 20.3025 61.6771 20.3025C62.5068 20.3025 63.3365 20.3344 64.1343 20.3982C64.2619 20.3982 64.3896 20.3982 64.5172 20.43C71.091 21.0998 76.9308 23.8743 82.5472 29.0088C88.004 35.0043 90.7803 40.9999 91.2909 48.2392C91.3228 48.8132 91.3547 49.3554 91.3547 49.9294C91.3547 50.1208 91.3547 50.3121 91.3547 50.4716C91.3547 50.7586 91.3547 51.0456 91.3547 51.3645C91.3547 51.7791 91.3228 52.1937 91.2909 52.5764Z" fill="white"/>
  <path d="M84.0532 81.9433C97.7751 83.8249 108.689 65.9658 108.689 65.9658C109.774 80.6039 100.966 88.2259 100.966 88.2259C100.679 88.481 100.424 88.7042 100.137 88.8956C96.6582 90.1393 93.4352 90.0118 84.0532 81.9433Z" fill="url(#paint0_linear_102_5560)"/>
  <path d="M100.932 88.228C100.932 88.228 80.8277 106.661 47.959 81.0843C15.0902 55.4757 1.62359 61.2799 0.442871 69.0294C0.442871 69.0294 1.94271 44.7283 25.7805 43.357C36.9814 42.7192 50.0332 47.471 61.4575 59.3983C91.2946 90.5879 95.124 90.5241 100.964 88.228H100.932Z" fill="url(#paint1_linear_102_5560)"/>
  <path opacity="0.2" d="M6.91943 55.1545C10.2063 49.8287 15.9823 44.758 26.1301 44.1839C35.1929 43.6737 45.5641 46.9585 55.1057 55.1545H6.91943Z" fill="url(#paint2_linear_102_5560)"/>
  <g style="mix-blend-mode:multiply">
    <path d="M47.2852 80.54C69.2083 94.9868 85.164 90.6177 91.8973 87.3966C96.1415 89.7885 98.3434 89.2144 100.96 88.1939C100.96 88.1939 80.8559 106.627 47.9872 81.0503C47.7638 80.859 47.5404 80.6995 47.2852 80.54Z" fill="#F4F4F4"/>
  </g>
  <defs>
    <linearGradient id="paint0_linear_102_5560" x1="89.8611" y1="87.7156" x2="110.144" y2="67.42" gradientUnits="userSpaceOnUse">
      <stop offset="0.29" stop-color="#0D007A"/>
      <stop offset="0.71" stop-color="#0052F5"/>
      <stop offset="1" stop-color="#2A77FF"/>
    </linearGradient>
    <linearGradient id="paint1_linear_102_5560" x1="0.442871" y1="68.9657" x2="100.932" y2="68.9657" gradientUnits="userSpaceOnUse">
      <stop offset="0.18" stop-color="#09C9C9"/>
      <stop offset="0.71" stop-color="#0067F5"/>
      <stop offset="1" stop-color="#2A77FF"/>
    </linearGradient>
    <linearGradient id="paint2_linear_102_5560" x1="-1.56389" y1="55.1545" x2="-1.56389" y2="44.152" gradientUnits="userSpaceOnUse">
      <stop offset="0.45" stop-color="white"/>
      <stop offset="1" stop-color="white"/>
    </linearGradient>
  </defs>
</svg>