<svg xmlns="http://www.w3.org/2000/svg" width="102" height="44" viewBox="0 0 102 44" fill="none">
  <path d="M14.3552 38.1334C14.8251 38.372 15.1834 38.7096 15.436 39.1462C15.6885 39.5886 15.8177 40.1008 15.8177 40.6887C15.8177 41.2767 15.6885 41.7889 15.436 42.2196C15.1834 42.6504 14.8192 42.9822 14.3552 43.215C13.8912 43.4479 13.345 43.5584 12.7224 43.5584H10.8135V37.7725H12.7224C13.345 37.7725 13.8912 37.8889 14.3552 38.1275V38.1334ZM14.2906 42.2429C14.6548 41.8762 14.8369 41.3581 14.8369 40.6946C14.8369 40.031 14.6548 39.5013 14.2906 39.1229C13.9265 38.7446 13.4037 38.5583 12.7224 38.5583H11.7709V42.7959H12.7224C13.4037 42.7959 13.9265 42.6155 14.2906 42.2487V42.2429Z" fill="white"/>
  <path d="M34.7544 43.5633L33.4093 41.2466H32.681V43.5633H31.7236V37.7773H33.7383C34.1846 37.7773 34.5664 37.853 34.8777 38.0102C35.189 38.1673 35.4181 38.3711 35.5767 38.633C35.7294 38.895 35.8057 39.186 35.8057 39.5062C35.8057 39.8845 35.6941 40.2279 35.471 40.5365C35.2478 40.845 34.9071 41.0545 34.449 41.1651L35.8938 43.5633H34.7544ZM32.681 40.4899H33.7383C34.0965 40.4899 34.3667 40.4026 34.5488 40.2221C34.7309 40.0475 34.819 39.803 34.819 39.5062C34.819 39.2093 34.7309 38.9706 34.5488 38.8018C34.3667 38.633 34.0965 38.5457 33.7324 38.5457H32.6751V40.4841L32.681 40.4899Z" fill="white"/>
  <path d="M52.933 37.7832V43.5692H51.9756V37.7832H52.933Z" fill="white"/>
  <path d="M74.1773 37.7832L71.9865 43.5692H70.8764L68.6738 37.7832H69.7017L71.4344 42.5971L73.173 37.7832H74.1832H74.1773Z" fill="white"/>
  <path d="M90.8812 38.5457V40.2454H92.8958V41.0196H90.8812V42.795H93.1484V43.5692H89.9238V37.7773H93.1484V38.5515H90.8812V38.5457Z" fill="white"/>
  <path d="M20.3804 22.6616C20.3804 21.4858 20.169 20.3798 19.752 19.3495C19.7343 19.303 19.7167 19.2622 19.6991 19.2157C19.6874 19.1924 19.6815 19.1749 19.6697 19.1516C19.2175 18.1039 18.5538 17.1434 17.661 16.2645C16.78 15.3913 15.8226 14.7394 14.7771 14.2912C14.7418 14.2737 14.7066 14.2621 14.6772 14.2446C14.642 14.233 14.6067 14.2155 14.5715 14.2039C13.526 13.7847 12.3983 13.5752 11.206 13.5752C11.1883 13.5752 11.1707 13.5752 11.1531 13.5752C11.1355 13.5752 11.1179 13.5752 11.1002 13.5752C8.96227 13.5752 7.14735 14.1806 5.57911 15.4204L5.55562 15.467C5.24432 15.7115 4.93889 15.9734 4.64522 16.2703C2.84204 18.0573 1.93164 20.211 1.93164 22.6675C1.93164 22.7024 1.93164 22.7315 1.93164 22.7664C1.93164 23.9481 2.14309 25.054 2.56011 26.0843C2.57773 26.1309 2.59535 26.1717 2.61297 26.2182C2.62472 26.2415 2.63059 26.259 2.64234 26.2823C3.0946 27.33 3.75831 28.2846 4.65109 29.1694C5.53212 30.0426 6.48951 30.6945 7.52913 31.1427C7.56437 31.1602 7.59961 31.1718 7.63485 31.1893C7.67009 31.2009 7.70533 31.2126 7.7347 31.23C8.78019 31.6491 9.90791 31.8645 11.1061 31.8645C11.1237 31.8645 11.1414 31.8645 11.159 31.8645C11.1766 31.8645 11.1942 31.8645 11.2118 31.8645C13.3498 31.8645 15.1647 31.2591 16.733 30.0193L16.7565 29.9727C17.0678 29.7282 17.3732 29.4663 17.6669 29.1694C19.47 27.3824 20.3804 25.2287 20.3804 22.7722C20.3804 22.7373 20.3804 22.7082 20.3804 22.6733V22.6616ZM16.7212 23.0807C16.639 24.4079 16.1456 25.5081 15.153 26.5908C15.1412 26.6024 15.1354 26.614 15.1236 26.6257C13.9019 27.7317 12.6743 28.2264 11.1472 28.2381C11.1179 28.2381 11.0885 28.2381 11.0533 28.2381C10.9005 28.2381 10.7478 28.2323 10.601 28.2206C10.5775 28.2206 10.554 28.2206 10.5305 28.2148C9.32056 28.0926 8.2457 27.5861 7.21195 26.649C6.20171 25.5546 5.69658 24.4545 5.6026 23.139C5.59673 23.04 5.59086 22.9352 5.59086 22.8304C5.59086 22.7955 5.59086 22.7606 5.59086 22.7257C5.59086 22.6733 5.59086 22.6209 5.59086 22.5685C5.59086 22.4928 5.59673 22.4172 5.6026 22.3473C5.68483 21.0201 6.17821 19.9258 7.17084 18.8373C7.18259 18.8257 7.18846 18.814 7.20021 18.8024C8.4219 17.6964 9.64948 17.2016 11.1766 17.19C11.206 17.19 11.2353 17.19 11.2706 17.19C11.4233 17.19 11.576 17.1958 11.7228 17.2074C11.7463 17.2074 11.7698 17.2074 11.7933 17.2133C13.0033 17.3355 14.0781 17.8419 15.1119 18.7791C16.1162 19.8734 16.6272 20.9678 16.7212 22.2891C16.7271 22.3939 16.733 22.4928 16.733 22.5976C16.733 22.6325 16.733 22.6675 16.733 22.6966C16.733 22.749 16.733 22.8013 16.733 22.8596C16.733 22.9352 16.7271 23.0109 16.7212 23.0807Z" fill="white"/>
  <path d="M15.3887 28.4417C17.9143 28.7851 19.923 25.5254 19.923 25.5254C20.1227 28.1972 18.5016 29.5884 18.5016 29.5884C18.4488 29.635 18.4018 29.6757 18.3489 29.7106C17.7087 29.9376 17.1155 29.9144 15.3887 28.4417Z" fill="url(#paint0_linear_983_3882)"/>
  <path d="M18.4958 29.589C18.4958 29.589 14.7955 32.9535 8.7457 28.2851C2.69596 23.6109 0.217321 24.6703 0 26.0848C0 26.0848 0.276057 21.6492 4.66359 21.3989C6.72521 21.2825 9.12749 22.1498 11.2302 24.3269C16.722 30.0197 17.4268 30.0081 18.5017 29.589H18.4958Z" fill="url(#paint1_linear_983_3882)"/>
  <path opacity="0.2" d="M1.19141 23.5537C1.79638 22.5816 2.85949 21.6561 4.72728 21.5513C6.39537 21.4582 8.30427 22.0577 10.0605 23.5537H1.19141Z" fill="url(#paint2_linear_983_3882)"/>
  <g style="mix-blend-mode:multiply">
    <path d="M8.62207 28.1846C12.6572 30.8214 15.594 30.024 16.8333 29.4361C17.6145 29.8726 18.0197 29.7679 18.5014 29.5816C18.5014 29.5816 14.801 32.9461 8.75129 28.2777C8.71017 28.2428 8.66906 28.2137 8.62207 28.1846Z" fill="#F4F4F4"/>
  </g>
  <path d="M31.4765 17.1958C32.3517 17.1958 33.2033 17.3879 33.9316 17.7488C34.7951 18.2261 35.4764 18.8024 35.9521 19.4601L36.146 19.7279L40.1693 19.5766L39.7464 18.7383C38.977 17.2191 37.8728 15.9734 36.3457 14.9256C34.9008 14.0409 33.2151 13.5752 31.4765 13.5752C28.8863 13.5752 26.7366 14.4542 24.9099 16.2703C23.1067 18.0573 22.1904 20.211 22.1904 22.6791C22.1904 25.1472 23.0773 27.3766 24.9099 29.1869C26.7424 30.9972 28.8863 31.882 31.4765 31.882C33.2797 31.882 34.9654 31.3756 36.3457 30.4267C37.8141 29.5361 38.9535 28.2905 39.7464 26.7246L39.9109 26.3987L35.911 25.9679L35.8229 26.0902C35.6056 26.4045 35.3119 26.7014 34.983 26.94C34.4015 27.3591 33.8553 27.7549 33.1857 27.9761C32.6218 28.1624 32.0462 28.2614 31.4765 28.2614C29.9259 28.2614 28.6866 27.7666 27.4825 26.6723C26.3489 25.444 25.8438 24.2158 25.8438 22.6733C25.8438 21.1307 26.4018 19.8501 27.4649 18.7966C28.5867 17.6848 29.8202 17.19 31.4765 17.19V17.1958Z" fill="white"/>
  <path d="M55.7105 26.1833C55.499 26.4627 55.2347 26.7188 54.9352 26.94C54.3595 27.3591 53.8133 27.7549 53.1437 27.9761C52.5799 28.1624 52.0043 28.2614 51.4345 28.2614C49.878 28.2614 48.6446 27.7666 47.4405 26.6723C46.7885 25.9679 46.3598 25.2811 46.1013 24.536H60.468L60.5561 24.0354C60.6031 23.7734 60.9673 21.4043 59.7162 18.75L59.7045 18.7325C58.935 17.2133 57.8308 15.9676 56.3037 14.9198C54.8529 14.0409 53.1672 13.5752 51.4286 13.5752C48.8384 13.5752 46.6946 14.4542 44.862 16.2703C43.0588 18.0573 42.1426 20.211 42.1426 22.6791C42.1426 25.1472 43.0295 27.3766 44.862 29.1869C46.6946 30.9972 48.8384 31.882 51.4286 31.882C53.2318 31.882 54.9175 31.3756 56.2978 30.4267C57.7662 29.5361 58.9057 28.2905 59.6986 26.7246L59.7162 26.6897M46.0779 20.9212C46.3422 20.1354 46.7886 19.4252 47.417 18.8082C48.5389 17.6964 49.7723 17.2016 51.4286 17.2016C52.3038 17.2016 53.1555 17.3937 53.8838 17.7546C54.7472 18.2319 55.4344 18.814 55.9337 19.5009C55.9572 19.5242 56.4035 20.0713 56.6444 20.9212H46.072H46.0779Z" fill="white"/>
  <path d="M71.8867 13.5752C69.2964 13.5752 67.1467 14.4541 65.32 16.2702C63.5169 18.0573 62.6006 20.211 62.6006 22.6791C62.6006 25.1471 63.4875 27.3765 65.32 29.1868C67.1526 30.9972 69.2964 31.8819 71.8867 31.8819C74.0305 31.8819 75.8454 31.2766 77.4137 30.0367V31.8819H81.067V22.6732C81.067 20.211 80.1507 18.0573 78.3476 16.2644C76.5444 14.4774 74.3712 13.5693 71.8867 13.5693V13.5752ZM75.8043 26.6431C74.5709 27.7607 73.3315 28.2613 71.7809 28.2613C70.3243 28.2613 69.0791 27.7491 67.8809 26.6664C66.7532 25.444 66.2539 24.2158 66.2539 22.6791C66.2539 21.1423 66.8119 19.8559 67.875 18.8023C68.9969 17.6905 70.2009 17.1958 71.7809 17.1958C73.4608 17.1958 74.659 17.6731 75.7984 18.8023C76.8557 19.8501 77.4195 21.1947 77.4195 22.6791C77.4195 24.1634 76.9203 25.4382 75.8102 26.6431H75.8043Z" fill="white"/>
  <path d="M99.2746 16.2703C97.4949 14.5065 95.2218 13.5752 92.7079 13.5752C90.1941 13.5752 87.968 14.4542 86.1413 16.2703C84.3382 18.0573 83.4219 20.211 83.4219 22.6791V31.882H87.0752V22.6733C87.0752 21.189 87.6332 19.8501 88.6963 18.7966C89.7829 17.7139 91.0986 17.19 92.7079 17.19C94.3173 17.19 95.6153 17.7139 96.6373 18.814C97.7709 19.8443 98.3465 21.1424 98.3465 22.6675V31.8703H102V22.6733C102 20.211 101.084 18.0573 99.2804 16.2645L99.2746 16.2703Z" fill="white"/>
  <rect x="73.8564" width="27.8572" height="10" rx="5.00001" fill="#F9D100"/>
  <path d="M97.654 7.14239H95.899L95.794 5.94989H94.4065L93.874 7.14239H93.1465L95.359 2.37988H97.1365L97.654 7.14239ZM94.654 5.40239H95.7415L95.569 3.36238L94.654 5.40239Z" fill="black"/>
  <path d="M92.9829 2.94988H91.7754L90.8829 7.14239H89.2629L90.1554 2.94988H88.9629L89.0979 2.37988H93.1104L92.9829 2.94988Z" fill="black"/>
  <path d="M84.3807 2.37988H87.5382L87.4182 2.94988H85.8882L85.5732 4.39739H86.8557L86.7357 4.95989H85.4532L85.1082 6.56489H86.6382L86.5257 7.14239H83.3682L84.3807 2.37988Z" fill="black"/>
  <path d="M82.0252 3.46738C82.0252 3.61238 82.0027 3.74238 81.9577 3.85738C81.9177 3.97238 81.8602 4.07489 81.7852 4.16489C81.7102 4.25489 81.6227 4.33489 81.5227 4.40489C81.4227 4.47489 81.3127 4.53989 81.1927 4.59989C81.2477 4.61989 81.3127 4.65239 81.3877 4.69739C81.4627 4.73739 81.5352 4.79489 81.6052 4.86989C81.6752 4.94489 81.7327 5.04239 81.7777 5.16239C81.8277 5.27739 81.8527 5.41989 81.8527 5.58989C81.8527 5.81489 81.8052 6.02239 81.7102 6.21239C81.6152 6.40239 81.4727 6.56739 81.2827 6.70739C81.0977 6.84239 80.8677 6.94989 80.5927 7.02989C80.3227 7.10489 80.0102 7.14239 79.6552 7.14239H77.4277L78.4402 2.37988H80.4127C80.6077 2.37988 80.8002 2.39488 80.9902 2.42488C81.1852 2.44988 81.3577 2.50238 81.5077 2.58238C81.6627 2.66238 81.7877 2.77488 81.8827 2.91988C81.9777 3.05988 82.0252 3.24238 82.0252 3.46738ZM79.9852 4.37489C80.0952 4.37489 80.1877 4.34239 80.2627 4.27739C80.3427 4.21239 80.4077 4.13239 80.4577 4.03739C80.5077 3.93739 80.5452 3.83239 80.5702 3.72238C80.5952 3.60738 80.6077 3.50488 80.6077 3.41488C80.6077 3.26988 80.5727 3.14738 80.5027 3.04738C80.4377 2.94238 80.3327 2.88988 80.1877 2.88988H79.9627L79.6402 4.37489H79.9852ZM79.4452 6.66989C79.5952 6.66989 79.7202 6.62739 79.8202 6.54239C79.9202 6.45739 80.0027 6.35239 80.0677 6.22739C80.1327 6.10239 80.1777 5.97239 80.2027 5.83739C80.2327 5.69739 80.2477 5.57489 80.2477 5.46989C80.2477 5.29489 80.2102 5.15739 80.1352 5.05739C80.0652 4.95239 79.9502 4.89989 79.7902 4.89989H79.5127L79.1452 6.66989H79.4452Z" fill="black"/>
  <defs>
    <linearGradient id="paint0_linear_983_3882" x1="16.4577" y1="29.4953" x2="20.1596" y2="25.7598" gradientUnits="userSpaceOnUse">
      <stop offset="0.29" stop-color="#0D007A"/>
      <stop offset="0.71" stop-color="#0052F5"/>
      <stop offset="1" stop-color="#2A77FF"/>
    </linearGradient>
    <linearGradient id="paint1_linear_983_3882" x1="0" y1="26.0731" x2="18.4958" y2="26.0731" gradientUnits="userSpaceOnUse">
      <stop offset="0.18" stop-color="#09C9C9"/>
      <stop offset="0.71" stop-color="#0067F5"/>
      <stop offset="1" stop-color="#2A77FF"/>
    </linearGradient>
    <linearGradient id="paint2_linear_983_3882" x1="-0.370016" y1="23.5537" x2="-0.370016" y2="21.5455" gradientUnits="userSpaceOnUse">
      <stop offset="0.45" stop-color="white"/>
      <stop offset="1" stop-color="white"/>
    </linearGradient>
  </defs>
</svg>