<svg width="104" height="32" viewBox="0 0 104 32" fill="none" xmlns="http://www.w3.org/2000/svg">
<path d="M15.2725 25.7541C15.7431 25.9951 16.1019 26.3361 16.3548 26.7769C16.6077 27.2237 16.7371 27.741 16.7371 28.3347C16.7371 28.9284 16.6077 29.4457 16.3548 29.8807C16.1019 30.3157 15.7372 30.6508 15.2725 30.8859C14.8078 31.1211 14.2608 31.2328 13.6373 31.2328H11.7256V25.3896H13.6373C14.2608 25.3896 14.8078 25.5072 15.2725 25.7482V25.7541ZM15.2078 29.9043C15.5725 29.5339 15.7548 29.0107 15.7548 28.3406C15.7548 27.6705 15.5725 27.1355 15.2078 26.7534C14.8431 26.3713 14.3196 26.1832 13.6373 26.1832H12.6844V30.4627H13.6373C14.3196 30.4627 14.8431 30.2805 15.2078 29.9101V29.9043Z" fill="white"/>
<path d="M35.7012 31.2377L34.3542 28.8981H33.6248V31.2377H32.666V25.3945H34.6836C35.1306 25.3945 35.513 25.4709 35.8247 25.6297C36.1365 25.7884 36.3659 25.9941 36.5247 26.2587C36.6776 26.5232 36.7541 26.8171 36.7541 27.1404C36.7541 27.5225 36.6423 27.8693 36.4188 28.1809C36.1953 28.4924 35.8541 28.7041 35.3953 28.8158L36.8423 31.2377H35.7012ZM33.6248 28.1339H34.6836C35.0424 28.1339 35.313 28.0457 35.4953 27.8635C35.6777 27.6871 35.7659 27.4402 35.7659 27.1404C35.7659 26.8406 35.6777 26.5996 35.4953 26.4291C35.313 26.2587 35.0424 26.1705 34.6777 26.1705H33.6189V28.128L33.6248 28.1339Z" fill="white"/>
<path d="M53.907 25.4004V31.2435H52.9482V25.4004H53.907Z" fill="white"/>
<path d="M75.1824 25.4004L72.9884 31.2435H71.8767L69.6709 25.4004H70.7003L72.4355 30.2618L74.1766 25.4004H75.1883H75.1824Z" fill="white"/>
<path d="M91.9109 26.1705V27.887H93.9285V28.6688H91.9109V30.4617H94.1814V31.2435H90.9521V25.3945H94.1814V26.1764H91.9109V26.1705Z" fill="white"/>
<path d="M21.3068 10.1293C21.3068 8.94186 21.095 7.82496 20.6774 6.78449C20.6597 6.73746 20.6421 6.69631 20.6244 6.64929C20.6127 6.62577 20.6068 6.60814 20.595 6.58462C20.1421 5.52651 19.4774 4.55658 18.5834 3.66894C17.701 2.78718 16.7423 2.1288 15.6952 1.67617C15.6599 1.65853 15.6247 1.64678 15.5952 1.62914C15.5599 1.61738 15.5247 1.59975 15.4894 1.58799C14.4423 1.16475 13.313 0.953125 12.1189 0.953125C12.1013 0.953125 12.0836 0.953125 12.066 0.953125C12.0483 0.953125 12.0307 0.953125 12.013 0.953125C9.87194 0.953125 8.05437 1.56448 6.48385 2.81657L6.46032 2.8636C6.14857 3.11049 5.8427 3.37502 5.54859 3.67482C3.74278 5.47949 2.83105 7.65449 2.83105 10.1352C2.83105 10.1704 2.83105 10.1998 2.83105 10.2351C2.83105 11.4284 3.04281 12.5453 3.46044 13.5858C3.47809 13.6328 3.49573 13.674 3.51338 13.721C3.52514 13.7445 3.53103 13.7621 3.54279 13.7857C3.99571 14.8438 4.66039 15.8078 5.55447 16.7013C6.43679 17.5831 7.39557 18.2415 8.43671 18.6941C8.472 18.7117 8.50729 18.7235 8.54259 18.7411C8.57788 18.7529 8.61317 18.7646 8.64258 18.7823C9.6896 19.2055 10.819 19.423 12.0189 19.423C12.0366 19.423 12.0542 19.423 12.0719 19.423C12.0895 19.423 12.1071 19.423 12.1248 19.423C14.2659 19.423 16.0835 18.8117 17.654 17.5596L17.6775 17.5126C17.9893 17.2657 18.2951 17.0011 18.5892 16.7013C20.395 14.8967 21.3068 12.7217 21.3068 10.241C21.3068 10.2057 21.3068 10.1763 21.3068 10.141V10.1293ZM17.6422 10.5525C17.5599 11.8928 17.0658 13.0038 16.0717 14.0972C16.0599 14.109 16.054 14.1207 16.0423 14.1325C14.8188 15.2494 13.5894 15.749 12.0601 15.7608C12.0307 15.7608 12.0013 15.7608 11.966 15.7608C11.813 15.7608 11.6601 15.7549 11.5131 15.7432C11.4895 15.7432 11.466 15.7432 11.4425 15.7373C10.2308 15.6138 9.15433 15.1024 8.11907 14.156C7.10735 13.0509 6.60149 11.9398 6.50738 10.6113C6.50149 10.5114 6.49561 10.4056 6.49561 10.2998C6.49561 10.2645 6.49561 10.2292 6.49561 10.194C6.49561 10.141 6.49561 10.0881 6.49561 10.0352C6.49561 9.95882 6.50149 9.8824 6.50738 9.81186C6.58973 8.47159 7.08382 7.36645 8.0779 6.26719C8.08966 6.25543 8.09555 6.24368 8.10731 6.23192C9.33079 5.11503 10.5602 4.61536 12.0895 4.60361C12.1189 4.60361 12.1483 4.60361 12.1836 4.60361C12.3366 4.60361 12.4895 4.60948 12.6365 4.62124C12.6601 4.62124 12.6836 4.62124 12.7071 4.62712C13.9188 4.75057 14.9953 5.26199 16.0305 6.20841C17.0364 7.31354 17.5481 8.41868 17.6422 9.75308C17.6481 9.85889 17.654 9.95882 17.654 10.0646C17.654 10.0999 17.654 10.1352 17.654 10.1646C17.654 10.2175 17.654 10.2704 17.654 10.3292C17.654 10.4056 17.6481 10.482 17.6422 10.5525Z" fill="white"/>
<path d="M16.3076 15.9666C18.8369 16.3134 20.8486 13.0215 20.8486 13.0215C21.0486 15.7197 19.4251 17.1246 19.4251 17.1246C19.3722 17.1716 19.3251 17.2128 19.2722 17.248C18.6311 17.4773 18.037 17.4538 16.3076 15.9666Z" fill="url(#paint0_linear_101_1142)"/>
<path d="M19.4193 17.125C19.4193 17.125 15.7135 20.5227 9.65495 15.8083C3.59638 11.0879 1.11412 12.1578 0.896484 13.5862C0.896484 13.5862 1.17294 9.10689 5.56688 8.85412C7.63151 8.73655 10.0373 9.61243 12.1431 11.8109C17.6429 17.56 18.3487 17.5483 19.4251 17.125H19.4193Z" fill="url(#paint1_linear_101_1142)"/>
<path opacity="0.2" d="M2.08984 11.0287C2.6957 10.047 3.76036 9.1123 5.63088 9.00649C7.3014 8.91244 9.21308 9.51791 10.9718 11.0287H2.08984Z" fill="url(#paint2_linear_101_1142)"/>
<g style="mix-blend-mode:multiply">
<path d="M9.53125 15.707C13.5723 18.3699 16.5133 17.5646 17.7544 16.9709C18.5368 17.4118 18.9426 17.306 19.425 17.1178C19.425 17.1178 15.7192 20.5156 9.66066 15.8011C9.61948 15.7658 9.57831 15.7364 9.53125 15.707Z" fill="#F4F4F4"/>
</g>
<path d="M32.4188 4.60948C33.2952 4.60948 34.1481 4.80347 34.8775 5.16793C35.7422 5.64996 36.4245 6.23192 36.9009 6.89618L37.095 7.16658L41.1243 7.01375L40.7008 6.16726C39.9302 4.633 38.8244 3.37502 37.295 2.31691C35.848 1.4234 34.1599 0.953125 32.4188 0.953125C29.8248 0.953125 27.6719 1.84076 25.8426 3.67482C24.0368 5.47949 23.1191 7.65449 23.1191 10.1469C23.1191 12.6394 24.0073 14.8908 25.8426 16.719C27.6778 18.5471 29.8248 19.4407 32.4188 19.4407C34.2246 19.4407 35.9127 18.9292 37.295 17.9711C38.7656 17.0717 39.9067 15.8137 40.7008 14.2324L40.8655 13.9032L36.8598 13.4682L36.7715 13.5917C36.5539 13.9091 36.2598 14.2089 35.9304 14.4499C35.3481 14.8732 34.801 15.2729 34.1305 15.4963C33.5658 15.6844 32.9893 15.7843 32.4188 15.7843C30.8659 15.7843 29.6248 15.2846 28.4189 14.1795C27.2837 12.9392 26.7778 11.6988 26.7778 10.141C26.7778 8.58328 27.3366 7.29003 28.4013 6.22604C29.5248 5.10327 30.76 4.60361 32.4188 4.60361V4.60948Z" fill="white"/>
<path d="M56.6883 13.6857C56.4765 13.9679 56.2118 14.2265 55.9118 14.4499C55.3354 14.8732 54.7884 15.2729 54.1178 15.4963C53.5531 15.6844 52.9767 15.7843 52.4061 15.7843C50.8473 15.7843 49.6121 15.2846 48.4063 14.1795C47.7533 13.4682 47.3239 12.7746 47.0651 12.0221H61.4528L61.541 11.5166C61.5881 11.2521 61.9528 8.85956 60.6999 6.17901L60.6881 6.16138C59.9176 4.62712 58.8117 3.36914 57.2824 2.31103C55.8295 1.4234 54.1413 0.953125 52.4002 0.953125C49.8062 0.953125 47.6592 1.84076 45.824 3.67482C44.0182 5.47949 43.1006 7.65449 43.1006 10.1469C43.1006 12.6394 43.9888 14.8908 45.824 16.719C47.6592 18.5471 49.8062 19.4407 52.4002 19.4407C54.206 19.4407 55.8942 18.9292 57.2765 17.9711C58.747 17.0717 59.8881 15.8137 60.6822 14.2324L60.6999 14.1971M47.0416 8.37165C47.3063 7.57807 47.7533 6.86091 48.3827 6.2378C49.5062 5.11503 50.7415 4.61536 52.4002 4.61536C53.2766 4.61536 54.1295 4.80935 54.8589 5.17381C55.7236 5.65584 56.4118 6.24368 56.9118 6.93733C56.9353 6.96084 57.3824 7.51341 57.6235 8.37165H47.0357H47.0416Z" fill="white"/>
<path d="M72.8885 0.953144C70.2945 0.953144 68.1416 1.84078 66.3123 3.67484C64.5065 5.47951 63.5889 7.65451 63.5889 10.1469C63.5889 12.6394 64.4771 14.8908 66.3123 16.719C68.1475 18.5472 70.2945 19.4407 72.8885 19.4407C75.0355 19.4407 76.853 18.8293 78.4236 17.5772V19.4407H82.0822V10.1411C82.0822 7.65451 81.1646 5.47951 79.3588 3.66896C77.553 1.86429 75.3766 0.947266 72.8885 0.947266V0.953144ZM76.8119 14.1501C75.5766 15.2788 74.3355 15.7843 72.7826 15.7843C71.3238 15.7843 70.0768 15.267 68.8769 14.1736C67.7475 12.9392 67.2475 11.6988 67.2475 10.1469C67.2475 8.59505 67.8063 7.29593 68.871 6.23194C69.9945 5.10917 71.2003 4.6095 72.7826 4.6095C74.4649 4.6095 75.6649 5.09153 76.806 6.23194C77.8648 7.29005 78.4294 8.64796 78.4294 10.1469C78.4294 11.6459 77.9295 12.9333 76.8177 14.1501H76.8119Z" fill="white"/>
<path d="M100.316 3.67482C98.534 1.89367 96.2576 0.953125 93.7401 0.953125C91.2225 0.953125 88.9932 1.84076 87.1639 3.67482C85.358 5.47949 84.4404 7.65449 84.4404 10.1469V19.4407H88.0991V10.141C88.0991 8.64206 88.6579 7.29003 89.7226 6.22604C90.8108 5.13266 92.1284 4.60361 93.7401 4.60361C95.3518 4.60361 96.6517 5.13266 97.6752 6.24368C98.8104 7.28415 99.3869 8.59503 99.3869 10.1352V19.4289H103.046V10.141C103.046 7.65449 102.128 5.47949 100.322 3.66894L100.316 3.67482Z" fill="white"/>
<defs>
<linearGradient id="paint0_linear_101_1142" x1="17.3782" y1="17.0305" x2="21.1168" y2="13.2895" gradientUnits="userSpaceOnUse">
<stop offset="0.29" stop-color="#0D007A"/>
<stop offset="0.71" stop-color="#0052F5"/>
<stop offset="1" stop-color="#2A77FF"/>
</linearGradient>
<linearGradient id="paint1_linear_101_1142" x1="0.896484" y1="13.5745" x2="19.4193" y2="13.5745" gradientUnits="userSpaceOnUse">
<stop offset="0.18" stop-color="#09C9C9"/>
<stop offset="0.71" stop-color="#0067F5"/>
<stop offset="1" stop-color="#2A77FF"/>
</linearGradient>
<linearGradient id="paint2_linear_101_1142" x1="0.526142" y1="11.0287" x2="0.526142" y2="9.00061" gradientUnits="userSpaceOnUse">
<stop offset="0.45" stop-color="white"/>
<stop offset="1" stop-color="white"/>
</linearGradient>
</defs>
</svg>
