<svg xmlns="http://www.w3.org/2000/svg" width="103" height="31" viewBox="0 0 103 31" fill="none">
  <path d="M14.376 25.4533C14.8466 25.6943 15.2054 26.0353 15.4583 26.4762C15.7113 26.9229 15.8407 27.4402 15.8407 28.0339C15.8407 28.6277 15.7113 29.145 15.4583 29.58C15.2054 30.015 14.8407 30.35 14.376 30.5852C13.9113 30.8203 13.3643 30.932 12.7408 30.932H10.8291V25.0889H12.7408C13.3643 25.0889 13.9113 25.2064 14.376 25.4474V25.4533ZM14.3113 29.6035C14.676 29.2331 14.8583 28.71 14.8583 28.0398C14.8583 27.3697 14.676 26.8347 14.3113 26.4527C13.9466 26.0706 13.4231 25.8824 12.7408 25.8824H11.7879V30.1619H12.7408C13.4231 30.1619 13.9466 29.9797 14.3113 29.6093V29.6035Z" fill="white"/>
  <path d="M34.8047 30.9369L33.4577 28.5973H32.7283V30.9369H31.7695V25.0938H33.7871C34.2341 25.0938 34.6165 25.1702 34.9282 25.3289C35.24 25.4876 35.4694 25.6933 35.6282 25.9579C35.7811 26.2224 35.8576 26.5163 35.8576 26.8396C35.8576 27.2217 35.7458 27.5686 35.5223 27.8801C35.2988 28.1917 34.9576 28.4033 34.4988 28.515L35.9458 30.9369H34.8047ZM32.7283 27.8331H33.7871C34.1459 27.8331 34.4165 27.7449 34.5988 27.5627C34.7812 27.3863 34.8694 27.1394 34.8694 26.8396C34.8694 26.5398 34.7812 26.2988 34.5988 26.1283C34.4165 25.9579 34.1459 25.8697 33.7812 25.8697H32.7224V27.8272L32.7283 27.8331Z" fill="white"/>
  <path d="M53.0101 25.0996V30.9427H52.0513V25.0996H53.0101Z" fill="white"/>
  <path d="M74.286 25.0996L72.0919 30.9427H70.9802L68.7744 25.0996H69.8038L71.539 29.961L73.2801 25.0996H74.2918H74.286Z" fill="white"/>
  <path d="M91.014 25.8697V27.5862H93.0315V28.368H91.014V30.1609H93.2845V30.9427H90.0552V25.0938H93.2845V25.8756H91.014V25.8697Z" fill="white"/>
  <path d="M20.4103 9.82851C20.4103 8.64108 20.1985 7.52418 19.7809 6.48371C19.7633 6.43668 19.7456 6.39553 19.728 6.3485C19.7162 6.32499 19.7103 6.30736 19.6986 6.28384C19.2456 5.22573 18.581 4.2558 17.6869 3.36816C16.8046 2.4864 15.8458 1.82802 14.7988 1.37539C14.7635 1.35775 14.7282 1.34599 14.6988 1.32836C14.6635 1.3166 14.6282 1.29897 14.5929 1.28721C13.5459 0.863966 12.4165 0.652344 11.2224 0.652344C11.2048 0.652344 11.1871 0.652344 11.1695 0.652344C11.1518 0.652344 11.1342 0.652344 11.1165 0.652344C8.97546 0.652344 7.15789 1.2637 5.58736 2.51579L5.56383 2.56282C5.25208 2.80971 4.94621 3.07424 4.65211 3.37404C2.8463 5.1787 1.93457 7.35371 1.93457 9.83439C1.93457 9.86966 1.93457 9.89905 1.93457 9.93432C1.93457 11.1276 2.14633 12.2445 2.56396 13.285C2.5816 13.332 2.59925 13.3732 2.6169 13.4202C2.62866 13.4437 2.63454 13.4614 2.64631 13.4849C3.09923 14.543 3.76391 15.507 4.65799 16.4006C5.54031 17.2823 6.49909 17.9407 7.54022 18.3933C7.57552 18.411 7.61081 18.4227 7.6461 18.4404C7.6814 18.4521 7.71669 18.4639 7.7461 18.4815C8.79311 18.9047 9.92248 19.1222 11.1224 19.1222C11.1401 19.1222 11.1577 19.1222 11.1754 19.1222C11.193 19.1222 11.2107 19.1222 11.2283 19.1222C13.3694 19.1222 15.187 18.5109 16.7575 17.2588L16.781 17.2118C17.0928 16.9649 17.3986 16.7004 17.6928 16.4006C19.4986 14.5959 20.4103 12.4209 20.4103 9.9402C20.4103 9.90493 20.4103 9.87554 20.4103 9.84027V9.82851ZM16.7457 10.2518C16.6634 11.592 16.1693 12.703 15.1752 13.7964C15.1634 13.8082 15.1576 13.8199 15.1458 13.8317C13.9223 14.9486 12.693 15.4483 11.1636 15.46C11.1342 15.46 11.1048 15.46 11.0695 15.46C10.9166 15.46 10.7636 15.4541 10.6166 15.4424C10.593 15.4424 10.5695 15.4424 10.546 15.4365C9.33427 15.3131 8.25784 14.8016 7.22259 13.8552C6.21087 12.7501 5.70501 11.6391 5.61089 10.3105C5.60501 10.2106 5.59913 10.1048 5.59913 9.99898C5.59913 9.96371 5.59913 9.92844 5.59913 9.89317C5.59913 9.84027 5.59913 9.78736 5.59913 9.73446C5.59913 9.65804 5.60501 9.58162 5.61089 9.51108C5.69324 8.17081 6.18734 7.06567 7.18142 5.96641C7.19318 5.95465 7.19906 5.94289 7.21083 5.93114C8.43431 4.81424 9.66367 4.31458 11.193 4.30282C11.2224 4.30282 11.2518 4.30282 11.2871 4.30282C11.4401 4.30282 11.593 4.3087 11.7401 4.32046C11.7636 4.32046 11.7871 4.32046 11.8106 4.32634C13.0224 4.44978 14.0988 4.9612 15.134 5.90762C16.1399 7.01276 16.6516 8.1179 16.7457 9.45229C16.7516 9.55811 16.7575 9.65804 16.7575 9.76385C16.7575 9.79912 16.7575 9.83439 16.7575 9.86378C16.7575 9.91669 16.7575 9.96959 16.7575 10.0284C16.7575 10.1048 16.7516 10.1812 16.7457 10.2518Z" fill="white"/>
  <path d="M15.4116 15.6658C17.9409 16.0126 19.9526 12.7207 19.9526 12.7207C20.1526 15.4189 18.5291 16.8238 18.5291 16.8238C18.4762 16.8708 18.4291 16.912 18.3762 16.9473C17.7351 17.1765 17.141 17.153 15.4116 15.6658Z" fill="url(#paint0_linear_101_1113)"/>
  <path d="M18.5228 16.8242C18.5228 16.8242 14.817 20.2219 8.75847 15.5075C2.69989 10.7871 0.217638 11.857 0 13.2854C0 13.2854 0.27646 8.80611 4.6704 8.55334C6.73502 8.43577 9.14081 9.31165 11.2466 11.5102C16.7464 17.2592 17.4522 17.2475 18.5287 16.8242H18.5228Z" fill="url(#paint1_linear_101_1113)"/>
  <path opacity="0.2" d="M1.19385 10.7279C1.79971 9.74619 2.86437 8.81152 4.73488 8.70571C6.4054 8.61166 8.31709 9.21713 10.0758 10.7279H1.19385Z" fill="url(#paint2_linear_101_1113)"/>
  <g style="mix-blend-mode:multiply">
    <path d="M8.63428 15.4062C12.6753 18.0692 15.6163 17.2638 16.8575 16.6701C17.6398 17.111 18.0457 17.0052 18.528 16.8171C18.528 16.8171 14.8223 20.2148 8.76368 15.5003C8.72251 15.465 8.68133 15.4356 8.63428 15.4062Z" fill="#F4F4F4"/>
  </g>
  <path d="M31.5223 4.3087C32.3987 4.3087 33.2516 4.50269 33.981 4.86715C34.8457 5.34918 35.528 5.93114 36.0045 6.5954L36.1986 6.8658L40.2278 6.71297L39.8043 5.86648C39.0337 4.33222 37.9279 3.07424 36.3986 2.01613C34.9516 1.12261 33.2634 0.652344 31.5223 0.652344C28.9283 0.652344 26.7754 1.53998 24.9461 3.37404C23.1403 5.1787 22.2227 7.35371 22.2227 9.84615C22.2227 12.3386 23.1109 14.59 24.9461 16.4182C26.7813 18.2464 28.9283 19.1399 31.5223 19.1399C33.3281 19.1399 35.0163 18.6285 36.3986 17.6703C37.8691 16.7709 39.0102 15.5129 39.8043 13.9316L39.969 13.6024L35.9633 13.1674L35.875 13.2909C35.6574 13.6083 35.3633 13.9081 35.0339 14.1491C34.4516 14.5724 33.9045 14.9721 33.234 15.1955C32.6693 15.3836 32.0928 15.4835 31.5223 15.4835C29.9694 15.4835 28.7283 14.9839 27.5224 13.8787C26.3872 12.6384 25.8813 11.398 25.8813 9.84027C25.8813 8.2825 26.4401 6.98925 27.5048 5.92526C28.6283 4.80249 29.8635 4.30282 31.5223 4.30282V4.3087Z" fill="white"/>
  <path d="M55.7913 13.3849C55.5795 13.6671 55.3148 13.9257 55.0149 14.1491C54.4384 14.5724 53.8914 14.9721 53.2208 15.1955C52.6561 15.3836 52.0797 15.4835 51.5091 15.4835C49.9504 15.4835 48.7151 14.9839 47.5093 13.8787C46.8564 13.1674 46.427 12.4738 46.1682 11.7214H60.5558L60.644 11.2158C60.6911 10.9513 61.0558 8.55878 59.8029 5.87823L59.7911 5.8606C59.0206 4.32634 57.9147 3.06836 56.3854 2.01025C54.9325 1.12261 53.2443 0.652344 51.5032 0.652344C48.9092 0.652344 46.7623 1.53998 44.927 3.37404C43.1212 5.1787 42.2036 7.35371 42.2036 9.84615C42.2036 12.3386 43.0918 14.59 44.927 16.4182C46.7623 18.2464 48.9092 19.1399 51.5032 19.1399C53.309 19.1399 54.9972 18.6285 56.3795 17.6703C57.85 16.7709 58.9912 15.5129 59.7853 13.9316L59.8029 13.8964M46.1446 8.07087C46.4093 7.27729 46.8564 6.56013 47.4858 5.93702C48.6092 4.81424 49.8445 4.31458 51.5032 4.31458C52.3797 4.31458 53.2326 4.50857 53.962 4.87303C54.8266 5.35506 55.5148 5.9429 56.0148 6.63655C56.0383 6.66006 56.4854 7.21263 56.7266 8.07087H46.1387H46.1446Z" fill="white"/>
  <path d="M71.9915 0.652363C69.3975 0.652363 67.2447 1.54 65.4153 3.37406C63.6095 5.17872 62.6919 7.35373 62.6919 9.84617C62.6919 12.3386 63.5801 14.59 65.4153 16.4182C67.2505 18.2464 69.3975 19.1399 71.9915 19.1399C74.1385 19.1399 75.9561 18.5285 77.5266 17.2765V19.1399H81.1853V9.84029C81.1853 7.35373 80.2677 5.17872 78.4618 3.36818C76.656 1.56351 74.4797 0.646484 71.9915 0.646484V0.652363ZM75.9149 13.8493C74.6796 14.978 73.4385 15.4835 71.8856 15.4835C70.4269 15.4835 69.1799 14.9662 67.9799 13.8729C66.8505 12.6384 66.3506 11.3981 66.3506 9.84617C66.3506 8.29427 66.9094 6.99515 67.974 5.93116C69.0975 4.80838 70.3033 4.30872 71.8856 4.30872C73.5679 4.30872 74.7679 4.79075 75.909 5.93116C76.9678 6.98927 77.5325 8.34718 77.5325 9.84617C77.5325 11.3452 77.0325 12.6325 75.9208 13.8493H75.9149Z" fill="white"/>
  <path d="M99.4198 3.37404C97.6375 1.59289 95.3611 0.652344 92.8436 0.652344C90.326 0.652344 88.0967 1.53998 86.2674 3.37404C84.4616 5.1787 83.5439 7.35371 83.5439 9.84615V19.1399H87.2026V9.84027C87.2026 8.34128 87.7614 6.98925 88.8261 5.92526C89.9143 4.83188 91.2319 4.30282 92.8436 4.30282C94.4553 4.30282 95.7552 4.83188 96.7787 5.9429C97.9139 6.98337 98.4904 8.29425 98.4904 9.83439V19.1281H102.149V9.84027C102.149 7.35371 101.231 5.1787 99.4257 3.36816L99.4198 3.37404Z" fill="white"/>
  <defs>
    <linearGradient id="paint0_linear_101_1113" x1="16.4822" y1="16.7298" x2="20.2208" y2="12.9887" gradientUnits="userSpaceOnUse">
      <stop offset="0.29" stop-color="#0D007A"/>
      <stop offset="0.71" stop-color="#0052F5"/>
      <stop offset="1" stop-color="#2A77FF"/>
    </linearGradient>
    <linearGradient id="paint1_linear_101_1113" x1="0" y1="13.2737" x2="18.5228" y2="13.2737" gradientUnits="userSpaceOnUse">
      <stop offset="0.18" stop-color="#09C9C9"/>
      <stop offset="0.71" stop-color="#0067F5"/>
      <stop offset="1" stop-color="#2A77FF"/>
    </linearGradient>
    <linearGradient id="paint2_linear_101_1113" x1="-0.369854" y1="10.7279" x2="-0.369854" y2="8.69983" gradientUnits="userSpaceOnUse">
      <stop offset="0.45" stop-color="white"/>
      <stop offset="1" stop-color="white"/>
    </linearGradient>
  </defs>
</svg>