<svg width="21" height="19" viewBox="0 0 21 19" fill="none" xmlns="http://www.w3.org/2000/svg">
<path d="M2.75254 16.6585C2.56461 16.6585 2.4122 16.5106 2.4122 16.3281V2.67186C2.4122 2.48943 2.56461 2.34149 2.75254 2.34149H16.9996C16.8315 1.02336 15.6707 0 14.2685 0H2.75254C1.23494 0 0 1.19837 0 2.67186V16.3281C0 17.8013 1.23494 19 2.75254 19H14.2685C15.6711 19 16.8315 17.9766 17 16.6585H2.75254Z" fill=""/>
<g clip-path="url(#clip0_1225_4060)">
<path d="M10 11.2617H14.9456V13.6875C14.9456 13.9279 15.1821 14.0782 15.3715 13.9579L20.8581 9.77062C21.0473 9.65051 21.0473 9.34994 20.8581 9.22983L15.3715 5.04251C15.1822 4.92241 14.9456 5.07254 14.9456 5.31291V7.73872H10" fill=""/>
</g>
<defs>
<clipPath id="clip0_1225_4060">
<rect width="11" height="9" fill="" transform="translate(10 5)"/>
</clipPath>
</defs>
</svg>
