<svg width="23" height="24" viewBox="0 0 23 24" fill="none" xmlns="http://www.w3.org/2000/svg">
<path d="M11.0722 13.0329C13.2198 13.0329 14.9608 11.207 14.9608 8.95467C14.9608 6.70234 13.2198 4.87646 11.0722 4.87646C8.92458 4.87646 7.18359 6.70234 7.18359 8.95467C7.18359 11.207 8.92458 13.0329 11.0722 13.0329Z" fill=""/>
<path d="M21.2738 7.09197C20.7164 5.70898 19.918 4.46742 18.9014 3.4012C17.8847 2.3354 16.7009 1.49807 15.3822 0.913068C14.0164 0.307146 12.5665 0 11.0722 0C9.57757 0 8.12761 0.307146 6.76223 0.913068C5.44354 1.49807 4.26011 2.3354 3.24306 3.4012C2.22641 4.46742 1.42802 5.7094 0.870616 7.09197C0.292865 8.52392 0 10.0446 0 11.6121C0 13.1797 0.292865 14.7003 0.870616 16.1323C1.35739 17.3391 2.02691 18.4388 2.86561 19.4071C2.9877 19.5485 3.11379 19.687 3.24306 19.8226C3.79328 20.3997 4.39218 20.9093 5.03497 21.3483C5.5804 21.7212 6.15695 22.0425 6.76184 22.3112C8.12761 22.9171 9.57757 23.2242 11.0722 23.2242C12.5669 23.2242 14.0168 22.9171 15.3822 22.3112C15.9875 22.0425 16.564 21.7212 17.1091 21.3483C17.7519 20.9093 18.3508 20.3997 18.901 19.8226C19.0307 19.6866 19.1563 19.5481 19.2784 19.4071C20.1167 18.4384 20.7866 17.3391 21.2734 16.1323C21.8512 14.7003 22.144 13.1792 22.144 11.6121C22.144 10.045 21.8512 8.52392 21.2738 7.09197ZM18.956 17.6282C18.9381 17.5738 18.9201 17.5194 18.9006 17.4659C18.1305 15.3125 16.3458 13.6684 14.1653 13.1813C13.8652 13.3964 13.5452 13.5801 13.2073 13.7299C12.5306 14.0304 11.8124 14.1827 11.0722 14.1827C10.3321 14.1827 9.61388 14.0304 8.93718 13.7299C8.59923 13.5801 8.27923 13.3964 7.97918 13.1813C5.79825 13.668 4.01353 15.3125 3.24346 17.4659C3.22431 17.5194 3.20596 17.5738 3.188 17.6282C2.01255 15.9385 1.31789 13.8588 1.31789 11.6117C1.31789 5.97135 5.69372 1.38174 11.0722 1.38174C16.4507 1.38174 20.8262 5.97135 20.8262 11.6121C20.8262 13.8588 20.1315 15.9385 18.956 17.6282Z" fill=""/>
</svg>
