<svg xmlns="http://www.w3.org/2000/svg" width="26" height="26" viewBox="0 0 26 26" fill="none">
  <path d="M25.5184 12.3658C25.5001 12.2136 25.5076 12.0604 25.4976 11.9078C25.484 11.6981 25.4849 11.4872 25.4555 11.2791C25.34 10.4624 25.1403 9.66655 24.8662 8.88819C24.5175 7.89763 24.0467 6.96835 23.4644 6.09598C22.7855 5.07894 21.9693 4.18343 21.0293 3.40403C19.7756 2.36469 18.3698 1.60029 16.8163 1.10563C15.6675 0.739801 14.4934 0.552403 13.2872 0.56887C12.989 0.573039 12.6905 0.570538 12.392 0.57971C12.1015 0.588673 11.8095 0.586797 11.5208 0.616814C11.0412 0.666843 10.5666 0.754601 10.0975 0.868625C9.07096 1.11793 8.09072 1.48794 7.15655 1.9828C6.11608 2.53395 5.17502 3.22101 4.32506 4.03293C3.80232 4.53217 3.33106 5.07811 2.90254 5.66094C2.17783 6.64629 1.61174 7.71607 1.19989 8.86693C0.73468 10.1685 0.492487 11.508 0.520208 12.8938C0.528128 13.2913 0.525836 13.6888 0.543552 14.0864C0.553973 14.3202 0.558142 14.5545 0.59024 14.7868C0.741767 15.8786 1.0271 16.9338 1.45667 17.9496C1.5513 18.1733 1.64864 18.3959 1.76306 18.6104C1.77494 18.6327 1.78536 18.6598 1.80371 18.6744C1.80037 18.699 1.82101 18.725 1.83164 18.7486C1.97066 19.0519 2.14115 19.3385 2.31435 19.6229C3.04656 20.825 3.96656 21.8664 5.04517 22.7673C5.77488 23.3769 6.57128 23.8884 7.42104 24.3145C8.20181 24.706 9.01656 25.0109 9.86236 25.23C10.5477 25.4076 11.2394 25.5425 11.9516 25.5512C12.0729 25.5527 12.1967 25.5421 12.3174 25.5683H13.8166C13.9348 25.551 14.0543 25.555 14.1731 25.5475C14.3911 25.5339 14.6101 25.535 14.8269 25.5047C15.3425 25.4326 15.8511 25.3276 16.3536 25.19C17.3591 24.9148 18.3141 24.5179 19.2195 24.0033C19.8992 23.617 20.5407 23.1763 21.1306 22.66C21.5825 22.2644 22.0141 21.8491 22.4149 21.4022C22.8928 20.8692 23.3182 20.2959 23.6947 19.6873C23.8752 19.3952 24.0502 19.0998 24.1984 18.7897C24.2132 18.7588 24.2439 18.7259 24.2307 18.6902C24.287 18.6813 24.2947 18.6169 24.3152 18.5762C24.6593 17.8933 24.924 17.1796 25.1282 16.4435C25.3367 15.6925 25.489 14.9318 25.504 14.1483C25.5063 14.0334 25.4957 13.9173 25.5186 13.8029V12.366L25.5184 12.3658ZM17.173 18.665C17.1148 18.7872 17.0575 18.9093 16.9731 19.0173C16.8334 19.1953 16.6556 19.2916 16.427 19.2897C16.1783 19.2877 15.9497 19.2122 15.7292 19.1044C15.4659 18.9756 15.2333 18.799 14.9924 18.6352C14.9672 18.6179 14.9432 18.6 14.9165 18.5991C14.914 18.5589 14.8694 18.5354 14.8323 18.5097C14.3456 18.1766 13.8494 17.8579 13.3633 17.5239C12.8231 17.1525 12.2768 16.7898 11.7342 16.4214C11.5704 16.3101 11.4122 16.1921 11.2995 16.0233C11.1755 15.8376 11.1636 15.6495 11.274 15.4549C11.3291 15.3577 11.397 15.2702 11.4743 15.1897C11.8972 14.7492 12.3431 14.3321 12.7918 13.9186C13.3145 13.437 13.8308 12.9484 14.3465 12.4594C14.6762 12.1467 14.992 11.8194 15.3115 11.4959C15.3894 11.4169 15.4622 11.3325 15.5201 11.2372C15.5802 11.1386 15.5599 11.043 15.4987 10.9542C15.4386 10.8672 15.3501 10.8462 15.2504 10.8631C15.1562 10.8791 15.0739 10.9235 14.9934 10.9723C14.418 11.3219 13.8617 11.7006 13.3012 12.0733C12.5213 12.592 11.7457 13.1175 10.9685 13.6401C10.5368 13.9304 10.1112 14.2302 9.67039 14.5072C9.19018 14.8091 8.68245 14.9375 8.11261 14.8126C7.33121 14.6413 6.57274 14.3967 5.81615 14.1431C5.69109 14.1012 5.57145 14.0436 5.46766 13.9594C5.27945 13.807 5.26673 13.6269 5.4291 13.4481C5.54582 13.3195 5.69276 13.2344 5.8472 13.1619C6.66362 12.7783 7.49837 12.4358 8.32479 12.0752C9.32941 11.6368 10.3355 11.2012 11.3424 10.768C12.7956 10.1429 14.251 9.52335 15.7196 8.93551C16.2896 8.70747 16.8574 8.47254 17.4443 8.29014C17.6728 8.21927 17.9031 8.14777 18.1459 8.15027C18.5246 8.15444 18.7062 8.31974 18.7541 8.6935C18.7589 8.73144 18.7591 8.76958 18.7612 8.80773C18.7779 9.11124 18.7262 9.40995 18.6895 9.70866C18.5355 10.9617 18.3422 12.2093 18.1392 13.4552C17.9875 14.3863 17.8387 15.3181 17.6674 16.2459C17.5252 17.0164 17.4283 17.796 17.2134 18.552C17.2069 18.5748 17.2063 18.5939 17.2121 18.61C17.1932 18.6183 17.1834 18.6417 17.1723 18.6644L17.173 18.665Z" fill=""/>
</svg>