<svg xmlns="http://www.w3.org/2000/svg" width="27" height="22" viewBox="0 0 27 22" fill="none">
  <path d="M5.6656 13.2345C5.63478 13.1888 5.57313 13.1888 5.51148 13.1735C3.40004 12.6241 1.82802 10.8843 1.53519 8.73237C1.50437 8.54923 1.48896 8.35083 1.47355 8.16769C1.45813 7.98455 1.50437 7.95402 1.65849 8.03033C2.27497 8.33556 2.92227 8.53396 3.61581 8.57975C3.66205 8.57975 3.70828 8.57975 3.76993 8.57975C3.78534 8.48818 3.70828 8.48818 3.67746 8.45766C2.53697 7.58774 1.82802 6.47364 1.59684 5.06958C1.4119 3.90969 1.59684 2.79559 2.13626 1.7578C2.24415 1.54414 2.27497 1.54414 2.42909 1.72728C3.6004 3.08556 4.97206 4.23019 6.54409 5.11536C8.19317 6.04632 9.95013 6.64152 11.8304 6.93149C12.2619 6.99254 12.6781 7.03833 13.1096 7.06885C13.2791 7.06885 13.3099 7.02306 13.2791 6.87045C13.0325 5.51216 13.2637 4.24545 14.0035 3.08556C14.9128 1.63571 16.2382 0.79632 17.9489 0.613181C19.6289 0.414779 21.0776 0.933675 22.3105 2.0783C22.4492 2.20039 22.5725 2.23091 22.7421 2.18513C23.7901 1.94094 24.7765 1.57466 25.7166 1.04051C25.7474 1.02524 25.7936 1.00998 25.8553 1.00998C25.6858 1.58992 25.3929 2.12408 25.023 2.59719C24.6377 3.08556 24.1908 3.48237 23.6668 3.83338C24.16 3.80286 24.6377 3.69603 25.1155 3.55867C25.5933 3.43658 26.0556 3.25344 26.5334 3.0703C26.5334 3.22292 26.4564 3.28396 26.3947 3.37553C25.7474 4.24545 25.0076 5.02379 24.1291 5.66478C24.0059 5.75635 23.9442 5.86318 23.9596 6.0158C24.0367 7.78615 23.7593 9.49545 23.2044 11.159C22.588 13.0209 21.6478 14.7149 20.3995 16.2411C19.3052 17.5688 18.0106 18.6677 16.5156 19.5376C14.9128 20.4686 13.1712 21.079 11.3372 21.3537C10.582 21.4758 9.82684 21.5216 9.05624 21.5521C6.37455 21.6132 3.8624 21.018 1.50437 19.7818C1.22696 19.6444 0.964951 19.4766 0.687536 19.3087C0.6413 19.2782 0.56424 19.2629 0.548828 19.1713C1.07284 19.2324 1.58143 19.2476 2.10544 19.2324C3.8624 19.1713 5.51148 18.7287 7.03727 17.8741C7.43798 17.6452 7.82328 17.401 8.19317 17.1263C8.2394 17.0957 8.31646 17.0805 8.28564 17.0042C8.27023 16.9431 8.19317 16.9584 8.13152 16.9584C7.05268 16.8973 6.08173 16.5311 5.23407 15.8748C4.40182 15.2491 3.80075 14.4402 3.44628 13.4635C3.38463 13.3109 3.40004 13.2803 3.58499 13.3109C4.2477 13.4177 4.895 13.3872 5.55772 13.2651C5.57313 13.2651 5.63478 13.2651 5.6656 13.2345Z" fill=""/>
</svg>