<svg xmlns="http://www.w3.org/2000/svg" width="22" height="20" viewBox="0 0 22 20" fill="none">
  <path d="M21.2915 6.68885C21.2915 5.59879 20.4128 4.72421 19.3176 4.72421H2.92765C2.25269 4.72421 1.59047 4.0651 1.59047 3.41867C1.59047 2.75957 2.25269 2.11313 2.92765 2.11313H18.5662C18.9355 2.11313 19.2284 2.40466 19.2284 2.77224V3.43135H19.2412C19.6996 3.43135 20.1454 3.53275 20.5401 3.69752V2.77224C20.5401 1.66951 19.6487 0.794922 18.5662 0.794922H3.6026C0.291504 0.794922 0.291504 3.41867 0.291504 3.41867V16.8416C0.291504 18.4133 2.02346 19.7949 3.6026 19.7949H19.3176C20.4128 19.7949 21.2915 18.9203 21.2915 17.8303V14.5601H16.6814C15.5862 14.5601 14.7075 13.6855 14.7075 12.5955C14.7075 11.5054 15.5862 10.6308 16.6814 10.6308H21.2915V6.68885Z" fill=""/>
  <path d="M16.0195 12.5829C16.0195 13.3054 16.6053 13.8884 17.3312 13.8884C18.0571 13.8884 18.6429 13.3054 18.6429 12.5829C18.6429 11.8604 18.0571 11.2773 17.3312 11.2773C16.6181 11.2773 16.0195 11.8604 16.0195 12.5829Z" fill=""/>
  <path d="M18.0568 2.75977H3.57715V4.0653H18.0568V2.75977Z" fill=""/>
</svg>