<svg xmlns="http://www.w3.org/2000/svg" width="29" height="19" viewBox="0 0 29 19" fill="none">
  <path d="M9.32106 18.648C9.21516 18.4864 9.04331 18.5685 8.90397 18.5625C7.26903 18.4864 5.63223 18.4398 4.00844 18.2221C2.34471 17.9984 1.2179 17.0507 0.886267 15.5268C0.454309 13.539 0.39207 11.5219 0.396715 9.5039C0.40136 7.62929 0.46267 5.75469 0.860257 3.9086C1.23741 2.15493 2.33728 1.24614 4.26576 1.03449C7.12504 0.720906 9.99919 0.689806 12.8724 0.657843C16.0865 0.622424 19.2998 0.67944 22.5083 0.872083C23.14 0.910094 23.7717 0.969701 24.3969 1.05695C26.3105 1.32389 27.3658 2.3087 27.6788 4.15912C28.1284 6.8138 28.1591 9.48662 28.0058 12.1638C27.9408 13.2928 27.8479 14.4185 27.5952 15.5277C27.2496 17.0455 26.1321 17.9992 24.4684 18.2204C22.7824 18.445 21.0843 18.4959 19.3871 18.5651C19.2487 18.5711 19.0768 18.4856 18.97 18.6471H9.32106V18.648ZM18.6709 9.64644C16.2575 8.35322 13.8924 7.08592 11.4836 5.79529V13.4967C13.8859 12.2104 16.2445 10.9466 18.6709 9.64644Z" fill=""/>
</svg>