<svg width="531" height="122" viewBox="0 0 531 122" fill="none" xmlns="http://www.w3.org/2000/svg">
<g clip-path="url(#clip0_103_40934)">
<g clip-path="url(#clip1_103_40934)">
<path style="mix-blend-mode:screen" d="M261.859 50.0144C261.859 52.0592 260.207 53.7182 258.155 53.7182C256.102 53.7182 254.458 52.0515 254.458 50.0144C254.458 47.9773 256.117 46.3105 258.162 46.3105C260.207 46.3105 261.866 47.9696 261.866 50.0144H261.859Z" fill="url(#paint0_radial_103_40934)"/>
</g>
</g>
<g clip-path="url(#clip2_103_40934)">
<g clip-path="url(#clip3_103_40934)">
<path style="mix-blend-mode:screen" d="M399.4 32.6716C399.4 34.7164 397.749 36.3754 395.696 36.3754C393.644 36.3754 392 34.7087 392 32.6716C392 30.6345 393.659 28.9678 395.704 28.9678C397.749 28.9678 399.408 30.6268 399.408 32.6716H399.4Z" fill="url(#paint1_radial_103_40934)"/>
</g>
</g>
<g clip-path="url(#clip4_103_40934)">
<g clip-path="url(#clip5_103_40934)">
<path style="mix-blend-mode:screen" d="M485.4 80.7038C485.4 82.7487 483.749 84.4077 481.696 84.4077C479.644 84.4077 478 82.7409 478 80.7038C478 78.6667 479.659 77 481.704 77C483.749 77 485.408 78.659 485.408 80.7038H485.4Z" fill="url(#paint2_radial_103_40934)"/>
</g>
</g>
<g clip-path="url(#clip6_103_40934)">
<g clip-path="url(#clip7_103_40934)">
<path style="mix-blend-mode:screen" d="M531.024 30.4807C531.024 32.5255 529.372 34.1845 527.32 34.1845C525.267 34.1845 523.624 32.5178 523.624 30.4807C523.624 28.4436 525.283 26.7769 527.328 26.7769C529.372 26.7769 531.032 28.4359 531.032 30.4807H531.024Z" fill="url(#paint3_radial_103_40934)"/>
</g>
</g>
<g clip-path="url(#clip8_103_40934)">
<g clip-path="url(#clip9_103_40934)">
<path style="mix-blend-mode:screen" d="M274.522 4.64915C274.522 6.69398 272.871 8.35299 270.818 8.35299C268.765 8.35299 267.122 6.68626 267.122 4.64915C267.122 2.61204 268.781 0.945312 270.826 0.945312C272.871 0.945312 274.53 2.60432 274.53 4.64915H274.522Z" fill="url(#paint4_radial_103_40934)"/>
</g>
</g>
<g clip-path="url(#clip10_103_40934)">
<g clip-path="url(#clip11_103_40934)">
<path style="mix-blend-mode:screen" d="M235.314 103.721C235.314 105.766 233.663 107.425 231.61 107.425C229.558 107.425 227.914 105.759 227.914 103.721C227.914 101.684 229.573 100.018 231.618 100.018C233.663 100.018 235.322 101.677 235.322 103.721H235.314Z" fill="url(#paint5_radial_103_40934)"/>
</g>
</g>
<g clip-path="url(#clip12_103_40934)">
<g clip-path="url(#clip13_103_40934)">
<path style="mix-blend-mode:screen" d="M95.35 30.4807C95.35 32.5255 93.6987 34.1845 91.646 34.1845C89.5934 34.1845 87.9497 32.5178 87.9497 30.4807C87.9497 28.4436 89.6088 26.7769 91.6537 26.7769C93.6987 26.7769 95.3578 28.4359 95.3578 30.4807H95.35Z" fill="url(#paint6_radial_103_40934)"/>
</g>
</g>
<g clip-path="url(#clip14_103_40934)">
<g clip-path="url(#clip15_103_40934)">
<path style="mix-blend-mode:screen" d="M171.743 53.7068C171.743 55.7516 170.091 57.4106 168.039 57.4106C165.986 57.4106 164.342 55.7439 164.342 53.7068C164.342 51.6697 166.001 50.0029 168.046 50.0029C170.091 50.0029 171.75 51.6619 171.75 53.7068H171.743Z" fill="url(#paint7_radial_103_40934)"/>
</g>
</g>
<g clip-path="url(#clip16_103_40934)">
<g clip-path="url(#clip17_103_40934)">
<path style="mix-blend-mode:screen" d="M46.9355 117.338C46.9355 119.383 45.2841 121.042 43.2315 121.042C41.1788 121.042 39.5352 119.375 39.5352 117.338C39.5352 115.301 41.1943 113.634 43.2392 113.634C45.2841 113.634 46.9432 115.293 46.9432 117.338H46.9355Z" fill="url(#paint8_radial_103_40934)"/>
</g>
</g>
<g clip-path="url(#clip18_103_40934)">
<g clip-path="url(#clip19_103_40934)">
<path style="mix-blend-mode:screen" d="M50.6281 8.34153C50.6281 10.3864 48.9767 12.0454 46.9241 12.0454C44.8714 12.0454 43.2278 10.3786 43.2278 8.34153C43.2278 6.30442 44.8869 4.6377 46.9318 4.6377C48.9767 4.6377 50.6358 6.29671 50.6358 8.34153H50.6281Z" fill="url(#paint9_radial_103_40934)"/>
</g>
</g>
<g clip-path="url(#clip20_103_40934)">
<g clip-path="url(#clip21_103_40934)">
<path style="mix-blend-mode:screen" d="M7.74043 37.8655C7.74043 39.9103 6.08905 41.5693 4.0364 41.5693C1.98375 41.5693 0.340088 39.9026 0.340088 37.8655C0.340088 35.8283 1.99918 34.1616 4.04412 34.1616C6.08905 34.1616 7.74814 35.8206 7.74814 37.8655H7.74043Z" fill="url(#paint10_radial_103_40934)"/>
</g>
</g>
<g clip-path="url(#clip22_103_40934)">
<g clip-path="url(#clip23_103_40934)">
<path style="mix-blend-mode:screen" d="M145.4 91.8952C145.4 93.9401 143.749 95.5991 141.696 95.5991C139.644 95.5991 138 93.9324 138 91.8952C138 89.8581 139.659 88.1914 141.704 88.1914C143.749 88.1914 145.408 89.8504 145.408 91.8952H145.4Z" fill="url(#paint11_radial_103_40934)"/>
</g>
</g>
<g clip-path="url(#clip24_103_40934)">
<g clip-path="url(#clip25_103_40934)">
<path style="mix-blend-mode:screen" d="M341.4 95.5876C341.4 97.6325 339.749 99.2915 337.696 99.2915C335.644 99.2915 334 97.6247 334 95.5876C334 93.5505 335.659 91.8838 337.704 91.8838C339.749 91.8838 341.408 93.5428 341.408 95.5876H341.4Z" fill="url(#paint12_radial_103_40934)"/>
</g>
</g>
<defs>
<radialGradient id="paint0_radial_103_40934" cx="0" cy="0" r="1" gradientUnits="userSpaceOnUse" gradientTransform="translate(258.162 50.0144) scale(3.70403 3.70384)">
<stop stop-color="#B4F6A2"/>
<stop offset="0.05" stop-color="#92C884"/>
<stop offset="0.09" stop-color="#729D67"/>
<stop offset="0.14" stop-color="#57784E"/>
<stop offset="0.19" stop-color="#3F5739"/>
<stop offset="0.25" stop-color="#2B3C27"/>
<stop offset="0.32" stop-color="#1B2618"/>
<stop offset="0.4" stop-color="#0F150D"/>
<stop offset="0.49" stop-color="#060905"/>
<stop offset="0.63" stop-color="#010201"/>
<stop offset="1" stop-color="#000100"/>
</radialGradient>
<radialGradient id="paint1_radial_103_40934" cx="0" cy="0" r="1" gradientUnits="userSpaceOnUse" gradientTransform="translate(395.704 32.6716) scale(3.70403 3.70384)">
<stop stop-color="#B4F6A2"/>
<stop offset="0.05" stop-color="#92C884"/>
<stop offset="0.09" stop-color="#729D67"/>
<stop offset="0.14" stop-color="#57784E"/>
<stop offset="0.19" stop-color="#3F5739"/>
<stop offset="0.25" stop-color="#2B3C27"/>
<stop offset="0.32" stop-color="#1B2618"/>
<stop offset="0.4" stop-color="#0F150D"/>
<stop offset="0.49" stop-color="#060905"/>
<stop offset="0.63" stop-color="#010201"/>
<stop offset="1" stop-color="#000100"/>
</radialGradient>
<radialGradient id="paint2_radial_103_40934" cx="0" cy="0" r="1" gradientUnits="userSpaceOnUse" gradientTransform="translate(481.704 80.7038) scale(3.70403 3.70384)">
<stop stop-color="#B4F6A2"/>
<stop offset="0.05" stop-color="#92C884"/>
<stop offset="0.09" stop-color="#729D67"/>
<stop offset="0.14" stop-color="#57784E"/>
<stop offset="0.19" stop-color="#3F5739"/>
<stop offset="0.25" stop-color="#2B3C27"/>
<stop offset="0.32" stop-color="#1B2618"/>
<stop offset="0.4" stop-color="#0F150D"/>
<stop offset="0.49" stop-color="#060905"/>
<stop offset="0.63" stop-color="#010201"/>
<stop offset="1" stop-color="#000100"/>
</radialGradient>
<radialGradient id="paint3_radial_103_40934" cx="0" cy="0" r="1" gradientUnits="userSpaceOnUse" gradientTransform="translate(527.328 30.4807) scale(3.70403 3.70384)">
<stop stop-color="#B4F6A2"/>
<stop offset="0.05" stop-color="#92C884"/>
<stop offset="0.09" stop-color="#729D67"/>
<stop offset="0.14" stop-color="#57784E"/>
<stop offset="0.19" stop-color="#3F5739"/>
<stop offset="0.25" stop-color="#2B3C27"/>
<stop offset="0.32" stop-color="#1B2618"/>
<stop offset="0.4" stop-color="#0F150D"/>
<stop offset="0.49" stop-color="#060905"/>
<stop offset="0.63" stop-color="#010201"/>
<stop offset="1" stop-color="#000100"/>
</radialGradient>
<radialGradient id="paint4_radial_103_40934" cx="0" cy="0" r="1" gradientUnits="userSpaceOnUse" gradientTransform="translate(270.826 4.64915) scale(3.70403 3.70384)">
<stop stop-color="#B4F6A2"/>
<stop offset="0.05" stop-color="#92C884"/>
<stop offset="0.09" stop-color="#729D67"/>
<stop offset="0.14" stop-color="#57784E"/>
<stop offset="0.19" stop-color="#3F5739"/>
<stop offset="0.25" stop-color="#2B3C27"/>
<stop offset="0.32" stop-color="#1B2618"/>
<stop offset="0.4" stop-color="#0F150D"/>
<stop offset="0.49" stop-color="#060905"/>
<stop offset="0.63" stop-color="#010201"/>
<stop offset="1" stop-color="#000100"/>
</radialGradient>
<radialGradient id="paint5_radial_103_40934" cx="0" cy="0" r="1" gradientUnits="userSpaceOnUse" gradientTransform="translate(231.618 103.721) scale(3.70403 3.70384)">
<stop stop-color="#B4F6A2"/>
<stop offset="0.05" stop-color="#92C884"/>
<stop offset="0.09" stop-color="#729D67"/>
<stop offset="0.14" stop-color="#57784E"/>
<stop offset="0.19" stop-color="#3F5739"/>
<stop offset="0.25" stop-color="#2B3C27"/>
<stop offset="0.32" stop-color="#1B2618"/>
<stop offset="0.4" stop-color="#0F150D"/>
<stop offset="0.49" stop-color="#060905"/>
<stop offset="0.63" stop-color="#010201"/>
<stop offset="1" stop-color="#000100"/>
</radialGradient>
<radialGradient id="paint6_radial_103_40934" cx="0" cy="0" r="1" gradientUnits="userSpaceOnUse" gradientTransform="translate(91.6537 30.4807) scale(3.70403 3.70384)">
<stop stop-color="#B4F6A2"/>
<stop offset="0.05" stop-color="#92C884"/>
<stop offset="0.09" stop-color="#729D67"/>
<stop offset="0.14" stop-color="#57784E"/>
<stop offset="0.19" stop-color="#3F5739"/>
<stop offset="0.25" stop-color="#2B3C27"/>
<stop offset="0.32" stop-color="#1B2618"/>
<stop offset="0.4" stop-color="#0F150D"/>
<stop offset="0.49" stop-color="#060905"/>
<stop offset="0.63" stop-color="#010201"/>
<stop offset="1" stop-color="#000100"/>
</radialGradient>
<radialGradient id="paint7_radial_103_40934" cx="0" cy="0" r="1" gradientUnits="userSpaceOnUse" gradientTransform="translate(168.046 53.7068) scale(3.70403 3.70384)">
<stop stop-color="#B4F6A2"/>
<stop offset="0.05" stop-color="#92C884"/>
<stop offset="0.09" stop-color="#729D67"/>
<stop offset="0.14" stop-color="#57784E"/>
<stop offset="0.19" stop-color="#3F5739"/>
<stop offset="0.25" stop-color="#2B3C27"/>
<stop offset="0.32" stop-color="#1B2618"/>
<stop offset="0.4" stop-color="#0F150D"/>
<stop offset="0.49" stop-color="#060905"/>
<stop offset="0.63" stop-color="#010201"/>
<stop offset="1" stop-color="#000100"/>
</radialGradient>
<radialGradient id="paint8_radial_103_40934" cx="0" cy="0" r="1" gradientUnits="userSpaceOnUse" gradientTransform="translate(43.2392 117.338) scale(3.70403 3.70384)">
<stop stop-color="#B4F6A2"/>
<stop offset="0.05" stop-color="#92C884"/>
<stop offset="0.09" stop-color="#729D67"/>
<stop offset="0.14" stop-color="#57784E"/>
<stop offset="0.19" stop-color="#3F5739"/>
<stop offset="0.25" stop-color="#2B3C27"/>
<stop offset="0.32" stop-color="#1B2618"/>
<stop offset="0.4" stop-color="#0F150D"/>
<stop offset="0.49" stop-color="#060905"/>
<stop offset="0.63" stop-color="#010201"/>
<stop offset="1" stop-color="#000100"/>
</radialGradient>
<radialGradient id="paint9_radial_103_40934" cx="0" cy="0" r="1" gradientUnits="userSpaceOnUse" gradientTransform="translate(46.9318 8.34153) scale(3.70403 3.70384)">
<stop stop-color="#B4F6A2"/>
<stop offset="0.05" stop-color="#92C884"/>
<stop offset="0.09" stop-color="#729D67"/>
<stop offset="0.14" stop-color="#57784E"/>
<stop offset="0.19" stop-color="#3F5739"/>
<stop offset="0.25" stop-color="#2B3C27"/>
<stop offset="0.32" stop-color="#1B2618"/>
<stop offset="0.4" stop-color="#0F150D"/>
<stop offset="0.49" stop-color="#060905"/>
<stop offset="0.63" stop-color="#010201"/>
<stop offset="1" stop-color="#000100"/>
</radialGradient>
<radialGradient id="paint10_radial_103_40934" cx="0" cy="0" r="1" gradientUnits="userSpaceOnUse" gradientTransform="translate(4.04412 37.8655) scale(3.70403 3.70384)">
<stop stop-color="#B4F6A2"/>
<stop offset="0.05" stop-color="#92C884"/>
<stop offset="0.09" stop-color="#729D67"/>
<stop offset="0.14" stop-color="#57784E"/>
<stop offset="0.19" stop-color="#3F5739"/>
<stop offset="0.25" stop-color="#2B3C27"/>
<stop offset="0.32" stop-color="#1B2618"/>
<stop offset="0.4" stop-color="#0F150D"/>
<stop offset="0.49" stop-color="#060905"/>
<stop offset="0.63" stop-color="#010201"/>
<stop offset="1" stop-color="#000100"/>
</radialGradient>
<radialGradient id="paint11_radial_103_40934" cx="0" cy="0" r="1" gradientUnits="userSpaceOnUse" gradientTransform="translate(141.704 91.8952) scale(3.70403 3.70384)">
<stop stop-color="#B4F6A2"/>
<stop offset="0.05" stop-color="#92C884"/>
<stop offset="0.09" stop-color="#729D67"/>
<stop offset="0.14" stop-color="#57784E"/>
<stop offset="0.19" stop-color="#3F5739"/>
<stop offset="0.25" stop-color="#2B3C27"/>
<stop offset="0.32" stop-color="#1B2618"/>
<stop offset="0.4" stop-color="#0F150D"/>
<stop offset="0.49" stop-color="#060905"/>
<stop offset="0.63" stop-color="#010201"/>
<stop offset="1" stop-color="#000100"/>
</radialGradient>
<radialGradient id="paint12_radial_103_40934" cx="0" cy="0" r="1" gradientUnits="userSpaceOnUse" gradientTransform="translate(337.704 95.5876) scale(3.70403 3.70384)">
<stop stop-color="#B4F6A2"/>
<stop offset="0.05" stop-color="#92C884"/>
<stop offset="0.09" stop-color="#729D67"/>
<stop offset="0.14" stop-color="#57784E"/>
<stop offset="0.19" stop-color="#3F5739"/>
<stop offset="0.25" stop-color="#2B3C27"/>
<stop offset="0.32" stop-color="#1B2618"/>
<stop offset="0.4" stop-color="#0F150D"/>
<stop offset="0.49" stop-color="#060905"/>
<stop offset="0.63" stop-color="#010201"/>
<stop offset="1" stop-color="#000100"/>
</radialGradient>
<clipPath id="clip0_103_40934">
<rect width="7.38536" height="7.38498" fill="white" transform="translate(254.458 46.3105)"/>
</clipPath>
<clipPath id="clip1_103_40934">
<rect width="7.40034" height="7.39996" fill="white" transform="translate(254.458 46.3105)"/>
</clipPath>
<clipPath id="clip2_103_40934">
<rect width="7.38536" height="7.38498" fill="white" transform="translate(392 28.9678)"/>
</clipPath>
<clipPath id="clip3_103_40934">
<rect width="7.40034" height="7.39996" fill="white" transform="translate(392 28.9678)"/>
</clipPath>
<clipPath id="clip4_103_40934">
<rect width="7.38536" height="7.38498" fill="white" transform="translate(478 77)"/>
</clipPath>
<clipPath id="clip5_103_40934">
<rect width="7.40034" height="7.39996" fill="white" transform="translate(478 77)"/>
</clipPath>
<clipPath id="clip6_103_40934">
<rect width="7.38536" height="7.38498" fill="white" transform="translate(523.624 26.7769)"/>
</clipPath>
<clipPath id="clip7_103_40934">
<rect width="7.40034" height="7.39996" fill="white" transform="translate(523.624 26.7769)"/>
</clipPath>
<clipPath id="clip8_103_40934">
<rect width="7.38536" height="7.38498" fill="white" transform="translate(267.122 0.945312)"/>
</clipPath>
<clipPath id="clip9_103_40934">
<rect width="7.40034" height="7.39996" fill="white" transform="translate(267.122 0.945312)"/>
</clipPath>
<clipPath id="clip10_103_40934">
<rect width="7.38536" height="7.38498" fill="white" transform="translate(227.914 100.018)"/>
</clipPath>
<clipPath id="clip11_103_40934">
<rect width="7.40034" height="7.39996" fill="white" transform="translate(227.914 100.018)"/>
</clipPath>
<clipPath id="clip12_103_40934">
<rect width="7.38536" height="7.38498" fill="white" transform="translate(87.9497 26.7769)"/>
</clipPath>
<clipPath id="clip13_103_40934">
<rect width="7.40034" height="7.39996" fill="white" transform="translate(87.9497 26.7769)"/>
</clipPath>
<clipPath id="clip14_103_40934">
<rect width="7.38536" height="7.38498" fill="white" transform="translate(164.342 50.0029)"/>
</clipPath>
<clipPath id="clip15_103_40934">
<rect width="7.40034" height="7.39996" fill="white" transform="translate(164.342 50.0029)"/>
</clipPath>
<clipPath id="clip16_103_40934">
<rect width="7.38536" height="7.38498" fill="white" transform="translate(39.5352 113.634)"/>
</clipPath>
<clipPath id="clip17_103_40934">
<rect width="7.40034" height="7.39996" fill="white" transform="translate(39.5352 113.634)"/>
</clipPath>
<clipPath id="clip18_103_40934">
<rect width="7.38536" height="7.38498" fill="white" transform="translate(43.2278 4.6377)"/>
</clipPath>
<clipPath id="clip19_103_40934">
<rect width="7.40034" height="7.39996" fill="white" transform="translate(43.2278 4.6377)"/>
</clipPath>
<clipPath id="clip20_103_40934">
<rect width="7.38536" height="7.38498" fill="white" transform="translate(0.340088 34.1616)"/>
</clipPath>
<clipPath id="clip21_103_40934">
<rect width="7.40034" height="7.39996" fill="white" transform="translate(0.340088 34.1616)"/>
</clipPath>
<clipPath id="clip22_103_40934">
<rect width="7.38536" height="7.38498" fill="white" transform="translate(138 88.1914)"/>
</clipPath>
<clipPath id="clip23_103_40934">
<rect width="7.40034" height="7.39996" fill="white" transform="translate(138 88.1914)"/>
</clipPath>
<clipPath id="clip24_103_40934">
<rect width="7.38536" height="7.38498" fill="white" transform="translate(334 91.8838)"/>
</clipPath>
<clipPath id="clip25_103_40934">
<rect width="7.40034" height="7.39996" fill="white" transform="translate(334 91.8838)"/>
</clipPath>
</defs>
</svg>
